<?xml version="1.0" encoding="iso-8859-1"?>
<!-- Generator: Adobe Illustrator 19.0.0, SVG Export Plug-In . SVG Version: 6.00 Build 0)  -->
<svg version="1.1" id="Layer_1" xmlns="http://www.w3.org/2000/svg" xmlns:xlink="http://www.w3.org/1999/xlink" x="0px" y="0px"
	 viewBox="0 0 511.99 511.99" style="enable-background:new 0 0 511.99 511.99;" xml:space="preserve">
<g>
	<g>
		<path d="M415.988,383.993V277.331h-53.327v-106.67H287.99V85.334h-31.999h-32v85.327h-74.662v106.67H95.994v106.662H42.659V511.99
			h426.672V383.993H415.988z M394.661,298.666v15.617h-0.001c-5.625-3.25-10.515-7.789-14.233-13.383l-1.484-2.234H394.661z
			 M399.707,405.328l-1.484,2.234c-7.953,11.961-21.233,19.094-35.562,19.094c-14.329,0-27.625-7.133-35.562-19.094l-1.5-2.234
			H399.707z M341.333,191.996v15.609c-5.625-3.242-10.516-7.773-14.234-13.367l-1.5-2.242H341.333z M346.38,298.666l-1.484,2.234
			c-7.953,11.953-21.25,19.094-35.562,19.094c-14.328,0-27.625-7.141-35.577-19.094l-1.484-2.234H346.38z M245.327,106.662h21.328
			v63.999h-21.328V106.662z M293.052,191.996l-1.484,2.242c-7.953,11.953-21.257,19.093-35.577,19.093s-27.617-7.141-35.569-19.093
			l-1.485-2.242H293.052z M170.657,191.995h15.726v0.001l-1.492,2.242c-3.719,5.594-8.609,10.132-14.234,13.382V191.995z
			 M170.656,231.011c13.188-4.664,24.391-13.515,32-24.968c11.469,17.25,31.069,28.617,53.335,28.617
			c22.265,0,41.874-11.367,53.343-28.617c7.609,11.453,18.812,20.297,31.999,24.953v46.335H170.656V231.011z M239.71,298.666
			l-1.484,2.234c-7.953,11.953-21.241,19.094-35.569,19.094c-14.32,0-27.617-7.141-35.562-19.094l-1.492-2.234H239.71z
			 M117.33,298.665h15.718v0.001l-1.484,2.234c-3.727,5.594-8.617,10.125-14.234,13.367V298.665z M117.329,337.682
			c13.18-4.656,24.383-13.516,32-24.969c11.461,17.25,31.069,28.617,53.327,28.617c22.265,0,41.866-11.367,53.335-28.617
			c11.469,17.25,31.077,28.617,53.343,28.617c22.249,0,41.858-11.367,53.327-28.617c7.609,11.453,18.812,20.305,31.999,24.961
			v46.319H117.329V337.682z M293.053,405.328l-1.484,2.234c-7.953,11.961-21.257,19.094-35.577,19.094s-27.617-7.133-35.569-19.094
			l-1.484-2.234H293.053z M186.383,405.328l-1.492,2.234c-7.945,11.961-21.241,19.094-35.562,19.094
			c-14.328,0-27.625-7.133-35.57-19.094l-1.484-2.234H186.383z M63.995,405.327h15.718v0.001l-1.484,2.234
			c-3.719,5.594-8.617,10.125-14.234,13.367V405.327z M447.987,490.656H63.994v-0.001v-46.319c13.188-4.664,24.391-13.508,32-24.961
			c11.469,17.242,31.069,28.617,53.335,28.617c22.257,0,41.866-11.375,53.327-28.617c11.469,17.242,31.069,28.617,53.335,28.617
			c22.265,0,41.874-11.375,53.343-28.617c11.452,17.242,31.062,28.617,53.327,28.617c22.265,0,41.858-11.375,53.327-28.617
			c7.609,11.453,18.812,20.305,31.999,24.969V490.656z M447.988,420.937L447.988,420.937c-5.61-3.25-10.517-7.781-14.235-13.375
			l-1.484-2.234h15.719V420.937z"/>
	</g>
</g>
<g>
	<g>
		<path d="M255.991,0c0,0-32,35.655-32,53.335c0,17.671,14.328,32,32,32s31.999-14.329,31.999-32C287.99,35.655,255.991,0,255.991,0
			z M255.991,63.998c-5.758,0-10.461-4.585-10.664-10.296c0.234-1.016,1.812-6.727,10.664-19.351
			c8.852,12.625,10.43,18.335,10.664,19.351C266.452,59.413,261.749,63.998,255.991,63.998z"/>
	</g>
</g>
<g>
</g>
<g>
</g>
<g>
</g>
<g>
</g>
<g>
</g>
<g>
</g>
<g>
</g>
<g>
</g>
<g>
</g>
<g>
</g>
<g>
</g>
<g>
</g>
<g>
</g>
<g>
</g>
<g>
</g>
</svg>
