<?xml version="1.0" encoding="iso-8859-1"?>
<!-- Generator: Adobe Illustrator 19.0.0, SVG Export Plug-In . SVG Version: 6.00 Build 0)  -->
<svg version="1.1" id="Layer_1" xmlns="http://www.w3.org/2000/svg" xmlns:xlink="http://www.w3.org/1999/xlink" x="0px" y="0px"
	 viewBox="0 0 511.992 511.992" style="enable-background:new 0 0 511.992 511.992;" xml:space="preserve">
<g>
	<g>
		<path d="M376.367,129.84l28.969-23.18l-21.344-42.664h-64l-21.328,42.664l28.969,23.18c-26.609,4.062-51.047,14.68-71.641,30.148
			c-26.742-20.086-59.976-31.992-95.992-31.992c-88.367,0-160,71.633-160,160c0,88.375,71.633,160,160,160
			c36.016,0,69.258-11.906,96-32c26.742,20.094,59.977,32,95.992,32c88.375,0,160-71.625,160-160
			C511.992,207.91,453.164,141.574,376.367,129.84z M325.461,100.777l7.719-15.445h37.625l7.734,15.445l-26.547,21.234
			L325.461,100.777z M213.968,415.778c-17.085,7.218-35.242,10.874-53.968,10.874c-18.734,0-36.891-3.656-53.969-10.875
			c-16.516-6.984-31.344-16.984-44.086-29.719c-12.742-12.75-22.742-27.594-29.727-44.094c-7.227-17.078-10.891-35.25-10.891-53.969
			c0-18.727,3.664-36.891,10.891-53.969c6.984-16.508,16.984-31.344,29.727-44.086c12.743-12.742,27.57-22.742,44.086-29.727
			c17.078-7.219,35.234-10.883,53.969-10.883c18.727,0,36.883,3.664,53.969,10.883c9.008,3.812,17.516,8.531,25.453,14.094
			c-2.562,2.539-5.031,5.164-7.422,7.867c-6.953-4.742-14.352-8.805-22.172-12.109c-15.797-6.68-32.562-10.07-49.828-10.07
			c-17.273,0-34.039,3.391-49.836,10.07c-15.242,6.445-28.93,15.672-40.68,27.422s-20.969,25.43-27.422,40.68
			C35.382,253.956,32,270.722,32,287.995c0,17.281,3.383,34.031,10.062,49.828c6.453,15.25,15.672,28.922,27.422,40.672
			s25.438,20.984,40.68,27.438c15.797,6.672,32.562,10.063,49.836,10.063c17.266,0,34.031-3.391,49.828-10.062
			c15.242-6.453,28.93-15.688,40.68-27.438c11.742-11.75,20.977-25.422,27.422-40.672c6.688-15.797,10.062-32.547,10.062-49.828
			c0-17.273-3.375-34.039-10.062-49.828c-2.539-5.992-5.508-11.742-8.883-17.227c2.328-2.875,4.797-5.625,7.398-8.242
			c4.375,6.742,8.172,13.859,11.328,21.328c7.219,17.078,10.891,35.242,10.891,53.969c0,18.719-3.672,36.891-10.891,53.969
			c-6.984,16.5-16.984,31.344-29.727,44.094C245.304,398.793,230.476,408.793,213.968,415.778z M218.953,199.098
			c-17.023,25.43-26.953,56-26.953,88.898c0,32.906,9.938,63.469,26.961,88.891c-16.891,11.234-37.164,17.766-58.961,17.766
			c-58.914,0-106.672-47.75-106.672-106.656c0-58.914,47.758-106.664,106.672-106.664
			C181.797,181.332,202.062,187.871,218.953,199.098z M245.328,287.996c0-16.68,3.836-32.469,10.656-46.523
			c6.836,14.062,10.68,29.844,10.68,46.523c0,16.688-3.836,32.469-10.664,46.531C249.172,320.465,245.328,304.684,245.328,287.996z
			 M293.023,199.105c16.906-11.227,37.172-17.773,58.969-17.773c58.906,0,106.672,47.75,106.672,106.664
			c0,58.906-47.766,106.656-106.672,106.656c-21.797,0-42.062-6.531-58.953-17.75c17.016-25.438,26.953-56,26.953-88.906
			C319.992,255.098,310.055,224.527,293.023,199.105z M450.055,386.058c-12.75,12.734-27.578,22.734-44.094,29.719
			c-17.078,7.219-35.234,10.875-53.969,10.875c-18.719,0-36.875-3.656-53.969-10.875c-9-3.812-17.516-8.531-25.453-14.094
			c2.562-2.531,5.031-5.156,7.422-7.875c6.938,4.75,14.344,8.812,22.172,12.125c15.797,6.672,32.562,10.063,49.828,10.063
			c17.281,0,34.031-3.391,49.844-10.062c15.234-6.453,28.922-15.688,40.672-27.438c11.734-11.75,20.984-25.422,27.422-40.672
			c6.688-15.797,10.062-32.547,10.062-49.828c0-17.273-3.375-34.039-10.062-49.828c-6.438-15.242-15.688-28.93-27.422-40.68
			c-11.75-11.75-25.438-20.977-40.672-27.422c-15.812-6.68-32.562-10.07-49.844-10.07c-17.266,0-34.031,3.391-49.828,10.07
			c-15.234,6.445-28.93,15.672-40.68,27.422s-20.969,25.438-27.422,40.68C227.382,253.957,224,270.723,224,287.996
			c0,17.281,3.383,34.031,10.062,49.828c2.531,5.984,5.5,11.734,8.883,17.234c-2.328,2.875-4.797,5.625-7.398,8.234
			c-4.375-6.734-8.172-13.859-11.328-21.328c-7.227-17.078-10.891-35.25-10.891-53.969c0-18.727,3.664-36.891,10.891-53.969
			c6.984-16.508,16.984-31.344,29.727-44.086c12.743-12.742,27.578-22.742,44.078-29.727c17.094-7.219,35.25-10.883,53.969-10.883
			c18.734,0,36.891,3.664,53.969,10.883c16.516,6.984,31.344,16.984,44.094,29.727c12.734,12.742,22.734,27.578,29.719,44.086
			c7.219,17.078,10.891,35.242,10.891,53.969c0,18.719-3.672,36.891-10.891,53.969C472.789,358.465,462.789,373.308,450.055,386.058
			z"/>
	</g>
</g>
<g>
</g>
<g>
</g>
<g>
</g>
<g>
</g>
<g>
</g>
<g>
</g>
<g>
</g>
<g>
</g>
<g>
</g>
<g>
</g>
<g>
</g>
<g>
</g>
<g>
</g>
<g>
</g>
<g>
</g>
</svg>
