<svg enable-background="new 0 0 511.982 511.982" viewBox="0 0 511.982 511.982" xmlns="http://www.w3.org/2000/svg"><path d="m426.703 448.154c-1.655 0-3.202.375-4.593 1.047v-.016c-58.717 27.951-139.995 56.295-193.759 32.654-14.844-6.529-24.046-15.545-29.593-23.014h3.859c5.906 0 10.671-4.781 10.671-10.672v-42.686h10.422l31.749-222.054c20.063-19.398 32.546-46.592 32.546-76.708.001-58.925-47.764-106.705-106.699-106.705s-106.699 47.78-106.699 106.707c0 29.819 12.234 56.771 31.952 76.138l31.795 222.624h10.922v42.686c0 5.891 4.781 10.672 10.672 10.672h13.983c5.203 10.672 17.858 29.967 45.029 42.186 16.234 7.297 35.218 10.969 56.654 10.969 7.5 0 15.296-.438 23.374-1.344 37.827-4.203 82.341-18.406 132.292-42.17v-.016c3.595-1.72 6.095-5.376 6.095-9.626 0-5.891-4.781-10.672-10.672-10.672zm-309.427-293.434c-2.016 0-3.891.57-5.499 1.539-5.186-7.249-9.171-15.218-11.843-23.655 3.906-1.578 6.672-5.406 6.672-9.89 0-5.836-4.688-10.57-10.5-10.664-.109-1.773-.156-3.555-.156-5.344 0-22.804 8.875-44.24 24.999-60.357 2.328-2.336 4.766-4.508 7.313-6.523 1.109 4.695 5.328 8.195 10.358 8.195 5.891 0 10.672-4.781 10.672-10.671 0-3.281-1.484-6.211-3.813-8.172 11.094-5.125 23.249-7.835 35.827-7.835 12.577 0 24.733 2.711 35.826 7.835-2.328 1.961-3.813 4.891-3.813 8.172 0 5.89 4.766 10.671 10.672 10.671 5.031 0 9.25-3.5 10.359-8.195 2.547 2.016 4.983 4.188 7.312 6.523 16.125 16.117 25 37.553 25 60.357 0 1.789-.063 3.57-.172 5.344-5.813.094-10.5 4.828-10.5 10.664 0 4.484 2.766 8.312 6.688 9.89-2.672 8.437-6.656 16.406-11.844 23.655-1.609-.969-3.5-1.539-5.516-1.539-5.891 0-10.655 4.781-10.655 10.671 0 2.344.75 4.5 2.031 6.266-4.359 3.734-9.047 6.992-14 9.742h-82.778c-4.952-2.75-9.64-6.008-14.015-9.742 1.281-1.766 2.047-3.922 2.047-6.266 0-5.89-4.766-10.671-10.672-10.671zm39.594 229.405-25.905-181.383h100.184l-25.937 181.383zm35.092 32.015c-5.89.016-10.655 4.781-10.655 10.67 0 5.891 4.766 10.656 10.655 10.672h-21.327c5.891 0 10.672-4.781 10.672-10.672 0-5.889-4.781-10.67-10.672-10.67h-.016v-10.672h21.343z"/><path d="m181.306 26.679c-5.891 0-10.672 4.781-10.672 10.672.001 5.889 4.782 10.671 10.672 10.671 5.891 0 10.671-4.781 10.671-10.671 0-5.891-4.78-10.672-10.671-10.672z"/><path d="m117.277 69.357c-5.89 0-10.671 4.781-10.671 10.671 0 5.899 4.781 10.671 10.671 10.671 5.906 0 10.672-4.773 10.672-10.671 0-5.89-4.766-10.671-10.672-10.671z"/><path d="m159.964 69.357c-5.891 0-10.672 4.781-10.672 10.671 0 5.899 4.781 10.671 10.672 10.671 5.89 0 10.671-4.773 10.671-10.671 0-5.89-4.781-10.671-10.671-10.671z"/><path d="m202.649 69.357c-5.891 0-10.672 4.781-10.672 10.671 0 5.899 4.782 10.671 10.672 10.671 5.891 0 10.671-4.773 10.671-10.671 0-5.89-4.78-10.671-10.671-10.671z"/><path d="m245.319 69.357c-5.891 0-10.655 4.781-10.655 10.671 0 5.899 4.765 10.671 10.655 10.671 5.906 0 10.672-4.773 10.672-10.671 0-5.89-4.766-10.671-10.672-10.671z"/><path d="m138.62 112.044c-5.89 0-10.671 4.773-10.671 10.671 0 5.889 4.781 10.671 10.671 10.671 5.891 0 10.672-4.781 10.672-10.671 0-5.898-4.781-10.671-10.672-10.671z"/><path d="m181.306 112.043c-5.891 0-10.672 4.773-10.672 10.671 0 5.89 4.781 10.671 10.672 10.671s10.671-4.781 10.671-10.671c0-5.898-4.78-10.671-10.671-10.671z"/><path d="m223.992 112.044c-5.906 0-10.672 4.773-10.672 10.671 0 5.889 4.766 10.671 10.672 10.671 5.891 0 10.672-4.781 10.672-10.671 0-5.898-4.781-10.671-10.672-10.671z"/><path d="m159.964 154.72c-5.891 0-10.672 4.781-10.672 10.671 0 5.891 4.781 10.671 10.672 10.671 5.89 0 10.671-4.781 10.671-10.671 0-5.889-4.782-10.671-10.671-10.671z"/><path d="m202.649 154.72c-5.891 0-10.672 4.781-10.672 10.671 0 5.891 4.781 10.671 10.672 10.671s10.671-4.781 10.671-10.671c0-5.889-4.78-10.671-10.671-10.671z"/><path d="m191.978 277.425h-.016v-21.342c0-5.89-4.78-10.663-10.671-10.663s-10.672 4.773-10.672 10.663v21.342c-5.891 0-10.671 4.781-10.671 10.672s4.78 10.672 10.671 10.672v21.344c0 5.889 4.781 10.67 10.672 10.67s10.671-4.781 10.671-10.67v-21.344h.016c5.906 0 10.672-4.781 10.672-10.672s-4.766-10.672-10.672-10.672z"/></svg>