<svg enable-background="new 0 0 511.992 511.992" viewBox="0 0 511.992 511.992" xmlns="http://www.w3.org/2000/svg"><path d="m404.926 327.104c0-27.68-13.5-76.249-22.733-98.811-15.25-37.296 0-100.295 0-100.295h-24.016l36.671-114.068c.328-1.031.516-2.125.516-3.266 0-5.89-4.781-10.664-10.671-10.664-4.75 0-8.781 3.109-10.156 7.406v-.007l-.016.039c0 .031-.016.062-.031.094l-38.719 120.467h-47.077-22.397c-14.75-25.46-42.312-42.601-73.905-42.601-47.124 0-85.326 38.147-85.326 85.202h94.357c1.297 19.07.594 40.968-6.25 57.694-9.219 22.562-22.719 71.131-22.719 98.811 0 64.882 46.375 95.975 105.568 99.256v64.296h-53.335c-5.89 0-10.671 4.781-10.671 10.672s4.781 10.663 10.671 10.663h128.006c5.891 0 10.672-4.772 10.672-10.663s-4.781-10.672-10.672-10.672h-53.328v-64.296c59.187-3.282 105.561-34.375 105.561-99.257zm-272.863-177.833c2.016-5.64 4.797-10.914 8.219-15.695l15.703 15.695zm49.671-4.421-26.343-26.328c7.703-5.468 16.655-9.265 26.343-10.898zm169.583 4.484h5.391c-.531 4-1.047 8.312-1.469 12.844-2.766 29.632-.547 53.999 6.562 72.483h-37.922zm-62.623 0h40.217l-27.437 85.327h-85.896c7.108-18.484 9.327-42.851 6.562-72.483-.422-4.531-.938-8.844-1.483-12.844zm-85.631-41.71c9.687 1.633 18.639 5.43 26.327 10.898l-9.483 9.477h-16.844zm85.63 297.705c-28.741 0-52.647-6.758-69.131-19.538-17.109-13.25-25.781-32.999-25.781-58.687 0-17.898 7.062-48.202 14.234-71.108h161.349c7.172 22.906 14.234 53.209 14.234 71.108 0 25.688-8.672 45.437-25.781 58.687-16.5 12.78-40.39 19.538-69.124 19.538z"/><path d="m363.364 341.331c-5.906 0-10.672 4.773-10.672 10.664s4.766 10.664 10.672 10.664c5.875 0 10.656-4.773 10.656-10.664s-4.781-10.664-10.656-10.664z"/><path d="m341.802 298.659c-5.891 0-10.672 4.781-10.672 10.672s4.781 10.664 10.672 10.664 10.672-4.773 10.672-10.664-4.781-10.672-10.672-10.672z"/></svg>