<?xml version="1.0" encoding="iso-8859-1"?>
<!-- Generator: Adobe Illustrator 19.0.0, SVG Export Plug-In . SVG Version: 6.00 Build 0)  -->
<svg version="1.1" id="Layer_1" xmlns="http://www.w3.org/2000/svg" xmlns:xlink="http://www.w3.org/1999/xlink" x="0px" y="0px"
	 viewBox="0 0 511.968 511.968" style="enable-background:new 0 0 511.968 511.968;" xml:space="preserve">
<g>
	<g>
		<path d="M159.536,3.125c-4.172-4.164-10.922-4.164-15.093,0c-2.078,2.077-3.125,4.812-3.125,7.538v95.994h-21.327V10.663
			c0-2.727-1.047-5.461-3.125-7.538c-4.155-4.164-10.921-4.164-15.077,0c-2.093,2.077-3.124,4.812-3.124,7.538v95.994H77.323V10.663
			c0-2.727-1.031-5.461-3.125-7.538c-4.156-4.164-10.921-4.164-15.077,0c-2.094,2.085-3.125,4.812-3.125,7.546v95.986v63.996
			c0,0,14.046,11.233,31.936,17.397l0.062,25.271c0,0-21.326,191.996-21.326,255.992c0,21.312,10.655,42.654,42.653,42.654
			c31.998,0,42.669-21.342,42.669-42.654c0-63.996-21.326-255.992-21.326-255.992l-0.016-25.248
			c17.92-6.156,32.014-17.421,32.014-17.421v-61.434V10.663C162.661,7.936,161.615,5.202,159.536,3.125z M130.664,469.314
			c0,6.703-1.562,12.281-4.391,15.656c-3.125,3.766-8.828,5.656-16.952,5.656c-8.109,0-13.812-1.891-16.937-5.656
			c-2.828-3.391-4.391-8.953-4.391-15.656c0-62.09,20.983-251.734,21.202-253.641l0.125-1.18v0.016l0.141,1.164
			C109.665,217.58,130.664,407.224,130.664,469.314z M141.319,159.451c-8.484,5.179-21.03,11.202-31.998,11.202
			c-10.952,0-23.499-6.023-31.998-11.202v-31.459h63.996V159.451z"/>
	</g>
</g>
<g>
	<g>
		<path d="M333.307,115.196C333.307,62.175,304.669,0,269.311,0c-35.342,0-63.996,62.176-63.996,115.196
			c0,41.755,17.78,65.37,42.606,73.519l0.063,24.607c0,0-21.326,191.996-21.326,255.992c0,21.312,10.655,42.654,42.653,42.654
			c31.998,0,42.669-21.342,42.669-42.654c0-63.996-21.326-255.992-21.326-255.992l-0.016-24.584
			C315.495,180.613,333.307,156.99,333.307,115.196z M290.654,469.314c0,6.703-1.562,12.266-4.391,15.656
			c-3.125,3.766-8.828,5.656-16.952,5.656c-8.108,0-13.812-1.891-16.937-5.656c-2.828-3.375-4.391-8.953-4.391-15.656
			c0-62.09,20.999-251.734,21.202-253.641l0.125-1.18v0.016l0.141,1.164C269.655,217.58,290.654,407.224,290.654,469.314z
			 M298.873,159.021c-7.109,7.718-17.047,11.632-29.562,11.632c-12.499,0-22.437-3.914-29.561-11.632
			c-8.562-9.312-13.093-24.46-13.093-43.825c0-22.772,6.093-48.044,16.312-67.605c10.124-19.382,20.515-26.257,26.342-26.257
			c5.828,0,16.218,6.875,26.343,26.257c10.233,19.562,16.326,44.833,16.326,67.605C311.98,134.561,307.45,149.709,298.873,159.021z"
			/>
	</g>
</g>
<g>
	<g>
		<path d="M441.707,277.17c5.062-0.844,8.938-5.227,8.938-10.521c0-5.891-4.781-10.664-10.672-10.664h-0.016h-0.016l0.031-249.017
			c0,0-6.437-6.921-15.217-6.921c-18.938,0-48.779,32.092-48.779,234.603l21.187,21.334h0.141c-5.89,0-10.655,4.773-10.655,10.664
			c0,5.256,3.797,9.615,8.812,10.49c-5.484,54.84-14.156,148.43-14.156,192.176c0,21.312,12.703,42.654,37.342,42.654
			c24.623,0,37.326-21.342,37.326-42.654C455.972,425.568,447.238,332.009,441.707,277.17z M409.912,62.464
			c2.969-13.491,6.031-22.694,8.719-28.928l-0.016,201.112h-12.578l-8.702-8.772C397.647,154.154,401.881,99.213,409.912,62.464z
			 M429.739,485.502c-2.733,3.5-6.265,5.125-11.093,5.125c-4.828,0-8.359-1.625-11.109-5.125c-3.062-3.938-4.89-9.984-4.89-16.188
			c0-43.184,8.796-137.756,14.233-191.988h3.406c5.469,54.232,14.358,148.805,14.358,191.988
			C434.645,475.517,432.801,481.564,429.739,485.502z"/>
	</g>
</g>
<g>
</g>
<g>
</g>
<g>
</g>
<g>
</g>
<g>
</g>
<g>
</g>
<g>
</g>
<g>
</g>
<g>
</g>
<g>
</g>
<g>
</g>
<g>
</g>
<g>
</g>
<g>
</g>
<g>
</g>
</svg>
