<?xml version="1.0" standalone="no"?>
<!DOCTYPE svg PUBLIC "-//W3C//DTD SVG 1.1//EN" "http://www.w3.org/Graphics/SVG/1.1/DTD/svg11.dtd" >
<svg xmlns="http://www.w3.org/2000/svg" xmlns:xlink="http://www.w3.org/1999/xlink" version="1.1">
<metadata>
Created by FontForge 20170731 at Wed Jul 22 17:39:44 2020
 By Aleksey,,,
Copyright (c) 2016 by Mattox Shuler. All rights reserved.
</metadata>
<defs>
<font id="Rift-Medium" horiz-adv-x="917" >
  <font-face 
    font-family="Rift Medium"
    font-weight="500"
    font-stretch="normal"
    units-per-em="2048"
    panose-1="0 0 6 0 0 0 0 0 0 0"
    ascent="1597"
    descent="-451"
    x-height="1434"
    cap-height="1434"
    bbox="-403 -578 1618 2163"
    underline-thickness="102"
    underline-position="-307"
    unicode-range="U+0020-2260"
  />
<missing-glyph horiz-adv-x="1024" 
d="M840 1597v-2048h-650v2048h650zM682 1460h-338v-67h133v-76h-135v-68h340v68h-135v76h135v67zM547 1196h-205v-213h340v70h-135v143zM477 1126v-73h-67v73h67zM682 928h-340v-68h135v-76h-135v-67h205v143h135v68zM682 805h-68v-135h-272v-70h340v205zM682 555h-205v-115
h70v47h67v-96h-204v164h-68v-231h340v231zM682 201h-340v-232h340v232zM614 133v-96h-204v96h204zM682 -78h-340v-67h143l-143 -97v-67h340v67h-209l143 97h66v67z" />
    <glyph glyph-name=".notdef" horiz-adv-x="1024" 
d="M840 1597v-2048h-650v2048h650zM682 1460h-338v-67h133v-76h-135v-68h340v68h-135v76h135v67zM547 1196h-205v-213h340v70h-135v143zM477 1126v-73h-67v73h67zM682 928h-340v-68h135v-76h-135v-67h205v143h135v68zM682 805h-68v-135h-272v-70h340v205zM682 555h-205v-115
h70v47h67v-96h-204v164h-68v-231h340v231zM682 201h-340v-232h340v232zM614 133v-96h-204v96h204zM682 -78h-340v-67h143l-143 -97v-67h340v67h-209l143 97h66v67z" />
    <glyph glyph-name=".null" horiz-adv-x="0" 
 />
    <glyph glyph-name="nonmarkingreturn" horiz-adv-x="682" 
 />
    <glyph glyph-name="space" unicode=" " horiz-adv-x="327" 
 />
    <glyph glyph-name="exclam" unicode="!" horiz-adv-x="364" 
d="M256 1434v-220l-16 -874h-115l-19 872v222h150zM258 182v-182h-152v182h152z" />
    <glyph glyph-name="quotedbl" unicode="&#x22;" horiz-adv-x="600" 
d="M293 1434l-150 -531h-90l90 531h150zM567 1434l-149 -531h-90l90 531h149z" />
    <glyph glyph-name="numbersign" unicode="#" horiz-adv-x="1224" 
d="M1192 885h-260l-76 -336h254v-119h-281l-98 -430h-129l98 430h-305l-98 -430h-129l98 430h-233v119h260l76 336h-254v119h280l99 430h129l-99 -430h305l99 430h129l-99 -430h234v-119zM727 549l76 336h-305l-76 -336h305z" />
    <glyph glyph-name="dollar" unicode="$" horiz-adv-x="856" 
d="M578 731q90 -49 137 -110.5t47 -147.5v-190q0 -271 -264 -295v-148h-136v146q-132 14 -198 86t-66 211v237h146v-205q0 -102 44.5 -151t141.5 -49t141.5 49t44.5 151v115q0 69 -29 107t-106 81l-200 111q-99 56 -141 110t-42 144v172q0 130 69.5 203.5t194.5 87.5v147
h136v-147q122 -15 191 -88.5t69 -202.5v-221h-146v188q0 103 -43.5 150t-140.5 47t-140.5 -47t-43.5 -150v-100q0 -69 26 -102.5t103 -75.5z" />
    <glyph glyph-name="percent" unicode="%" horiz-adv-x="1046" 
d="M272 1442q68 0 116 -43.5t48 -130.5v-262q0 -88 -48 -131.5t-116 -43.5h-32q-71 0 -118.5 43.5t-47.5 131.5v262q0 88 47.5 131t118.5 43h32zM911 1434l-675 -1434h-101l676 1434h100zM340 1247q0 56 -18 80.5t-56 24.5h-22q-38 0 -56 -24.5t-18 -80.5v-221q0 -56 18 -80
t56 -24h22q38 0 56 24t18 80v221zM809 602q68 0 116 -43.5t48 -130.5v-262q0 -87 -48 -130.5t-116 -43.5h-33q-71 0 -118.5 43t-47.5 131v262q0 88 47.5 131t118.5 43h33zM877 408q0 56 -18 80t-56 24h-23q-38 0 -55.5 -24t-17.5 -80v-222q0 -56 17.5 -80t55.5 -24h23
q38 0 56 24t18 80v222z" />
    <glyph glyph-name="ampersand" unicode="&#x26;" horiz-adv-x="948" 
d="M944 0h-153l-95 133q-81 -149 -288 -149h-15q-154 0 -224.5 78t-70.5 208v320q0 83 28.5 144t78.5 91q-46 68 -65 121.5t-19 120.5v88q0 150 80.5 222.5t244.5 72.5h5q328 0 325 -295v-192h-141v163q0 104 -47.5 149.5t-136.5 45.5q-90 0 -137.5 -45.5t-47.5 -149.5v-55
q0 -57 18.5 -99t92.5 -149l266 -387l82 346h139l-116 -497zM418 109q76 0 117.5 36.5t66.5 122.5l-323 467q-35 -47 -35 -117v-294q0 -111 42 -163t132 -52z" />
    <glyph glyph-name="quotesingle" unicode="'" horiz-adv-x="325" 
d="M293 1434l-150 -531h-90l90 531h150z" />
    <glyph glyph-name="parenleft" unicode="(" horiz-adv-x="565" 
d="M463 1403q-99 0 -147 -47t-48 -164v-950q0 -112 46 -161.5t149 -49.5h45v-129h-45q-336 0 -336 303v1024q0 303 336 303h45v-129h-45z" />
    <glyph glyph-name="parenright" unicode=")" horiz-adv-x="565" 
d="M102 1403h-45v129h45q336 0 336 -303v-1024q0 -303 -336 -303h-45v129h45q103 0 149 49.5t46 161.5v950q0 117 -48 164t-147 47z" />
    <glyph glyph-name="asterisk" unicode="*" horiz-adv-x="675" 
d="M397 1143l154 -174l-94 -72l-119 201l-119 -199l-92 72l154 172l-230 51l35 109l217 -93l-24 232h120l-24 -232l215 93l35 -109z" />
    <glyph glyph-name="plus" unicode="+" horiz-adv-x="860" 
d="M754 791v-117h-265v-266h-116v266h-267v117h267v264h116v-264h265z" />
    <glyph glyph-name="comma" unicode="," horiz-adv-x="339" 
d="M246 182v-135q0 -168 -88 -299l-60 31q26 42 44.5 104.5t21.5 116.5h-70v182h152z" />
    <glyph glyph-name="hyphen" unicode="-" horiz-adv-x="565" 
d="M512 795v-123h-459v123h459z" />
    <glyph glyph-name="period" unicode="." horiz-adv-x="339" 
d="M246 182v-182h-152v182h152z" />
    <glyph glyph-name="slash" unicode="/" horiz-adv-x="653" 
d="M629 1532l-473 -1630h-131l473 1630h131z" />
    <glyph glyph-name="zero" unicode="0" horiz-adv-x="892" 
d="M455 1450q155 0 237 -75.5t82 -227.5v-860q0 -152 -82 -227.5t-237 -75.5h-17q-155 0 -237 75.5t-82 227.5v860q0 152 82 227.5t237 75.5h17zM631 1110q0 110 -45.5 158.5t-139.5 48.5t-139 -48.5t-45 -158.5v-786q0 -110 45 -158.5t139 -48.5t139.5 48.5t45.5 158.5v786
z" />
    <glyph glyph-name="one" unicode="1" horiz-adv-x="444" 
d="M291 0h-144v1300q51 60 64 134h80v-1434z" />
    <glyph glyph-name="two" unicode="2" horiz-adv-x="811" 
d="M98 948v207q0 295 312 295h4q311 0 311 -295v-203q0 -22 -4.5 -43t-9 -38t-18 -38.5t-20.5 -34t-28.5 -35t-30 -32t-37 -34t-37.5 -32t-42.5 -35t-42.5 -34.5q-60 -50 -94.5 -82t-65.5 -70t-44 -74t-13 -77v-166h487v-127h-631v297q0 53 16 102t38.5 86t64 80.5t75.5 72
t91 73.5q51 41 72.5 58.5t54 47.5t44.5 49.5t22 46t10 54.5v163q0 193 -174 193q-85 0 -126.5 -47t-41.5 -146v-182h-142z" />
    <glyph glyph-name="three" unicode="3" horiz-adv-x="821" 
d="M723 971q0 -205 -150 -226q48 -9 80 -31t46 -53.5t19 -59t5 -62.5v-252q0 -144 -73 -223.5t-218 -79.5h-55q-145 0 -218 79.5t-73 223.5v180h143v-156q0 -200 168 -200h15q168 0 168 200v224q0 143 -160 143h-156v127h135q93 0 137 37.5t44 126.5v153q0 201 -168 201h-19
q-168 0 -168 -201v-123h-139v148q0 303 311 303h15q311 0 311 -303v-176z" />
    <glyph glyph-name="four" unicode="4" horiz-adv-x="774" 
d="M629 1434v-938h116v-131h-116v-365h-144v365h-456v137l426 932h174zM485 1237l-333 -741h333v741z" />
    <glyph glyph-name="five" unicode="5" horiz-adv-x="839" 
d="M729 1305h-467v-465q75 94 217 94q54 0 99.5 -13t84 -41.5t60.5 -80.5t22 -123v-397q0 -295 -315 -295h-4q-315 0 -315 295v208h141v-184q0 -99 43 -145.5t133 -46.5q88 0 131 46.5t43 145.5v346q0 90 -40.5 123t-104.5 33q-71 0 -116.5 -28.5t-78.5 -80.5l-143 39v699
h610v-129z" />
    <glyph glyph-name="six" unicode="6" horiz-adv-x="860" 
d="M737 1020h-143v110q0 107 -38.5 150t-127.5 43t-127.5 -43t-38.5 -150v-344q56 86 203 86q129 0 207 -68.5t78 -203.5v-321q0 -151 -76 -223t-238 -72h-4q-162 0 -237.5 72t-75.5 223v876q0 152 73 223.5t234 71.5h4q161 0 234 -71.5t73 -223.5v-135zM434 743
q-77 0 -124.5 -42t-47.5 -128v-270q0 -106 41 -149t131 -43t131 43t41 149v270q0 170 -172 170z" />
    <glyph glyph-name="seven" unicode="7" horiz-adv-x="706" 
d="M639 1325l-326 -1325h-143l322 1305h-457v129h604v-109z" />
    <glyph glyph-name="eight" unicode="8" horiz-adv-x="841" 
d="M453 1450q145 0 217.5 -79.5t72.5 -223.5v-176q0 -208 -149 -226q149 -25 149 -247v-211q0 -144 -72.5 -223.5t-217.5 -79.5h-64q-145 0 -218 79.5t-73 223.5v211q0 221 150 247q-150 19 -150 226v176q0 144 73 223.5t218 79.5h64zM600 969v153q0 103 -43 152t-117 49
h-39q-74 0 -116.5 -49t-42.5 -152v-153q0 -164 159 -164h39q160 0 160 164zM600 311v203q0 164 -160 164h-39q-159 0 -159 -164v-203q0 -103 42.5 -151.5t116.5 -48.5h39q74 0 117 48.5t43 151.5z" />
    <glyph glyph-name="nine" unicode="9" horiz-adv-x="860" 
d="M123 414h143v-111q0 -107 38.5 -149.5t127.5 -42.5t127.5 42.5t38.5 149.5v344q-56 -86 -203 -86q-129 0 -206.5 68.5t-77.5 204.5v321q0 151 75.5 223t237.5 72h4q162 0 237.5 -72t75.5 -223v-876q0 -152 -73 -223.5t-234 -71.5h-4q-161 0 -234 71.5t-73 223.5v135z
M426 690q77 0 124.5 42t47.5 128v270q0 106 -41 149.5t-131 43.5t-131 -43.5t-41 -149.5v-270q0 -170 172 -170z" />
    <glyph glyph-name="colon" unicode=":" horiz-adv-x="339" 
d="M246 946v-182h-152v182h152zM246 182v-182h-152v182h152z" />
    <glyph glyph-name="semicolon" unicode=";" horiz-adv-x="339" 
d="M246 946v-182h-152v182h152zM246 182v-135q0 -168 -88 -299l-60 31q26 42 44.5 104.5t21.5 116.5h-70v182h152z" />
    <glyph glyph-name="less" unicode="&#x3c;" horiz-adv-x="860" 
d="M700 1061v158l-569 -420v-135l569 -420v157l-458 330z" />
    <glyph glyph-name="equal" unicode="=" horiz-adv-x="860" 
d="M754 963v-119h-648v119h648zM754 623v-119h-648v119h648z" />
    <glyph glyph-name="greater" unicode="&#x3e;" horiz-adv-x="860" 
d="M160 1061l458 -330l-458 -330v-157l569 420v135l-569 420v-158z" />
    <glyph glyph-name="question" unicode="?" horiz-adv-x="782" 
d="M322 342v213q0 75 32.5 139.5t104.5 128.5q50 42 76 84t26 97v126q0 105 -43 149t-131 44q-87 0 -127.5 -43.5t-40.5 -149.5v-196h-141v221q0 152 74.5 223.5t236.5 71.5h4q162 0 237 -71.5t75 -223.5v-168q0 -47 -12 -87t-36.5 -72.5t-44 -52.5t-51.5 -46
q-63 -49 -90 -100t-27 -131v-156h-122zM459 182v-182h-152v182h152z" />
    <glyph glyph-name="at" unicode="@" horiz-adv-x="1292" 
d="M825 1450q168 0 258.5 -74.5t90.5 -228.5v-653q0 -156 -60.5 -230t-157.5 -74q-64 0 -102.5 29.5t-48.5 71.5q-10 -49 -67 -81t-122 -32h-4q-83 0 -149 52t-66 157v504q0 100 64 154.5t153 54.5h4q60 0 107.5 -26.5t60.5 -67.5l27 81h80v-688q0 -114 78 -114
q48 0 74 51.5t26 138.5v690q0 92 -60 140.5t-159 48.5h-412q-99 0 -160 -48.5t-61 -140.5v-977q0 -92 61 -140t160 -48h494v-96h-479q-336 0 -336 303v940q0 154 90 228.5t258 74.5h358zM774 424v430q0 68 -35.5 103.5t-93.5 35.5q-59 0 -95 -35.5t-36 -103.5v-430
q0 -68 36 -103.5t95 -35.5q58 0 93.5 35.5t35.5 103.5z" />
    <glyph glyph-name="A" unicode="A" horiz-adv-x="868" 
d="M676 0l-72 354h-348l-72 -354h-143l303 1434h176l307 -1434h-151zM281 483h299l-150 746z" />
    <glyph glyph-name="B" unicode="B" horiz-adv-x="903" 
d="M797 971q0 -39 -8 -74.5t-25 -69.5t-49.5 -56t-77.5 -26q91 -14 129.5 -77.5t38.5 -149.5v-235q0 -129 -86.5 -206t-245.5 -77h-346v1434h350q158 0 239 -76t81 -207v-180zM274 1303v-496h199q176 0 176 145v166q0 94 -41.5 139.5t-134.5 45.5h-199zM657 530
q0 146 -176 146h-207v-545h207q93 0 134.5 45t41.5 139v215z" />
    <glyph glyph-name="C" unicode="C" horiz-adv-x="905" 
d="M795 571v-284q0 -303 -336 -303h-4q-336 0 -336 303v860q0 150 86 226.5t250 76.5h4q164 0 250 -76.5t86 -226.5v-250h-148v213q0 110 -44.5 158.5t-145.5 48.5t-146 -48.5t-45 -158.5v-786q0 -110 45 -158.5t146 -48.5t145.5 48.5t44.5 158.5v247h148z" />
    <glyph glyph-name="D" unicode="D" horiz-adv-x="923" 
d="M469 1434q165 0 250.5 -76t85.5 -228v-827q0 -303 -336 -303h-342v1434h342zM657 1094q0 111 -46 158.5t-150 47.5h-187v-1167h187q104 0 150 48t46 159v754z" />
    <glyph glyph-name="E" unicode="E" horiz-adv-x="790" 
d="M713 0h-586v1434h580v-134h-433v-507h369v-131h-369v-529h439v-133z" />
    <glyph glyph-name="F" unicode="F" horiz-adv-x="743" 
d="M127 0v1434h571v-134h-424v-518h361v-131h-361v-651h-147z" />
    <glyph glyph-name="G" unicode="G" horiz-adv-x="921" 
d="M807 719v-432q0 -303 -336 -303h-16q-336 0 -336 303v860q0 150 86 226.5t250 76.5h16q164 0 250 -76.5t86 -226.5v-193h-148v156q0 111 -46 159t-150 48t-150.5 -48t-46.5 -159v-786q0 -111 46.5 -159t150.5 -48t150 48t46 159v264h-204v131h352z" />
    <glyph glyph-name="H" unicode="H" horiz-adv-x="952" 
d="M127 1434h147v-637h404v637h147v-1434h-147v662h-404v-662h-147v1434z" />
    <glyph glyph-name="I" unicode="I" horiz-adv-x="415" 
d="M283 0h-148v1434h148v-1434z" />
    <glyph glyph-name="J" unicode="J" horiz-adv-x="565" 
d="M98 135q104 0 151.5 48.5t47.5 160.5v1090h147v-1131q0 -303 -342 -303h-65v135h61z" />
    <glyph glyph-name="K" unicode="K" horiz-adv-x="880" 
d="M860 0h-153l-271 739l-162 -278v-461h-147v1434h147v-738l402 738h160l-310 -537z" />
    <glyph glyph-name="L" unicode="L" horiz-adv-x="718" 
d="M682 135v-135h-555v1434h147v-1299h408z" />
    <glyph glyph-name="M" unicode="M" horiz-adv-x="1218" 
d="M948 1073l-301 -840h-82l-301 840v-1073h-137v1434h141l336 -949l340 949h148v-1434h-144v1073z" />
    <glyph glyph-name="N" unicode="N" horiz-adv-x="960" 
d="M264 0h-137v1434h149l420 -1088v1088h138v-1434h-142l-428 1108v-1108z" />
    <glyph glyph-name="O" unicode="O" horiz-adv-x="925" 
d="M119 1147q0 303 336 303h16q336 0 336 -303v-860q0 -303 -336 -303h-16q-336 0 -336 303v860zM266 324q0 -111 46.5 -159t150.5 -48t150 48t46 159v786q0 111 -46 159t-150 48t-150.5 -48t-46.5 -159v-786z" />
    <glyph glyph-name="P" unicode="P" horiz-adv-x="882" 
d="M473 1434q165 0 250.5 -76t85.5 -228v-239q0 -303 -336 -303h-199v-588h-147v1434h346zM662 928v166q0 111 -46.5 158.5t-150.5 47.5h-191v-579h191q104 0 150.5 48t46.5 159z" />
    <glyph glyph-name="Q" unicode="Q" horiz-adv-x="925" 
d="M471 1450q336 0 336 -303v-860q0 -271 -270 -299v-191h-140v189q-278 25 -278 301v860q0 303 336 303h16zM659 324v786q0 111 -46 159t-150 48t-150.5 -48t-46.5 -159v-786q0 -111 46.5 -159t150.5 -48t150 48t46 159z" />
    <glyph glyph-name="R" unicode="R" horiz-adv-x="923" 
d="M858 0h-153l-220 604h-12h-199v-604h-147v1434h346q165 0 250.5 -76t85.5 -228v-223q0 -220 -182 -280zM274 1300v-565h191q104 0 150.5 48t46.5 159v152q0 111 -46.5 158.5t-150.5 47.5h-191z" />
    <glyph glyph-name="S" unicode="S" horiz-adv-x="856" 
d="M758 934h-146v188q0 103 -43.5 150t-140.5 47t-140.5 -47t-43.5 -150v-100q0 -69 26 -102.5t103 -75.5l205 -113q90 -49 137 -110.5t47 -147.5v-190q0 -154 -82.5 -226.5t-247.5 -72.5h-4q-166 0 -248 71.5t-82 227.5v237h146v-205q0 -102 44.5 -151t141.5 -49t141.5 49
t44.5 151v115q0 69 -29 107t-106 81l-200 111q-99 56 -141 110t-42 144v172q0 146 87.5 220.5t240.5 74.5h4q153 0 240.5 -74.5t87.5 -220.5v-221z" />
    <glyph glyph-name="T" unicode="T" horiz-adv-x="733" 
d="M702 1434v-134h-262v-1300h-147v1300h-260v134h669z" />
    <glyph glyph-name="U" unicode="U" 
d="M795 1434v-1147q0 -303 -332 -303h-8q-165 0 -248.5 73.5t-83.5 229.5v1147h147v-1110q0 -113 43 -160t146 -47t145.5 47t42.5 160v1110h148z" />
    <glyph glyph-name="V" unicode="V" horiz-adv-x="835" 
d="M795 1434l-297 -1434h-160l-297 1434h152l229 -1184l229 1184h144z" />
    <glyph glyph-name="W" unicode="W" horiz-adv-x="1314" 
d="M1270 1434l-236 -1434h-143l-232 1149l-231 -1149h-147l-236 1434h148l172 -1155l227 1155h139l227 -1155l172 1155h140z" />
    <glyph glyph-name="X" unicode="X" horiz-adv-x="841" 
d="M778 1434l-268 -701l299 -733h-158l-233 602l-232 -602h-153l303 739l-281 695h158l213 -564l199 564h153z" />
    <glyph glyph-name="Y" unicode="Y" horiz-adv-x="847" 
d="M498 545v-545h-148v545l-309 889h154l229 -721l231 721h152z" />
    <glyph glyph-name="Z" unicode="Z" horiz-adv-x="743" 
d="M692 127v-127h-639v106l467 1201h-442v127h600v-107l-467 -1200h481z" />
    <glyph glyph-name="bracketleft" unicode="[" horiz-adv-x="565" 
d="M268 1401v-1368h240v-131h-381v1630h381v-131h-240z" />
    <glyph glyph-name="backslash" unicode="\" horiz-adv-x="653" 
d="M25 1532h131l473 -1630h-131z" />
    <glyph glyph-name="bracketright" unicode="]" horiz-adv-x="565" 
d="M297 1401h-240v131h381v-1630h-381v131h240v1368z" />
    <glyph glyph-name="asciicircum" unicode="^" horiz-adv-x="770" 
d="M180 741l205 555l205 -555h139l-268 693h-152l-268 -693h139z" />
    <glyph glyph-name="underscore" unicode="_" horiz-adv-x="698" 
d="M709 -113v-112h-719v112h719z" />
    <glyph glyph-name="grave" unicode="`" horiz-adv-x="927" 
d="M451 1810l141 -264h-115l-209 264h183z" />
    <glyph glyph-name="a" unicode="a" horiz-adv-x="868" 
d="M676 0l-72 354h-348l-72 -354h-143l303 1434h176l307 -1434h-151zM281 483h299l-150 746z" />
    <glyph glyph-name="b" unicode="b" horiz-adv-x="903" 
d="M797 971q0 -39 -8 -74.5t-25 -69.5t-49.5 -56t-77.5 -26q91 -14 129.5 -77.5t38.5 -149.5v-235q0 -129 -86.5 -206t-245.5 -77h-346v1434h350q158 0 239 -76t81 -207v-180zM274 1303v-496h199q176 0 176 145v166q0 94 -41.5 139.5t-134.5 45.5h-199zM657 530
q0 146 -176 146h-207v-545h207q93 0 134.5 45t41.5 139v215z" />
    <glyph glyph-name="c" unicode="c" horiz-adv-x="905" 
d="M795 571v-284q0 -303 -336 -303h-4q-336 0 -336 303v860q0 150 86 226.5t250 76.5h4q164 0 250 -76.5t86 -226.5v-250h-148v213q0 110 -44.5 158.5t-145.5 48.5t-146 -48.5t-45 -158.5v-786q0 -110 45 -158.5t146 -48.5t145.5 48.5t44.5 158.5v247h148z" />
    <glyph glyph-name="d" unicode="d" horiz-adv-x="923" 
d="M469 1434q165 0 250.5 -76t85.5 -228v-827q0 -303 -336 -303h-342v1434h342zM657 1094q0 111 -46 158.5t-150 47.5h-187v-1167h187q104 0 150 48t46 159v754z" />
    <glyph glyph-name="e" unicode="e" horiz-adv-x="790" 
d="M713 0h-586v1434h580v-134h-433v-507h369v-131h-369v-529h439v-133z" />
    <glyph glyph-name="f" unicode="f" horiz-adv-x="743" 
d="M127 0v1434h571v-134h-424v-518h361v-131h-361v-651h-147z" />
    <glyph glyph-name="g" unicode="g" horiz-adv-x="921" 
d="M807 719v-432q0 -303 -336 -303h-16q-336 0 -336 303v860q0 150 86 226.5t250 76.5h16q164 0 250 -76.5t86 -226.5v-193h-148v156q0 111 -46 159t-150 48t-150.5 -48t-46.5 -159v-786q0 -111 46.5 -159t150.5 -48t150 48t46 159v264h-204v131h352z" />
    <glyph glyph-name="h" unicode="h" horiz-adv-x="952" 
d="M127 1434h147v-637h404v637h147v-1434h-147v662h-404v-662h-147v1434z" />
    <glyph glyph-name="i" unicode="i" horiz-adv-x="415" 
d="M283 0h-148v1434h148v-1434z" />
    <glyph glyph-name="j" unicode="j" horiz-adv-x="565" 
d="M98 135q104 0 151.5 48.5t47.5 160.5v1090h147v-1131q0 -303 -342 -303h-65v135h61z" />
    <glyph glyph-name="k" unicode="k" horiz-adv-x="880" 
d="M860 0h-153l-271 739l-162 -278v-461h-147v1434h147v-738l402 738h160l-310 -537z" />
    <glyph glyph-name="l" unicode="l" horiz-adv-x="718" 
d="M682 135v-135h-555v1434h147v-1299h408z" />
    <glyph glyph-name="m" unicode="m" horiz-adv-x="1218" 
d="M948 1073l-301 -840h-82l-301 840v-1073h-137v1434h141l336 -949l340 949h148v-1434h-144v1073z" />
    <glyph glyph-name="n" unicode="n" horiz-adv-x="960" 
d="M264 0h-137v1434h149l420 -1088v1088h138v-1434h-142l-428 1108v-1108z" />
    <glyph glyph-name="o" unicode="o" horiz-adv-x="925" 
d="M119 1147q0 303 336 303h16q336 0 336 -303v-860q0 -303 -336 -303h-16q-336 0 -336 303v860zM266 324q0 -111 46.5 -159t150.5 -48t150 48t46 159v786q0 111 -46 159t-150 48t-150.5 -48t-46.5 -159v-786z" />
    <glyph glyph-name="p" unicode="p" horiz-adv-x="882" 
d="M473 1434q165 0 250.5 -76t85.5 -228v-239q0 -303 -336 -303h-199v-588h-147v1434h346zM662 928v166q0 111 -46.5 158.5t-150.5 47.5h-191v-579h191q104 0 150.5 48t46.5 159z" />
    <glyph glyph-name="q" unicode="q" horiz-adv-x="925" 
d="M471 1450q336 0 336 -303v-860q0 -271 -270 -299v-191h-140v189q-278 25 -278 301v860q0 303 336 303h16zM659 324v786q0 111 -46 159t-150 48t-150.5 -48t-46.5 -159v-786q0 -111 46.5 -159t150.5 -48t150 48t46 159z" />
    <glyph glyph-name="r" unicode="r" horiz-adv-x="923" 
d="M858 0h-153l-220 604h-12h-199v-604h-147v1434h346q165 0 250.5 -76t85.5 -228v-223q0 -220 -182 -280zM274 1300v-565h191q104 0 150.5 48t46.5 159v152q0 111 -46.5 158.5t-150.5 47.5h-191z" />
    <glyph glyph-name="s" unicode="s" horiz-adv-x="856" 
d="M758 934h-146v188q0 103 -43.5 150t-140.5 47t-140.5 -47t-43.5 -150v-100q0 -69 26 -102.5t103 -75.5l205 -113q90 -49 137 -110.5t47 -147.5v-190q0 -154 -82.5 -226.5t-247.5 -72.5h-4q-166 0 -248 71.5t-82 227.5v237h146v-205q0 -102 44.5 -151t141.5 -49t141.5 49
t44.5 151v115q0 69 -29 107t-106 81l-200 111q-99 56 -141 110t-42 144v172q0 146 87.5 220.5t240.5 74.5h4q153 0 240.5 -74.5t87.5 -220.5v-221z" />
    <glyph glyph-name="t" unicode="t" horiz-adv-x="733" 
d="M702 1434v-134h-262v-1300h-147v1300h-260v134h669z" />
    <glyph glyph-name="u" unicode="u" 
d="M795 1434v-1147q0 -303 -332 -303h-8q-165 0 -248.5 73.5t-83.5 229.5v1147h147v-1110q0 -113 43 -160t146 -47t145.5 47t42.5 160v1110h148z" />
    <glyph glyph-name="v" unicode="v" horiz-adv-x="835" 
d="M795 1434l-297 -1434h-160l-297 1434h152l229 -1184l229 1184h144z" />
    <glyph glyph-name="w" unicode="w" horiz-adv-x="1314" 
d="M1270 1434l-236 -1434h-143l-232 1149l-231 -1149h-147l-236 1434h148l172 -1155l227 1155h139l227 -1155l172 1155h140z" />
    <glyph glyph-name="x" unicode="x" horiz-adv-x="841" 
d="M778 1434l-268 -701l299 -733h-158l-233 602l-232 -602h-153l303 739l-281 695h158l213 -564l199 564h153z" />
    <glyph glyph-name="y" unicode="y" horiz-adv-x="847" 
d="M498 545v-545h-148v545l-309 889h154l229 -721l231 721h152z" />
    <glyph glyph-name="z" unicode="z" horiz-adv-x="743" 
d="M692 127v-127h-639v106l467 1201h-442v127h600v-107l-467 -1200h481z" />
    <glyph glyph-name="braceleft" unicode="{" horiz-adv-x="630" 
d="M528 1401q-99 0 -146.5 -46.5t-47.5 -162.5v-283q0 -73 -33 -118t-106 -66q73 -23 106 -67t33 -117v-299q0 -116 47.5 -162.5t146.5 -46.5h45v-131h-45q-335 0 -335 303v327q0 62 -34 94t-110 38v118q76 6 110 38.5t34 94.5v314q0 303 335 303h45v-131h-45z" />
    <glyph glyph-name="bar" unicode="|" horiz-adv-x="471" 
d="M303 -205h-135v1843h135v-1843z" />
    <glyph glyph-name="braceright" unicode="}" horiz-adv-x="630" 
d="M102 1401h-45v131h45q336 0 336 -303v-314q0 -62 34 -94.5t110 -38.5v-118q-76 -6 -110 -38t-34 -94v-327q0 -303 -336 -303h-45v131h45q99 0 147 46.5t48 162.5v299q0 73 33 117t106 67q-73 21 -106 66t-33 118v283q0 116 -48 162.5t-147 46.5z" />
    <glyph glyph-name="asciitilde" unicode="~" horiz-adv-x="811" 
d="M184 627q0 55 21.5 82.5t54.5 27.5q29 0 66 -22.5t68.5 -50t76.5 -50t88 -22.5q73 0 125.5 54.5t52.5 162.5v39h-112v-23q0 -53 -20.5 -81.5t-53.5 -28.5q-28 0 -64 22.5t-66.5 50t-75.5 50t-89 22.5q-73 0 -127.5 -55t-54.5 -162v-39h110v23z" />
    <glyph glyph-name="exclamdown" unicode="&#xa1;" horiz-adv-x="364" 
d="M258 1251h-152v183h152v-183zM256 0h-150v221l19 873h115l16 -875v-219z" />
    <glyph glyph-name="cent" unicode="&#xa2;" horiz-adv-x="843" 
d="M762 856h-146v78q0 110 -45.5 159.5t-146.5 49.5t-147 -49.5t-46 -159.5v-434q0 -110 46 -159.5t147 -49.5q100 0 146 52t46 157v112h146v-149q0 -271 -268 -299v-164h-136v162q-272 28 -272 301v508q0 134 69.5 209.5t202.5 89.5v164h136v-164q131 -14 199.5 -90
t68.5 -209v-115z" />
    <glyph glyph-name="sterling" unicode="&#xa3;" horiz-adv-x="843" 
d="M772 930h-147v200q0 91 -29.5 139t-114.5 48t-115 -48t-30 -139v-358h252v-121h-252q0 -239 -27.5 -359t-105.5 -159h549v-133h-676l-29 133q87 43 114 156.5t27 361.5h-135v121h135v375q0 303 291 303h4q155 0 222 -79t67 -224v-217z" />
    <glyph glyph-name="yen" unicode="&#xa5;" horiz-adv-x="847" 
d="M807 1434l-264 -758h182v-88h-213l-14 -43v-88h227v-88h-227v-369h-148v369h-252v88h252v88l-14 43h-238v88h207l-264 758h154l229 -721l231 721h152z" />
    <glyph glyph-name="brokenbar" unicode="&#xa6;" horiz-adv-x="471" 
d="M168 901v737h135v-737h-135zM303 573v-778h-135v778h135z" />
    <glyph glyph-name="section" unicode="&#xa7;" horiz-adv-x="860" 
d="M616 528v60q0 73 -46 121t-167 106q-172 82 -237.5 151t-65.5 167v104q0 146 87.5 220.5t240.5 74.5h4q153 0 240.5 -74.5t87.5 -220.5v-186h-146v153q0 103 -43.5 150t-140.5 47q-96 0 -139 -47t-43 -150v-39q0 -72 42.5 -115t170.5 -104q163 -77 233 -149t70 -172v-213
q-37 65 -148 116zM248 823v-63q0 -73 40.5 -115t168.5 -102q163 -77 235 -152t72 -172v-121q0 -154 -82.5 -226.5t-247.5 -72.5h-4q-166 0 -248 71.5t-82 227.5v213h146v-180q0 -103 44.5 -152t141.5 -49t140.5 49t43.5 152v51q0 73 -48 122.5t-177 111.5q-165 81 -228 147
t-63 164v209q37 -54 148 -113z" />
    <glyph glyph-name="dieresis" unicode="&#xa8;" horiz-adv-x="901" 
d="M377 1718v-172h-146v172h146zM670 1718v-172h-146v172h146z" />
    <glyph glyph-name="copyright" unicode="&#xa9;" horiz-adv-x="1292" 
d="M825 1450q349 0 349 -303v-860q0 -303 -349 -303h-370q-167 0 -251.5 72t-84.5 231v860q0 303 348 303h358zM1073 1165q0 94 -58 142.5t-163 48.5h-412q-106 0 -164.5 -48.5t-58.5 -142.5v-897q0 -94 58.5 -142t164.5 -48h412q105 0 163 48t58 142v897zM895 616v-192
q0 -99 -67 -154t-179 -55h-4q-113 0 -179.5 54t-66.5 155v586q0 96 67.5 152.5t178.5 56.5h4q111 0 178.5 -56.5t67.5 -152.5v-168h-117v131q0 139 -131 139q-133 0 -133 -139v-512q0 -139 133 -139q131 0 131 139v155h117z" />
    <glyph glyph-name="ordfeminine" unicode="&#xaa;" horiz-adv-x="466" 
d="M410 858h-84v49q-30 -51 -119 -51q-72 0 -111 39.5t-39 112.5v61q0 73 39.5 111.5t110.5 38.5q36 0 67.5 -14.5t44.5 -41.5v115q0 82 -73 82h-23q-73 0 -73 -82v-18h-84v32q0 67 42.5 108.5t114.5 41.5h31q70 0 113 -42t43 -108v-434zM319 1055q0 42 -22 62t-51 20h-25
q-74 0 -74 -82v-39q0 -80 74 -80h25q29 0 51 19t22 61v39zM410 664h-353v79h353v-79z" />
    <glyph glyph-name="guillemotleft" unicode="&#xab;" horiz-adv-x="806" 
d="M397 950v154l-364 -336v-86l364 -336v154l-247 225zM745 950v154l-364 -336v-86l364 -336v154l-247 225z" />
    <glyph glyph-name="registered" unicode="&#xae;" horiz-adv-x="673" 
d="M430 1446q90 0 137 -44.5t47 -121.5v-440q0 -78 -47 -123t-137 -45h-190q-88 0 -134.5 45t-46.5 123v440q0 80 47.5 123t139.5 43h184zM549 829v461q0 44 -28 70t-79 26h-211q-51 0 -78.5 -26t-27.5 -70v-461q0 -44 27.5 -71t78.5 -27h211q51 0 79 27t28 71zM461 1114
q0 -72 -55 -94l71 -213h-67l-64 201h-4h-59v-201h-66v504h125q57 0 88 -27.5t31 -79.5v-90zM283 1249v-182h57q55 0 55 59v66q0 57 -55 57h-57z" />
    <glyph glyph-name="macron" unicode="&#xaf;" horiz-adv-x="790" 
d="M627 1567h-463v123h463v-123z" />
    <glyph glyph-name="degree" unicode="&#xb0;" horiz-adv-x="557" 
d="M279 1450q114 0 176.5 -69.5t62.5 -194.5q0 -126 -62.5 -195t-176.5 -69t-178 69t-64 195q0 124 64 194t178 70zM279 1362q-69 0 -108.5 -46.5t-39.5 -129.5t39.5 -129.5t108.5 -46.5t107 46.5t38 129.5t-38 129.5t-107 46.5z" />
    <glyph glyph-name="plusminus" unicode="&#xb1;" horiz-adv-x="860" 
d="M489 915h265v-116h-265v-267h-116v267h-267v116h267v265h116v-265zM106 287v116h648v-116h-648z" />
    <glyph glyph-name="acute" unicode="&#xb4;" horiz-adv-x="927" 
d="M483 1810h183l-209 -264h-115z" />
    <glyph glyph-name="paragraph" unicode="&#xb6;" horiz-adv-x="1159" 
d="M1032 1434v-1434h-147v1300h-129v-1300h-148v602h-198q-336 0 -336 303v225q0 152 85.5 228t250.5 76h622z" />
    <glyph glyph-name="periodcentered" unicode="&#xb7;" horiz-adv-x="339" 
d="M246 821v-182h-152v182h152z" />
    <glyph glyph-name="cedilla" unicode="&#xb8;" horiz-adv-x="720" 
d="M463 0v-98q0 -92 -36 -130t-116 -38q-53 0 -96 16l-27 90h84q42 0 57 14.5t15 55.5v90h119z" />
    <glyph glyph-name="ordmasculine" unicode="&#xba;" horiz-adv-x="477" 
d="M256 1442q73 0 118.5 -45t45.5 -125v-250q0 -80 -45.5 -125t-118.5 -45h-33q-75 0 -120.5 45t-45.5 125v250q0 80 45.5 125t120.5 45h33zM330 1257q0 103 -84 103h-19q-82 0 -82 -103v-221q0 -102 82 -102h19q84 0 84 102v221zM57 664v79h363v-79h-363z" />
    <glyph glyph-name="guillemotright" unicode="&#xbb;" horiz-adv-x="806" 
d="M61 950l248 -225l-248 -225v-154l365 336v86l-365 336v-154zM410 950l247 -225l-247 -225v-154l364 336v86l-364 336v-154z" />
    <glyph glyph-name="onequarter" unicode="&#xbc;" horiz-adv-x="1026" 
d="M203 565h-109v774q36 42 45 95h64v-869zM643 1434h94l-520 -1434h-94zM862 868v-559h72v-102h-72v-207h-112v207h-252v96l231 565h133zM750 696l-154 -387h154v387z" />
    <glyph glyph-name="onehalf" unicode="&#xbd;" horiz-adv-x="1067" 
d="M203 565h-109v774q36 42 45 95h64v-869zM643 1434h94l-520 -1434h-94zM575 545v147q0 91 50 138t147 47h2q98 0 148.5 -47t50.5 -138v-88q0 -21 -4.5 -40.5t-9.5 -34.5t-18.5 -33.5t-21 -28.5t-28 -29.5t-28.5 -26t-33.5 -28t-32.5 -27.5q-64 -54 -88.5 -93.5
t-24.5 -82.5v-82h289v-98h-402v182q0 76 38.5 130t121.5 126q78 64 103.5 95t25.5 73v70q0 53 -21.5 77.5t-68.5 24.5q-45 0 -65.5 -24.5t-20.5 -77.5v-131h-109z" />
    <glyph glyph-name="threequarters" unicode="&#xbe;" horiz-adv-x="1261" 
d="M498 1151q0 -107 -72 -131q72 -24 72 -123v-149q0 -87 -47 -139t-140 -52h-30q-93 0 -140 52t-47 139v126h109v-110q0 -57 22 -82t66 -25h10q44 0 66 25t22 82v125q0 78 -84 78h-102v98h90q51 0 73.5 20.5t22.5 71.5v82q0 57 -22 82t-66 25h-12q-44 0 -65 -24.5
t-21 -82.5v-90h-109v106q0 191 197 191h10q197 0 197 -191v-104zM877 1434h94l-520 -1434h-95zM1096 868v-559h71v-102h-71v-207h-111v207h-252v96l232 565h131zM985 696l-156 -387h156v387z" />
    <glyph glyph-name="questiondown" unicode="&#xbf;" horiz-adv-x="782" 
d="M324 1251v183h151v-183h-151zM461 1092v-213q0 -146 -137 -269q-51 -43 -77 -84t-26 -96v-127q0 -105 43 -148.5t131 -43.5t128 43t40 149v197h142v-221q0 -152 -75 -223.5t-237 -71.5h-4q-162 0 -236.5 71.5t-74.5 223.5v167q0 47 12 87.5t36 72.5t44 52.5t51 46.5
q63 49 90 100t27 131v156h123z" />
    <glyph glyph-name="Agrave" unicode="&#xc0;" horiz-adv-x="868" 
d="M506 1546h-115l-209 264h183zM676 0l-72 354h-348l-72 -354h-143l303 1434h176l307 -1434h-151zM281 483h299l-150 746z" />
    <glyph glyph-name="Aacute" unicode="&#xc1;" horiz-adv-x="868" 
d="M684 1810l-209 -264h-115l142 264h182zM676 0l-72 354h-348l-72 -354h-143l303 1434h176l307 -1434h-151zM281 483h299l-150 746z" />
    <glyph glyph-name="Acircumflex" unicode="&#xc2;" horiz-adv-x="868" 
d="M432 1712l-108 -166h-136l177 264h135l176 -264h-135zM676 0l-72 354h-348l-72 -354h-143l303 1434h176l307 -1434h-151zM281 483h299l-150 746z" />
    <glyph glyph-name="Atilde" unicode="&#xc3;" horiz-adv-x="868" 
d="M240 1575v-21h-109v37q0 99 48.5 151t119.5 52q42 0 81 -21t63.5 -46.5t54.5 -46.5t57 -21q68 0 68 104v23h110v-37q0 -100 -46.5 -152.5t-115.5 -52.5q-42 0 -81.5 21t-65 46.5t-57.5 46.5t-60 21q-67 0 -67 -104zM676 0l-72 354h-348l-72 -354h-143l303 1434h176
l307 -1434h-151zM281 483h299l-150 746z" />
    <glyph glyph-name="Adieresis" unicode="&#xc4;" horiz-adv-x="868" 
d="M358 1718v-172h-145v172h145zM651 1718v-172h-145v172h145zM676 0l-72 354h-348l-72 -354h-143l303 1434h176l307 -1434h-151zM281 483h299l-150 746z" />
    <glyph glyph-name="Aring" unicode="&#xc5;" horiz-adv-x="868" 
d="M432 1534q-78 0 -125 43t-47 115t47 114.5t125 42.5q77 0 123.5 -42.5t46.5 -114.5t-46.5 -115t-123.5 -43zM432 1772q-37 0 -59.5 -21t-22.5 -59t22.5 -59t59.5 -21q36 0 58 20.5t22 59.5t-22 59.5t-58 20.5zM676 0l-72 354h-348l-72 -354h-143l303 1434h176l307 -1434
h-151zM281 483h299l-150 746z" />
    <glyph glyph-name="AE" unicode="&#xc6;" horiz-adv-x="1286" 
d="M770 133h438v-133h-585v354h-336l-111 -354h-147l452 1434h721v-134h-432v-507h369v-131h-369v-529zM326 481h297v819h-43z" />
    <glyph glyph-name="Ccedilla" unicode="&#xc7;" horiz-adv-x="905" 
d="M795 897h-148v213q0 110 -44.5 158.5t-145.5 48.5t-146 -48.5t-45 -158.5v-786q0 -110 45 -158.5t146 -48.5t145.5 48.5t44.5 158.5v247h148v-284q0 -279 -287 -301v-84q0 -92 -36 -130t-116 -38q-53 0 -96 16l-27 90h84q42 0 57 14.5t15 55.5v78q-270 25 -270 299v860
q0 150 86 226.5t250 76.5h4q164 0 250 -76.5t86 -226.5v-250z" />
    <glyph glyph-name="Egrave" unicode="&#xc8;" horiz-adv-x="790" 
d="M346 1810l141 -264h-114l-209 264h182zM713 0h-586v1434h580v-134h-433v-507h369v-131h-369v-529h439v-133z" />
    <glyph glyph-name="Eacute" unicode="&#xc9;" horiz-adv-x="790" 
d="M483 1810h183l-209 -264h-115zM713 0h-586v1434h580v-134h-433v-507h369v-131h-369v-529h439v-133z" />
    <glyph glyph-name="Ecircumflex" unicode="&#xca;" horiz-adv-x="790" 
d="M657 1546l-176 264h-135l-176 -264h135l109 166l108 -166h135zM713 0h-586v1434h580v-134h-433v-507h369v-131h-369v-529h439v-133z" />
    <glyph glyph-name="Edieresis" unicode="&#xcb;" horiz-adv-x="790" 
d="M340 1718v-172h-145v172h145zM633 1718v-172h-146v172h146zM713 0h-586v1434h580v-134h-433v-507h369v-131h-369v-529h439v-133z" />
    <glyph glyph-name="Igrave" unicode="&#xcc;" horiz-adv-x="415" 
d="M141 1810l142 -264h-115l-209 264h182zM283 0h-148v1434h148v-1434z" />
    <glyph glyph-name="Iacute" unicode="&#xcd;" horiz-adv-x="415" 
d="M279 1810h182l-209 -264h-115zM283 0h-148v1434h148v-1434z" />
    <glyph glyph-name="Icircumflex" unicode="&#xce;" horiz-adv-x="415" 
d="M453 1546l-177 264h-135l-176 -264h135l109 166l108 -166h136zM283 0h-148v1434h148v-1434z" />
    <glyph glyph-name="Idieresis" unicode="&#xcf;" horiz-adv-x="415" 
d="M135 1718v-172h-145v172h145zM428 1718v-172h-145v172h145zM283 0h-148v1434h148v-1434z" />
    <glyph glyph-name="Eth" unicode="&#xd0;" horiz-adv-x="944" 
d="M489 1434q165 0 250.5 -76t85.5 -228v-827q0 -303 -336 -303h-342v664h-106v131h106v639h342zM678 340v754q0 111 -46.5 158.5t-150.5 47.5h-186v-505h225v-131h-225v-531h186q104 0 150.5 48t46.5 159z" />
    <glyph glyph-name="Ntilde" unicode="&#xd1;" horiz-adv-x="960" 
d="M293 1575q0 104 67 104q28 0 60 -21t57.5 -46.5t65.5 -46.5t82 -21q69 0 115 52.5t46 152.5v37h-110v-23q0 -104 -68 -104q-27 0 -57 21t-54.5 46.5t-63.5 46.5t-81 21q-71 0 -119.5 -52t-48.5 -151v-37h109v21zM264 0h-137v1434h149l420 -1088v1088h138v-1434h-142
l-428 1108v-1108z" />
    <glyph glyph-name="Ograve" unicode="&#xd2;" horiz-adv-x="925" 
d="M395 1810l142 -264h-115l-209 264h182zM119 1147q0 303 336 303h16q336 0 336 -303v-860q0 -303 -336 -303h-16q-336 0 -336 303v860zM266 324q0 -111 46.5 -159t150.5 -48t150 48t46 159v786q0 111 -46 159t-150 48t-150.5 -48t-46.5 -159v-786z" />
    <glyph glyph-name="Oacute" unicode="&#xd3;" horiz-adv-x="925" 
d="M532 1810h183l-209 -264h-115zM119 1147q0 303 336 303h16q336 0 336 -303v-860q0 -303 -336 -303h-16q-336 0 -336 303v860zM266 324q0 -111 46.5 -159t150.5 -48t150 48t46 159v786q0 111 -46 159t-150 48t-150.5 -48t-46.5 -159v-786z" />
    <glyph glyph-name="Ocircumflex" unicode="&#xd4;" horiz-adv-x="925" 
d="M707 1546l-177 264h-135l-176 -264h135l109 166l108 -166h136zM119 1147q0 303 336 303h16q336 0 336 -303v-860q0 -303 -336 -303h-16q-336 0 -336 303v860zM266 324q0 -111 46.5 -159t150.5 -48t150 48t46 159v786q0 111 -46 159t-150 48t-150.5 -48t-46.5 -159v-786z
" />
    <glyph glyph-name="Otilde" unicode="&#xd5;" horiz-adv-x="925" 
d="M270 1575q0 104 68 104q28 0 60 -21t57.5 -46.5t65 -46.5t81.5 -21q69 0 115.5 52.5t46.5 152.5v37h-111v-23q0 -104 -67 -104q-27 0 -57 21t-54.5 46.5t-63.5 46.5t-81 21q-71 0 -119.5 -52t-48.5 -151v-37h108v21zM119 1147q0 303 336 303h16q336 0 336 -303v-860
q0 -303 -336 -303h-16q-336 0 -336 303v860zM266 324q0 -111 46.5 -159t150.5 -48t150 48t46 159v786q0 111 -46 159t-150 48t-150.5 -48t-46.5 -159v-786z" />
    <glyph glyph-name="Odieresis" unicode="&#xd6;" horiz-adv-x="925" 
d="M389 1718v-172h-145v172h145zM682 1718v-172h-145v172h145zM119 1147q0 303 336 303h16q336 0 336 -303v-860q0 -303 -336 -303h-16q-336 0 -336 303v860zM266 324q0 -111 46.5 -159t150.5 -48t150 48t46 159v786q0 111 -46 159t-150 48t-150.5 -48t-46.5 -159v-786z" />
    <glyph glyph-name="multiply" unicode="&#xd7;" horiz-adv-x="860" 
d="M698 920l-190 -189l190 -186l-82 -84l-188 190l-184 -188l-84 82l190 186l-190 187l84 81l184 -188l188 190z" />
    <glyph glyph-name="Oslash" unicode="&#xd8;" horiz-adv-x="925" 
d="M471 1450q336 0 336 -303v-860q0 -303 -336 -303h-16q-336 0 -336 303v860q0 303 336 303h16zM266 1110v-786q0 -86 29 -136l252 1119q-42 10 -84 10q-104 0 -150.5 -48t-46.5 -159zM659 324v786q0 87 -28 135l-252 -1118q42 -10 84 -10q104 0 150 48t46 159z" />
    <glyph glyph-name="Ugrave" unicode="&#xd9;" 
d="M391 1810l141 -264h-114l-209 264h182zM795 1434v-1147q0 -303 -332 -303h-8q-165 0 -248.5 73.5t-83.5 229.5v1147h147v-1110q0 -113 43 -160t146 -47t145.5 47t42.5 160v1110h148z" />
    <glyph glyph-name="Uacute" unicode="&#xda;" 
d="M528 1810h183l-209 -264h-115zM795 1434v-1147q0 -303 -332 -303h-8q-165 0 -248.5 73.5t-83.5 229.5v1147h147v-1110q0 -113 43 -160t146 -47t145.5 47t42.5 160v1110h148z" />
    <glyph glyph-name="Ucircumflex" unicode="&#xdb;" 
d="M702 1546l-176 264h-135l-176 -264h135l109 166l108 -166h135zM795 1434v-1147q0 -303 -332 -303h-8q-165 0 -248.5 73.5t-83.5 229.5v1147h147v-1110q0 -113 43 -160t146 -47t145.5 47t42.5 160v1110h148z" />
    <glyph glyph-name="Udieresis" unicode="&#xdc;" 
d="M385 1718v-172h-145v172h145zM678 1718v-172h-146v172h146zM795 1434v-1147q0 -303 -332 -303h-8q-165 0 -248.5 73.5t-83.5 229.5v1147h147v-1110q0 -113 43 -160t146 -47t145.5 47t42.5 160v1110h148z" />
    <glyph glyph-name="Yacute" unicode="&#xdd;" horiz-adv-x="847" 
d="M494 1810h182l-209 -264h-115zM498 545v-545h-148v545l-309 889h154l229 -721l231 721h152z" />
    <glyph glyph-name="Thorn" unicode="&#xde;" horiz-adv-x="882" 
d="M473 1151q336 0 336 -303v-240q0 -303 -336 -303h-199v-305h-147v1434h147v-283h199zM662 645v166q0 111 -46.5 159t-150.5 48h-191v-580h191q104 0 150.5 48t46.5 159z" />
    <glyph glyph-name="germandbls" unicode="&#xdf;" horiz-adv-x="1712" 
d="M758 934h-146v188q0 103 -43.5 150t-140.5 47t-140.5 -47t-43.5 -150v-100q0 -69 26 -102.5t103 -75.5l205 -113q90 -49 137 -110.5t47 -147.5v-190q0 -154 -82.5 -226.5t-247.5 -72.5h-4q-166 0 -248 71.5t-82 227.5v237h146v-205q0 -102 44.5 -151t141.5 -49t141.5 49
t44.5 151v115q0 69 -29 107t-106 81l-200 111q-99 56 -141 110t-42 144v172q0 146 87.5 220.5t240.5 74.5h4q153 0 240.5 -74.5t87.5 -220.5v-221zM1614 934h-146v188q0 103 -43.5 150t-140.5 47t-140.5 -47t-43.5 -150v-100q0 -69 26 -102.5t103 -75.5l205 -113
q90 -49 137 -110.5t47 -147.5v-190q0 -154 -82.5 -226.5t-247.5 -72.5h-4q-166 0 -248 71.5t-82 227.5v237h146v-205q0 -102 44.5 -151t141.5 -49t142 49t45 151v115q0 69 -29 106.5t-107 81.5l-200 111q-99 56 -141 110t-42 144v172q0 146 87.5 220.5t240.5 74.5h4
q153 0 240.5 -74.5t87.5 -220.5v-221z" />
    <glyph glyph-name="agrave" unicode="&#xe0;" horiz-adv-x="868" 
d="M506 1546h-115l-209 264h183zM676 0l-72 354h-348l-72 -354h-143l303 1434h176l307 -1434h-151zM281 483h299l-150 746z" />
    <glyph glyph-name="aacute" unicode="&#xe1;" horiz-adv-x="868" 
d="M684 1810l-209 -264h-115l142 264h182zM676 0l-72 354h-348l-72 -354h-143l303 1434h176l307 -1434h-151zM281 483h299l-150 746z" />
    <glyph glyph-name="acircumflex" unicode="&#xe2;" horiz-adv-x="868" 
d="M432 1712l-108 -166h-136l177 264h135l176 -264h-135zM676 0l-72 354h-348l-72 -354h-143l303 1434h176l307 -1434h-151zM281 483h299l-150 746z" />
    <glyph glyph-name="atilde" unicode="&#xe3;" horiz-adv-x="868" 
d="M240 1575v-21h-109v37q0 99 48.5 151t119.5 52q42 0 81 -21t63.5 -46.5t54.5 -46.5t57 -21q68 0 68 104v23h110v-37q0 -100 -46.5 -152.5t-115.5 -52.5q-42 0 -81.5 21t-65 46.5t-57.5 46.5t-60 21q-67 0 -67 -104zM676 0l-72 354h-348l-72 -354h-143l303 1434h176
l307 -1434h-151zM281 483h299l-150 746z" />
    <glyph glyph-name="adieresis" unicode="&#xe4;" horiz-adv-x="868" 
d="M358 1718v-172h-145v172h145zM651 1718v-172h-145v172h145zM676 0l-72 354h-348l-72 -354h-143l303 1434h176l307 -1434h-151zM281 483h299l-150 746z" />
    <glyph glyph-name="aring" unicode="&#xe5;" horiz-adv-x="868" 
d="M432 1534q-78 0 -125 43t-47 115t47 114.5t125 42.5q77 0 123.5 -42.5t46.5 -114.5t-46.5 -115t-123.5 -43zM432 1772q-37 0 -59.5 -21t-22.5 -59t22.5 -59t59.5 -21q36 0 58 20.5t22 59.5t-22 59.5t-58 20.5zM676 0l-72 354h-348l-72 -354h-143l303 1434h176l307 -1434
h-151zM281 483h299l-150 746z" />
    <glyph glyph-name="ae" unicode="&#xe6;" horiz-adv-x="1286" 
d="M770 133h438v-133h-585v354h-336l-111 -354h-147l452 1434h721v-134h-432v-507h369v-131h-369v-529zM326 481h297v819h-43z" />
    <glyph glyph-name="ccedilla" unicode="&#xe7;" horiz-adv-x="905" 
d="M795 897h-148v213q0 110 -44.5 158.5t-145.5 48.5t-146 -48.5t-45 -158.5v-786q0 -110 45 -158.5t146 -48.5t145.5 48.5t44.5 158.5v247h148v-284q0 -279 -287 -301v-84q0 -92 -36 -130t-116 -38q-53 0 -96 16l-27 90h84q42 0 57 14.5t15 55.5v78q-270 25 -270 299v860
q0 150 86 226.5t250 76.5h4q164 0 250 -76.5t86 -226.5v-250z" />
    <glyph glyph-name="egrave" unicode="&#xe8;" horiz-adv-x="790" 
d="M346 1810l141 -264h-114l-209 264h182zM713 0h-586v1434h580v-134h-433v-507h369v-131h-369v-529h439v-133z" />
    <glyph glyph-name="eacute" unicode="&#xe9;" horiz-adv-x="790" 
d="M483 1810h183l-209 -264h-115zM713 0h-586v1434h580v-134h-433v-507h369v-131h-369v-529h439v-133z" />
    <glyph glyph-name="ecircumflex" unicode="&#xea;" horiz-adv-x="790" 
d="M657 1546l-176 264h-135l-176 -264h135l109 166l108 -166h135zM713 0h-586v1434h580v-134h-433v-507h369v-131h-369v-529h439v-133z" />
    <glyph glyph-name="edieresis" unicode="&#xeb;" horiz-adv-x="790" 
d="M340 1718v-172h-145v172h145zM633 1718v-172h-146v172h146zM713 0h-586v1434h580v-134h-433v-507h369v-131h-369v-529h439v-133z" />
    <glyph glyph-name="igrave" unicode="&#xec;" horiz-adv-x="415" 
d="M141 1810l142 -264h-115l-209 264h182zM283 0h-148v1434h148v-1434z" />
    <glyph glyph-name="iacute" unicode="&#xed;" horiz-adv-x="415" 
d="M279 1810h182l-209 -264h-115zM283 0h-148v1434h148v-1434z" />
    <glyph glyph-name="icircumflex" unicode="&#xee;" horiz-adv-x="415" 
d="M453 1546l-177 264h-135l-176 -264h135l109 166l108 -166h136zM283 0h-148v1434h148v-1434z" />
    <glyph glyph-name="idieresis" unicode="&#xef;" horiz-adv-x="415" 
d="M135 1718v-172h-145v172h145zM428 1718v-172h-145v172h145zM283 0h-148v1434h148v-1434z" />
    <glyph glyph-name="eth" unicode="&#xf0;" horiz-adv-x="944" 
d="M489 1434q165 0 250.5 -76t85.5 -228v-827q0 -303 -336 -303h-342v664h-106v131h106v639h342zM678 340v754q0 111 -46.5 158.5t-150.5 47.5h-186v-505h225v-131h-225v-531h186q104 0 150.5 48t46.5 159z" />
    <glyph glyph-name="ntilde" unicode="&#xf1;" horiz-adv-x="960" 
d="M293 1575q0 104 67 104q28 0 60 -21t57.5 -46.5t65.5 -46.5t82 -21q69 0 115 52.5t46 152.5v37h-110v-23q0 -104 -68 -104q-27 0 -57 21t-54.5 46.5t-63.5 46.5t-81 21q-71 0 -119.5 -52t-48.5 -151v-37h109v21zM264 0h-137v1434h149l420 -1088v1088h138v-1434h-142
l-428 1108v-1108z" />
    <glyph glyph-name="ograve" unicode="&#xf2;" horiz-adv-x="925" 
d="M395 1810l142 -264h-115l-209 264h182zM119 1147q0 303 336 303h16q336 0 336 -303v-860q0 -303 -336 -303h-16q-336 0 -336 303v860zM266 324q0 -111 46.5 -159t150.5 -48t150 48t46 159v786q0 111 -46 159t-150 48t-150.5 -48t-46.5 -159v-786z" />
    <glyph glyph-name="oacute" unicode="&#xf3;" horiz-adv-x="925" 
d="M532 1810h183l-209 -264h-115zM119 1147q0 303 336 303h16q336 0 336 -303v-860q0 -303 -336 -303h-16q-336 0 -336 303v860zM266 324q0 -111 46.5 -159t150.5 -48t150 48t46 159v786q0 111 -46 159t-150 48t-150.5 -48t-46.5 -159v-786z" />
    <glyph glyph-name="ocircumflex" unicode="&#xf4;" horiz-adv-x="925" 
d="M707 1546l-177 264h-135l-176 -264h135l109 166l108 -166h136zM119 1147q0 303 336 303h16q336 0 336 -303v-860q0 -303 -336 -303h-16q-336 0 -336 303v860zM266 324q0 -111 46.5 -159t150.5 -48t150 48t46 159v786q0 111 -46 159t-150 48t-150.5 -48t-46.5 -159v-786z
" />
    <glyph glyph-name="otilde" unicode="&#xf5;" horiz-adv-x="925" 
d="M270 1575q0 104 68 104q28 0 60 -21t57.5 -46.5t65 -46.5t81.5 -21q69 0 115.5 52.5t46.5 152.5v37h-111v-23q0 -104 -67 -104q-27 0 -57 21t-54.5 46.5t-63.5 46.5t-81 21q-71 0 -119.5 -52t-48.5 -151v-37h108v21zM119 1147q0 303 336 303h16q336 0 336 -303v-860
q0 -303 -336 -303h-16q-336 0 -336 303v860zM266 324q0 -111 46.5 -159t150.5 -48t150 48t46 159v786q0 111 -46 159t-150 48t-150.5 -48t-46.5 -159v-786z" />
    <glyph glyph-name="odieresis" unicode="&#xf6;" horiz-adv-x="925" 
d="M389 1718v-172h-145v172h145zM682 1718v-172h-145v172h145zM119 1147q0 303 336 303h16q336 0 336 -303v-860q0 -303 -336 -303h-16q-336 0 -336 303v860zM266 324q0 -111 46.5 -159t150.5 -48t150 48t46 159v786q0 111 -46 159t-150 48t-150.5 -48t-46.5 -159v-786z" />
    <glyph glyph-name="divide" unicode="&#xf7;" horiz-adv-x="860" 
d="M504 1167v-166h-148v166h148zM754 791v-117h-648v117h648zM504 461v-166h-148v166h148z" />
    <glyph glyph-name="oslash" unicode="&#xf8;" horiz-adv-x="925" 
d="M471 1450q336 0 336 -303v-860q0 -303 -336 -303h-16q-336 0 -336 303v860q0 303 336 303h16zM266 1110v-786q0 -86 29 -136l252 1119q-42 10 -84 10q-104 0 -150.5 -48t-46.5 -159zM659 324v786q0 87 -28 135l-252 -1118q42 -10 84 -10q104 0 150 48t46 159z" />
    <glyph glyph-name="ugrave" unicode="&#xf9;" 
d="M391 1810l141 -264h-114l-209 264h182zM795 1434v-1147q0 -303 -332 -303h-8q-165 0 -248.5 73.5t-83.5 229.5v1147h147v-1110q0 -113 43 -160t146 -47t145.5 47t42.5 160v1110h148z" />
    <glyph glyph-name="uacute" unicode="&#xfa;" 
d="M528 1810h183l-209 -264h-115zM795 1434v-1147q0 -303 -332 -303h-8q-165 0 -248.5 73.5t-83.5 229.5v1147h147v-1110q0 -113 43 -160t146 -47t145.5 47t42.5 160v1110h148z" />
    <glyph glyph-name="ucircumflex" unicode="&#xfb;" 
d="M702 1546l-176 264h-135l-176 -264h135l109 166l108 -166h135zM795 1434v-1147q0 -303 -332 -303h-8q-165 0 -248.5 73.5t-83.5 229.5v1147h147v-1110q0 -113 43 -160t146 -47t145.5 47t42.5 160v1110h148z" />
    <glyph glyph-name="udieresis" unicode="&#xfc;" 
d="M385 1718v-172h-145v172h145zM678 1718v-172h-146v172h146zM795 1434v-1147q0 -303 -332 -303h-8q-165 0 -248.5 73.5t-83.5 229.5v1147h147v-1110q0 -113 43 -160t146 -47t145.5 47t42.5 160v1110h148z" />
    <glyph glyph-name="yacute" unicode="&#xfd;" horiz-adv-x="847" 
d="M494 1810h182l-209 -264h-115zM498 545v-545h-148v545l-309 889h154l229 -721l231 721h152z" />
    <glyph glyph-name="thorn" unicode="&#xfe;" horiz-adv-x="882" 
d="M473 1151q336 0 336 -303v-240q0 -303 -336 -303h-199v-305h-147v1434h147v-283h199zM662 645v166q0 111 -46.5 159t-150.5 48h-191v-580h191q104 0 150.5 48t46.5 159z" />
    <glyph glyph-name="ydieresis" unicode="&#xff;" horiz-adv-x="847" 
d="M350 1718v-172h-145v172h145zM643 1718v-172h-145v172h145zM498 545v-545h-148v545l-309 889h154l229 -721l231 721h152z" />
    <glyph glyph-name="Amacron" unicode="&#x100;" horiz-adv-x="868" 
d="M664 1690v-123h-463v123h463zM676 0l-72 354h-348l-72 -354h-143l303 1434h176l307 -1434h-151zM281 483h299l-150 746z" />
    <glyph glyph-name="amacron" unicode="&#x101;" horiz-adv-x="868" 
d="M664 1690v-123h-463v123h463zM676 0l-72 354h-348l-72 -354h-143l303 1434h176l307 -1434h-151zM281 483h299l-150 746z" />
    <glyph glyph-name="Abreve" unicode="&#x102;" horiz-adv-x="868" 
d="M420 1544q-93 0 -147 41t-54 121v86h117v-63q0 -84 92 -84h8q92 0 92 84v63h117v-88q0 -78 -54 -119t-147 -41h-24zM676 0l-72 354h-348l-72 -354h-143l303 1434h176l307 -1434h-151zM281 483h299l-150 746z" />
    <glyph glyph-name="abreve" unicode="&#x103;" horiz-adv-x="868" 
d="M420 1544q-93 0 -147 41t-54 121v86h117v-63q0 -84 92 -84h8q92 0 92 84v63h117v-88q0 -78 -54 -119t-147 -41h-24zM676 0l-72 354h-348l-72 -354h-143l303 1434h176l307 -1434h-151zM281 483h299l-150 746z" />
    <glyph glyph-name="Aogonek" unicode="&#x104;" horiz-adv-x="868" 
d="M780 0q-64 -30 -88.5 -81t-5.5 -89.5t68 -38.5q26 0 55 16v-75q-36 -39 -102 -39q-63 0 -101 36.5t-43 85.5t25 102t90 83h-2l-72 354h-348l-72 -354h-143l303 1434h176l307 -1434h-47zM281 483h299l-150 746z" />
    <glyph glyph-name="aogonek" unicode="&#x105;" horiz-adv-x="868" 
d="M780 0q-64 -30 -88.5 -81t-5.5 -89.5t68 -38.5q26 0 55 16v-75q-36 -39 -102 -39q-63 0 -101 36.5t-43 85.5t25 102t90 83h-2l-72 354h-348l-72 -354h-143l303 1434h176l307 -1434h-47zM281 483h299l-150 746z" />
    <glyph glyph-name="Cacute" unicode="&#x106;" horiz-adv-x="905" 
d="M526 1810h183l-209 -264h-115zM795 571v-284q0 -303 -336 -303h-4q-336 0 -336 303v860q0 150 86 226.5t250 76.5h4q164 0 250 -76.5t86 -226.5v-250h-148v213q0 110 -44.5 158.5t-145.5 48.5t-146 -48.5t-45 -158.5v-786q0 -110 45 -158.5t146 -48.5t145.5 48.5
t44.5 158.5v247h148z" />
    <glyph glyph-name="cacute" unicode="&#x107;" horiz-adv-x="905" 
d="M526 1810h183l-209 -264h-115zM795 571v-284q0 -303 -336 -303h-4q-336 0 -336 303v860q0 150 86 226.5t250 76.5h4q164 0 250 -76.5t86 -226.5v-250h-148v213q0 110 -44.5 158.5t-145.5 48.5t-146 -48.5t-45 -158.5v-786q0 -110 45 -158.5t146 -48.5t145.5 48.5
t44.5 158.5v247h148z" />
    <glyph glyph-name="Cdotaccent" unicode="&#x10a;" horiz-adv-x="905" 
d="M530 1718v-172h-147v172h147zM795 571v-284q0 -303 -336 -303h-4q-336 0 -336 303v860q0 150 86 226.5t250 76.5h4q164 0 250 -76.5t86 -226.5v-250h-148v213q0 110 -44.5 158.5t-145.5 48.5t-146 -48.5t-45 -158.5v-786q0 -110 45 -158.5t146 -48.5t145.5 48.5
t44.5 158.5v247h148z" />
    <glyph glyph-name="cdotaccent" unicode="&#x10b;" horiz-adv-x="905" 
d="M530 1718v-172h-147v172h147zM795 571v-284q0 -303 -336 -303h-4q-336 0 -336 303v860q0 150 86 226.5t250 76.5h4q164 0 250 -76.5t86 -226.5v-250h-148v213q0 110 -44.5 158.5t-145.5 48.5t-146 -48.5t-45 -158.5v-786q0 -110 45 -158.5t146 -48.5t145.5 48.5
t44.5 158.5v247h148z" />
    <glyph glyph-name="Ccaron" unicode="&#x10c;" horiz-adv-x="905" 
d="M700 1810h-135l-108 -165l-107 165h-135l176 -264h133zM795 571v-284q0 -303 -336 -303h-4q-336 0 -336 303v860q0 150 86 226.5t250 76.5h4q164 0 250 -76.5t86 -226.5v-250h-148v213q0 110 -44.5 158.5t-145.5 48.5t-146 -48.5t-45 -158.5v-786q0 -110 45 -158.5
t146 -48.5t145.5 48.5t44.5 158.5v247h148z" />
    <glyph glyph-name="ccaron" unicode="&#x10d;" horiz-adv-x="905" 
d="M700 1810h-135l-108 -165l-107 165h-135l176 -264h133zM795 571v-284q0 -303 -336 -303h-4q-336 0 -336 303v860q0 150 86 226.5t250 76.5h4q164 0 250 -76.5t86 -226.5v-250h-148v213q0 110 -44.5 158.5t-145.5 48.5t-146 -48.5t-45 -158.5v-786q0 -110 45 -158.5
t146 -48.5t145.5 48.5t44.5 158.5v247h148z" />
    <glyph glyph-name="Dcaron" unicode="&#x10e;" horiz-adv-x="923" 
d="M694 1810h-135l-108 -165l-107 165h-135l176 -264h133zM469 1434q165 0 250.5 -76t85.5 -228v-827q0 -303 -336 -303h-342v1434h342zM657 1094q0 111 -46 158.5t-150 47.5h-187v-1167h187q104 0 150 48t46 159v754z" />
    <glyph glyph-name="dcaron" unicode="&#x10f;" horiz-adv-x="923" 
d="M694 1810h-135l-108 -165l-107 165h-135l176 -264h133zM469 1434q165 0 250.5 -76t85.5 -228v-827q0 -303 -336 -303h-342v1434h342zM657 1094q0 111 -46 158.5t-150 47.5h-187v-1167h187q104 0 150 48t46 159v754z" />
    <glyph glyph-name="Dcroat" unicode="&#x110;" horiz-adv-x="944" 
d="M489 1434q165 0 250.5 -76t85.5 -228v-827q0 -303 -336 -303h-342v664h-106v131h106v639h342zM678 340v754q0 111 -46.5 158.5t-150.5 47.5h-186v-505h225v-131h-225v-531h186q104 0 150.5 48t46.5 159z" />
    <glyph glyph-name="dcroat" unicode="&#x111;" horiz-adv-x="944" 
d="M489 1434q165 0 250.5 -76t85.5 -228v-827q0 -303 -336 -303h-342v664h-106v131h106v639h342zM678 340v754q0 111 -46.5 158.5t-150.5 47.5h-186v-505h225v-131h-225v-531h186q104 0 150.5 48t46.5 159z" />
    <glyph glyph-name="Emacron" unicode="&#x112;" horiz-adv-x="790" 
d="M645 1567h-463v123h463v-123zM713 0h-586v1434h580v-134h-433v-507h369v-131h-369v-529h439v-133z" />
    <glyph glyph-name="emacron" unicode="&#x113;" horiz-adv-x="790" 
d="M645 1567h-463v123h463v-123zM713 0h-586v1434h580v-134h-433v-507h369v-131h-369v-529h439v-133z" />
    <glyph glyph-name="Ebreve" unicode="&#x114;" horiz-adv-x="790" 
d="M627 1792v-88q0 -78 -54 -119t-147 -41h-25q-93 0 -146.5 41t-53.5 121v86h116v-63q0 -84 93 -84h8q92 0 92 84v63h117zM713 0h-586v1434h580v-134h-433v-507h369v-131h-369v-529h439v-133z" />
    <glyph glyph-name="ebreve" unicode="&#x115;" horiz-adv-x="790" 
d="M627 1792v-88q0 -78 -54 -119t-147 -41h-25q-93 0 -146.5 41t-53.5 121v86h116v-63q0 -84 93 -84h8q92 0 92 84v63h117zM713 0h-586v1434h580v-134h-433v-507h369v-131h-369v-529h439v-133z" />
    <glyph glyph-name="Edotaccent" unicode="&#x116;" horiz-adv-x="790" 
d="M487 1718v-172h-147v172h147zM713 0h-586v1434h580v-134h-433v-507h369v-131h-369v-529h439v-133z" />
    <glyph glyph-name="edotaccent" unicode="&#x117;" horiz-adv-x="790" 
d="M487 1718v-172h-147v172h147zM713 0h-586v1434h580v-134h-433v-507h369v-131h-369v-529h439v-133z" />
    <glyph glyph-name="Eogonek" unicode="&#x118;" horiz-adv-x="790" 
d="M686 -209q26 0 55 16v-75q-36 -39 -102 -39q-63 0 -101 36.5t-43 85.5t25 102t90 83h-483v1434h580v-134h-433v-507h369v-131h-369v-529h439v-133q-79 -37 -98 -104q-15 -56 20 -87q20 -18 51 -18z" />
    <glyph glyph-name="eogonek" unicode="&#x119;" horiz-adv-x="790" 
d="M686 -209q26 0 55 16v-75q-36 -39 -102 -39q-63 0 -101 36.5t-43 85.5t25 102t90 83h-483v1434h580v-134h-433v-507h369v-131h-369v-529h439v-133q-79 -37 -98 -104q-15 -56 20 -87q20 -18 51 -18z" />
    <glyph glyph-name="Ecaron" unicode="&#x11a;" horiz-adv-x="790" 
d="M657 1810h-135l-108 -165l-107 165h-135l176 -264h133zM713 0h-586v1434h580v-134h-433v-507h369v-131h-369v-529h439v-133z" />
    <glyph glyph-name="ecaron" unicode="&#x11b;" horiz-adv-x="790" 
d="M657 1810h-135l-108 -165l-107 165h-135l176 -264h133zM713 0h-586v1434h580v-134h-433v-507h369v-131h-369v-529h439v-133z" />
    <glyph glyph-name="Gbreve" unicode="&#x11e;" horiz-adv-x="921" 
d="M676 1792v-88q0 -78 -54 -119t-147 -41h-24q-93 0 -147 41t-54 121v86h117v-63q0 -84 92 -84h8q92 0 92 84v63h117zM807 719v-432q0 -303 -336 -303h-16q-336 0 -336 303v860q0 150 86 226.5t250 76.5h16q164 0 250 -76.5t86 -226.5v-193h-148v156q0 111 -46 159t-150 48
t-150.5 -48t-46.5 -159v-786q0 -111 46.5 -159t150.5 -48t150 48t46 159v264h-204v131h352z" />
    <glyph glyph-name="gbreve" unicode="&#x11f;" horiz-adv-x="921" 
d="M676 1792v-88q0 -78 -54 -119t-147 -41h-24q-93 0 -147 41t-54 121v86h117v-63q0 -84 92 -84h8q92 0 92 84v63h117zM807 719v-432q0 -303 -336 -303h-16q-336 0 -336 303v860q0 150 86 226.5t250 76.5h16q164 0 250 -76.5t86 -226.5v-193h-148v156q0 111 -46 159t-150 48
t-150.5 -48t-46.5 -159v-786q0 -111 46.5 -159t150.5 -48t150 48t46 159v264h-204v131h352z" />
    <glyph glyph-name="Gdotaccent" unicode="&#x120;" horiz-adv-x="921" 
d="M537 1718v-172h-148v172h148zM807 719v-432q0 -303 -336 -303h-16q-336 0 -336 303v860q0 150 86 226.5t250 76.5h16q164 0 250 -76.5t86 -226.5v-193h-148v156q0 111 -46 159t-150 48t-150.5 -48t-46.5 -159v-786q0 -111 46.5 -159t150.5 -48t150 48t46 159v264h-204
v131h352z" />
    <glyph glyph-name="gdotaccent" unicode="&#x121;" horiz-adv-x="921" 
d="M537 1718v-172h-148v172h148zM807 719v-432q0 -303 -336 -303h-16q-336 0 -336 303v860q0 150 86 226.5t250 76.5h16q164 0 250 -76.5t86 -226.5v-193h-148v156q0 111 -46 159t-150 48t-150.5 -48t-46.5 -159v-786q0 -111 46.5 -159t150.5 -48t150 48t46 159v264h-204
v131h352z" />
    <glyph glyph-name="Gcommaaccent" unicode="&#x122;" horiz-adv-x="921" 
d="M807 719v-432q0 -303 -336 -303h-16q-336 0 -336 303v860q0 150 86 226.5t250 76.5h16q164 0 250 -76.5t86 -226.5v-193h-148v156q0 111 -46 159t-150 48t-150.5 -48t-46.5 -159v-786q0 -111 46.5 -159t150.5 -48t150 48t46 159v264h-204v131h352zM537 -143v-136
q0 -168 -88 -299l-60 31q26 42 44.5 104.5t21.5 116.5h-70v183h152z" />
    <glyph glyph-name="gcommaaccent" unicode="&#x123;" horiz-adv-x="921" 
d="M807 719v-432q0 -303 -336 -303h-16q-336 0 -336 303v860q0 150 86 226.5t250 76.5h16q164 0 250 -76.5t86 -226.5v-193h-148v156q0 111 -46 159t-150 48t-150.5 -48t-46.5 -159v-786q0 -111 46.5 -159t150.5 -48t150 48t46 159v264h-204v131h352zM537 -143v-136
q0 -168 -88 -299l-60 31q26 42 44.5 104.5t21.5 116.5h-70v183h152z" />
    <glyph glyph-name="Hbar" unicode="&#x126;" horiz-adv-x="993" 
d="M961 1159v-102h-115v-1057h-148v662h-403v-662h-148v1057h-114v102h114v275h148v-275h403v275h148v-275h115zM698 797v260h-403v-260h403z" />
    <glyph glyph-name="hbar" unicode="&#x127;" horiz-adv-x="993" 
d="M961 1159v-102h-115v-1057h-148v662h-403v-662h-148v1057h-114v102h114v275h148v-275h403v275h148v-275h115zM698 797v260h-403v-260h403z" />
    <glyph glyph-name="Imacron" unicode="&#x12a;" horiz-adv-x="415" 
d="M440 1567h-463v123h463v-123zM283 0h-148v1434h148v-1434z" />
    <glyph glyph-name="imacron" unicode="&#x12b;" horiz-adv-x="415" 
d="M440 1567h-463v123h463v-123zM283 0h-148v1434h148v-1434z" />
    <glyph glyph-name="Ibreve" unicode="&#x12c;" horiz-adv-x="415" 
d="M422 1792v-88q0 -78 -54 -119t-147 -41h-24q-93 0 -147 41t-54 121v86h117v-63q0 -84 92 -84h8q92 0 92 84v63h117zM283 0h-148v1434h148v-1434z" />
    <glyph glyph-name="ibreve" unicode="&#x12d;" horiz-adv-x="415" 
d="M422 1792v-88q0 -78 -54 -119t-147 -41h-24q-93 0 -147 41t-54 121v86h117v-63q0 -84 92 -84h8q92 0 92 84v63h117zM283 0h-148v1434h148v-1434z" />
    <glyph glyph-name="Iogonek" unicode="&#x12e;" horiz-adv-x="415" 
d="M238 0q-79 -37 -98 -104q-15 -56 20 -87q20 -18 51 -18q26 0 55 16v-75q-36 -39 -102 -39q-63 0 -101 36.5t-43 85.5t25 102t90 83v1434h148v-1434h-45z" />
    <glyph glyph-name="iogonek" unicode="&#x12f;" horiz-adv-x="415" 
d="M238 0q-79 -37 -98 -104q-15 -56 20 -87q20 -18 51 -18q26 0 55 16v-75q-36 -39 -102 -39q-63 0 -101 36.5t-43 85.5t25 102t90 83v1434h148v-1434h-45z" />
    <glyph glyph-name="Idotaccent" unicode="&#x130;" horiz-adv-x="415" 
d="M283 1718v-172h-148v172h148zM283 0h-148v1434h148v-1434z" />
    <glyph glyph-name="IJ" unicode="&#x132;" horiz-adv-x="749" 
d="M274 295h-147v1139h147v-1139zM283 135q104 0 151 48t47 161v1090h148v-1131q0 -303 -342 -303h-160v135h156z" />
    <glyph glyph-name="ij" unicode="&#x133;" horiz-adv-x="749" 
d="M274 295h-147v1139h147v-1139zM283 135q104 0 151 48t47 161v1090h148v-1131q0 -303 -342 -303h-160v135h156z" />
    <glyph glyph-name="Kcommaaccent" unicode="&#x136;" horiz-adv-x="880" 
d="M526 897l334 -897h-153l-271 739l-162 -278v-461h-147v1434h147v-738l402 738h160zM410 -326v183h151v-136q0 -168 -88 -299l-59 31q26 42 44 104t21 117h-69z" />
    <glyph glyph-name="kcommaaccent" unicode="&#x137;" horiz-adv-x="880" 
d="M526 897l334 -897h-153l-271 739l-162 -278v-461h-147v1434h147v-738l402 738h160zM410 -326v183h151v-136q0 -168 -88 -299l-59 31q26 42 44 104t21 117h-69z" />
    <glyph glyph-name="Lacute" unicode="&#x139;" horiz-adv-x="718" 
d="M291 1810h182l-209 -264h-114zM682 135v-135h-555v1434h147v-1299h408z" />
    <glyph glyph-name="lacute" unicode="&#x13a;" horiz-adv-x="718" 
d="M291 1810h182l-209 -264h-114zM682 135v-135h-555v1434h147v-1299h408z" />
    <glyph glyph-name="Lcommaaccent" unicode="&#x13b;" horiz-adv-x="718" 
d="M682 135v-135h-555v1434h147v-1299h408zM479 -143v-136q0 -168 -88 -299l-59 31q26 42 44 104t21 117h-69v183h151z" />
    <glyph glyph-name="lcommaaccent" unicode="&#x13c;" horiz-adv-x="718" 
d="M682 135v-135h-555v1434h147v-1299h408zM479 -143v-136q0 -168 -88 -299l-59 31q26 42 44 104t21 117h-69v183h151z" />
    <glyph glyph-name="Lcaron" unicode="&#x13d;" horiz-adv-x="718" 
d="M682 135v-135h-555v1434h147v-1299h408zM598 1434v-136q0 -168 -88 -299l-59 31q26 42 44 104t21 117h-70v183h152z" />
    <glyph glyph-name="lcaron" unicode="&#x13e;" horiz-adv-x="718" 
d="M682 135v-135h-555v1434h147v-1299h408zM598 1434v-136q0 -168 -88 -299l-59 31q26 42 44 104t21 117h-70v183h152z" />
    <glyph glyph-name="Ldot" unicode="&#x13f;" horiz-adv-x="731" 
d="M682 135v-135h-555v1434h147v-1299h408zM573 915v-182h-151v182h151z" />
    <glyph glyph-name="ldot" unicode="&#x140;" horiz-adv-x="731" 
d="M682 135v-135h-555v1434h147v-1299h408zM573 915v-182h-151v182h151z" />
    <glyph glyph-name="Lslash" unicode="&#x141;" horiz-adv-x="739" 
d="M295 135h407v-135h-555v653l-127 -63v129l127 63v652h148v-578l240 121v-129l-240 -121v-592z" />
    <glyph glyph-name="lslash" unicode="&#x142;" horiz-adv-x="739" 
d="M295 135h407v-135h-555v653l-127 -63v129l127 63v652h148v-578l240 121v-129l-240 -121v-592z" />
    <glyph glyph-name="Nacute" unicode="&#x143;" horiz-adv-x="960" 
d="M555 1810h182l-209 -264h-114zM264 0h-137v1434h149l420 -1088v1088h138v-1434h-142l-428 1108v-1108z" />
    <glyph glyph-name="nacute" unicode="&#x144;" horiz-adv-x="960" 
d="M555 1810h182l-209 -264h-114zM264 0h-137v1434h149l420 -1088v1088h138v-1434h-142l-428 1108v-1108z" />
    <glyph glyph-name="Ncommaaccent" unicode="&#x145;" horiz-adv-x="960" 
d="M264 0h-137v1434h149l420 -1088v1088h138v-1434h-142l-428 1108v-1108zM553 -143v-136q0 -168 -88 -299l-59 31q26 42 44 104t21 117h-70v183h152z" />
    <glyph glyph-name="ncommaaccent" unicode="&#x146;" horiz-adv-x="960" 
d="M264 0h-137v1434h149l420 -1088v1088h138v-1434h-142l-428 1108v-1108zM553 -143v-136q0 -168 -88 -299l-59 31q26 42 44 104t21 117h-70v183h152z" />
    <glyph glyph-name="Ncaron" unicode="&#x147;" horiz-adv-x="960" 
d="M729 1810h-135l-109 -165l-106 165h-135l176 -264h133zM264 0h-137v1434h149l420 -1088v1088h138v-1434h-142l-428 1108v-1108z" />
    <glyph glyph-name="ncaron" unicode="&#x148;" horiz-adv-x="960" 
d="M729 1810h-135l-109 -165l-106 165h-135l176 -264h133zM264 0h-137v1434h149l420 -1088v1088h138v-1434h-142l-428 1108v-1108z" />
    <glyph glyph-name="Eng" unicode="&#x14a;" horiz-adv-x="960" 
d="M696 1434h138v-1428q0 -303 -328 -303h-45v131h45q87 0 132 40t52 130l-426 1104v-1108h-137v1434h149l420 -1088v1088z" />
    <glyph glyph-name="eng" unicode="&#x14b;" horiz-adv-x="960" 
d="M696 1434h138v-1428q0 -303 -328 -303h-45v131h45q87 0 132 40t52 130l-426 1104v-1108h-137v1434h149l420 -1088v1088z" />
    <glyph glyph-name="Omacron" unicode="&#x14c;" horiz-adv-x="925" 
d="M694 1567h-463v123h463v-123zM119 1147q0 303 336 303h16q336 0 336 -303v-860q0 -303 -336 -303h-16q-336 0 -336 303v860zM266 324q0 -111 46.5 -159t150.5 -48t150 48t46 159v786q0 111 -46 159t-150 48t-150.5 -48t-46.5 -159v-786z" />
    <glyph glyph-name="omacron" unicode="&#x14d;" horiz-adv-x="925" 
d="M694 1567h-463v123h463v-123zM119 1147q0 303 336 303h16q336 0 336 -303v-860q0 -303 -336 -303h-16q-336 0 -336 303v860zM266 324q0 -111 46.5 -159t150.5 -48t150 48t46 159v786q0 111 -46 159t-150 48t-150.5 -48t-46.5 -159v-786z" />
    <glyph glyph-name="Obreve" unicode="&#x14e;" horiz-adv-x="925" 
d="M676 1792v-88q0 -78 -54 -119t-147 -41h-24q-93 0 -147 41t-54 121v86h117v-63q0 -84 92 -84h8q92 0 92 84v63h117zM119 1147q0 303 336 303h16q336 0 336 -303v-860q0 -303 -336 -303h-16q-336 0 -336 303v860zM266 324q0 -111 46.5 -159t150.5 -48t150 48t46 159v786
q0 111 -46 159t-150 48t-150.5 -48t-46.5 -159v-786z" />
    <glyph glyph-name="obreve" unicode="&#x14f;" horiz-adv-x="925" 
d="M676 1792v-88q0 -78 -54 -119t-147 -41h-24q-93 0 -147 41t-54 121v86h117v-63q0 -84 92 -84h8q92 0 92 84v63h117zM119 1147q0 303 336 303h16q336 0 336 -303v-860q0 -303 -336 -303h-16q-336 0 -336 303v860zM266 324q0 -111 46.5 -159t150.5 -48t150 48t46 159v786
q0 111 -46 159t-150 48t-150.5 -48t-46.5 -159v-786z" />
    <glyph glyph-name="Ohungarumlaut" unicode="&#x150;" horiz-adv-x="925" 
d="M418 1810h141l-223 -264h-143zM694 1810h144l-224 -264h-141zM119 1147q0 303 336 303h16q336 0 336 -303v-860q0 -303 -336 -303h-16q-336 0 -336 303v860zM266 324q0 -111 46.5 -159t150.5 -48t150 48t46 159v786q0 111 -46 159t-150 48t-150.5 -48t-46.5 -159v-786z
" />
    <glyph glyph-name="ohungarumlaut" unicode="&#x151;" horiz-adv-x="925" 
d="M418 1810h141l-223 -264h-143zM694 1810h144l-224 -264h-141zM119 1147q0 303 336 303h16q336 0 336 -303v-860q0 -303 -336 -303h-16q-336 0 -336 303v860zM266 324q0 -111 46.5 -159t150.5 -48t150 48t46 159v786q0 111 -46 159t-150 48t-150.5 -48t-46.5 -159v-786z
" />
    <glyph glyph-name="OE" unicode="&#x152;" horiz-adv-x="1314" 
d="M799 133h438v-133h-782q-336 0 -336 303v827q0 152 85.5 228t250.5 76h776v-134h-432v-507h368v-131h-368v-529zM649 133v1167h-186q-104 0 -150.5 -47.5t-46.5 -158.5v-754q0 -111 46.5 -159t150.5 -48h186z" />
    <glyph glyph-name="oe" unicode="&#x153;" horiz-adv-x="1314" 
d="M799 133h438v-133h-782q-336 0 -336 303v827q0 152 85.5 228t250.5 76h776v-134h-432v-507h368v-131h-368v-529zM649 133v1167h-186q-104 0 -150.5 -47.5t-46.5 -158.5v-754q0 -111 46.5 -159t150.5 -48h186z" />
    <glyph glyph-name="Racute" unicode="&#x154;" horiz-adv-x="923" 
d="M702 1810l-208 -264h-115l141 264h182zM858 0h-153l-220 604h-12h-199v-604h-147v1434h346q165 0 250.5 -76t85.5 -228v-223q0 -220 -182 -280zM274 1300v-565h191q104 0 150.5 48t46.5 159v152q0 111 -46.5 158.5t-150.5 47.5h-191z" />
    <glyph glyph-name="racute" unicode="&#x155;" horiz-adv-x="923" 
d="M702 1810l-208 -264h-115l141 264h182zM858 0h-153l-220 604h-12h-199v-604h-147v1434h346q165 0 250.5 -76t85.5 -228v-223q0 -220 -182 -280zM274 1300v-565h191q104 0 150.5 48t46.5 159v152q0 111 -46.5 158.5t-150.5 47.5h-191z" />
    <glyph glyph-name="Rcommaaccent" unicode="&#x156;" horiz-adv-x="923" 
d="M627 627l231 -627h-153l-220 604h-12h-199v-604h-147v1434h346q165 0 250.5 -76t85.5 -228v-223q0 -220 -182 -280zM274 1300v-565h191q104 0 150.5 48t46.5 159v152q0 111 -46.5 158.5t-150.5 47.5h-191zM410 -326v183h151v-136q0 -168 -88 -299l-59 31q26 42 44 104
t21 117h-69z" />
    <glyph glyph-name="rcommaaccent" unicode="&#x157;" horiz-adv-x="923" 
d="M627 627l231 -627h-153l-220 604h-12h-199v-604h-147v1434h346q165 0 250.5 -76t85.5 -228v-223q0 -220 -182 -280zM274 1300v-565h191q104 0 150.5 48t46.5 159v152q0 111 -46.5 158.5t-150.5 47.5h-191zM410 -326v183h151v-136q0 -168 -88 -299l-59 31q26 42 44 104
t21 117h-69z" />
    <glyph glyph-name="Rcaron" unicode="&#x158;" horiz-adv-x="923" 
d="M518 1546h-133l-176 264h135l107 -165l108 165h135zM858 0h-153l-220 604h-12h-199v-604h-147v1434h346q165 0 250.5 -76t85.5 -228v-223q0 -220 -182 -280zM274 1300v-565h191q104 0 150.5 48t46.5 159v152q0 111 -46.5 158.5t-150.5 47.5h-191z" />
    <glyph glyph-name="rcaron" unicode="&#x159;" horiz-adv-x="923" 
d="M518 1546h-133l-176 264h135l107 -165l108 165h135zM858 0h-153l-220 604h-12h-199v-604h-147v1434h346q165 0 250.5 -76t85.5 -228v-223q0 -220 -182 -280zM274 1300v-565h191q104 0 150.5 48t46.5 159v152q0 111 -46.5 158.5t-150.5 47.5h-191z" />
    <glyph glyph-name="Sacute" unicode="&#x15a;" horiz-adv-x="856" 
d="M498 1810h182l-209 -264h-115zM758 934h-146v188q0 103 -43.5 150t-140.5 47t-140.5 -47t-43.5 -150v-100q0 -69 26 -102.5t103 -75.5l205 -113q90 -49 137 -110.5t47 -147.5v-190q0 -154 -82.5 -226.5t-247.5 -72.5h-4q-166 0 -248 71.5t-82 227.5v237h146v-205
q0 -102 44.5 -151t141.5 -49t141.5 49t44.5 151v115q0 69 -29 107t-106 81l-200 111q-99 56 -141 110t-42 144v172q0 146 87.5 220.5t240.5 74.5h4q153 0 240.5 -74.5t87.5 -220.5v-221z" />
    <glyph glyph-name="sacute" unicode="&#x15b;" horiz-adv-x="856" 
d="M498 1810h182l-209 -264h-115zM758 934h-146v188q0 103 -43.5 150t-140.5 47t-140.5 -47t-43.5 -150v-100q0 -69 26 -102.5t103 -75.5l205 -113q90 -49 137 -110.5t47 -147.5v-190q0 -154 -82.5 -226.5t-247.5 -72.5h-4q-166 0 -248 71.5t-82 227.5v237h146v-205
q0 -102 44.5 -151t141.5 -49t141.5 49t44.5 151v115q0 69 -29 107t-106 81l-200 111q-99 56 -141 110t-42 144v172q0 146 87.5 220.5t240.5 74.5h4q153 0 240.5 -74.5t87.5 -220.5v-221z" />
    <glyph glyph-name="Scedilla" unicode="&#x15e;" horiz-adv-x="856" 
d="M578 731q90 -49 137 -110.5t47 -147.5v-190q0 -268 -260 -295v-86q0 -92 -36 -130t-116 -38q-53 0 -96 16l-27 90h84q42 0 57 14.5t15 55.5v76q-143 8 -214 79.5t-71 217.5v237h146v-205q0 -102 44.5 -151t141.5 -49t141.5 49t44.5 151v115q0 69 -29 107t-106 81
l-200 111q-99 56 -141 110t-42 144v172q0 146 87.5 220.5t240.5 74.5h4q153 0 240.5 -74.5t87.5 -220.5v-221h-146v188q0 103 -43.5 150t-140.5 47t-140.5 -47t-43.5 -150v-100q0 -69 26 -102.5t103 -75.5z" />
    <glyph glyph-name="scedilla" unicode="&#x15f;" horiz-adv-x="856" 
d="M578 731q90 -49 137 -110.5t47 -147.5v-190q0 -268 -260 -295v-86q0 -92 -36 -130t-116 -38q-53 0 -96 16l-27 90h84q42 0 57 14.5t15 55.5v76q-143 8 -214 79.5t-71 217.5v237h146v-205q0 -102 44.5 -151t141.5 -49t141.5 49t44.5 151v115q0 69 -29 107t-106 81
l-200 111q-99 56 -141 110t-42 144v172q0 146 87.5 220.5t240.5 74.5h4q153 0 240.5 -74.5t87.5 -220.5v-221h-146v188q0 103 -43.5 150t-140.5 47t-140.5 -47t-43.5 -150v-100q0 -69 26 -102.5t103 -75.5z" />
    <glyph glyph-name="Scaron" unicode="&#x160;" horiz-adv-x="856" 
d="M672 1810h-135l-109 -165l-106 165h-136l176 -264h134zM758 934h-146v188q0 103 -43.5 150t-140.5 47t-140.5 -47t-43.5 -150v-100q0 -69 26 -102.5t103 -75.5l205 -113q90 -49 137 -110.5t47 -147.5v-190q0 -154 -82.5 -226.5t-247.5 -72.5h-4q-166 0 -248 71.5
t-82 227.5v237h146v-205q0 -102 44.5 -151t141.5 -49t141.5 49t44.5 151v115q0 69 -29 107t-106 81l-200 111q-99 56 -141 110t-42 144v172q0 146 87.5 220.5t240.5 74.5h4q153 0 240.5 -74.5t87.5 -220.5v-221z" />
    <glyph glyph-name="scaron" unicode="&#x161;" horiz-adv-x="856" 
d="M672 1810h-135l-109 -165l-106 165h-136l176 -264h134zM758 934h-146v188q0 103 -43.5 150t-140.5 47t-140.5 -47t-43.5 -150v-100q0 -69 26 -102.5t103 -75.5l205 -113q90 -49 137 -110.5t47 -147.5v-190q0 -154 -82.5 -226.5t-247.5 -72.5h-4q-166 0 -248 71.5
t-82 227.5v237h146v-205q0 -102 44.5 -151t141.5 -49t141.5 49t44.5 151v115q0 69 -29 107t-106 81l-200 111q-99 56 -141 110t-42 144v172q0 146 87.5 220.5t240.5 74.5h4q153 0 240.5 -74.5t87.5 -220.5v-221z" />
    <glyph glyph-name="uni0162" unicode="&#x162;" horiz-adv-x="733" 
d="M33 1434h669v-134h-262v-1300q-28 -11 -28 -102q0 -86 -37 -125t-113 -39q-56 0 -96 16l-29 90h92q33 0 48.5 15.5t15.5 54.5v1390h-260v134z" />
    <glyph glyph-name="uni0163" unicode="&#x163;" horiz-adv-x="733" 
d="M33 1434h669v-134h-262v-1300q-28 -11 -28 -102q0 -86 -37 -125t-113 -39q-56 0 -96 16l-29 90h92q33 0 48.5 15.5t15.5 54.5v1390h-260v134z" />
    <glyph glyph-name="Tcaron" unicode="&#x164;" horiz-adv-x="733" 
d="M610 1810h-135l-108 -165l-107 165h-135l176 -264h133zM702 1434v-134h-262v-1300h-147v1300h-260v134h669z" />
    <glyph glyph-name="tcaron" unicode="&#x165;" horiz-adv-x="733" 
d="M610 1810h-135l-108 -165l-107 165h-135l176 -264h133zM702 1434v-134h-262v-1300h-147v1300h-260v134h669z" />
    <glyph glyph-name="Tbar" unicode="&#x166;" horiz-adv-x="733" 
d="M702 1300h-262v-430h158v-122h-158v-748h-147v748h-158v122h158v430h-260v134h669v-134z" />
    <glyph glyph-name="tbar" unicode="&#x167;" horiz-adv-x="733" 
d="M702 1300h-262v-430h158v-122h-158v-748h-147v748h-158v122h158v430h-260v134h669v-134z" />
    <glyph glyph-name="Umacron" unicode="&#x16a;" 
d="M690 1567h-463v123h463v-123zM795 1434v-1147q0 -303 -332 -303h-8q-165 0 -248.5 73.5t-83.5 229.5v1147h147v-1110q0 -113 43 -160t146 -47t145.5 47t42.5 160v1110h148z" />
    <glyph glyph-name="umacron" unicode="&#x16b;" 
d="M690 1567h-463v123h463v-123zM795 1434v-1147q0 -303 -332 -303h-8q-165 0 -248.5 73.5t-83.5 229.5v1147h147v-1110q0 -113 43 -160t146 -47t145.5 47t42.5 160v1110h148z" />
    <glyph glyph-name="Ubreve" unicode="&#x16c;" 
d="M672 1792v-88q0 -78 -54 -119t-147 -41h-25q-93 0 -146.5 41t-53.5 121v86h116v-63q0 -84 93 -84h8q92 0 92 84v63h117zM795 1434v-1147q0 -303 -332 -303h-8q-165 0 -248.5 73.5t-83.5 229.5v1147h147v-1110q0 -113 43 -160t146 -47t145.5 47t42.5 160v1110h148z" />
    <glyph glyph-name="ubreve" unicode="&#x16d;" 
d="M672 1792v-88q0 -78 -54 -119t-147 -41h-25q-93 0 -146.5 41t-53.5 121v86h116v-63q0 -84 93 -84h8q92 0 92 84v63h117zM795 1434v-1147q0 -303 -332 -303h-8q-165 0 -248.5 73.5t-83.5 229.5v1147h147v-1110q0 -113 43 -160t146 -47t145.5 47t42.5 160v1110h148z" />
    <glyph glyph-name="Uring" unicode="&#x16e;" 
d="M459 1849q77 0 123.5 -42.5t46.5 -114.5t-46.5 -115t-123.5 -43q-78 0 -125 43t-47 115t47 114.5t125 42.5zM459 1772q-37 0 -59.5 -21t-22.5 -59t22.5 -59t59.5 -21q36 0 58 20.5t22 59.5t-22 59.5t-58 20.5zM795 1434v-1147q0 -303 -332 -303h-8q-165 0 -248.5 73.5
t-83.5 229.5v1147h147v-1110q0 -113 43 -160t146 -47t145.5 47t42.5 160v1110h148z" />
    <glyph glyph-name="uring" unicode="&#x16f;" 
d="M459 1849q77 0 123.5 -42.5t46.5 -114.5t-46.5 -115t-123.5 -43q-78 0 -125 43t-47 115t47 114.5t125 42.5zM459 1772q-37 0 -59.5 -21t-22.5 -59t22.5 -59t59.5 -21q36 0 58 20.5t22 59.5t-22 59.5t-58 20.5zM795 1434v-1147q0 -303 -332 -303h-8q-165 0 -248.5 73.5
t-83.5 229.5v1147h147v-1110q0 -113 43 -160t146 -47t145.5 47t42.5 160v1110h148z" />
    <glyph glyph-name="Uhungarumlaut" unicode="&#x170;" 
d="M414 1810h141l-223 -264h-144zM690 1810h144l-224 -264h-141zM795 1434v-1147q0 -303 -332 -303h-8q-165 0 -248.5 73.5t-83.5 229.5v1147h147v-1110q0 -113 43 -160t146 -47t145.5 47t42.5 160v1110h148z" />
    <glyph glyph-name="uhungarumlaut" unicode="&#x171;" 
d="M414 1810h141l-223 -264h-144zM690 1810h144l-224 -264h-141zM795 1434v-1147q0 -303 -332 -303h-8q-165 0 -248.5 73.5t-83.5 229.5v1147h147v-1110q0 -113 43 -160t146 -47t145.5 47t42.5 160v1110h148z" />
    <glyph glyph-name="Uogonek" unicode="&#x172;" 
d="M647 1434h148v-1147q0 -233 -195 -287q-79 -37 -98 -104q-15 -56 20 -87q20 -18 51 -18q27 0 56 16v-75q-36 -39 -103 -39q-59 0 -96.5 32.5t-45 77.5t14 96t70.5 85h-6h-8q-165 0 -248.5 73.5t-83.5 229.5v1147h147v-1110q0 -113 43 -160t146 -47t145.5 47t42.5 160
v1110z" />
    <glyph glyph-name="uogonek" unicode="&#x173;" 
d="M647 1434h148v-1147q0 -233 -195 -287q-79 -37 -98 -104q-15 -56 20 -87q20 -18 51 -18q27 0 56 16v-75q-36 -39 -103 -39q-59 0 -96.5 32.5t-45 77.5t14 96t70.5 85h-6h-8q-165 0 -248.5 73.5t-83.5 229.5v1147h147v-1110q0 -113 43 -160t146 -47t145.5 47t42.5 160
v1110z" />
    <glyph glyph-name="Wcircumflex" unicode="&#x174;" horiz-adv-x="1314" 
d="M907 1546l-176 264h-135l-176 -264h135l109 166l108 -166h135zM1270 1434l-236 -1434h-143l-232 1149l-231 -1149h-147l-236 1434h148l172 -1155l227 1155h139l227 -1155l172 1155h140z" />
    <glyph glyph-name="wcircumflex" unicode="&#x175;" horiz-adv-x="1314" 
d="M907 1546l-176 264h-135l-176 -264h135l109 166l108 -166h135zM1270 1434l-236 -1434h-143l-232 1149l-231 -1149h-147l-236 1434h148l172 -1155l227 1155h139l227 -1155l172 1155h140z" />
    <glyph glyph-name="Ycircumflex" unicode="&#x176;" horiz-adv-x="847" 
d="M668 1546l-176 264h-136l-176 -264h135l109 166l108 -166h136zM498 545v-545h-148v545l-309 889h154l229 -721l231 721h152z" />
    <glyph glyph-name="ycircumflex" unicode="&#x177;" horiz-adv-x="847" 
d="M668 1546l-176 264h-136l-176 -264h135l109 166l108 -166h136zM498 545v-545h-148v545l-309 889h154l229 -721l231 721h152z" />
    <glyph glyph-name="Ydieresis" unicode="&#x178;" horiz-adv-x="847" 
d="M350 1718v-172h-145v172h145zM643 1718v-172h-145v172h145zM498 545v-545h-148v545l-309 889h154l229 -721l231 721h152z" />
    <glyph glyph-name="Zacute" unicode="&#x179;" horiz-adv-x="743" 
d="M457 1810h182l-209 -264h-115zM692 127v-127h-639v106l467 1201h-442v127h600v-107l-467 -1200h481z" />
    <glyph glyph-name="zacute" unicode="&#x17a;" horiz-adv-x="743" 
d="M457 1810h182l-209 -264h-115zM692 127v-127h-639v106l467 1201h-442v127h600v-107l-467 -1200h481z" />
    <glyph glyph-name="Zdotaccent" unicode="&#x17b;" horiz-adv-x="743" 
d="M461 1718v-172h-148v172h148zM692 127v-127h-639v106l467 1201h-442v127h600v-107l-467 -1200h481z" />
    <glyph glyph-name="zdotaccent" unicode="&#x17c;" horiz-adv-x="743" 
d="M461 1718v-172h-148v172h148zM692 127v-127h-639v106l467 1201h-442v127h600v-107l-467 -1200h481z" />
    <glyph glyph-name="Zcaron" unicode="&#x17d;" horiz-adv-x="743" 
d="M631 1810h-135l-109 -165l-106 165h-136l177 -264h133zM692 127v-127h-639v106l467 1201h-442v127h600v-107l-467 -1200h481z" />
    <glyph glyph-name="zcaron" unicode="&#x17e;" horiz-adv-x="743" 
d="M631 1810h-135l-109 -165l-106 165h-136l177 -264h133zM692 127v-127h-639v106l467 1201h-442v127h600v-107l-467 -1200h481z" />
    <glyph glyph-name="florin" unicode="&#x192;" horiz-adv-x="704" 
d="M602 1300q-95 0 -136.5 -47.5t-41.5 -158.5v-281h219l-29 -127h-190v-383q0 -303 -313 -303h-70v133h61q95 0 137 48t42 159v346h-220l29 127h191v317q0 304 313 304h70v-134h-62z" />
    <glyph glyph-name="Aringacute" unicode="&#x1fa;" horiz-adv-x="868" 
d="M684 2163l-209 -265h-115l142 265h182zM432 1534q-78 0 -125 43t-47 115t47 114.5t125 42.5q77 0 123.5 -42.5t46.5 -114.5t-46.5 -115t-123.5 -43zM432 1772q-37 0 -59.5 -21t-22.5 -59t22.5 -59t59.5 -21q36 0 58 20.5t22 59.5t-22 59.5t-58 20.5zM676 0l-72 354h-348
l-72 -354h-143l303 1434h176l307 -1434h-151zM281 483h299l-150 746z" />
    <glyph glyph-name="aringacute" unicode="&#x1fb;" horiz-adv-x="868" 
d="M684 2163l-209 -265h-115l142 265h182zM432 1534q-78 0 -125 43t-47 115t47 114.5t125 42.5q77 0 123.5 -42.5t46.5 -114.5t-46.5 -115t-123.5 -43zM432 1772q-37 0 -59.5 -21t-22.5 -59t22.5 -59t59.5 -21q36 0 58 20.5t22 59.5t-22 59.5t-58 20.5zM676 0l-72 354h-348
l-72 -354h-143l303 1434h176l307 -1434h-151zM281 483h299l-150 746z" />
    <glyph glyph-name="AEacute" unicode="&#x1fc;" horiz-adv-x="1286" 
d="M1053 1810l-209 -264h-115l141 264h183zM770 133h438v-133h-585v354h-336l-111 -354h-147l452 1434h721v-134h-432v-507h369v-131h-369v-529zM326 481h297v819h-43z" />
    <glyph glyph-name="aeacute" unicode="&#x1fd;" horiz-adv-x="1286" 
d="M1053 1810l-209 -264h-115l141 264h183zM770 133h438v-133h-585v354h-336l-111 -354h-147l452 1434h721v-134h-432v-507h369v-131h-369v-529zM326 481h297v819h-43z" />
    <glyph glyph-name="Oslashacute" unicode="&#x1fe;" horiz-adv-x="925" 
d="M715 1810l-209 -264h-115l141 264h183zM471 1450q336 0 336 -303v-860q0 -303 -336 -303h-16q-336 0 -336 303v860q0 303 336 303h16zM266 1110v-786q0 -86 29 -136l252 1119q-42 10 -84 10q-104 0 -150.5 -48t-46.5 -159zM659 324v786q0 87 -28 135l-252 -1118
q42 -10 84 -10q104 0 150 48t46 159z" />
    <glyph glyph-name="oslashacute" unicode="&#x1ff;" horiz-adv-x="925" 
d="M715 1810l-209 -264h-115l141 264h183zM471 1450q336 0 336 -303v-860q0 -303 -336 -303h-16q-336 0 -336 303v860q0 303 336 303h16zM266 1110v-786q0 -86 29 -136l252 1119q-42 10 -84 10q-104 0 -150.5 -48t-46.5 -159zM659 324v786q0 87 -28 135l-252 -1118
q42 -10 84 -10q104 0 150 48t46 159z" />
    <glyph glyph-name="Scommaaccent" unicode="&#x218;" horiz-adv-x="856" 
d="M758 934h-146v188q0 103 -43.5 150t-140.5 47t-140.5 -47t-43.5 -150v-100q0 -69 26 -102.5t103 -75.5l205 -113q90 -49 137 -110.5t47 -147.5v-190q0 -154 -82.5 -226.5t-247.5 -72.5h-4q-166 0 -248 71.5t-82 227.5v237h146v-205q0 -102 44.5 -151t141.5 -49t141.5 49
t44.5 151v115q0 69 -29 107t-106 81l-200 111q-99 56 -141 110t-42 144v172q0 146 87.5 220.5t240.5 74.5h4q153 0 240.5 -74.5t87.5 -220.5v-221zM524 -143v-136q0 -168 -88 -299l-59 31q26 42 44 104t21 117h-69v183h151z" />
    <glyph glyph-name="scommaaccent" unicode="&#x219;" horiz-adv-x="856" 
d="M758 934h-146v188q0 103 -43.5 150t-140.5 47t-140.5 -47t-43.5 -150v-100q0 -69 26 -102.5t103 -75.5l205 -113q90 -49 137 -110.5t47 -147.5v-190q0 -154 -82.5 -226.5t-247.5 -72.5h-4q-166 0 -248 71.5t-82 227.5v237h146v-205q0 -102 44.5 -151t141.5 -49t141.5 49
t44.5 151v115q0 69 -29 107t-106 81l-200 111q-99 56 -141 110t-42 144v172q0 146 87.5 220.5t240.5 74.5h4q153 0 240.5 -74.5t87.5 -220.5v-221zM524 -143v-136q0 -168 -88 -299l-59 31q26 42 44 104t21 117h-69v183h151z" />
    <glyph glyph-name="circumflex" unicode="&#x2c6;" horiz-adv-x="892" 
d="M690 1546l-176 264h-135l-176 -264h135l108 166l109 -166h135z" />
    <glyph glyph-name="caron" unicode="&#x2c7;" horiz-adv-x="892" 
d="M688 1810h-135l-109 -165l-106 165h-135l176 -264h133z" />
    <glyph glyph-name="breve" unicode="&#x2d8;" horiz-adv-x="966" 
d="M696 1792v-88q0 -78 -53.5 -119t-146.5 -41h-25q-93 0 -147 41t-54 121v86h117v-63q0 -84 92 -84h8q93 0 93 84v63h116z" />
    <glyph glyph-name="dotaccent" unicode="&#x2d9;" horiz-adv-x="585" 
d="M367 1718v-172h-148v172h148z" />
    <glyph glyph-name="ring" unicode="&#x2da;" horiz-adv-x="780" 
d="M393 1849q77 0 123.5 -42.5t46.5 -114.5t-46.5 -115t-123.5 -43q-78 0 -125 43t-47 115t47 114.5t125 42.5zM393 1772q-37 0 -59.5 -21t-22.5 -59t22.5 -59t59.5 -21q36 0 58 20.5t22 59.5t-22 59.5t-58 20.5z" />
    <glyph glyph-name="ogonek" unicode="&#x2db;" horiz-adv-x="804" 
d="M449 -209q26 0 55 16v-75q-36 -39 -103 -39q-63 0 -100.5 36.5t-42.5 85.5t25 102t90 83h102q-64 -30 -88.5 -81t-5.5 -89.5t68 -38.5z" />
    <glyph glyph-name="tilde" unicode="&#x2dc;" horiz-adv-x="995" 
d="M305 1575q0 104 68 104q28 0 60 -21t57.5 -46.5t65 -46.5t81.5 -21q69 0 115.5 52.5t46.5 152.5v37h-111v-23q0 -104 -67 -104q-27 0 -57 21t-54.5 46.5t-63.5 46.5t-81 21q-71 0 -119.5 -52t-48.5 -151v-37h108v21z" />
    <glyph glyph-name="hungarumlaut" unicode="&#x2dd;" horiz-adv-x="1536" 
d="M659 1810h142l-223 -264h-144zM936 1810h143l-223 -264h-141z" />
    <glyph glyph-name="uni0326" unicode="&#x326;" horiz-adv-x="0" 
d="M-252 -143v-136q0 -168 -88 -299l-59 31q26 42 44 104t21 117h-69v183h151z" />
    <glyph glyph-name="Wgrave" unicode="&#x1e80;" horiz-adv-x="1314" 
d="M596 1810l141 -264h-114l-209 264h182zM1270 1434l-236 -1434h-143l-232 1149l-231 -1149h-147l-236 1434h148l172 -1155l227 1155h139l227 -1155l172 1155h140z" />
    <glyph glyph-name="wgrave" unicode="&#x1e81;" horiz-adv-x="1314" 
d="M596 1810l141 -264h-114l-209 264h182zM1270 1434l-236 -1434h-143l-232 1149l-231 -1149h-147l-236 1434h148l172 -1155l227 1155h139l227 -1155l172 1155h140z" />
    <glyph glyph-name="Wacute" unicode="&#x1e82;" horiz-adv-x="1314" 
d="M733 1810h182l-208 -264h-115zM1270 1434l-236 -1434h-143l-232 1149l-231 -1149h-147l-236 1434h148l172 -1155l227 1155h139l227 -1155l172 1155h140z" />
    <glyph glyph-name="wacute" unicode="&#x1e83;" horiz-adv-x="1314" 
d="M733 1810h182l-208 -264h-115zM1270 1434l-236 -1434h-143l-232 1149l-231 -1149h-147l-236 1434h148l172 -1155l227 1155h139l227 -1155l172 1155h140z" />
    <glyph glyph-name="Wdieresis" unicode="&#x1e84;" horiz-adv-x="1314" 
d="M590 1718v-172h-146v172h146zM883 1718v-172h-146v172h146zM1270 1434l-236 -1434h-143l-232 1149l-231 -1149h-147l-236 1434h148l172 -1155l227 1155h139l227 -1155l172 1155h140z" />
    <glyph glyph-name="wdieresis" unicode="&#x1e85;" horiz-adv-x="1314" 
d="M590 1718v-172h-146v172h146zM883 1718v-172h-146v172h146zM1270 1434l-236 -1434h-143l-232 1149l-231 -1149h-147l-236 1434h148l172 -1155l227 1155h139l227 -1155l172 1155h140z" />
    <glyph glyph-name="Ygrave" unicode="&#x1ef2;" horiz-adv-x="847" 
d="M356 1810l142 -264h-115l-209 264h182zM498 545v-545h-148v545l-309 889h154l229 -721l231 721h152z" />
    <glyph glyph-name="ygrave" unicode="&#x1ef3;" horiz-adv-x="847" 
d="M356 1810l142 -264h-115l-209 264h182zM498 545v-545h-148v545l-309 889h154l229 -721l231 721h152z" />
    <glyph glyph-name="endash" unicode="&#x2013;" horiz-adv-x="729" 
d="M676 795v-123h-623v123h623z" />
    <glyph glyph-name="emdash" unicode="&#x2014;" horiz-adv-x="1036" 
d="M983 795v-123h-930v123h930z" />
    <glyph glyph-name="quoteleft" unicode="&#x2018;" horiz-adv-x="339" 
d="M94 1018v135q0 168 88 299l60 -31q-26 -42 -44.5 -104.5t-21.5 -116.5h70v-182h-152z" />
    <glyph glyph-name="quoteright" unicode="&#x2019;" horiz-adv-x="339" 
d="M246 1434v-136q0 -168 -88 -299l-60 31q26 42 44.5 104.5t21.5 116.5h-70v183h152z" />
    <glyph glyph-name="quotesinglbase" unicode="&#x201a;" horiz-adv-x="339" 
d="M246 182v-135q0 -168 -88 -299l-60 31q26 42 44.5 104.5t21.5 116.5h-70v182h152z" />
    <glyph glyph-name="quotedblleft" unicode="&#x201c;" horiz-adv-x="573" 
d="M94 1018v135q0 168 88 299l60 -31q-26 -42 -44.5 -104.5t-21.5 -116.5h70v-182h-152zM328 1018v135q0 168 88 299l59 -31q-26 -42 -44 -104t-21 -117h69v-182h-151z" />
    <glyph glyph-name="quotedblright" unicode="&#x201d;" horiz-adv-x="573" 
d="M246 1434v-136q0 -168 -88 -299l-60 31q26 42 44.5 104.5t21.5 116.5h-70v183h152zM479 1434v-136q0 -168 -88 -299l-59 31q26 42 44 104t21 117h-69v183h151z" />
    <glyph glyph-name="quotedblbase" unicode="&#x201e;" horiz-adv-x="573" 
d="M246 182v-135q0 -168 -88 -299l-60 31q26 42 44.5 104.5t21.5 116.5h-70v182h152zM479 182v-135q0 -168 -88 -299l-59 31q26 42 44 104t21 117h-69v182h151z" />
    <glyph glyph-name="dagger" unicode="&#x2020;" horiz-adv-x="675" 
d="M639 1024v-123h-236v-901h-131v901h-235v123h235v410h131v-410h236z" />
    <glyph glyph-name="daggerdbl" unicode="&#x2021;" horiz-adv-x="675" 
d="M639 901h-236v-369h236v-122h-236v-410h-131v410h-235v122h235v369h-235v123h235v410h131v-410h236v-123z" />
    <glyph glyph-name="bullet" unicode="&#x2022;" horiz-adv-x="579" 
d="M291 870q68 0 101.5 -33t33.5 -108t-33.5 -108t-101.5 -33t-101.5 33t-33.5 108t33.5 108t101.5 33z" />
    <glyph glyph-name="ellipsis" unicode="&#x2026;" horiz-adv-x="1091" 
d="M246 182v-182h-152v182h152zM621 182v-182h-152v182h152zM997 182v-182h-151v182h151z" />
    <glyph glyph-name="perthousand" unicode="&#x2030;" horiz-adv-x="1492" 
d="M272 1442q68 0 116 -43.5t48 -130.5v-262q0 -88 -48 -131.5t-116 -43.5h-32q-71 0 -118.5 43.5t-47.5 131.5v262q0 88 47.5 131t118.5 43h32zM911 1434l-675 -1434h-101l676 1434h100zM340 1247q0 56 -18 80.5t-56 24.5h-22q-38 0 -56 -24.5t-18 -80.5v-221q0 -56 18 -80
t56 -24h22q38 0 56 24t18 80v221zM809 602q68 0 116 -43.5t48 -130.5v-262q0 -87 -48 -130.5t-116 -43.5h-33q-71 0 -118.5 43t-47.5 131v262q0 88 47.5 131t118.5 43h33zM1255 602q68 0 116 -43.5t48 -130.5v-262q0 -87 -48 -130.5t-116 -43.5h-32q-71 0 -118.5 43
t-47.5 131v262q0 88 47.5 131t118.5 43h32zM877 408q0 56 -18 80t-56 24h-23q-38 0 -55.5 -24t-17.5 -80v-222q0 -56 17.5 -80t55.5 -24h23q38 0 56 24t18 80v222zM1323 408q0 56 -18 80t-56 24h-20q-39 0 -57.5 -24t-18.5 -80v-222q0 -56 18.5 -80t57.5 -24h20q38 0 56 24
t18 80v222z" />
    <glyph glyph-name="guilsinglleft" unicode="&#x2039;" horiz-adv-x="458" 
d="M397 950v154l-364 -336v-86l364 -336v154l-247 225z" />
    <glyph glyph-name="guilsinglright" unicode="&#x203a;" horiz-adv-x="458" 
d="M61 950l248 -225l-248 -225v-154l365 336v86l-365 336v-154z" />
    <glyph glyph-name="fraction" unicode="&#x2044;" horiz-adv-x="188" 
d="M307 1434h94l-520 -1434h-94z" />
    <glyph glyph-name="Euro" unicode="&#x20ac;" horiz-adv-x="925" 
d="M815 897h-147v213q0 110 -45 158.5t-146 48.5t-145.5 -48.5t-44.5 -158.5v-223h260v-88h-260v-131h260v-88h-260v-256q0 -110 44.5 -158.5t145.5 -48.5t146 48.5t45 158.5v247h147v-284q0 -303 -336 -303h-4q-336 0 -336 303v293h-131v88h131v131h-131v88h131v260
q0 150 86 226.5t250 76.5h4q164 0 250 -76.5t86 -226.5v-250z" />
    <glyph glyph-name="uni2120" unicode="&#x2120;" horiz-adv-x="825" 
d="M322 1245h-76v64q0 65 -56 65q-59 0 -59 -65v-29q0 -27 11 -40t46 -36l70 -43q66 -42 66 -104v-64q0 -121 -134 -121q-135 0 -135 121v84h76v-71q0 -66 59 -66q58 0 58 66v34q0 20 -8.5 34t-19 21.5t-38.5 24.5l-65 41q-62 37 -62 105v57q0 57 37.5 88t97.5 31
q61 0 96.5 -31t35.5 -88v-78zM694 1237l-92 -264h-39l-92 264v-356h-76v553h72l115 -332l112 332h76v-553h-76v356z" />
    <glyph glyph-name="trademark" unicode="&#x2122;" horiz-adv-x="790" 
d="M297 1434v-70h-92v-483h-78v483h-92v70h262zM659 1237l-92 -264h-39l-92 264v-356h-76v553h72l115 -332l112 332h76v-553h-76v356z" />
    <glyph glyph-name="uni2153" unicode="&#x2153;" horiz-adv-x="1083" 
d="M203 565h-109v774q36 42 45 95h64v-869zM643 1434h94l-520 -1434h-94zM989 582q0 -107 -71 -131q71 -24 71 -123v-150q0 -87 -46.5 -138.5t-139.5 -51.5h-31q-93 0 -139.5 51.5t-46.5 138.5v127h108v-110q0 -57 22 -82t66 -25h11q44 0 65 25t21 82v124q0 42 -20.5 60
t-61.5 18h-103v99h90q51 0 73 20.5t22 71.5v82q0 57 -21 81.5t-65 24.5h-13q-44 0 -65 -24t-21 -82v-90h-108v106q0 191 196 191h11q196 0 196 -191v-104z" />
    <glyph glyph-name="uni2154" unicode="&#x2154;" horiz-adv-x="1327" 
d="M98 1114v148q0 91 50 137.5t147 46.5h2q199 0 199 -184v-88q0 -24 -4.5 -45t-15.5 -41t-20.5 -34t-30 -34t-31.5 -30t-37.5 -32.5t-37.5 -31.5q-64 -53 -88 -93t-24 -83v-82h289v-99h-402v183q0 76 38.5 130t121.5 126q78 63 103.5 94t25.5 74v69q0 54 -20.5 78.5
t-69.5 24.5q-45 0 -65.5 -25t-20.5 -78v-131h-109zM887 1434h94l-520 -1434h-94zM1233 582q0 -107 -72 -131q72 -24 72 -123v-150q0 -87 -46.5 -138.5t-139.5 -51.5h-31q-93 0 -140 51.5t-47 138.5v127h109v-110q0 -57 22 -82t66 -25h10q44 0 66 25t22 82v124q0 78 -84 78
h-102v99h90q51 0 73.5 20.5t22.5 71.5v82q0 57 -22 81.5t-66 24.5h-12q-44 0 -65 -24t-21 -82v-90h-109v106q0 191 197 191h10q197 0 197 -191v-104z" />
    <glyph glyph-name="uni2155" unicode="&#x2155;" horiz-adv-x="1107" 
d="M203 565h-109v774q36 42 45 95h64v-869zM643 1434h94l-520 -1434h-94zM1006 764h-279v-248q42 57 121 57q78 0 122 -46t44 -126v-229q0 -184 -199 -184h-4q-199 0 -199 184v145h109v-129q0 -53 21.5 -77.5t68.5 -24.5q49 0 71.5 24.5t22.5 77.5v197q0 88 -76 88
q-67 0 -108 -70l-105 29v432h390v-100z" />
    <glyph glyph-name="uni2156" unicode="&#x2156;" horiz-adv-x="1351" 
d="M98 1114v148q0 91 50 137.5t147 46.5h2q199 0 199 -184v-88q0 -24 -4.5 -45t-15.5 -41t-20.5 -34t-30 -34t-31.5 -30t-37.5 -32.5t-37.5 -31.5q-64 -53 -88 -93t-24 -83v-82h289v-99h-402v183q0 76 38.5 130t121.5 126q78 63 103.5 94t25.5 74v69q0 54 -20.5 78.5
t-69.5 24.5q-45 0 -65.5 -25t-20.5 -78v-131h-109zM887 1434h94l-520 -1434h-94zM1249 764h-278v-248q42 57 121 57q78 0 121.5 -46t43.5 -126v-229q0 -184 -198 -184h-4q-199 0 -199 184v145h109v-129q0 -53 21.5 -77.5t68.5 -24.5q49 0 71.5 24.5t22.5 77.5v197
q0 88 -76 88q-67 0 -108 -70l-105 29v432h389v-100z" />
    <glyph glyph-name="uni2157" unicode="&#x2157;" horiz-adv-x="1341" 
d="M498 1151q0 -107 -72 -131q72 -24 72 -123v-149q0 -87 -47 -139t-140 -52h-30q-93 0 -140 52t-47 139v126h109v-110q0 -57 22 -82t66 -25h10q44 0 66 25t22 82v125q0 78 -84 78h-102v98h90q51 0 73.5 20.5t22.5 71.5v82q0 57 -22 82t-66 25h-12q-44 0 -65 -24.5
t-21 -82.5v-90h-109v106q0 191 197 191h10q197 0 197 -191v-104zM877 1434h94l-520 -1434h-95zM1239 764h-278v-248q42 57 120 57t122 -46t44 -126v-229q0 -184 -198 -184h-5q-198 0 -198 184v145h108v-129q0 -53 21.5 -77.5t68.5 -24.5q49 0 72 24.5t23 77.5v197
q0 88 -76 88q-68 0 -109 -70l-104 29v432h389v-100z" />
    <glyph glyph-name="uni2158" unicode="&#x2158;" horiz-adv-x="1355" 
d="M457 1434v-560h71v-102h-71v-207h-111v207h-252v96l232 566h131zM891 1434h94l-520 -1434h-94zM346 1262l-156 -388h156v388zM1253 764h-280v-248q42 57 123 57q78 0 122 -46t44 -126v-229q0 -184 -199 -184h-4q-199 0 -199 184v145h109v-129q0 -53 20.5 -77.5
t69.5 -24.5q47 0 69.5 25t22.5 77v197q0 88 -76 88q-37 0 -64.5 -21.5t-43.5 -48.5l-103 29v432h389v-100z" />
    <glyph glyph-name="uni2159" unicode="&#x2159;" horiz-adv-x="1110" 
d="M203 565h-109v774q36 42 45 95h64v-869zM643 1434h94l-520 -1434h-94zM1016 621h-109v55q0 53 -22.5 77.5t-71.5 24.5q-47 0 -69.5 -25t-22.5 -77v-209q32 65 127 65q78 0 122 -46t44 -126v-188q0 -184 -199 -184h-4q-199 0 -199 184v520q0 185 201 185h4q199 0 199 -185
v-71zM825 432q-46 0 -75 -23.5t-29 -62.5v-158q0 -53 21.5 -77.5t70.5 -24.5q47 0 69.5 25t22.5 77v156q0 88 -80 88z" />
    <glyph glyph-name="uni215A" unicode="&#x215a;" horiz-adv-x="1351" 
d="M487 1333h-280v-248q43 58 123 58q78 0 122 -46t44 -126v-230q0 -184 -199 -184h-4q-199 0 -199 184v146h109v-129q0 -54 20.5 -78.5t69.5 -24.5t71.5 25t22.5 78v196q0 88 -78 88q-67 0 -108 -69l-103 28v433h389v-101zM885 1434h94l-520 -1434h-94zM1257 621h-108v55
q0 53 -22.5 77.5t-71.5 24.5q-47 0 -69.5 -25t-22.5 -77v-209q32 65 127 65q78 0 121.5 -46t43.5 -126v-188q0 -184 -198 -184h-4q-199 0 -199 184v520q0 185 201 185h4q198 0 198 -185v-71zM1067 432q-46 0 -75 -23.5t-29 -62.5v-158q0 -53 21.5 -77.5t70.5 -24.5
q47 0 69.5 25t22.5 77v156q0 88 -80 88z" />
    <glyph glyph-name="oneeighth" unicode="&#x215b;" horiz-adv-x="1093" 
d="M203 565h-109v774q36 42 45 95h64v-869zM643 1434h94l-520 -1434h-94zM815 877q93 0 139.5 -51.5t46.5 -139.5v-104q0 -108 -75 -133q75 -34 75 -146v-125q0 -88 -46.5 -139t-139.5 -51h-39q-93 0 -138.5 50.5t-45.5 139.5v125q0 112 78 146q-78 26 -78 133v104
q0 89 45.5 140t138.5 51h39zM891 580v90q0 106 -84 106h-23q-82 0 -82 -106v-90q0 -84 82 -84h23q42 0 63 19.5t21 64.5zM891 195v118q0 45 -21 64.5t-63 19.5h-23q-82 0 -82 -84v-118q0 -107 82 -107h23q84 0 84 107z" />
    <glyph glyph-name="threeeighths" unicode="&#x215c;" horiz-adv-x="1329" 
d="M498 1151q0 -107 -72 -131q72 -24 72 -123v-149q0 -87 -47 -139t-140 -52h-30q-93 0 -140 52t-47 139v126h109v-110q0 -57 22 -82t66 -25h10q44 0 66 25t22 82v125q0 78 -84 78h-102v98h90q51 0 73.5 20.5t22.5 71.5v82q0 57 -22 82t-66 25h-12q-44 0 -65 -24.5
t-21 -82.5v-90h-109v106q0 191 197 191h10q197 0 197 -191v-104zM877 1434h94l-520 -1434h-95zM1051 877q93 0 138.5 -51t45.5 -140v-104q0 -107 -76 -133q76 -34 76 -146v-125q0 -89 -45.5 -139.5t-138.5 -50.5h-39q-94 0 -140.5 51t-46.5 139v125q0 113 80 146
q-80 26 -80 133v104q0 88 47 139.5t140 51.5h39zM1124 580v90q0 106 -82 106h-22q-84 0 -84 -106v-90q0 -84 84 -84h22q41 0 61.5 19.5t20.5 64.5zM1124 195v118q0 45 -20.5 64.5t-61.5 19.5h-22q-84 0 -84 -84v-118q0 -107 84 -107h22q82 0 82 107z" />
    <glyph glyph-name="fiveeighths" unicode="&#x215d;" horiz-adv-x="1337" 
d="M487 1333h-280v-248q43 58 123 58q78 0 122 -46t44 -126v-230q0 -184 -199 -184h-4q-199 0 -199 184v146h109v-129q0 -54 20.5 -78.5t69.5 -24.5t71.5 25t22.5 78v196q0 88 -78 88q-67 0 -108 -69l-103 28v433h389v-101zM885 1434h94l-520 -1434h-94zM1059 877
q93 0 138.5 -51t45.5 -140v-104q0 -107 -76 -133q76 -34 76 -146v-125q0 -89 -45.5 -139.5t-138.5 -50.5h-39q-93 0 -139.5 51t-46.5 139v125q0 113 79 146q-79 26 -79 133v104q0 88 46.5 139.5t139.5 51.5h39zM1133 580v90q0 106 -82 106h-23q-84 0 -84 -106v-90
q0 -84 84 -84h23q41 0 61.5 19.5t20.5 64.5zM1133 195v118q0 45 -20.5 64.5t-61.5 19.5h-23q-84 0 -84 -84v-118q0 -107 84 -107h23q82 0 82 107z" />
    <glyph glyph-name="seveneighths" unicode="&#x215e;" horiz-adv-x="1189" 
d="M461 1343l-215 -778h-109l217 768h-260v101h367v-91zM737 1434h94l-520 -1434h-94zM911 877q93 0 139 -51t46 -140v-104q0 -107 -76 -133q76 -34 76 -146v-125q0 -88 -46 -139t-139 -51h-39q-93 0 -139.5 51t-46.5 139v125q0 113 80 146q-80 26 -80 133v104
q0 88 46.5 139.5t139.5 51.5h39zM985 580v90q0 106 -82 106h-22q-84 0 -84 -106v-90q0 -84 84 -84h22q41 0 61.5 19.5t20.5 64.5zM985 195v118q0 45 -20.5 64.5t-61.5 19.5h-22q-84 0 -84 -84v-118q0 -107 84 -107h22q82 0 82 107z" />
    <glyph glyph-name="minus" unicode="&#x2212;" horiz-adv-x="860" 
d="M754 791v-117h-648v117h648z" />
    <glyph glyph-name="notequal" unicode="&#x2260;" horiz-adv-x="860" 
d="M754 844h-242l-72 -221h314v-119h-353l-104 -326h-92l104 326h-203v119h242l72 221h-314v119h353l104 325h92l-104 -325h203v-119z" />
    <glyph glyph-name="A.ss01" 
d="M463 1450q165 0 248.5 -73.5t83.5 -229.5v-1147h-148v518h-377v-518h-147v1147q0 156 83.5 229.5t248.5 73.5h8zM270 651h377v459q0 113 -42.5 160t-145.5 47t-146 -47t-43 -160v-459z" />
    <glyph glyph-name="Aacute.ss01" 
d="M711 1810l-209 -264h-115l141 264h183zM463 1450q165 0 248.5 -73.5t83.5 -229.5v-1147h-148v518h-377v-518h-147v1147q0 156 83.5 229.5t248.5 73.5h8zM270 651h377v459q0 113 -42.5 160t-145.5 47t-146 -47t-43 -160v-459z" />
    <glyph glyph-name="Abreve.ss01" 
d="M446 1544q-93 0 -146.5 41t-53.5 121v86h116v-63q0 -84 93 -84h8q92 0 92 84v63h117v-88q0 -78 -54 -119t-147 -41h-25zM463 1450q165 0 248.5 -73.5t83.5 -229.5v-1147h-148v518h-377v-518h-147v1147q0 156 83.5 229.5t248.5 73.5h8zM270 651h377v459q0 113 -42.5 160
t-145.5 47t-146 -47t-43 -160v-459z" />
    <glyph glyph-name="Acircumflex.ss01" 
d="M459 1712l-109 -166h-135l176 264h135l176 -264h-135zM463 1450q165 0 248.5 -73.5t83.5 -229.5v-1147h-148v518h-377v-518h-147v1147q0 156 83.5 229.5t248.5 73.5h8zM270 651h377v459q0 113 -42.5 160t-145.5 47t-146 -47t-43 -160v-459z" />
    <glyph glyph-name="Adieresis.ss01" 
d="M385 1718v-172h-145v172h145zM678 1718v-172h-146v172h146zM463 1450q165 0 248.5 -73.5t83.5 -229.5v-1147h-148v518h-377v-518h-147v1147q0 156 83.5 229.5t248.5 73.5h8zM270 651h377v459q0 113 -42.5 160t-145.5 47t-146 -47t-43 -160v-459z" />
    <glyph glyph-name="Agrave.ss01" 
d="M532 1546h-114l-209 264h182zM463 1450q165 0 248.5 -73.5t83.5 -229.5v-1147h-148v518h-377v-518h-147v1147q0 156 83.5 229.5t248.5 73.5h8zM270 651h377v459q0 113 -42.5 160t-145.5 47t-146 -47t-43 -160v-459z" />
    <glyph glyph-name="Amacron.ss01" 
d="M690 1690v-123h-463v123h463zM463 1450q165 0 248.5 -73.5t83.5 -229.5v-1147h-148v518h-377v-518h-147v1147q0 156 83.5 229.5t248.5 73.5h8zM270 651h377v459q0 113 -42.5 160t-145.5 47t-146 -47t-43 -160v-459z" />
    <glyph glyph-name="Aogonek.ss01" 
d="M752 0q-79 -37 -98 -104q-15 -56 20 -87q20 -18 51 -18q26 0 55 16v-75q-36 -39 -102 -39q-63 0 -101 36.5t-43 85.5t25 102t90 83h-2v518h-377v-518h-147v1147q0 156 83.5 229.5t248.5 73.5h8q165 0 248.5 -73.5t83.5 -229.5v-1147h-43zM270 651h377v459
q0 113 -42.5 160t-145.5 47t-146 -47t-43 -160v-459z" />
    <glyph glyph-name="Aring.ss01" 
d="M459 1534q-78 0 -125 43t-47 115t47 114.5t125 42.5q77 0 123.5 -42.5t46.5 -114.5t-46.5 -115t-123.5 -43zM459 1772q-37 0 -59.5 -21t-22.5 -59t22.5 -59t59.5 -21q36 0 58 20.5t22 59.5t-22 59.5t-58 20.5zM463 1450q165 0 248.5 -73.5t83.5 -229.5v-1147h-148v518
h-377v-518h-147v1147q0 156 83.5 229.5t248.5 73.5h8zM270 651h377v459q0 113 -42.5 160t-145.5 47t-146 -47t-43 -160v-459z" />
    <glyph glyph-name="Aringacute.ss01" 
d="M684 2163l-209 -265h-115l142 265h182zM459 1534q-78 0 -125 43t-47 115t47 114.5t125 42.5q77 0 123.5 -42.5t46.5 -114.5t-46.5 -115t-123.5 -43zM459 1772q-37 0 -59.5 -21t-22.5 -59t22.5 -59t59.5 -21q36 0 58 20.5t22 59.5t-22 59.5t-58 20.5zM463 1450
q165 0 248.5 -73.5t83.5 -229.5v-1147h-148v518h-377v-518h-147v1147q0 156 83.5 229.5t248.5 73.5h8zM270 651h377v459q0 113 -42.5 160t-145.5 47t-146 -47t-43 -160v-459z" />
    <glyph glyph-name="Atilde.ss01" 
d="M266 1575v-21h-108v37q0 99 48.5 151t119.5 52q42 0 81 -21t63.5 -46.5t54.5 -46.5t57 -21q67 0 67 104v23h111v-37q0 -100 -46.5 -152.5t-115.5 -52.5q-42 0 -81.5 21t-65 46.5t-57.5 46.5t-60 21q-68 0 -68 -104zM463 1450q165 0 248.5 -73.5t83.5 -229.5v-1147h-148
v518h-377v-518h-147v1147q0 156 83.5 229.5t248.5 73.5h8zM270 651h377v459q0 113 -42.5 160t-145.5 47t-146 -47t-43 -160v-459z" />
    <glyph glyph-name="AE.ss01" horiz-adv-x="1286" 
d="M770 133h438v-133h-585v508h-353v-508h-147v1130q0 156 83.5 230t248.5 74h747v-134h-432v-507h369v-131h-369v-529zM270 639h353v661h-164q-103 0 -146 -47t-43 -159v-455z" />
    <glyph glyph-name="AEacute.ss01" horiz-adv-x="1286" 
d="M956 1810l-208 -264h-115l141 264h182zM770 133h438v-133h-585v508h-353v-508h-147v1130q0 156 83.5 230t248.5 74h747v-134h-432v-507h369v-131h-369v-529zM270 639h353v661h-164q-103 0 -146 -47t-43 -159v-455z" />
    <glyph glyph-name="G.ss01" horiz-adv-x="925" 
d="M807 954h-148v156q0 111 -46 159t-150 48t-150.5 -48t-46.5 -159v-786q0 -111 46.5 -159t150.5 -48t150 48t46 159v264h-204v131h352v-719h-82l-29 109q-26 -59 -87.5 -92t-145.5 -33h-17q-327 0 -327 303v860q0 150 86 226.5t250 76.5h16q164 0 250 -76.5t86 -226.5
v-193z" />
    <glyph glyph-name="Gbreve.ss01" horiz-adv-x="925" 
d="M676 1792v-88q0 -78 -54 -119t-147 -41h-24q-93 0 -147 41t-54 121v86h117v-63q0 -84 92 -84h8q92 0 92 84v63h117zM807 954h-148v156q0 111 -46 159t-150 48t-150.5 -48t-46.5 -159v-786q0 -111 46.5 -159t150.5 -48t150 48t46 159v264h-204v131h352v-719h-82l-29 109
q-26 -59 -87.5 -92t-145.5 -33h-17q-327 0 -327 303v860q0 150 86 226.5t250 76.5h16q164 0 250 -76.5t86 -226.5v-193z" />
    <glyph glyph-name="Gcommaaccent.ss01" horiz-adv-x="925" 
d="M807 954h-148v156q0 111 -46 159t-150 48t-150.5 -48t-46.5 -159v-786q0 -111 46.5 -159t150.5 -48t150 48t46 159v264h-204v131h352v-719h-82l-29 109q-26 -59 -87.5 -92t-145.5 -33h-17q-327 0 -327 303v860q0 150 86 226.5t250 76.5h16q164 0 250 -76.5t86 -226.5
v-193zM537 -143v-136q0 -168 -88 -299l-60 31q26 42 44.5 104.5t21.5 116.5h-70v183h152z" />
    <glyph glyph-name="Gdotaccent.ss01" horiz-adv-x="925" 
d="M537 1718v-172h-148v172h148zM807 954h-148v156q0 111 -46 159t-150 48t-150.5 -48t-46.5 -159v-786q0 -111 46.5 -159t150.5 -48t150 48t46 159v264h-204v131h352v-719h-82l-29 109q-26 -59 -87.5 -92t-145.5 -33h-17q-327 0 -327 303v860q0 150 86 226.5t250 76.5h16
q164 0 250 -76.5t86 -226.5v-193z" />
    <glyph glyph-name="M.ss01" horiz-adv-x="1411" 
d="M1016 1450q125 0 198.5 -76t73.5 -227v-1147h-147v1100q0 217 -162 217q-88 0 -143.5 -58.5t-55.5 -158.5v-1100h-147v1100q0 217 -160 217q-89 0 -144 -58.5t-55 -158.5v-1100h-147v1434h147v-125q75 141 236 141q190 0 250 -164q72 164 256 164z" />
    <glyph glyph-name="N.ss01" horiz-adv-x="921" 
d="M799 0h-148v1100q0 217 -168 217q-91 0 -150 -57.5t-59 -159.5v-1100h-147v1434h147v-125q75 141 248 141q128 0 202.5 -76t74.5 -227v-1147z" />
    <glyph glyph-name="Nacute.ss01" horiz-adv-x="921" 
d="M532 1810h183l-209 -264h-115zM799 0h-148v1100q0 217 -168 217q-91 0 -150 -57.5t-59 -159.5v-1100h-147v1434h147v-125q75 141 248 141q128 0 202.5 -76t74.5 -227v-1147z" />
    <glyph glyph-name="Ncaron.ss01" horiz-adv-x="921" 
d="M707 1810h-136l-108 -165l-107 165h-135l176 -264h133zM799 0h-148v1100q0 217 -168 217q-91 0 -150 -57.5t-59 -159.5v-1100h-147v1434h147v-125q75 141 248 141q128 0 202.5 -76t74.5 -227v-1147z" />
    <glyph glyph-name="Ncommaaccent.ss01" horiz-adv-x="921" 
d="M799 0h-148v1100q0 217 -168 217q-91 0 -150 -57.5t-59 -159.5v-1100h-147v1434h147v-125q75 141 248 141q128 0 202.5 -76t74.5 -227v-1147zM537 -143v-136q0 -168 -88 -299l-60 31q26 42 44.5 104.5t21.5 116.5h-70v183h152z" />
    <glyph glyph-name="Eng.ss01" horiz-adv-x="921" 
d="M522 1450q128 0 202.5 -76t74.5 -227v-1147q-3 -297 -328 -297h-45v131h41q95 0 139.5 48.5t44.5 160.5v1057q0 217 -168 217q-91 0 -150 -57.5t-59 -159.5v-1100h-147v1434h147v-125q75 141 248 141z" />
    <glyph glyph-name="Ntilde.ss01" horiz-adv-x="921" 
d="M270 1575q0 104 68 104q28 0 60 -21t57.5 -46.5t65 -46.5t81.5 -21q69 0 115.5 52.5t46.5 152.5v37h-111v-23q0 -104 -67 -104q-27 0 -57 21t-54.5 46.5t-63.5 46.5t-81 21q-71 0 -119.5 -52t-48.5 -151v-37h108v21zM799 0h-148v1100q0 217 -168 217q-91 0 -150 -57.5
t-59 -159.5v-1100h-147v1434h147v-125q75 141 248 141q128 0 202.5 -76t74.5 -227v-1147z" />
    <glyph glyph-name="Q.ss01" horiz-adv-x="925" 
d="M807 287q0 -276 -279 -301q-3 -77 48.5 -105t136.5 6l26 -104q-114 -40 -191.5 -17.5t-111 86t-4.5 132.5q-313 9 -313 303v860q0 303 336 303h16q336 0 336 -303v-860zM266 324q0 -111 46.5 -159t150.5 -48t150 48t46 159v786q0 111 -46 159t-150 48t-150.5 -48
t-46.5 -159v-786z" />
    <glyph glyph-name="R.ss01" horiz-adv-x="915" 
d="M801 1130v-223q0 -84 -49.5 -146.5t-130.5 -72.5q88 -13 134 -71.5t46 -129.5v-297q0 -69 12 -105t45 -46v-41h-88q-117 0 -117 192v269q0 90 -47.5 123.5t-148.5 33.5h-183v-616h-147v1434h338q165 0 250.5 -76t85.5 -228zM274 750h183q196 0 196 180v164
q0 111 -46 158.5t-150 47.5h-183v-550z" />
    <glyph glyph-name="Racute.ss01" horiz-adv-x="915" 
d="M504 1810h182l-209 -264h-115zM801 1130v-223q0 -84 -49.5 -146.5t-130.5 -72.5q88 -13 134 -71.5t46 -129.5v-297q0 -69 12 -105t45 -46v-41h-88q-117 0 -117 192v269q0 90 -47.5 123.5t-148.5 33.5h-183v-616h-147v1434h338q165 0 250.5 -76t85.5 -228zM274 750h183
q196 0 196 180v164q0 111 -46 158.5t-150 47.5h-183v-550z" />
    <glyph glyph-name="Rcaron.ss01" horiz-adv-x="915" 
d="M678 1810h-135l-109 -165l-106 165h-135l176 -264h133zM801 1130v-223q0 -84 -49.5 -146.5t-130.5 -72.5q88 -13 134 -71.5t46 -129.5v-297q0 -69 12 -105t45 -46v-41h-88q-117 0 -117 192v269q0 90 -47.5 123.5t-148.5 33.5h-183v-616h-147v1434h338q165 0 250.5 -76
t85.5 -228zM274 750h183q196 0 196 180v164q0 111 -46 158.5t-150 47.5h-183v-550z" />
    <glyph glyph-name="Rcommaaccent.ss01" horiz-adv-x="915" 
d="M801 1130v-223q0 -84 -49.5 -146.5t-130.5 -72.5q88 -13 134 -71.5t46 -129.5v-297q0 -69 12 -105t45 -46v-41h-88q-117 0 -117 192v269q0 90 -47.5 123.5t-148.5 33.5h-183v-616h-147v1434h338q165 0 250.5 -76t85.5 -228zM274 750h183q196 0 196 180v164
q0 111 -46 158.5t-150 47.5h-183v-550zM559 -143v-136q0 -168 -88 -299l-59 31q26 42 44 104t21 117h-69v183h151z" />
    <glyph glyph-name="W.ss01" horiz-adv-x="1406" 
d="M1137 1434h147v-1133q0 -81 -26 -143t-72 -99.5t-102.5 -56t-122.5 -18.5q-86 0 -155 34t-104 107q-36 -73 -105 -107t-151 -34q-140 0 -231.5 77t-91.5 226v1147h147v-1100q0 -113 48 -165t131 -52q180 0 180 217v1100h147v-1100q0 -217 180 -217q181 0 181 217v1100z
" />
    <glyph glyph-name="Wacute.ss01" horiz-adv-x="1406" 
d="M772 1810h182l-209 -264h-114zM1137 1434h147v-1133q0 -81 -26 -143t-72 -99.5t-102.5 -56t-122.5 -18.5q-86 0 -155 34t-104 107q-36 -73 -105 -107t-151 -34q-140 0 -231.5 77t-91.5 226v1147h147v-1100q0 -113 48 -165t131 -52q180 0 180 217v1100h147v-1100
q0 -217 180 -217q181 0 181 217v1100z" />
    <glyph glyph-name="Wcircumflex.ss01" horiz-adv-x="1406" 
d="M946 1546l-176 264h-135l-176 -264h135l108 166l109 -166h135zM1137 1434h147v-1133q0 -81 -26 -143t-72 -99.5t-102.5 -56t-122.5 -18.5q-86 0 -155 34t-104 107q-36 -73 -105 -107t-151 -34q-140 0 -231.5 77t-91.5 226v1147h147v-1100q0 -113 48 -165t131 -52
q180 0 180 217v1100h147v-1100q0 -217 180 -217q181 0 181 217v1100z" />
    <glyph glyph-name="Wdieresis.ss01" horiz-adv-x="1406" 
d="M629 1718v-172h-146v172h146zM922 1718v-172h-146v172h146zM1137 1434h147v-1133q0 -81 -26 -143t-72 -99.5t-102.5 -56t-122.5 -18.5q-86 0 -155 34t-104 107q-36 -73 -105 -107t-151 -34q-140 0 -231.5 77t-91.5 226v1147h147v-1100q0 -113 48 -165t131 -52
q180 0 180 217v1100h147v-1100q0 -217 180 -217q181 0 181 217v1100z" />
    <glyph glyph-name="Wgrave.ss01" horiz-adv-x="1406" 
d="M635 1810l141 -264h-114l-209 264h182zM1137 1434h147v-1133q0 -81 -26 -143t-72 -99.5t-102.5 -56t-122.5 -18.5q-86 0 -155 34t-104 107q-36 -73 -105 -107t-151 -34q-140 0 -231.5 77t-91.5 226v1147h147v-1100q0 -113 48 -165t131 -52q180 0 180 217v1100h147v-1100
q0 -217 180 -217q181 0 181 217v1100z" />
    <glyph glyph-name="Y.ss01" horiz-adv-x="913" 
d="M643 1434h148v-1147q0 -303 -332 -303h-8q-165 0 -248.5 73.5t-83.5 229.5v135h147v-98q0 -113 43 -160t146 -47t145.5 47t42.5 160v389q-75 -142 -248 -142q-128 0 -202 75.5t-74 227.5v560h147v-512q0 -217 168 -217q91 0 150 57.5t59 159.5v512z" />
    <glyph glyph-name="Yacute.ss01" horiz-adv-x="913" 
d="M524 1810h183l-209 -264h-115zM643 1434h148v-1147q0 -303 -332 -303h-8q-165 0 -248.5 73.5t-83.5 229.5v135h147v-98q0 -113 43 -160t146 -47t145.5 47t42.5 160v389q-75 -142 -248 -142q-128 0 -202 75.5t-74 227.5v560h147v-512q0 -217 168 -217q91 0 150 57.5
t59 159.5v512z" />
    <glyph glyph-name="Ycircumflex.ss01" horiz-adv-x="913" 
d="M698 1546l-176 264h-135l-176 -264h135l109 166l108 -166h135zM643 1434h148v-1147q0 -303 -332 -303h-8q-165 0 -248.5 73.5t-83.5 229.5v135h147v-98q0 -113 43 -160t146 -47t145.5 47t42.5 160v389q-75 -142 -248 -142q-128 0 -202 75.5t-74 227.5v560h147v-512
q0 -217 168 -217q91 0 150 57.5t59 159.5v512z" />
    <glyph glyph-name="Ydieresis.ss01" horiz-adv-x="913" 
d="M381 1718v-172h-145v172h145zM674 1718v-172h-146v172h146zM643 1434h148v-1147q0 -303 -332 -303h-8q-165 0 -248.5 73.5t-83.5 229.5v135h147v-98q0 -113 43 -160t146 -47t145.5 47t42.5 160v389q-75 -142 -248 -142q-128 0 -202 75.5t-74 227.5v560h147v-512
q0 -217 168 -217q91 0 150 57.5t59 159.5v512z" />
    <glyph glyph-name="Ygrave.ss01" horiz-adv-x="913" 
d="M387 1810l141 -264h-114l-209 264h182zM643 1434h148v-1147q0 -303 -332 -303h-8q-165 0 -248.5 73.5t-83.5 229.5v135h147v-98q0 -113 43 -160t146 -47t145.5 47t42.5 160v389q-75 -142 -248 -142q-128 0 -202 75.5t-74 227.5v560h147v-512q0 -217 168 -217
q91 0 150 57.5t59 159.5v512z" />
    <glyph glyph-name="i.loclTRK" horiz-adv-x="415" 
d="M283 1718v-172h-148v172h148zM283 0h-148v1434h148v-1434z" />
    <glyph glyph-name="a.ss01" 
d="M463 1450q165 0 248.5 -73.5t83.5 -229.5v-1147h-148v518h-377v-518h-147v1147q0 156 83.5 229.5t248.5 73.5h8zM270 651h377v459q0 113 -42.5 160t-145.5 47t-146 -47t-43 -160v-459z" />
    <glyph glyph-name="aacute.ss01" 
d="M711 1810l-209 -264h-115l141 264h183zM463 1450q165 0 248.5 -73.5t83.5 -229.5v-1147h-148v518h-377v-518h-147v1147q0 156 83.5 229.5t248.5 73.5h8zM270 651h377v459q0 113 -42.5 160t-145.5 47t-146 -47t-43 -160v-459z" />
    <glyph glyph-name="abreve.ss01" 
d="M446 1544q-93 0 -146.5 41t-53.5 121v86h116v-63q0 -84 93 -84h8q92 0 92 84v63h117v-88q0 -78 -54 -119t-147 -41h-25zM463 1450q165 0 248.5 -73.5t83.5 -229.5v-1147h-148v518h-377v-518h-147v1147q0 156 83.5 229.5t248.5 73.5h8zM270 651h377v459q0 113 -42.5 160
t-145.5 47t-146 -47t-43 -160v-459z" />
    <glyph glyph-name="acircumflex.ss01" 
d="M459 1712l-109 -166h-135l176 264h135l176 -264h-135zM463 1450q165 0 248.5 -73.5t83.5 -229.5v-1147h-148v518h-377v-518h-147v1147q0 156 83.5 229.5t248.5 73.5h8zM270 651h377v459q0 113 -42.5 160t-145.5 47t-146 -47t-43 -160v-459z" />
    <glyph glyph-name="adieresis.ss01" 
d="M385 1718v-172h-145v172h145zM678 1718v-172h-146v172h146zM463 1450q165 0 248.5 -73.5t83.5 -229.5v-1147h-148v518h-377v-518h-147v1147q0 156 83.5 229.5t248.5 73.5h8zM270 651h377v459q0 113 -42.5 160t-145.5 47t-146 -47t-43 -160v-459z" />
    <glyph glyph-name="agrave.ss01" 
d="M532 1546h-114l-209 264h182zM463 1450q165 0 248.5 -73.5t83.5 -229.5v-1147h-148v518h-377v-518h-147v1147q0 156 83.5 229.5t248.5 73.5h8zM270 651h377v459q0 113 -42.5 160t-145.5 47t-146 -47t-43 -160v-459z" />
    <glyph glyph-name="amacron.ss01" 
d="M690 1690v-123h-463v123h463zM463 1450q165 0 248.5 -73.5t83.5 -229.5v-1147h-148v518h-377v-518h-147v1147q0 156 83.5 229.5t248.5 73.5h8zM270 651h377v459q0 113 -42.5 160t-145.5 47t-146 -47t-43 -160v-459z" />
    <glyph glyph-name="aogonek.ss01" 
d="M752 0q-79 -37 -98 -104q-15 -56 20 -87q20 -18 51 -18q26 0 55 16v-75q-36 -39 -102 -39q-63 0 -101 36.5t-43 85.5t25 102t90 83h-2v518h-377v-518h-147v1147q0 156 83.5 229.5t248.5 73.5h8q165 0 248.5 -73.5t83.5 -229.5v-1147h-43zM270 651h377v459
q0 113 -42.5 160t-145.5 47t-146 -47t-43 -160v-459z" />
    <glyph glyph-name="aring.ss01" 
d="M459 1534q-78 0 -125 43t-47 115t47 114.5t125 42.5q77 0 123.5 -42.5t46.5 -114.5t-46.5 -115t-123.5 -43zM459 1772q-37 0 -59.5 -21t-22.5 -59t22.5 -59t59.5 -21q36 0 58 20.5t22 59.5t-22 59.5t-58 20.5zM463 1450q165 0 248.5 -73.5t83.5 -229.5v-1147h-148v518
h-377v-518h-147v1147q0 156 83.5 229.5t248.5 73.5h8zM270 651h377v459q0 113 -42.5 160t-145.5 47t-146 -47t-43 -160v-459z" />
    <glyph glyph-name="aringacute.ss01" 
d="M684 2163l-209 -265h-115l142 265h182zM459 1534q-78 0 -125 43t-47 115t47 114.5t125 42.5q77 0 123.5 -42.5t46.5 -114.5t-46.5 -115t-123.5 -43zM459 1772q-37 0 -59.5 -21t-22.5 -59t22.5 -59t59.5 -21q36 0 58 20.5t22 59.5t-22 59.5t-58 20.5zM463 1450
q165 0 248.5 -73.5t83.5 -229.5v-1147h-148v518h-377v-518h-147v1147q0 156 83.5 229.5t248.5 73.5h8zM270 651h377v459q0 113 -42.5 160t-145.5 47t-146 -47t-43 -160v-459z" />
    <glyph glyph-name="atilde.ss01" 
d="M266 1575v-21h-108v37q0 99 48.5 151t119.5 52q42 0 81 -21t63.5 -46.5t54.5 -46.5t57 -21q67 0 67 104v23h111v-37q0 -100 -46.5 -152.5t-115.5 -52.5q-42 0 -81.5 21t-65 46.5t-57.5 46.5t-60 21q-68 0 -68 -104zM463 1450q165 0 248.5 -73.5t83.5 -229.5v-1147h-148
v518h-377v-518h-147v1147q0 156 83.5 229.5t248.5 73.5h8zM270 651h377v459q0 113 -42.5 160t-145.5 47t-146 -47t-43 -160v-459z" />
    <glyph glyph-name="ae.ss01" horiz-adv-x="1286" 
d="M770 133h438v-133h-585v508h-353v-508h-147v1130q0 156 83.5 230t248.5 74h747v-134h-432v-507h369v-131h-369v-529zM270 639h353v661h-164q-103 0 -146 -47t-43 -159v-455z" />
    <glyph glyph-name="aeacute.ss01" horiz-adv-x="1286" 
d="M956 1810l-208 -264h-115l141 264h182zM770 133h438v-133h-585v508h-353v-508h-147v1130q0 156 83.5 230t248.5 74h747v-134h-432v-507h369v-131h-369v-529zM270 639h353v661h-164q-103 0 -146 -47t-43 -159v-455z" />
    <glyph glyph-name="g.ss01" horiz-adv-x="925" 
d="M807 954h-148v156q0 111 -46 159t-150 48t-150.5 -48t-46.5 -159v-786q0 -111 46.5 -159t150.5 -48t150 48t46 159v264h-204v131h352v-719h-82l-29 109q-26 -59 -87.5 -92t-145.5 -33h-17q-327 0 -327 303v860q0 150 86 226.5t250 76.5h16q164 0 250 -76.5t86 -226.5
v-193z" />
    <glyph glyph-name="gbreve.ss01" horiz-adv-x="925" 
d="M676 1792v-88q0 -78 -54 -119t-147 -41h-24q-93 0 -147 41t-54 121v86h117v-63q0 -84 92 -84h8q92 0 92 84v63h117zM807 954h-148v156q0 111 -46 159t-150 48t-150.5 -48t-46.5 -159v-786q0 -111 46.5 -159t150.5 -48t150 48t46 159v264h-204v131h352v-719h-82l-29 109
q-26 -59 -87.5 -92t-145.5 -33h-17q-327 0 -327 303v860q0 150 86 226.5t250 76.5h16q164 0 250 -76.5t86 -226.5v-193z" />
    <glyph glyph-name="gcommaaccent.ss01" horiz-adv-x="925" 
d="M807 954h-148v156q0 111 -46 159t-150 48t-150.5 -48t-46.5 -159v-786q0 -111 46.5 -159t150.5 -48t150 48t46 159v264h-204v131h352v-719h-82l-29 109q-26 -59 -87.5 -92t-145.5 -33h-17q-327 0 -327 303v860q0 150 86 226.5t250 76.5h16q164 0 250 -76.5t86 -226.5
v-193zM537 -143v-136q0 -168 -88 -299l-60 31q26 42 44.5 104.5t21.5 116.5h-70v183h152z" />
    <glyph glyph-name="gdotaccent.ss01" horiz-adv-x="925" 
d="M537 1718v-172h-148v172h148zM807 954h-148v156q0 111 -46 159t-150 48t-150.5 -48t-46.5 -159v-786q0 -111 46.5 -159t150.5 -48t150 48t46 159v264h-204v131h352v-719h-82l-29 109q-26 -59 -87.5 -92t-145.5 -33h-17q-327 0 -327 303v860q0 150 86 226.5t250 76.5h16
q164 0 250 -76.5t86 -226.5v-193z" />
    <glyph glyph-name="m.ss01" horiz-adv-x="1411" 
d="M1016 1450q125 0 198.5 -76t73.5 -227v-1147h-147v1100q0 217 -162 217q-88 0 -143.5 -58.5t-55.5 -158.5v-1100h-147v1100q0 217 -160 217q-89 0 -144 -58.5t-55 -158.5v-1100h-147v1434h147v-125q75 141 236 141q190 0 250 -164q72 164 256 164z" />
    <glyph glyph-name="n.ss01" horiz-adv-x="921" 
d="M799 0h-148v1100q0 217 -168 217q-91 0 -150 -57.5t-59 -159.5v-1100h-147v1434h147v-125q75 141 248 141q128 0 202.5 -76t74.5 -227v-1147z" />
    <glyph glyph-name="nacute.ss01" horiz-adv-x="921" 
d="M532 1810h183l-209 -264h-115zM799 0h-148v1100q0 217 -168 217q-91 0 -150 -57.5t-59 -159.5v-1100h-147v1434h147v-125q75 141 248 141q128 0 202.5 -76t74.5 -227v-1147z" />
    <glyph glyph-name="ncaron.ss01" horiz-adv-x="921" 
d="M707 1810h-136l-108 -165l-107 165h-135l176 -264h133zM799 0h-148v1100q0 217 -168 217q-91 0 -150 -57.5t-59 -159.5v-1100h-147v1434h147v-125q75 141 248 141q128 0 202.5 -76t74.5 -227v-1147z" />
    <glyph glyph-name="ncommaaccent.ss01" horiz-adv-x="921" 
d="M799 0h-148v1100q0 217 -168 217q-91 0 -150 -57.5t-59 -159.5v-1100h-147v1434h147v-125q75 141 248 141q128 0 202.5 -76t74.5 -227v-1147zM537 -143v-136q0 -168 -88 -299l-60 31q26 42 44.5 104.5t21.5 116.5h-70v183h152z" />
    <glyph glyph-name="eng.ss01" horiz-adv-x="921" 
d="M522 1450q128 0 202.5 -76t74.5 -227v-1147q-3 -297 -328 -297h-45v131h41q95 0 139.5 48.5t44.5 160.5v1057q0 217 -168 217q-91 0 -150 -57.5t-59 -159.5v-1100h-147v1434h147v-125q75 141 248 141z" />
    <glyph glyph-name="ntilde.ss01" horiz-adv-x="921" 
d="M270 1575q0 104 68 104q28 0 60 -21t57.5 -46.5t65 -46.5t81.5 -21q69 0 115.5 52.5t46.5 152.5v37h-111v-23q0 -104 -67 -104q-27 0 -57 21t-54.5 46.5t-63.5 46.5t-81 21q-71 0 -119.5 -52t-48.5 -151v-37h108v21zM799 0h-148v1100q0 217 -168 217q-91 0 -150 -57.5
t-59 -159.5v-1100h-147v1434h147v-125q75 141 248 141q128 0 202.5 -76t74.5 -227v-1147z" />
    <glyph glyph-name="q.ss01" horiz-adv-x="925" 
d="M807 287q0 -276 -279 -301q-3 -77 48.5 -105t136.5 6l26 -104q-114 -40 -191.5 -17.5t-111 86t-4.5 132.5q-313 9 -313 303v860q0 303 336 303h16q336 0 336 -303v-860zM266 324q0 -111 46.5 -159t150.5 -48t150 48t46 159v786q0 111 -46 159t-150 48t-150.5 -48
t-46.5 -159v-786z" />
    <glyph glyph-name="r.ss01" horiz-adv-x="915" 
d="M801 1130v-223q0 -84 -49.5 -146.5t-130.5 -72.5q88 -13 134 -71.5t46 -129.5v-297q0 -69 12 -105t45 -46v-41h-88q-117 0 -117 192v269q0 90 -47.5 123.5t-148.5 33.5h-183v-616h-147v1434h338q165 0 250.5 -76t85.5 -228zM274 750h183q196 0 196 180v164
q0 111 -46 158.5t-150 47.5h-183v-550z" />
    <glyph glyph-name="racute.ss01" horiz-adv-x="915" 
d="M504 1810h182l-209 -264h-115zM801 1130v-223q0 -84 -49.5 -146.5t-130.5 -72.5q88 -13 134 -71.5t46 -129.5v-297q0 -69 12 -105t45 -46v-41h-88q-117 0 -117 192v269q0 90 -47.5 123.5t-148.5 33.5h-183v-616h-147v1434h338q165 0 250.5 -76t85.5 -228zM274 750h183
q196 0 196 180v164q0 111 -46 158.5t-150 47.5h-183v-550z" />
    <glyph glyph-name="rcaron.ss01" horiz-adv-x="915" 
d="M678 1810h-135l-109 -165l-106 165h-135l176 -264h133zM801 1130v-223q0 -84 -49.5 -146.5t-130.5 -72.5q88 -13 134 -71.5t46 -129.5v-297q0 -69 12 -105t45 -46v-41h-88q-117 0 -117 192v269q0 90 -47.5 123.5t-148.5 33.5h-183v-616h-147v1434h338q165 0 250.5 -76
t85.5 -228zM274 750h183q196 0 196 180v164q0 111 -46 158.5t-150 47.5h-183v-550z" />
    <glyph glyph-name="rcommaaccent.ss01" horiz-adv-x="915" 
d="M801 1130v-223q0 -84 -49.5 -146.5t-130.5 -72.5q88 -13 134 -71.5t46 -129.5v-297q0 -69 12 -105t45 -46v-41h-88q-117 0 -117 192v269q0 90 -47.5 123.5t-148.5 33.5h-183v-616h-147v1434h338q165 0 250.5 -76t85.5 -228zM274 750h183q196 0 196 180v164
q0 111 -46 158.5t-150 47.5h-183v-550zM559 -143v-136q0 -168 -88 -299l-59 31q26 42 44 104t21 117h-69v183h151z" />
    <glyph glyph-name="w.ss01" horiz-adv-x="1406" 
d="M1137 1434h147v-1133q0 -81 -26 -143t-72 -99.5t-102.5 -56t-122.5 -18.5q-86 0 -155 34t-104 107q-36 -73 -105 -107t-151 -34q-140 0 -231.5 77t-91.5 226v1147h147v-1100q0 -113 48 -165t131 -52q180 0 180 217v1100h147v-1100q0 -217 180 -217q181 0 181 217v1100z
" />
    <glyph glyph-name="wacute.ss01" horiz-adv-x="1406" 
d="M772 1810h182l-209 -264h-114zM1137 1434h147v-1133q0 -81 -26 -143t-72 -99.5t-102.5 -56t-122.5 -18.5q-86 0 -155 34t-104 107q-36 -73 -105 -107t-151 -34q-140 0 -231.5 77t-91.5 226v1147h147v-1100q0 -113 48 -165t131 -52q180 0 180 217v1100h147v-1100
q0 -217 180 -217q181 0 181 217v1100z" />
    <glyph glyph-name="wcircumflex.ss01" horiz-adv-x="1406" 
d="M946 1546l-176 264h-135l-176 -264h135l108 166l109 -166h135zM1137 1434h147v-1133q0 -81 -26 -143t-72 -99.5t-102.5 -56t-122.5 -18.5q-86 0 -155 34t-104 107q-36 -73 -105 -107t-151 -34q-140 0 -231.5 77t-91.5 226v1147h147v-1100q0 -113 48 -165t131 -52
q180 0 180 217v1100h147v-1100q0 -217 180 -217q181 0 181 217v1100z" />
    <glyph glyph-name="wdieresis.ss01" horiz-adv-x="1406" 
d="M629 1718v-172h-146v172h146zM922 1718v-172h-146v172h146zM1137 1434h147v-1133q0 -81 -26 -143t-72 -99.5t-102.5 -56t-122.5 -18.5q-86 0 -155 34t-104 107q-36 -73 -105 -107t-151 -34q-140 0 -231.5 77t-91.5 226v1147h147v-1100q0 -113 48 -165t131 -52
q180 0 180 217v1100h147v-1100q0 -217 180 -217q181 0 181 217v1100z" />
    <glyph glyph-name="wgrave.ss01" horiz-adv-x="1406" 
d="M635 1810l141 -264h-114l-209 264h182zM1137 1434h147v-1133q0 -81 -26 -143t-72 -99.5t-102.5 -56t-122.5 -18.5q-86 0 -155 34t-104 107q-36 -73 -105 -107t-151 -34q-140 0 -231.5 77t-91.5 226v1147h147v-1100q0 -113 48 -165t131 -52q180 0 180 217v1100h147v-1100
q0 -217 180 -217q181 0 181 217v1100z" />
    <glyph glyph-name="y.ss01" horiz-adv-x="913" 
d="M643 1434h148v-1147q0 -303 -332 -303h-8q-165 0 -248.5 73.5t-83.5 229.5v135h147v-98q0 -113 43 -160t146 -47t145.5 47t42.5 160v389q-75 -142 -248 -142q-128 0 -202 75.5t-74 227.5v560h147v-512q0 -217 168 -217q91 0 150 57.5t59 159.5v512z" />
    <glyph glyph-name="yacute.ss01" horiz-adv-x="913" 
d="M524 1810h183l-209 -264h-115zM643 1434h148v-1147q0 -303 -332 -303h-8q-165 0 -248.5 73.5t-83.5 229.5v135h147v-98q0 -113 43 -160t146 -47t145.5 47t42.5 160v389q-75 -142 -248 -142q-128 0 -202 75.5t-74 227.5v560h147v-512q0 -217 168 -217q91 0 150 57.5
t59 159.5v512z" />
    <glyph glyph-name="ycircumflex.ss01" horiz-adv-x="913" 
d="M698 1546l-176 264h-135l-176 -264h135l109 166l108 -166h135zM643 1434h148v-1147q0 -303 -332 -303h-8q-165 0 -248.5 73.5t-83.5 229.5v135h147v-98q0 -113 43 -160t146 -47t145.5 47t42.5 160v389q-75 -142 -248 -142q-128 0 -202 75.5t-74 227.5v560h147v-512
q0 -217 168 -217q91 0 150 57.5t59 159.5v512z" />
    <glyph glyph-name="ydieresis.ss01" horiz-adv-x="913" 
d="M381 1718v-172h-145v172h145zM674 1718v-172h-146v172h146zM643 1434h148v-1147q0 -303 -332 -303h-8q-165 0 -248.5 73.5t-83.5 229.5v135h147v-98q0 -113 43 -160t146 -47t145.5 47t42.5 160v389q-75 -142 -248 -142q-128 0 -202 75.5t-74 227.5v560h147v-512
q0 -217 168 -217q91 0 150 57.5t59 159.5v512z" />
    <glyph glyph-name="ygrave.ss01" horiz-adv-x="913" 
d="M387 1810l141 -264h-114l-209 264h182zM643 1434h148v-1147q0 -303 -332 -303h-8q-165 0 -248.5 73.5t-83.5 229.5v135h147v-98q0 -113 43 -160t146 -47t145.5 47t42.5 160v389q-75 -142 -248 -142q-128 0 -202 75.5t-74 227.5v560h147v-512q0 -217 168 -217
q91 0 150 57.5t59 159.5v512z" />
    <glyph glyph-name="one.ss01" horiz-adv-x="567" 
d="M412 0h-144v1286l-233 -100v133l264 115h113v-1434z" />
    <glyph glyph-name="zero.tf" horiz-adv-x="860" 
d="M438 1450q155 0 237.5 -76t82.5 -227v-860q0 -151 -82.5 -227t-237.5 -76h-16q-155 0 -237.5 76t-82.5 227v860q0 151 82.5 227t237.5 76h16zM614 1110q0 110 -45 158.5t-139 48.5t-139 -48.5t-45 -158.5v-786q0 -110 45 -158.5t139 -48.5t139 48.5t45 158.5v786z" />
    <glyph glyph-name="one.tf" horiz-adv-x="860" 
d="M522 129h232v-129h-627v129h252v1153l-252 -100v137l283 115h112v-1305z" />
    <glyph glyph-name="two.tf" horiz-adv-x="860" 
d="M123 948v207q0 295 311 295h4q312 0 312 -295v-203q0 -22 -4.5 -43t-9 -38.5t-17.5 -38t-21 -34t-29 -35t-30.5 -32t-36.5 -33.5t-37.5 -32t-43 -35t-42.5 -35q-60 -50 -94.5 -82t-65.5 -70t-44 -74t-13 -77v-166h488v-127h-631v297q0 53 15.5 102t38 86t64 80t75.5 72
t91 74q51 41 72.5 58.5t54 47.5t44.5 49.5t22 46t10 54.5v163q0 193 -174 193q-85 0 -126.5 -47t-41.5 -146v-182h-141z" />
    <glyph glyph-name="three.tf" horiz-adv-x="860" 
d="M743 971q0 -205 -149 -226q48 -9 80 -31t46 -53.5t18.5 -59t4.5 -62.5v-252q0 -144 -72.5 -223.5t-217.5 -79.5h-56q-145 0 -218 79.5t-73 223.5v180h144v-156q0 -200 168 -200h14q168 0 168 200v224q0 143 -160 143h-155v127h135q93 0 136.5 37.5t43.5 126.5v153
q0 201 -168 201h-18q-168 0 -168 -201v-123h-140v148q0 154 80.5 228.5t231.5 74.5h14q311 0 311 -303v-176z" />
    <glyph glyph-name="four.tf" horiz-adv-x="860" 
d="M657 1434v-938h150v-131h-150v-365h-143v365h-457v137l426 932h174zM514 1237l-334 -741h334v741z" />
    <glyph glyph-name="five.tf" horiz-adv-x="860" 
d="M739 1305h-467v-465q75 94 217 94q54 0 100 -13t84.5 -41.5t60.5 -80.5t22 -123v-397q0 -295 -316 -295h-4q-315 0 -315 295v208h141v-184q0 -99 43 -145.5t133 -46.5q88 0 131 46.5t43 145.5v346q0 90 -40.5 123t-104.5 33q-71 0 -116.5 -28.5t-78.5 -80.5l-143 39v699
h610v-129z" />
    <glyph glyph-name="six.tf" horiz-adv-x="860" 
d="M737 1020h-143v110q0 107 -38.5 150t-127.5 43t-127.5 -43t-38.5 -150v-344q56 86 203 86q129 0 207 -68.5t78 -203.5v-321q0 -151 -76 -223t-238 -72h-4q-162 0 -237.5 72t-75.5 223v876q0 152 73 223.5t234 71.5h4q161 0 234 -71.5t73 -223.5v-135zM434 743
q-77 0 -124.5 -42t-47.5 -128v-270q0 -106 41 -149t131 -43t131 43t41 149v270q0 170 -172 170z" />
    <glyph glyph-name="seven.tf" horiz-adv-x="860" 
d="M768 1325l-430 -1325h-148l428 1305h-546v129h696v-109z" />
    <glyph glyph-name="eight.tf" horiz-adv-x="860" 
d="M463 1450q145 0 218 -79.5t73 -223.5v-176q0 -207 -150 -226q150 -26 150 -247v-211q0 -144 -73 -223.5t-218 -79.5h-64q-145 0 -217.5 79.5t-72.5 223.5v211q0 222 149 247q-149 18 -149 226v176q0 144 72.5 223.5t217.5 79.5h64zM610 969v153q0 103 -42.5 152
t-116.5 49h-39q-74 0 -117 -49t-43 -152v-153q0 -164 160 -164h39q159 0 159 164zM610 311v203q0 164 -159 164h-39q-160 0 -160 -164v-203q0 -103 43 -151.5t117 -48.5h39q74 0 116.5 48.5t42.5 151.5z" />
    <glyph glyph-name="nine.tf" horiz-adv-x="860" 
d="M123 414h143v-111q0 -107 38.5 -149.5t127.5 -42.5t127.5 42.5t38.5 149.5v344q-56 -86 -203 -86q-129 0 -206.5 68.5t-77.5 204.5v321q0 151 75.5 223t237.5 72h4q162 0 237.5 -72t75.5 -223v-876q0 -152 -73 -223.5t-234 -71.5h-4q-161 0 -234 71.5t-73 223.5v135z
M426 690q77 0 124.5 42t47.5 128v270q0 106 -41 149.5t-131 43.5t-131 -43.5t-41 -149.5v-270q0 -170 172 -170z" />
    <glyph glyph-name="colon.tf" horiz-adv-x="430" 
d="M291 946v-182h-152v182h152zM291 182v-182h-152v182h152z" />
    <glyph glyph-name="comma.tf" horiz-adv-x="430" 
d="M291 182v-135q0 -168 -88 -299l-60 31q26 42 44.5 104.5t21.5 116.5h-70v182h152z" />
    <glyph glyph-name="numbersign.tf" horiz-adv-x="860" 
d="M852 885h-162l-76 -336h177v-119h-203l-99 -430h-118l98 430h-207l-98 -430h-119l98 430h-135v119h162l76 336h-176v119h202l99 430h118l-98 -430h207l98 430h119l-98 -430h135v-119zM496 549l75 336h-206l-76 -336h207z" />
    <glyph glyph-name="period.tf" horiz-adv-x="430" 
d="M291 182v-182h-152v182h152z" />
    <glyph glyph-name="semicolon.tf" horiz-adv-x="430" 
d="M291 946v-182h-152v182h152zM291 182v-135q0 -168 -88 -299l-60 31q26 42 44.5 104.5t21.5 116.5h-70v182h152z" />
    <glyph glyph-name="space.tf" horiz-adv-x="430" 
 />
    <glyph glyph-name="cent.tf" horiz-adv-x="860" 
d="M770 856h-145v78q0 110 -46 159.5t-147 49.5t-146.5 -49.5t-45.5 -159.5v-434q0 -110 45.5 -159.5t146.5 -49.5q100 0 146.5 52t46.5 157v112h145v-149q0 -271 -268 -299v-164h-135v162q-273 28 -273 301v508q0 134 70 209.5t203 89.5v164h135v-164q131 -14 199.5 -90
t68.5 -209v-115z" />
    <glyph glyph-name="dollar.tf" horiz-adv-x="860" 
d="M580 731q90 -49 137 -110.5t47 -147.5v-190q0 -271 -264 -295v-148h-135v146q-133 14 -199 86t-66 211v237h146v-205q0 -102 44.5 -151t141.5 -49t141.5 49t44.5 151v115q0 69 -29 107t-106 81l-200 111q-99 56 -141 110t-42 144v172q0 130 70 203.5t195 87.5v147h135
v-147q122 -15 191 -88.5t69 -202.5v-221h-146v188q0 103 -43.5 150t-140.5 47t-140.5 -47t-43.5 -150v-100q0 -69 26 -102.5t103 -75.5z" />
    <glyph glyph-name="Euro.tf" horiz-adv-x="860" 
d="M795 897h-148v213q0 110 -44.5 158.5t-145.5 48.5t-146 -48.5t-45 -158.5v-223h260v-88h-260v-131h260v-88h-260v-256q0 -110 45 -158.5t146 -48.5t145.5 48.5t44.5 158.5v247h148v-284q0 -303 -336 -303h-4q-336 0 -336 303v293h-101v88h101v131h-101v88h101v260
q0 150 86 226.5t250 76.5h4q164 0 250 -76.5t86 -226.5v-250z" />
    <glyph glyph-name="florin.tf" horiz-adv-x="860" 
d="M680 1300q-95 0 -136.5 -47.5t-41.5 -158.5v-281h248l-29 -127h-219v-383q0 -303 -314 -303h-98v133h90q95 0 136.5 47.5t41.5 159.5v346h-247l28 127h219v317q0 304 314 304h98v-134h-90z" />
    <glyph glyph-name="sterling.tf" horiz-adv-x="860" 
d="M772 930h-147v200q0 91 -29.5 139t-114.5 48t-115 -48t-30 -139v-358h252v-121h-252q0 -239 -27.5 -359t-105.5 -159h549v-133h-676l-29 133q87 43 114 156.5t27 361.5h-135v121h135v375q0 303 291 303h4q155 0 222 -79t67 -224v-217z" />
    <glyph glyph-name="yen.tf" horiz-adv-x="860" 
d="M813 1434l-264 -758h182v-88h-213l-14 -43v-88h227v-88h-227v-369h-148v369h-252v88h252v88l-14 43h-238v88h207l-264 758h154l229 -721l232 721h151z" />
    <glyph glyph-name="percent.tf" horiz-adv-x="860" 
d="M219 1442q68 0 116 -43.5t48 -130.5v-262q0 -88 -48 -131.5t-116 -43.5h-33q-71 0 -118.5 43.5t-47.5 131.5v262q0 88 47.5 131t118.5 43h33zM776 1434l-596 -1434h-98l596 1434h98zM287 1247q0 56 -18 80.5t-56 24.5h-23q-38 0 -55.5 -24.5t-17.5 -80.5v-221
q0 -56 17.5 -80t55.5 -24h23q38 0 56 24t18 80v221zM674 602q68 0 116 -43.5t48 -130.5v-262q0 -87 -48 -130.5t-116 -43.5h-33q-71 0 -118.5 43t-47.5 131v262q0 88 47.5 131t118.5 43h33zM741 408q0 56 -17.5 80t-55.5 24h-23q-38 0 -56 -24t-18 -80v-222q0 -56 18 -80
t56 -24h23q38 0 55.5 24t17.5 80v222z" />
    <glyph glyph-name="bar.tf" horiz-adv-x="430" 
d="M283 -205h-136v1843h136v-1843z" />
    <glyph glyph-name="brokenbar.tf" horiz-adv-x="430" 
d="M147 901v737h136v-737h-136zM283 573v-778h-136v778h136z" />
    </font>
</defs>
</svg>
