<?xml version="1.0" encoding="iso-8859-1"?>
<!-- Generator: Adobe Illustrator 19.0.0, SVG Export Plug-In . SVG Version: 6.00 Build 0)  -->
<svg version="1.1" id="Layer_1" xmlns="http://www.w3.org/2000/svg" xmlns:xlink="http://www.w3.org/1999/xlink" x="0px" y="0px"
	 viewBox="0 0 511.983 511.983" style="enable-background:new 0 0 511.983 511.983;" xml:space="preserve">
<path style="fill:#AAB2BC;" d="M511.983,485.327c0,11.719-9.594,21.312-21.327,21.312H21.328C9.594,506.639,0,497.046,0,485.327
	V101.34c0-11.749,9.593-21.343,21.328-21.343h469.328c11.733,0,21.327,9.594,21.327,21.343V485.327z"/>
<path style="fill:#CCD1D9;" d="M511.983,463.983c0,11.719-9.594,21.344-21.327,21.344H21.328C9.594,485.327,0,475.702,0,463.983
	V79.997c0-11.75,9.593-21.343,21.328-21.343h469.328c11.733,0,21.327,9.593,21.327,21.343V463.983z"/>
<path style="fill:#E6E9ED;" d="M511.983,442.641c0,11.749-9.594,21.342-21.327,21.342H21.328C9.594,463.983,0,454.39,0,442.641
	V58.654c0-11.719,9.593-21.312,21.328-21.312h469.328c11.733,0,21.327,9.594,21.327,21.312V442.641z"/>
<path style="fill:#ED5564;" d="M490.656,37.342H21.328C9.594,37.342,0,46.936,0,58.654v63.998h511.982V58.654
	C511.983,46.935,502.389,37.342,490.656,37.342z"/>
<g>
	<path style="fill:#E6E9ED;" d="M95.997,5.344c-5.89,0-10.671,4.749-10.671,10.655v63.998c0,5.875,4.781,10.656,10.671,10.656
		c5.891,0,10.672-4.781,10.672-10.656V15.999C106.669,10.093,101.888,5.344,95.997,5.344z"/>
	<path style="fill:#E6E9ED;" d="M202.666,5.344c-5.891,0-10.671,4.749-10.671,10.655v63.998c0,5.875,4.781,10.656,10.671,10.656
		s10.656-4.781,10.656-10.656V15.999C213.322,10.093,208.556,5.344,202.666,5.344z"/>
	<path style="fill:#E6E9ED;" d="M309.319,5.344c-5.891,0-10.656,4.749-10.656,10.655v63.998c0,5.875,4.766,10.656,10.656,10.656
		s10.671-4.781,10.671-10.656V15.999C319.99,10.093,315.209,5.344,309.319,5.344z"/>
	<path style="fill:#E6E9ED;" d="M415.987,5.344c-5.891,0-10.672,4.749-10.672,10.655v63.998c0,5.875,4.781,10.656,10.672,10.656
		s10.672-4.781,10.672-10.656V15.999C426.659,10.093,421.878,5.344,415.987,5.344z"/>
</g>
<path style="fill:#ED5564;" d="M309.335,175.994c-20.906,0-39.789,8.593-53.343,22.421c-13.546-13.828-32.436-22.421-53.326-22.421
	c-41.241,0-74.669,33.437-74.669,74.669c-0.001,85.325,127.995,159.994,127.995,159.994s127.996-74.669,127.996-159.994
	C383.988,209.43,350.552,175.994,309.335,175.994z"/>
<g style="opacity:0.2;">
	<path style="fill:#FFFFFF;" d="M309.335,175.994c-3.625,0-7.188,0.266-10.672,0.766c36.17,5.171,63.998,36.295,63.998,73.903
		c0,70.186-86.607,133.152-117.333,153.291c6.633,4.344,10.664,6.703,10.664,6.703s127.996-74.669,127.996-159.994
		C383.988,209.43,350.552,175.994,309.335,175.994z"/>
</g>
<g>
</g>
<g>
</g>
<g>
</g>
<g>
</g>
<g>
</g>
<g>
</g>
<g>
</g>
<g>
</g>
<g>
</g>
<g>
</g>
<g>
</g>
<g>
</g>
<g>
</g>
<g>
</g>
<g>
</g>
</svg>
