<svg height="495pt" viewBox="0 -4 495.974 495" width="495pt" xmlns="http://www.w3.org/2000/svg"><path d="m263.921875 402.308594c-27.203125 19.042968-60.242187 30.160156-95.921875 30.160156s-68.71875-11.117188-95.921875-30.160156c-43.597656-30.238282-72.078125-80.726563-72.078125-137.839844v56c0 57.121094 28.480469 107.519531 72 137.839844 27.199219 19.042968 60.320312 30.160156 96 30.160156s68.800781-11.117188 96-30.160156c43.519531-30.320313 72-80.726563 72-137.839844v-56c0 57.121094-28.480469 107.601562-72.078125 137.839844zm0 0" fill="#f6bb42"/><path d="m168 96.46875c54.078125 0 102.160156 25.527344 132.878906 65.203125 10.160156 13.125 18.402344 27.765625 24.320313 43.511719 6.953125 18.40625 10.800781 38.40625 10.800781 59.285156 0 57.121094-28.480469 107.601562-72.078125 137.839844-27.203125 19.042968-60.242187 30.160156-95.921875 30.160156s-68.71875-11.117188-95.921875-30.160156c-43.597656-30.238282-72.078125-80.726563-72.078125-137.839844 0-92.808594 75.199219-168 168-168zm0 0" fill="#ffce54"/><path d="m479.601562 192.871094c21.832032 21.917968 21.832032 57.359375 0 79.199218-21.921874 21.832032-57.363281 21.832032-79.203124 0-15.757813-15.761718-20.160157-38.640624-13.117188-58.410156 2.640625-7.589844 7.039062-14.71875 13.117188-20.796875 6.082031-6.082031 13.203124-10.488281 20.808593-13.128906 19.753907-7.023437 42.554688-2.632813 58.394531 13.136719zm-22.640624 56.558594c9.359374-9.359376 9.359374-24.558594 0-33.917969-9.359376-9.363281-24.5625-9.363281-33.921876 0-9.359374 9.359375-9.359374 24.558593 0 33.917969 9.359376 9.359374 24.5625 9.359374 33.921876 0zm0 0" fill="#ed5565"/><path d="m318 144.460938 34 33.921874-26.800781 26.800782c-5.917969-15.753906-14.167969-30.394532-24.320313-43.511719zm0 0" fill="#ccd1d9"/><path d="m479.601562 16.863281c21.832032 21.917969 21.832032 57.359375 0 79.199219-15.839843 15.832031-38.640624 20.238281-58.402343 13.113281-7.597657-2.640625-14.726563-7.035156-20.808594-13.113281-6.078125-6.082031-10.480469-13.199219-13.117187-20.808594-7.128907-19.761718-2.722657-42.550781 13.117187-58.398437 21.847656-21.824219 57.289063-21.824219 79.210937.007812zm-22.640624 56.566407c9.359374-9.359376 9.359374-24.558594 0-33.917969-9.359376-9.363281-24.5625-9.363281-33.921876 0-9.359374 9.359375-9.359374 24.558593 0 33.917969 9.359376 9.359374 24.5625 9.359374 33.921876 0zm0 0" fill="#ed5565"/><path d="m421.199219 109.183594-35.277344 35.277344-33.921875-33.917969 35.28125-35.28125c2.640625 7.601562 7.039062 14.726562 13.117188 20.808593 6.082031 6.078126 13.203124 10.472657 20.800781 13.113282zm0 0" fill="#ccd1d9"/><path d="m385.921875 144.460938 35.277344 35.28125c-7.597657 2.640624-14.726563 7.046874-20.808594 13.128906-6.078125 6.078125-10.480469 13.199218-13.117187 20.800781l-35.28125-35.28125-34-33.921875-124.558594-124.640625c18.71875-18.71875 49.125-18.71875 67.839844 0l90.71875 90.714844zm0 0" fill="#e6e9ed"/><g fill="#edab37"><path d="m247.992188 152.484375h-16c-4.425782 0-8-3.582031-8-8 0-4.414063 3.574218-8 8-8h16c4.421874 0 8 3.585937 8 8 0 4.417969-3.578126 8-8 8zm0 0"/><path d="m199.992188 152.484375h-16c-4.425782 0-8-3.582031-8-8 0-4.414063 3.574218-8 8-8h16c4.421874 0 8 3.585937 8 8 0 4.417969-3.578126 8-8 8zm0 0"/><path d="m151.992188 152.484375h-16c-4.425782 0-8-3.582031-8-8 0-4.414063 3.574218-8 8-8h16c4.421874 0 8 3.585937 8 8 0 4.417969-3.578126 8-8 8zm0 0"/><path d="m103.992188 152.484375h-16c-4.425782 0-8-3.582031-8-8 0-4.414063 3.574218-8 8-8h16c4.421874 0 8 3.585937 8 8 0 4.417969-3.578126 8-8 8zm0 0"/><path d="m159.992188 432.15625v56c2.664062.128906 5.3125.3125 8.007812.3125 2.6875 0 5.335938-.183594 7.992188-.3125v-56c-2.65625.128906-5.304688.3125-7.992188.3125-2.695312 0-5.34375-.183594-8.007812-.3125zm0 0"/><path d="m255.992188 407.4375v56.046875c2.703124-1.671875 5.40625-3.351563 8.007812-5.167969 2.726562-1.894531 5.390625-3.871094 7.992188-5.925781v-56.039063c-2.625 2.070313-5.320313 4.0625-8.070313 5.964844-2.578125 1.800782-5.25 3.457032-7.929687 5.121094zm0 0"/><path d="m63.992188 396.335938v56.039062c2.609374 2.054688 5.28125 4.039062 8.007812 5.933594 2.59375 1.824218 5.289062 3.496094 7.992188 5.167968v-56.054687c-2.671876-1.648437-5.34375-3.3125-7.914063-5.113281-2.757813-1.910156-5.453125-3.902344-8.085937-5.972656zm0 0"/><path d="m199.992188 328.476562h-8v-136c0-.246093-.121094-.460937-.144532-.703124-.046875-.542969-.160156-1.046876-.320312-1.574219-.160156-.527344-.351563-1.015625-.605469-1.488281-.121094-.21875-.136719-.464844-.273437-.671876-.152344-.21875-.375-.335937-.535157-.535156-.351562-.433594-.722656-.800781-1.152343-1.152344-.402344-.320312-.808594-.601562-1.25-.839843-.4375-.234375-.871094-.410157-1.359376-.554688-.535156-.167969-1.0625-.269531-1.632812-.328125-.246094-.023437-.472656-.152344-.726562-.152344-.238282 0-.457032.121094-.6875.144532-.550782.050781-1.074219.160156-1.609376.320312-.511718.167969-1 .351563-1.472656.609375-.214844.121094-.460937.136719-.671875.269531l-48 32c-3.679687 2.457032-4.671875 7.425782-2.214843 11.097657 1.535156 2.3125 4.078124 3.558593 6.664062 3.558593 1.519531 0 3.0625-.4375 4.433594-1.34375l3.558594-2.375v99.71875h-8c-4.425782 0-8 3.578126-8 8 0 4.425782 3.574218 8 8 8h64c4.421874 0 8-3.574218 8-8 0-4.421874-3.578126-8-8-8zm-40-110.390624 16-10.65625v121.046874h-16zm0 0"/></g></svg>