<?xml version="1.0" encoding="utf-8"?>
<!-- Generator: Adobe Illustrator 16.0.0, SVG Export Plug-In . SVG Version: 6.00 Build 0)  -->
<!DOCTYPE svg PUBLIC "-//W3C//DTD SVG 1.1//EN" "http://www.w3.org/Graphics/SVG/1.1/DTD/svg11.dtd">
<svg xmlns="http://www.w3.org/2000/svg" xmlns:xlink="http://www.w3.org/1999/xlink" version="1.1" id="Layer_1" x="0px" y="0px" width="512" height="512" viewBox="0 0 512 512" enable-background="new 0 0 512 512" xml:space="preserve">
<g id="password_protected_1">
	<g>
		<polygon fill="#F6BB42" points="490.672,383.996 21.336,383.996 21.336,85.332 42.672,85.332 42.672,42.66 170.672,42.66     192,85.332 490.672,85.332   "/>
	</g>
	<g>
		<polygon fill="#FFCE54" points="490.672,447.996 21.336,447.996 0,128.004 512,128.004   "/>
	</g>
	<path fill="#434A54" d="M426.672,234.66c-35.359,0-64,28.656-64,63.992v96h128v-96C490.672,263.316,462.016,234.66,426.672,234.66z    M469.344,373.34H384v-74.688c0-23.5,19.141-42.648,42.672-42.648c23.516,0,42.672,19.148,42.672,42.648V373.34z"/>
	<g>
		<rect x="341.344" y="319.996" fill="#ED5564" width="170.656" height="149.344"/>
	</g>
	<path fill="#434A54" d="M441.953,382.465c0,8.844-7.172,16-16,16h-4c-8.828,0-16-7.156-16-16l0,0c0-8.812,7.172-16,16-16h4   C434.781,366.465,441.953,373.652,441.953,382.465L441.953,382.465z"/>
	<path fill="#656D78" d="M458.672,383.996c0-17.656-14.328-32-32-32s-32,14.344-32,32c0,13.938,8.906,25.781,21.328,30.188v12.469   c0,5.906,4.781,10.688,10.672,10.688s10.672-4.781,10.672-10.688v-12.469C449.766,409.777,458.672,397.934,458.672,383.996z    M426.672,394.652c-5.891,0-10.672-4.781-10.672-10.656s4.781-10.656,10.672-10.656s10.672,4.781,10.672,10.656   S432.562,394.652,426.672,394.652z"/>
	<g>
		<rect x="64" y="191.988" fill="#E6E9ED" width="277.344" height="106.664"/>
	</g>
	<g>
		<path fill="#434A54" d="M151.812,246.754l-2.469-1.422l2.469-1.438l0,0l0,0c5.102-2.938,6.852-9.469,3.906-14.562    c-2.945-5.109-9.469-6.859-14.57-3.906l-2.477,1.422v-2.859c0-5.891-4.773-10.656-10.664-10.656s-10.664,4.766-10.664,10.656    v2.859l-2.477-1.422c-5.102-2.953-11.625-1.203-14.57,3.906c-2.945,5.094-1.203,11.625,3.898,14.562l0,0l0,0l2.477,1.438    l-2.477,1.422c-5.102,2.953-6.844,9.469-3.898,14.578c2.945,5.094,9.469,6.844,14.57,3.891l0,0l2.477-1.422v2.859    c0,5.898,4.773,10.68,10.664,10.68s10.664-4.781,10.664-10.68v-2.859l2.477,1.422l0,0c5.102,2.953,11.625,1.203,14.57-3.891    C158.664,256.223,156.914,249.707,151.812,246.754z"/>
		<path fill="#434A54" d="M226.477,246.754L224,245.332l2.477-1.438l0,0l0,0c5.102-2.938,6.852-9.469,3.906-14.562    c-2.945-5.109-9.469-6.859-14.57-3.906l-2.477,1.422v-2.844c0-5.906-4.773-10.672-10.664-10.672S192,218.098,192,224.004v2.844    l-2.469-1.422c-5.109-2.953-11.625-1.203-14.578,3.906c-2.945,5.094-1.195,11.625,3.906,14.562l0,0l0,0l2.477,1.438l-2.477,1.422    c-5.102,2.953-6.852,9.469-3.906,14.578c2.945,5.094,9.469,6.844,14.578,3.906l0,0l2.469-1.438v2.859    c0,5.898,4.781,10.68,10.672,10.68s10.664-4.781,10.664-10.68v-2.859l2.477,1.438l0,0c5.102,2.938,11.625,1.188,14.57-3.906    C233.328,256.223,231.578,249.707,226.477,246.754z"/>
		<path fill="#434A54" d="M301.156,246.754l-2.484-1.422l2.484-1.438l0,0l0,0c5.094-2.938,6.844-9.469,3.891-14.562    c-2.953-5.109-9.469-6.859-14.578-3.906L288,226.848v-2.844l0,0c0-5.906-4.781-10.672-10.656-10.672    c-5.898,0-10.672,4.766-10.672,10.672v2.844l-2.477-1.422c-5.102-2.953-11.625-1.203-14.57,3.906    c-2.945,5.094-1.195,11.625,3.906,14.562l0,0l0,0l2.469,1.438l-2.469,1.422c-5.102,2.953-6.852,9.469-3.906,14.578    c2.945,5.094,9.469,6.844,14.57,3.906l0,0l2.477-1.438v2.859c0,5.898,4.773,10.68,10.672,10.68c5.875,0,10.656-4.781,10.656-10.68    c0,0,0,0,0-0.016v-2.844l2.469,1.438l0,0c5.109,2.938,11.625,1.188,14.578-3.906C308,256.223,306.25,249.707,301.156,246.754z"/>
	</g>
</g>
</svg>
