<?xml version="1.0" encoding="utf-8"?>
<!-- Generator: Adobe Illustrator 24.1.0, SVG Export Plug-In . SVG Version: 6.00 Build 0)  -->
<svg version="1.1" id="Layer_1" xmlns="http://www.w3.org/2000/svg" xmlns:xlink="http://www.w3.org/1999/xlink" x="0px" y="0px"
	 viewBox="0 0 512 512" style="enable-background:new 0 0 512 512;" xml:space="preserve">
<style type="text/css">
	.st0{fill:#ED5564;}
	.st1{fill:#FFCE54;}
	.st2{fill:#F6BB42;}
	.st3{opacity:0.2;}
	.st4{fill:#FFFFFF;}
</style>
<path class="st0" d="M393.1,43c-15.2-28.5-33.5-43-54.3-43c-23.9,0-48.7,19.6-73.9,58.1c-3.2,4.9-6.2,9.9-9,14.6
	c-2.8-4.8-5.8-9.7-9-14.6C221.9,19.6,197.1,0,173.1,0c-20.8,0-39.1,14.5-54.3,43c-11.4,21.3-7.3,36.7-1.8,45.8
	c9.8,16.4,31.8,27.4,67.2,33.7c27.1,4.9,55.9,5.6,70.6,5.6c0.4,0,0.8,0,1.2,0c0.4,0,0.8,0,1.2,0l0,0c14.7,0,43.5-0.7,70.6-5.6
	c35.4-6.3,57.3-17.4,67.2-33.7C400.4,79.6,404.6,64.3,393.1,43z"/>
<rect x="21.3" y="158.7" class="st1" width="469.3" height="353.3"/>
<polygon class="st2" points="21.3,234.7 490.6,277.4 490.6,213.3 21.3,213.3 "/>
<rect y="96" class="st1" width="512" height="117.3"/>
<g>
	<path class="st0" d="M292.1,285.9c-14.2,0-27,5.8-36.1,15.2c-9.2-9.4-22-15.2-36.1-15.2c-27.9,0-50.6,22.7-50.6,50.6
		c0,57.8,86.7,108.4,86.7,108.4s86.7-50.6,86.7-108.4C342.7,308.5,320,285.9,292.1,285.9z"/>
	<g class="st3">
		<path class="st4" d="M292.1,285.9c-2.5,0-4.9,0.2-7.2,0.5c24.5,3.5,43.4,24.6,43.4,50.1c0,47.6-58.7,90.2-79.5,103.9
			c4.5,2.9,7.2,4.5,7.2,4.5s86.7-50.6,86.7-108.4C342.7,308.5,320,285.9,292.1,285.9z"/>
	</g>
</g>
</svg>
