<svg xmlns="http://www.w3.org/2000/svg" width="38.965" height="70" viewBox="0 0 38.965 70"><g transform="translate(-0.488)"><path d="M113.48,473.1h-2.912a.56.56,0,0,1,0-1.12h2.912a.56.56,0,0,1,0,1.12Zm0,0" transform="translate(-94.186 -405.897)" fill="#7f4545"/><g transform="translate(5.907 6.21)"><path d="M158.156,156.266a10.952,10.952,0,0,1-1.117.085l1.063,20.166,1.014-2.007Zm0,0" transform="translate(-140.54 -140.597)" fill="#e6e9ed"/><path d="M174.041,152.551c-.358.121-.726.229-1.1.317l.866,16.445,1.014-2.006Zm0,0" transform="translate(-154.213 -137.402)" fill="#e6e9ed"/><path d="M205.279,135.383c-.339.265-.7.528-1.08.781l.547,10.367,1.015-2.007Zm0,0" transform="translate(-181.097 -122.638)" fill="#e6e9ed"/><path d="M220.633,121.566c-.306.322-.662.672-1.066,1.037l.424,8.035,1.016-2.006Zm0,0" transform="translate(-194.313 -110.756)" fill="#e6e9ed"/><path d="M92.063,116.924q-.6-.707-1.2-1.49l2.214,42.005,1.015-2.007Zm0,0" transform="translate(-83.629 -105.482)" fill="#e6e9ed"/><path d="M76.189,140.737l1.015-2.006L74.8,93.086q-.6-.848-1.212-1.735Zm0,0" transform="translate(-68.771 -84.771)" fill="#e6e9ed"/><path d="M142.105,155.751a10.587,10.587,0,0,1-1.129-.15l1.284,24.353,1.014-2.007Zm0,0" transform="translate(-126.726 -140.026)" fill="#e6e9ed"/><path d="M109.081,136.437a15.72,15.72,0,0,1-1.179-1.077l1.855,35.207,1.016-2.007Zm0,0" transform="translate(-98.283 -122.618)" fill="#e6e9ed"/><path d="M125.776,149.552a7.619,7.619,0,0,1-1.151-.584l1.543,29.29,1.016-2.006Zm0,0" transform="translate(-112.664 -134.322)" fill="#e6e9ed"/><path d="M189.75,145.625c-.351.194-.717.373-1.093.541l.695,13.182,1.014-2.006Zm0,0" transform="translate(-167.731 -131.446)" fill="#e6e9ed"/><path d="M43.366,102.542l-2.994-56.81c-.363-.483-.725-.947-1.083-1.38a.538.538,0,0,0-.094.322l3.05,57.869Zm0,0" transform="translate(-39.194 -44.352)" fill="#e6e9ed"/><path d="M60.151,121.277l.111-.217-2.8-53.169c-.394-.578-.8-1.167-1.215-1.754l2.907,55.14Zm0,0" transform="translate(-53.859 -63.087)" fill="#e6e9ed"/></g><path d="M39.021,13.321a5.078,5.078,0,0,0-6.978-.123c-.031.025-.067.046-.1.074l-.005,0s0,.008-.008.011a1.649,1.649,0,0,0-.209.234c-.044.062-4.459,6.053-10.051,4.961-2.417-.471-5.45-4.918-8.126-8.841C10.163,4.683,6.969,0,3.223,0a1.68,1.68,0,1,0,0,3.36c1.97,0,5.063,4.533,7.546,8.175,3.336,4.889,6.486,9.508,10.258,10.245a10.6,10.6,0,0,0,2.032.2c6.024,0,10.364-5.17,11.221-6.273a1.711,1.711,0,0,1,2.363-.008c.282.281.753.753-.3,2.79a.011.011,0,0,0,0,0s-.005.007-.007.01L12.923,64.761a1.681,1.681,0,0,0,3,1.519L39.333,20.019s0,0,0,0C39.882,18.956,41.5,15.8,39.021,13.321Zm0,0" transform="translate(-0.907)" fill="#f7c292"/><path d="M49.381,36.679a1.711,1.711,0,0,0-2.364.008c-.856,1.1-5.2,6.273-11.221,6.273a10.592,10.592,0,0,1-2.032-.2c-3.772-.737-6.924-5.356-10.258-10.245-2.325-3.409-5.182-7.6-7.155-8.119v2.55c1.47,1.209,3.817,4.652,5.3,6.832,3.6,5.281,7.005,10.269,11.68,11.182a12.875,12.875,0,0,0,2.456.24c7.715,0,12.956-7.072,13.2-7.4a3.875,3.875,0,0,0,.506-1C49.456,36.754,49.417,36.715,49.381,36.679Zm0,0" transform="translate(-13.642 -20.982)" fill="#656d78"/><path d="M6.24,66.082a1.68,1.68,0,0,1-1.677-1.591L1.259,1.77a1.68,1.68,0,1,1,3.355-.177l3.3,62.721A1.681,1.681,0,0,1,6.33,66.08Zm0,0" transform="translate(-0.661 -0.002)" fill="#ffd2a6"/><path d="M3.848,459.977l-1.12,5.6H.488l1.12-5.6Zm0,0" transform="translate(0 -395.577)" fill="#7f4545"/><path d="M30.814,465.577H16.488l1.12-5.6H29.694l.448,2.24Zm0,0" transform="translate(-13.76 -395.577)" fill="#965353"/><g transform="translate(8.654 66.08)"><path d="M85.609,473.1h-2.24a.56.56,0,0,1,0-1.12h2.24a.56.56,0,0,1,0,1.12Zm0,0" transform="translate(-79.448 -471.977)" fill="#844747"/><path d="M60.489,473.1h-1.12a.56.56,0,0,1,0-1.12h1.12a.56.56,0,0,1,0,1.12Zm0,0" transform="translate(-58.809 -471.977)" fill="#844747"/></g></g></svg>