<?xml version="1.0" encoding="iso-8859-1"?>
<!-- Generator: Adobe Illustrator 19.0.0, SVG Export Plug-In . SVG Version: 6.00 Build 0)  -->
<svg version="1.1" id="Layer_1" xmlns="http://www.w3.org/2000/svg" xmlns:xlink="http://www.w3.org/1999/xlink" x="0px" y="0px"
	 viewBox="0 0 511.592 511.592" style="enable-background:new 0 0 511.592 511.592;" xml:space="preserve">
<path style="fill:#DBA6A1;" d="M158.868,337.858l91.928,84.278c1.015,1.015-3.388,26.573-2.248,27.369
	c9.259,6.464,22.107,5.559,30.382-2.717c9.29-9.289,9.29-24.355,0-33.646c9.29,9.29,24.356,9.29,33.646,0
	c9.133-9.134,9.273-23.872,0.405-33.192c9.321,8.868,24.06,8.728,33.208-0.422c9.135-9.134,9.274-23.872,0.406-33.193
	c9.321,8.853,24.06,8.729,33.209-0.421c9.289-9.29,9.289-24.341,0-33.63l-75.301-74.964l-46.386-28.213l35.94-23.185
	l-123.996-49.961l-95.316,95.3l49.633,78.603L158.868,337.858z"/>
<g>
	<path style="fill:#EAC6BB;" d="M439.867,233.495L337.899,131.543l-100.14,38.626l-40.234,40.234
		c-9.337,9.337-9.337,24.466,0,33.802c9.336,9.337,24.465,9.337,33.802,0l19.469-18.095l24.824-6.354l28.884,17.564l75.301,74.964
		L439.867,233.495z"/>
	<path style="fill:#EAC6BB;" d="M137.4,296.812l-11.726,11.726c-9.289,9.289-9.289,24.355,0,33.63
		c9.29,9.289,24.356,9.289,33.63,0.016l11.741-11.741c9.289-9.289,9.289-24.34,0-33.63S146.689,287.523,137.4,296.812z"/>
	<path style="fill:#EAC6BB;" d="M171.046,330.442l-11.741,11.741c-9.273,9.273-9.289,24.34,0,33.63c9.29,9.29,24.356,9.29,33.646,0
		l11.726-11.726c9.29-9.289,9.29-24.355,0-33.646C195.386,321.152,180.335,321.152,171.046,330.442z"/>
	<path style="fill:#EAC6BB;" d="M204.676,364.087l-11.726,11.726c-9.289,9.29-9.289,24.355,0,33.63c9.29,9.29,24.341,9.29,33.63,0
		l11.741-11.726c9.29-9.289,9.274-24.34,0-33.63C229.032,354.798,213.966,354.798,204.676,364.087z"/>
	<path style="fill:#EAC6BB;" d="M238.321,397.717l-11.741,11.726c-9.289,9.29-9.289,24.356,0,33.646c9.29,9.29,24.356,9.29,33.646,0
		l11.725-11.725c9.289-9.29,9.289-24.356,0-33.646C262.662,388.428,247.611,388.428,238.321,397.717z"/>
</g>
<g>
	<polygon style="fill:#434A54;" points="511.592,180.348 449.156,242.8 326.643,120.271 389.078,57.835 	"/>
	
		<rect x="48.325" y="64.482" transform="matrix(-0.7071 -0.7071 0.7071 -0.7071 51.0123 323.352)" style="fill:#434A54;" width="88.299" height="173.258"/>
</g>
<path style="fill:#FFCE54;" d="M59.164,184.408c-4.168,4.169-4.168,10.913,0,15.082c4.153,4.153,10.914,4.153,15.066,0
	c4.169-4.169,4.169-10.913,0-15.082C70.078,180.255,63.317,180.255,59.164,184.408z"/>
<g>
</g>
<g>
</g>
<g>
</g>
<g>
</g>
<g>
</g>
<g>
</g>
<g>
</g>
<g>
</g>
<g>
</g>
<g>
</g>
<g>
</g>
<g>
</g>
<g>
</g>
<g>
</g>
<g>
</g>
</svg>
