<svg xmlns="http://www.w3.org/2000/svg" width="35.566" height="70" viewBox="0 0 35.566 70"><g transform="translate(0)"><path d="M74.776,57.094H72.691a.547.547,0,0,1,0-1.094h2.084a.547.547,0,0,1,0,1.094Zm0,0" transform="translate(-62.281 -48.344)" fill="#545c66"/><path d="M72.691,54.186a.547.547,0,0,1-.547-.547V52.547a.547.547,0,0,1,1.094,0v1.094A.547.547,0,0,1,72.691,54.186Zm0,0" transform="translate(-62.281 -44.891)" fill="#656d78"/><path d="M74.639,81.086H72.691a.547.547,0,0,1,0-1.094h1.948a.547.547,0,0,1,0,1.094Zm0,0" transform="translate(-62.281 -69.056)" fill="#545c66"/><path d="M72.691,78.18a.547.547,0,0,1-.547-.547V76.539a.547.547,0,0,1,1.094,0v1.094A.547.547,0,0,1,72.691,78.18Zm0,0" transform="translate(-62.281 -65.603)" fill="#656d78"/><path d="M99.089,49.094H96.938a.547.547,0,0,1,0-1.094h2.152a.547.547,0,0,1,0,1.094Zm0,0" transform="translate(-83.213 -41.438)" fill="#545c66"/><path d="M99.939,73.094H97.922a.547.547,0,0,1,0-1.094h2.017a.547.547,0,0,1,0,1.094Zm0,0" transform="translate(-84.062 -62.156)" fill="#545c66"/><path d="M97.77,17.094H96.676a.547.547,0,0,1,0-1.094H97.77a.547.547,0,0,1,0,1.094Zm0,0" transform="translate(-82.987 -13.813)" fill="#844747"/><path d="M81.77,17.094H80.676a.547.547,0,0,1,0-1.094H81.77a.547.547,0,0,1,0,1.094Zm0,0" transform="translate(-69.174 -13.813)" fill="#844747"/><path d="M27.6,221.479l-.044-.316c-4.68,0-5.9-10.2-2.177-10.969l-.011-.034c2.144-3.335,2.061-14.152-6.562-14.152l-.449.011H14.881l-.448-.011c-8.276,0-8.706,10.818-6.562,14.152l-.011.034c3.73.754,2.5,10.969-2.176,10.969l-.044.316c2.231,2.965-10.161,16.953,10.981,17.184.393,0,.777-.011,1.138-.032C37.3,237.919,25.414,224.389,27.6,221.479Zm0,0" transform="translate(-3.478 -169.21)" fill="#965353"/><g transform="translate(0 26.25)"><path d="M21.31,207.249a.55.55,0,0,1-.461-.25c-1.306-2.029-2.019-6.851.042-10.628,1.086-1.991,3.369-4.363,8.077-4.363a.547.547,0,0,1,0,1.094c-3.349,0-5.742,1.276-7.116,3.792-1.833,3.36-1.211,7.757-.081,9.514a.548.548,0,0,1-.164.756A.556.556,0,0,1,21.31,207.249Zm0,0" transform="translate(-16.916 -192.007)" fill="#844747"/><path d="M12.355,307.893a.547.547,0,0,1,0-1.094c1.577,0,2.528-1.48,2.952-2.361,1.172-2.431,1.206-5.813.071-7.238a1.615,1.615,0,0,0-1.764-.575.547.547,0,1,1-.242-1.066,2.709,2.709,0,0,1,2.861.96c1.529,1.92,1.264,5.891.058,8.393C15.366,306.833,13.967,307.893,12.355,307.893Zm0,0" transform="translate(-10.194 -281.326)" fill="#844747"/><path d="M13.143,396.606h-.007C6.91,396.538,3,395.3,1.174,392.814c-2.082-2.843-.944-6.595-.028-9.61.506-1.67,1.03-3.4.578-4a.547.547,0,1,1,.874-.657c.787,1.044.26,2.778-.406,4.973-.843,2.782-1.894,6.245-.135,8.645,1.582,2.158,5.313,3.283,11.093,3.346a.546.546,0,0,1-.006,1.093Zm0,0" transform="translate(0 -352.856)" fill="#844747"/><path d="M108.333,207.243a.546.546,0,0,1-.461-.842c1.13-1.755,1.752-6.152-.081-9.514-1.374-2.516-3.768-3.793-7.116-3.793a.547.547,0,0,1,0-1.094c4.707,0,6.99,2.372,8.076,4.363,2.061,3.777,1.347,8.6.042,10.628A.55.55,0,0,1,108.333,207.243Zm0,0" transform="translate(-86.439 -192)" fill="#844747"/><path d="M145.289,307.882c-1.612,0-3.01-1.058-3.937-2.978-1.206-2.5-1.471-6.474.059-8.4a2.706,2.706,0,0,1,2.861-.96.547.547,0,1,1-.242,1.066,1.62,1.62,0,0,0-1.764.575c-1.134,1.426-1.1,4.808.071,7.239.426.882,1.373,2.359,2.95,2.359a.547.547,0,0,1,0,1.095Zm0,0" transform="translate(-121.165 -281.316)" fill="#844747"/><path d="M92.683,396.6a.547.547,0,0,1-.007-1.094c5.779-.062,9.51-1.188,11.093-3.346,1.76-2.4.71-5.862-.135-8.644-.665-2.2-1.192-3.93-.4-4.974a.547.547,0,1,1,.874.657c-.453.6.071,2.329.577,4,.915,3.015,2.054,6.768-.029,9.61-1.822,2.484-5.735,3.724-11.962,3.792Zm0,0" transform="translate(-79.54 -352.849)" fill="#844747"/></g><path d="M83.511,30.188V28H81.324v2.188L80.246,64.641l.531.547h3.281l.53-.543Zm0,0" transform="translate(-69.275 -24.172)" fill="#656d78"/><path d="M85.777,0a1.642,1.642,0,0,0-1.641,1.641V3.828a1.641,1.641,0,0,0,3.281,0V1.641A1.643,1.643,0,0,0,85.777,0Zm0,0" transform="translate(-72.634)" fill="#965353"/><path d="M112.676,46.516a.547.547,0,0,1-.547-.547V44.875a.547.547,0,0,1,1.094,0v1.094A.547.547,0,0,1,112.676,46.516Zm0,0" transform="translate(-96.799 -38.268)" fill="#656d78"/><path d="M112.676,70.186a.547.547,0,0,1-.547-.547V68.547a.547.547,0,0,1,1.094,0v1.094A.547.547,0,0,1,112.676,70.186Zm0,0" transform="translate(-96.799 -58.703)" fill="#656d78"/><path d="M81.064,369.094H76.691a.547.547,0,0,1,0-1.094h4.373a.547.547,0,0,1,0,1.094Zm0,0" transform="translate(-65.735 -317.688)" fill="#844747"/><path d="M252.684,76.906a.547.547,0,0,1-.547-.547V8.547a.547.547,0,0,1,1.094,0V76.359A.547.547,0,0,1,252.684,76.906Zm0,0" transform="translate(-217.665 -6.906)" fill="#545c66"/><path d="M236.684,65.625a.547.547,0,0,1-.547-.547V.547a.547.547,0,0,1,1.094,0V65.078A.547.547,0,0,1,236.684,65.625Zm0,0" transform="translate(-203.853)" fill="#e6e9ed"/><path d="M92.684,226.935a.547.547,0,0,1-.547-.547V192.469a.547.547,0,0,1,1.094,0v33.919A.547.547,0,0,1,92.684,226.935Zm0,0" transform="translate(-79.54 -165.683)" fill="#e6e9ed"/><g transform="translate(10.955 0)"><path d="M85.143,444.537A.547.547,0,0,0,84.6,444H81.591a.546.546,0,0,0-.545.537l-.015.015,1.445,6.734h0a.546.546,0,0,0,.5.336h.226a.547.547,0,0,0,.5-.336h0l1.445-6.734Zm0,0" transform="translate(-80.908 -383.297)" fill="#656d78"/><path d="M239.107,1.153,236.919.059a.546.546,0,0,0-.79.489V3.829a.547.547,0,0,0,.547.547h2.188a.547.547,0,0,0,.547-.547V1.642A.549.549,0,0,0,239.107,1.153Zm0,0" transform="translate(-214.801 -0.001)" fill="#656d78"/><path d="M238.863,448h-2.187a.547.547,0,0,0-.547.547v3.281a.547.547,0,0,0,.547.547h2.188a.547.547,0,0,0,.547-.547v-3.281A.547.547,0,0,0,238.863,448Zm0,0" transform="translate(-214.801 -386.75)" fill="#656d78"/><path d="M81.223,292.547a.547.547,0,1,1-.547-.547A.547.547,0,0,1,81.223,292.547Zm0,0" transform="translate(-80.129 -252.078)" fill="#656d78"/><path d="M105.223,292.547a.547.547,0,1,1-.547-.547A.547.547,0,0,1,105.223,292.547Zm0,0" transform="translate(-100.848 -252.078)" fill="#656d78"/></g></g></svg>