<svg height="496pt" viewBox="-39 0 495 496" width="496pt" xmlns="http://www.w3.org/2000/svg"><path d="m50.46875 271.679688c-14.789062 0-28.832031-5.09375-38.550781-14.824219-15.222657-15.222657-15.222657-40.007813 0-55.230469 12.816406-12.816406 33.640625-12.816406 46.457031 0 10.863281 10.863281 10.863281 28.550781 0 39.421875-9.015625 9.042969-24.777344 9.042969-33.808594 0-3.128906-3.125-3.128906-8.183594 0-11.3125 3.128906-3.125 8.183594-3.125 11.3125 0 3 2.992187 8.183594 2.984375 11.167969 0 4.640625-4.628906 4.640625-12.167969.007813-16.796875-6.5625-6.570312-17.25-6.570312-23.832032 0-8.992187 8.992188-8.992187 23.613281 0 32.605469 11.015625 11.007812 31.375 13.304687 48.4375 5.441406 4.035156-1.855469 8.769532-.097656 10.617188 3.910156 1.847656 4.015625.097656 8.769531-3.910156 10.617188-8.992188 4.152343-18.59375 6.167969-27.898438 6.167969zm0 0" fill="#d770ad"/><path d="m232.519531 106.558594c-7.28125 3.511718-15.441406 5.441406-24 5.441406-8.554687 0-16.722656-1.921875-24-5.441406-18.960937-8.957032-32-28.167969-32-50.558594v32c0 22.398438 13.039063 41.601562 32 50.558594 7.277344 3.511718 15.445313 5.441406 24 5.441406 8.558594 0 16.71875-1.921875 24-5.441406 18.957031-8.957032 32-28.167969 32-50.558594v-32c0 22.398438-13.042969 41.601562-32 50.558594zm0 0" fill="#f6bb42"/><path d="m264.519531 56c0 22.398438-13.042969 41.601562-32 50.558594-7.28125 3.511718-15.441406 5.441406-24 5.441406-8.554687 0-16.722656-1.921875-24-5.441406-18.960937-8.957032-32-28.167969-32-50.558594 0-30.960938 25.039063-56 56-56 30.957031 0 56 25.039062 56 56zm0 0" fill="#ffce54"/><g fill="#d770ad"><path d="m184.4375 470.800781v25.199219h-80v-53.039062l.082031-.082032c22.167969 15.441406 49.679688 24.722656 79.917969 27.832032zm0 0"/><path d="m312.4375 442.960938v53.039062h-80v-25.28125c30.242188-3.117188 57.761719-12.398438 79.921875-27.832031zm0 0"/><path d="m344.4375 160-18.238281 64v.078125c-16.800781-15.4375-37.914063-26.398437-61.761719-32.871094v-.085937c.480469-17.273438 14.558594-31.121094 32-31.121094zm0 0"/><path d="m416.4375 288 .082031 80-65.121093 32h-.082032c10.960938-19.921875 17.121094-43.921875 17.121094-72s-6.160156-52.078125-17.121094-72h.082032zm0 0"/></g><path d="m208.4375 184c19.679688 0 38.558594 2.398438 56 7.199219 23.839844 6.480469 44.960938 17.441406 61.761719 32.871093 10 9.042969 18.488281 19.769532 25.125 31.921876 10.960937 19.917968 17.121093 43.917968 17.121093 72 0 28.078124-6.160156 52.078124-17.121093 72-9.519531 17.519531-22.878907 31.839843-38.957031 42.878906-22.167969 15.441406-49.679688 24.722656-79.921876 27.832031-7.839843.882813-15.839843 1.28125-24 1.28125-8.160156 0-16.160156-.398437-24-1.28125-30.238281-3.117187-57.757812-12.398437-79.917968-27.832031-34.320313-23.679688-56.082032-62-56.082032-114.878906 0-27.601563 5.921876-51.28125 16.480469-70.878907 26.082031-48.714843 80.550781-73.113281 143.511719-73.113281zm0 0" fill="#ec87c0"/><path d="m144.46875 227.265625c-3.191406 0-6.214844-1.929687-7.453125-5.097656-1.609375-4.113281.429687-8.753907 4.535156-10.359375 19.792969-7.71875 42.933594-11.808594 66.925781-11.808594 23.960938 0 47.097657 4.078125 66.882813 11.800781 4.117187 1.605469 6.152344 6.238281 4.542969 10.359375-1.609375 4.128906-6.257813 6.144532-10.359375 4.542969-17.953125-7-39.074219-10.703125-61.066407-10.703125-22.015624 0-43.152343 3.703125-61.09375 10.71875-.960937.378906-1.945312.546875-2.914062.546875zm0 0" fill="#d770ad"/><path d="m208.558594 80c-4.425782 0-8-3.574219-8-8v-32c0-4.425781 3.574218-8 8-8 4.421875 0 8 3.574219 8 8v32c0 4.425781-3.578125 8-8 8zm0 0" fill="#edab37"/><path d="m176.558594 101.863281v32c2.519531 1.761719 5.152344 3.367188 7.960937 4.695313 2.558594 1.234375 5.269531 2.203125 8.039063 3.035156v-32c-2.769532-.832031-5.480469-1.800781-8.039063-3.035156-2.816406-1.328125-5.441406-2.933594-7.960937-4.695313zm0 0" fill="#edab37"/><path d="m224.566406 109.566406v32c2.734375-.824218 5.414063-1.78125 7.953125-3.007812 2.839844-1.34375 5.503907-2.984375 8.046875-4.765625v-32c-2.542968 1.78125-5.199218 3.421875-8.046875 4.765625-2.539062 1.234375-5.21875 2.195312-7.953125 3.007812zm0 0" fill="#edab37"/></svg>