<svg xmlns="http://www.w3.org/2000/svg" width="102.129" height="80" viewBox="0 0 102.129 80"><g transform="translate(-255.672 -329)"><g transform="translate(255.672 329)"><g transform="translate(4.321 57.609)"><path d="M1.439,11.523A1.441,1.441,0,0,1,0,10.085V1.443a1.441,1.441,0,1,1,2.882,0v8.642A1.441,1.441,0,0,1,1.439,11.523Z" transform="translate(54.73 0)" fill="#965353"/><path d="M1.441,11.523A1.441,1.441,0,0,1,0,10.085V1.443a1.44,1.44,0,1,1,2.881,0v8.642A1.44,1.44,0,0,1,1.441,11.523Z" fill="#965353"/></g><g transform="translate(0 43.208)"><path d="M10.207,6.656C8.983,2.053,7.612,0,5.759,0S2.536,2.053,1.314,6.656A38.84,38.84,0,0,0,0,14.4a5.762,5.762,0,1,0,11.523,0A38.859,38.859,0,0,0,10.207,6.656Z" transform="translate(54.73)" fill="#a0d468"/><path d="M5.762,0C3.909,0,2.538,2.053,1.314,6.656A38.909,38.909,0,0,0,0,14.4a5.761,5.761,0,1,0,11.522,0,38.88,38.88,0,0,0-1.313-7.745C8.985,2.053,7.614,0,5.762,0Z" fill="#a0d468"/></g><path d="M36.006,0H1.44A1.44,1.44,0,0,0,0,1.44V67.693a1.44,1.44,0,0,0,1.44,1.439H36.006a1.439,1.439,0,0,0,1.439-1.439V1.44A1.439,1.439,0,0,0,36.006,0Z" transform="translate(14.403 0)" fill="#4fc2e9"/><path d="M1.44,5.759A1.44,1.44,0,0,1,0,4.321V1.439a1.44,1.44,0,0,1,2.88,0V4.321A1.44,1.44,0,0,1,1.44,5.759Z" transform="translate(31.686 63.373)" fill="#434a54"/><g transform="translate(18.724 5.761)"><path d="M27.365,2.882H1.44A1.441,1.441,0,0,1,1.44,0H27.365a1.441,1.441,0,0,1,0,2.882Z" transform="translate(0 51.848)" fill="#e6e9ed"/><path d="M27.365,2.882H1.44A1.441,1.441,0,0,1,1.44,0H27.365a1.441,1.441,0,0,1,0,2.882Z" transform="translate(0 46.089)" fill="#e6e9ed"/><path d="M27.365,2.878H1.44A1.439,1.439,0,1,1,1.44,0H27.365a1.439,1.439,0,0,1,0,2.878Z" transform="translate(0 40.329)" fill="#e6e9ed"/><path d="M27.365,2.882H1.44A1.441,1.441,0,0,1,1.44,0H27.365a1.441,1.441,0,0,1,0,2.882Z" transform="translate(0 34.565)" fill="#e6e9ed"/><path d="M27.365,2.882H1.44A1.441,1.441,0,0,1,1.44,0H27.365a1.441,1.441,0,0,1,0,2.882Z" transform="translate(0 28.806)" fill="#e6e9ed"/><path d="M27.365,2.88H1.44A1.44,1.44,0,0,1,1.44,0H27.365a1.44,1.44,0,0,1,0,2.88Z" transform="translate(0 23.045)" fill="#e6e9ed"/><path d="M27.365,2.881H1.44A1.44,1.44,0,0,1,1.44,0H27.365a1.44,1.44,0,0,1,0,2.881Z" transform="translate(0 17.283)" fill="#e6e9ed"/><path d="M27.365,2.881H1.44A1.44,1.44,0,0,1,1.44,0H27.365a1.44,1.44,0,0,1,0,2.881Z" transform="translate(0 11.522)" fill="#e6e9ed"/><path d="M27.365,2.88H1.44A1.44,1.44,0,1,1,1.44,0H27.365a1.44,1.44,0,0,1,0,2.88Z" transform="translate(0 5.762)" fill="#e6e9ed"/><path d="M27.365,2.881H1.44A1.44,1.44,0,0,1,1.44,0H27.365a1.44,1.44,0,0,1,0,2.881Z" fill="#e6e9ed"/></g><path d="M38.886,2.881H1.441A1.44,1.44,0,1,1,1.441,0H38.886a1.44,1.44,0,1,1,0,2.881Z" transform="translate(12.962 0)" fill="#3bafda"/><path d="M41.769,2.882H1.44A1.441,1.441,0,0,1,1.44,0H41.769a1.441,1.441,0,0,1,0,2.882Z" transform="translate(11.522 66.25)" fill="#656d78"/></g><g transform="translate(288.669 339.868)"><path d="M41.769,0H1.44A1.44,1.44,0,0,0,0,1.441V63.373a1.439,1.439,0,0,0,1.44,1.439H41.769a1.439,1.439,0,0,0,1.439-1.439V1.441A1.441,1.441,0,0,0,41.769,0Z" transform="translate(12.962 4.321)" fill="#ed5564"/><path d="M7.2,0H1.441A1.442,1.442,0,0,0,0,1.441v8.642a1.44,1.44,0,0,0,1.441,1.439H7.2a1.439,1.439,0,0,0,1.44-1.439V1.441A1.44,1.44,0,0,0,7.2,0Z" transform="translate(18.723 10.082)" fill="#4fc2e9"/><path d="M7.2,0H1.441A1.442,1.442,0,0,0,0,1.441v2.88H8.642V1.441A1.44,1.44,0,0,0,7.2,0Z" transform="translate(18.723 10.082)" fill="#e6e9ed"/><path d="M7.2,0H1.44A1.441,1.441,0,0,0,0,1.441v8.642a1.439,1.439,0,0,0,1.44,1.439H7.2a1.439,1.439,0,0,0,1.439-1.439V1.441A1.441,1.441,0,0,0,7.2,0Z" transform="translate(30.245 10.082)" fill="#4fc2e9"/><path d="M7.2,0H1.44A1.441,1.441,0,0,0,0,1.441v2.88H8.641V1.441A1.441,1.441,0,0,0,7.2,0Z" transform="translate(30.245 10.082)" fill="#e6e9ed"/><path d="M7.2,0H1.439A1.44,1.44,0,0,0,0,1.441v8.642a1.438,1.438,0,0,0,1.439,1.439H7.2a1.44,1.44,0,0,0,1.443-1.439V1.441A1.442,1.442,0,0,0,7.2,0Z" transform="translate(41.769 10.082)" fill="#4fc2e9"/><path d="M7.2,0H1.439A1.44,1.44,0,0,0,0,1.441v2.88H8.642V1.441A1.442,1.442,0,0,0,7.2,0Z" transform="translate(41.769 10.082)" fill="#e6e9ed"/><path d="M7.2,0H1.441A1.44,1.44,0,0,0,0,1.439V10.08a1.442,1.442,0,0,0,1.441,1.441H7.2a1.441,1.441,0,0,0,1.44-1.441V1.439A1.439,1.439,0,0,0,7.2,0Z" transform="translate(18.723 24.486)" fill="#4fc2e9"/><path d="M7.2,0H1.441A1.44,1.44,0,0,0,0,1.439V4.321H8.642V1.439A1.439,1.439,0,0,0,7.2,0Z" transform="translate(18.723 24.486)" fill="#e6e9ed"/><path d="M7.2,0H1.44A1.439,1.439,0,0,0,0,1.439V10.08a1.441,1.441,0,0,0,1.44,1.441H7.2A1.441,1.441,0,0,0,8.641,10.08V1.439A1.439,1.439,0,0,0,7.2,0Z" transform="translate(30.245 24.486)" fill="#4fc2e9"/><path d="M7.2,0H1.44A1.439,1.439,0,0,0,0,1.439V4.321H8.641V1.439A1.439,1.439,0,0,0,7.2,0Z" transform="translate(30.245 24.486)" fill="#e6e9ed"/><path d="M7.2,0H1.439A1.438,1.438,0,0,0,0,1.439V10.08a1.44,1.44,0,0,0,1.439,1.441H7.2A1.442,1.442,0,0,0,8.642,10.08V1.439A1.44,1.44,0,0,0,7.2,0Z" transform="translate(41.769 24.486)" fill="#4fc2e9"/><path d="M7.2,0H1.439A1.438,1.438,0,0,0,0,1.439V4.321H8.642V1.439A1.44,1.44,0,0,0,7.2,0Z" transform="translate(41.769 24.486)" fill="#e6e9ed"/><path d="M7.2,0H1.441A1.441,1.441,0,0,0,0,1.441v8.642a1.442,1.442,0,0,0,1.441,1.441H7.2a1.44,1.44,0,0,0,1.44-1.441V1.441A1.44,1.44,0,0,0,7.2,0Z" transform="translate(18.723 38.887)" fill="#4fc2e9"/><path d="M7.2,0H1.441A1.441,1.441,0,0,0,0,1.441v2.88H8.642V1.441A1.44,1.44,0,0,0,7.2,0Z" transform="translate(18.723 38.887)" fill="#e6e9ed"/><path d="M7.2,0H1.44A1.441,1.441,0,0,0,0,1.441v8.642a1.441,1.441,0,0,0,1.44,1.441H7.2a1.441,1.441,0,0,0,1.439-1.441V1.441A1.441,1.441,0,0,0,7.2,0Z" transform="translate(30.245 38.887)" fill="#4fc2e9"/><path d="M7.2,0H1.44A1.441,1.441,0,0,0,0,1.441v2.88H8.641V1.441A1.441,1.441,0,0,0,7.2,0Z" transform="translate(30.245 38.887)" fill="#e6e9ed"/><path d="M7.2,0H1.439A1.44,1.44,0,0,0,0,1.441v8.642a1.44,1.44,0,0,0,1.439,1.441H7.2a1.442,1.442,0,0,0,1.443-1.441V1.441A1.442,1.442,0,0,0,7.2,0Z" transform="translate(41.769 38.887)" fill="#4fc2e9"/><path d="M7.2,0H1.439A1.44,1.44,0,0,0,0,1.441v2.88H8.642V1.441A1.442,1.442,0,0,0,7.2,0Z" transform="translate(41.769 38.887)" fill="#e6e9ed"/><path d="M7.2,0H1.441A1.442,1.442,0,0,0,0,1.441v8.642a1.44,1.44,0,0,0,1.441,1.439H7.2a1.439,1.439,0,0,0,1.44-1.439V1.441A1.44,1.44,0,0,0,7.2,0Z" transform="translate(18.723 53.29)" fill="#4fc2e9"/><path d="M7.2,0H1.441A1.442,1.442,0,0,0,0,1.441v2.88H8.642V1.441A1.44,1.44,0,0,0,7.2,0Z" transform="translate(18.723 53.29)" fill="#e6e9ed"/><path d="M7.2,0H1.439A1.44,1.44,0,0,0,0,1.441v8.642a1.438,1.438,0,0,0,1.439,1.439H7.2a1.44,1.44,0,0,0,1.443-1.439V1.441A1.442,1.442,0,0,0,7.2,0Z" transform="translate(41.769 53.29)" fill="#4fc2e9"/><path d="M7.2,0H1.439A1.44,1.44,0,0,0,0,1.441v2.88H8.642V1.441A1.442,1.442,0,0,0,7.2,0Z" transform="translate(41.769 53.29)" fill="#e6e9ed"/><path d="M1.443,11.521A1.44,1.44,0,0,1,0,10.082V1.441a1.441,1.441,0,0,1,2.882,0v8.642A1.439,1.439,0,0,1,1.443,11.521Z" transform="translate(61.93 57.611)" fill="#a85d5d"/><path d="M5.764,20.165A5.77,5.77,0,0,1,0,14.4,38.836,38.836,0,0,1,1.317,6.658C2.54,2.055,3.912,0,5.764,0s3.224,2.055,4.447,6.658A38.916,38.916,0,0,1,11.524,14.4,5.768,5.768,0,0,1,5.764,20.165Z" transform="translate(57.609 43.208)" fill="#a0d468"/><path d="M1.44,11.521A1.439,1.439,0,0,1,0,10.082V1.441a1.44,1.44,0,1,1,2.881,0v8.642A1.44,1.44,0,0,1,1.44,11.521Z" transform="translate(4.321 57.611)" fill="#a85d5d"/><path d="M5.761,20.165A5.768,5.768,0,0,1,0,14.4,38.855,38.855,0,0,1,1.313,6.658C2.537,2.055,3.908,0,5.761,0s3.224,2.055,4.447,6.658A38.875,38.875,0,0,1,11.522,14.4,5.768,5.768,0,0,1,5.761,20.165Z" transform="translate(0 43.208)" fill="#a0d468"/><path d="M44.648,0H1.44A1.441,1.441,0,0,0,0,1.441V5.762A1.441,1.441,0,0,0,1.44,7.2H44.648a1.44,1.44,0,0,0,1.439-1.441V1.441A1.44,1.44,0,0,0,44.648,0Z" transform="translate(11.522 0)" fill="#656d78"/><g transform="translate(15.843 4.321)"><path d="M1.44,0A1.44,1.44,0,0,0,0,1.441V2.882H2.88V1.441A1.44,1.44,0,0,0,1.44,0Z" fill="#434a54"/><path d="M1.44,0A1.44,1.44,0,0,0,0,1.441V2.882H2.881V1.441A1.441,1.441,0,0,0,1.44,0Z" transform="translate(5.761 0)" fill="#434a54"/><path d="M1.441,0A1.441,1.441,0,0,0,0,1.441V2.882H2.881V1.441A1.441,1.441,0,0,0,1.441,0Z" transform="translate(11.521 0)" fill="#434a54"/><path d="M1.44,0A1.44,1.44,0,0,0,0,1.441V2.882H2.88V1.441A1.441,1.441,0,0,0,1.44,0Z" transform="translate(17.283 0)" fill="#434a54"/><path d="M1.439,0A1.441,1.441,0,0,0,0,1.441V2.882H2.882V1.441A1.442,1.442,0,0,0,1.439,0Z" transform="translate(23.044 0)" fill="#434a54"/><path d="M1.443,0A1.442,1.442,0,0,0,0,1.441V2.882H2.882V1.441A1.441,1.441,0,0,0,1.443,0Z" transform="translate(28.803 0)" fill="#434a54"/><path d="M1.439,0A1.44,1.44,0,0,0,0,1.441V2.882H2.878V1.441A1.44,1.44,0,0,0,1.439,0Z" transform="translate(34.567 0)" fill="#434a54"/></g><path d="M7.2,0H1.44A1.441,1.441,0,0,0,0,1.441v14.4H8.641V1.441A1.441,1.441,0,0,0,7.2,0Z" transform="translate(30.245 53.29)" fill="#f6bb42"/></g></g></svg>