<svg xmlns="http://www.w3.org/2000/svg" width="24.742" height="24" viewBox="0 0 24.742 24"><g transform="translate(0 1.031)"><path d="M5.833,29.018l-.155.458a48.214,48.214,0,0,0-1.3,4.805c-.749,3.512-.769,5.949-.058,7.244a2.185,2.185,0,0,0,.862.894L3.6,48.338,1.434,49.586l-.785-.211a.515.515,0,0,0-.435.915l6.33,1.7a.515.515,0,0,0,.08-1.01l-.785-.21L4.591,48.605l1.59-5.933c.942-.005,1.848-.663,2.693-1.957a18.522,18.522,0,0,0,1.8-3.9,46.5,46.5,0,0,0,1.541-5.584l.095-.474ZM2.842,49.963l1.007-.581.581,1.006ZM9.705,36.471a17.516,17.516,0,0,1-1.694,3.68c-.444.68-1.124,1.49-1.84,1.49a1.051,1.051,0,0,1-.25-.03,1.07,1.07,0,0,1-.7-.58c-.48-.874-.516-2.651-.115-5.075H9.882Q9.8,36.213,9.705,36.471Zm.5-1.546H5.3q.042-.207.086-.419c.387-1.817.881-3.468,1.123-4.24l4.6,1.233C10.958,32.166,10.649,33.468,10.209,34.925Z" transform="translate(0 -29.018)" fill="#fff"/></g><g transform="translate(12.428)"><path d="M269.479,28.4a.516.516,0,0,0-.631-.364l-.785.21L265.9,27l-1.59-5.932a2.283,2.283,0,0,0,.867-.943c.693-1.325.667-3.76-.074-7.237a47.005,47.005,0,0,0-1.286-4.749l-.155-.458-6.481,1.737.1.474a47.467,47.467,0,0,0,1.539,5.59,18.821,18.821,0,0,0,1.789,3.906c.841,1.3,1.74,1.962,2.673,1.962h.041l1.586,5.92-1.248,2.161-.784.211a.515.515,0,0,0,.081,1.009l6.329-1.7A.514.514,0,0,0,269.479,28.4ZM258.391,10.155l4.6-1.232c.24.762.723,2.382,1.107,4.175q.052.248.1.484h-4.91C258.848,12.126,258.54,10.824,258.391,10.155Zm5.165,10.118a1.012,1.012,0,0,1-.277.04c-.7,0-1.367-.808-1.8-1.486a17.766,17.766,0,0,1-1.681-3.681q-.093-.267-.181-.533h4.773c.489,2.972.224,4.371-.121,5.029A1.16,1.16,0,0,1,263.556,20.273Zm1.511,8.773.581-1.006,1.006.581Z" transform="translate(-257.183 -7.675)" fill="#fff"/></g></svg>