<svg xmlns="http://www.w3.org/2000/svg" width="120.976" height="80" viewBox="0 0 120.976 80"><g transform="translate(33 -528)"><path d="M103.8,37.225v2.691c-3.357-4.39-5.385-5.189-7.8-4.681l3.9-7.922A14.5,14.5,0,0,1,103.8,37.225Zm0,0" transform="translate(-105.585 507.349)" fill="#edab37"/><path d="M33.366,12.734l-3.9,7.922c-3.649.76-8.175,4.566-19.512,3.238-.624-.077-1.268-.155-1.951-.272v-.976a14.623,14.623,0,0,1,25.366-9.912Zm0,0" transform="translate(-39.049 521.928)" fill="#ffce54"/><path d="M55.873,8.031a14.3,14.3,0,0,0-1.885.132c-.092.014-.182.031-.273.041a14.994,14.994,0,0,0-1.754.37A14.61,14.61,0,0,1,62.555,20.691c.048-.012.1-.028.147-.037l3.9-7.922A14.537,14.537,0,0,0,55.873,8.031Zm0,0" transform="translate(-72.288 521.928)" fill="#f6bb42"/><path d="M43.317,70.147v.019a13.61,13.61,0,0,1-7.8,12.312,13.555,13.555,0,0,1-11.707,0A13.608,13.608,0,0,1,16,70.166V62.614c11.337,1.327,15.863-2.48,19.512-3.238,2.42-.508,4.448.291,7.8,4.681Zm0,0" transform="translate(-45.098 483.208)" fill="#eac6bb"/><path d="M65.756,59.376V70.168a13.61,13.61,0,0,1-7.8,12.312A13.165,13.165,0,0,1,56,83.219a13.518,13.518,0,0,0,3.9.59,13.332,13.332,0,0,0,5.854-1.329,13.608,13.608,0,0,0,7.8-12.312V64.059C70.2,59.667,68.176,58.868,65.756,59.376Zm0,0" transform="translate(-75.341 483.208)" fill="#d3b1a9"/><path d="M11.707,175.972l1.951,1.932,3.9-1.951,3.9,1.951,1.951-1.932h5.854v-.019a5.845,5.845,0,0,1,5.854,5.854v7.824H0v-7.824a5.845,5.845,0,0,1,5.854-5.854v.019Zm0,0" transform="translate(-33 394.962)" fill="#e6e9ed"/><path d="M101.05,175.953v.019H95.2l-.259.255a5.826,5.826,0,0,1,4.162,5.579v7.824h7.8v-7.824A5.845,5.845,0,0,0,101.05,175.953Zm0,0" transform="translate(-104.782 394.962)" fill="#ccd1d9"/><path d="M59.707,159.735v.019l-1.951,1.932-3.9-1.951-3.9,1.951L48,159.754V154.5a13.555,13.555,0,0,0,11.707,0Zm0,0" transform="translate(-69.293 411.18)" fill="#f5f7fa"/><path d="M179.317,251.9l3.9-3.9h5.854a9.76,9.76,0,0,1,9.756,9.756v7.8a1.956,1.956,0,0,1-1.951,1.951H153.951A1.956,1.956,0,0,1,152,265.561v-7.8A9.76,9.76,0,0,1,161.756,248h5.854l3.9,3.9,3.9-1.951Zm0,0" transform="translate(-147.927 340.488)" fill="#5d9cec"/><path d="M285.3,248h-5.854l-.179.179a9.753,9.753,0,0,1,7.984,9.577v7.8a1.956,1.956,0,0,1-1.951,1.951h7.8a1.956,1.956,0,0,0,1.951-1.951v-7.8A9.76,9.76,0,0,0,285.3,248Zm0,0" transform="translate(-244.152 340.488)" fill="#4a89dc"/><path d="M231.61,224.559v5.717l-3.9,3.9-3.9-1.951-3.9,1.951-3.9-3.9v-5.717a17.689,17.689,0,0,0,15.61,0Zm0,0" transform="translate(-196.317 358.212)" fill="#f5f7fa"/><path d="M211.122,123.961v5.815a17.561,17.561,0,0,1-35.122.078v-5.893L181.854,120a45.066,45.066,0,0,0,12.683,1.951c6.81,0,10.732-1.951,10.732-1.951Zm0,0" transform="translate(-166.073 437.268)" fill="#eac6bb"/><path d="M247.61,120a15.647,15.647,0,0,1-1.951.72v9.058A17.586,17.586,0,0,1,235.9,145.5a16.967,16.967,0,0,1-3.9,1.376,17.913,17.913,0,0,0,3.9.437,17.522,17.522,0,0,0,17.561-17.542v-5.815Zm0,0" transform="translate(-208.415 437.268)" fill="#d3b1a9"/><path d="M211.122,63.61v5.912l-5.854-3.961s-3.921,1.951-10.732,1.951a45.066,45.066,0,0,1-12.683-1.951L176,69.522V63.61A15.606,15.606,0,0,1,191.61,48h11.707v7.8A7.8,7.8,0,0,1,211.122,63.61Zm0,0" transform="translate(-166.073 491.707)" fill="#965353"/><path d="M263.8,55.8V48H256V59.707c4.312,0,7.8,1.542,7.8,5.854v.72a15.652,15.652,0,0,0,1.951-.72l5.854,3.961V63.61A7.8,7.8,0,0,0,263.8,55.8Zm0,0" transform="translate(-226.561 491.707)" fill="#844747"/><path d="M387.122,181.854v7.824H352v-7.824A5.845,5.845,0,0,1,357.854,176v.019h5.854V176l5.854,3.9,5.854-3.9v.019h5.854V176A5.845,5.845,0,0,1,387.122,181.854Zm0,0" transform="translate(-299.146 394.927)" fill="#a0d468"/><path d="M411.707,154.551v5.232l-5.854,3.9-5.854-3.9v-5.232a13.555,13.555,0,0,0,11.707,0Zm0,0" transform="translate(-335.439 411.145)" fill="#eac6bb"/><path d="M383.61,61.854a15.557,15.557,0,0,1,11.707,5.286v.587a13.61,13.61,0,0,1-7.8,12.312,13.564,13.564,0,0,1-11.707,0A13.608,13.608,0,0,1,368,67.724V61.854A5.845,5.845,0,0,0,373.854,56a5.845,5.845,0,0,0,5.854,5.854Zm0,0" transform="translate(-311.244 485.659)" fill="#eac6bb"/><path d="M373.854,16v9.756A5.845,5.845,0,0,1,368,31.61V21.854A5.845,5.845,0,0,1,373.854,16Zm0,0" transform="translate(-311.244 515.902)" fill="#da4453"/><path d="M417.366,15.61A15.606,15.606,0,0,0,401.756,0,15.962,15.962,0,0,0,392,3.9v9.756a5.845,5.845,0,0,0,5.854,5.854h3.9A15.557,15.557,0,0,1,413.463,24.8a20.04,20.04,0,0,1,2.026,2.89.975.975,0,0,0,1.877-.371Zm0,0" transform="translate(-329.39 528)" fill="#ed5565"/><path d="M452.717,176v.019h-5.854V176l-.367.244a5.824,5.824,0,0,1,4.269,5.61v7.824h7.8v-7.824A5.845,5.845,0,0,0,452.717,176Zm0,0" transform="translate(-370.595 394.927)" fill="#8cc152"/><path d="M417.756,82.1v5.361a13.61,13.61,0,0,1-7.8,12.312,13.168,13.168,0,0,1-1.951.74,13.516,13.516,0,0,0,3.9.587,13.332,13.332,0,0,0,5.854-1.329,13.608,13.608,0,0,0,7.8-12.312v-.585A15.562,15.562,0,0,0,417.756,82.1Zm0,0" transform="translate(-341.488 465.926)" fill="#d3b1a9"/><path d="M420.653,0a12.573,12.573,0,0,0-3.66.574A15.6,15.6,0,0,1,428.458,15.61v6a15.562,15.562,0,0,1,3.9,3.188,20.037,20.037,0,0,1,2.026,2.89.975.975,0,0,0,1.877-.371V15.61A15.606,15.606,0,0,0,420.653,0Zm0,0" transform="translate(-348.287 528)" fill="#da4453"/></g></svg>