<svg xmlns="http://www.w3.org/2000/svg" width="59.612" height="70" viewBox="0 0 59.612 70"><g transform="translate(-0.418 0.001)"><path d="M83.821,113.185l-10.271,3.736-21.471,21.47a2.207,2.207,0,0,1-3.112,0L44.3,133.722a2.2,2.2,0,0,1,0-3.114l21.47-21.47L69.5,98.859ZM51.3,132.943a1.1,1.1,0,1,0-1.556,0A1.1,1.1,0,0,0,51.3,132.943Zm0,0" transform="translate(-37.287 -85.26)" fill="#656d78"/><path d="M39.828,338.249a5.562,5.562,0,0,0-7.867-.005c-.008.008-.009.017-.016.023s-.018.008-.023.016L12.971,357.231a6.73,6.73,0,0,1-9.486.007s0,0,0,0a6.712,6.712,0,0,1,0-9.492L6.3,344.928a.55.55,0,1,0-.778-.778l-2.816,2.815a7.814,7.814,0,0,0,0,11.051h0a7.83,7.83,0,0,0,11.041-.007L32.7,339.06a.194.194,0,0,1,.016-.023c.008-.007.017-.009.023-.017a4.462,4.462,0,0,1,6.31.005,4.466,4.466,0,0,1,0,6.305L25.011,359.37a.55.55,0,0,0,.778.778l14.038-14.039A5.567,5.567,0,0,0,39.828,338.249Zm0,0" transform="translate(0 -290.31)" fill="#434a54"/><path d="M87.787,334.061a1.1,1.1,0,1,1-1.1-1.1A1.1,1.1,0,0,1,87.787,334.061Zm0,0" transform="translate(-73.452 -287.157)" fill="#ed5565"/><path d="M188.275,209.334a.552.552,0,0,0-.778,0l-1.556,1.558c-.212.213-.564.564-.778.778l-1.556,1.556a.553.553,0,0,0,0,.778l.778.778a.552.552,0,0,0,.778,0l1.557-1.556c.213-.213.565-.563.778-.778l1.556-1.556a.553.553,0,0,0,0-.778Zm0,0" transform="translate(-157.849 -180.399)" fill="#e6e9ed"/><path d="M185.431,224.61l-.269.268-1.556,1.556a.553.553,0,0,0,0,.778l.778.778a.552.552,0,0,0,.778,0l.778-.778,1.169-1.168-1.557-1.556Zm0,0" transform="translate(-157.849 -193.606)" fill="#ccd1d9"/><path d="M253.461,60.586,251.9,62.144a11.948,11.948,0,0,1-6.071,3.269l-.156-.157-14.17-14.17a12.043,12.043,0,0,1,3.276-6.063l1.557-1.557Zm0,0" transform="translate(-199.299 -37.486)" fill="#ccd1d9"/><path d="M295.845,21.484l-.778.778L277.945,5.142l.778-.778a12.106,12.106,0,0,1,17.121,17.12Zm0,0" transform="translate(-239.348 -0.719)" fill="#ccd1d9"/><g transform="translate(34.174 -0.001)"><path d="M245.955,68.817a.555.555,0,0,1,0-.781.545.545,0,0,1,.774,0l.009.008a.55.55,0,0,1-.778.778Zm0,0" transform="translate(-245.792 -58.535)" fill="#aab2bd"/><path d="M245.955,91.457a.556.556,0,0,1,0-.782.546.546,0,0,1,.775,0l.008.008a.551.551,0,0,1-.778.779Zm0,0" transform="translate(-245.792 -78.06)" fill="#aab2bd"/><path d="M268.58,68.817a.555.555,0,0,1,0-.781.545.545,0,0,1,.774,0l.009.008a.55.55,0,1,1-.778.778Zm0,0" transform="translate(-265.304 -58.535)" fill="#aab2bd"/><path d="M268.575,91.461a.556.556,0,0,1,0-.782.545.545,0,0,1,.774,0l.008.008a.55.55,0,1,1-.778.778Zm0,0" transform="translate(-265.301 -78.063)" fill="#aab2bd"/><path d="M268.58,114.08a.556.556,0,0,1,0-.782.546.546,0,0,1,.774,0l.009.008a.55.55,0,0,1-.778.778Zm0,0" transform="translate(-265.304 -97.572)" fill="#aab2bd"/><path d="M291.225,23.573a.557.557,0,0,1,0-.783.546.546,0,0,1,.774,0L292,22.8a.55.55,0,1,1-.778.778Zm0,0" transform="translate(-284.835 -19.515)" fill="#aab2bd"/><path d="M291.212,91.457a.555.555,0,0,1,0-.782.546.546,0,0,1,.775,0l.006.008a.551.551,0,0,1-.778.779Zm0,0" transform="translate(-284.823 -78.06)" fill="#aab2bd"/><path d="M291.212,114.1a.553.553,0,0,1,0-.781.547.547,0,0,1,.775,0l.006.008a.55.55,0,0,1-.778.778Zm0,0" transform="translate(-284.823 -97.586)" fill="#aab2bd"/><path d="M291.212,136.722a.555.555,0,0,1,0-.782.547.547,0,0,1,.775,0l.006.008a.551.551,0,0,1-.778.779Zm0,0" transform="translate(-284.823 -117.098)" fill="#aab2bd"/><path d="M313.851,23.573a.556.556,0,0,1,0-.783.545.545,0,0,1,.773,0l.009.008a.55.55,0,0,1-.778.778Zm0,0" transform="translate(-304.347 -19.515)" fill="#aab2bd"/><path d="M313.846,46.2a.555.555,0,0,1,0-.782.545.545,0,0,1,.773,0l.008.008a.55.55,0,1,1-.778.778Zm0,0" transform="translate(-304.344 -39.027)" fill="#aab2bd"/><path d="M313.836,114.08a.554.554,0,0,1,0-.782.547.547,0,0,1,.774,0l.007.008a.55.55,0,1,1-.778.778Zm0,0" transform="translate(-304.335 -97.572)" fill="#aab2bd"/><path d="M313.841,136.722a.556.556,0,0,1,0-.782.547.547,0,0,1,.774,0l.008.008a.551.551,0,1,1-.779.779Zm0,0" transform="translate(-304.34 -117.098)" fill="#aab2bd"/><path d="M313.836,159.345a.554.554,0,0,1,0-.782.546.546,0,0,1,.774,0l.007.008a.551.551,0,0,1-.778.779Zm0,0" transform="translate(-304.335 -136.609)" fill="#aab2bd"/><path d="M336.46.945a.555.555,0,0,1,0-.782.547.547,0,0,1,.775,0l.006.009a.55.55,0,0,1-.778.778Zm0,0" transform="translate(-323.846 0.001)" fill="#aab2bd"/><path d="M336.46,23.584a.555.555,0,0,1,0-.782.547.547,0,0,1,.775,0l.006.008a.55.55,0,0,1-.778.778Zm0,0" transform="translate(-323.846 -19.525)" fill="#aab2bd"/><path d="M314.677,4.585a.551.551,0,0,0,.778,0,.543.543,0,0,0,.157-.366c-.326.092-.646.2-.964.322C314.66,4.554,314.664,4.572,314.677,4.585Zm0,0" transform="translate(-305.176 -3.638)" fill="#aab2bd"/><path d="M336.475,46.2a.556.556,0,0,1,0-.782.546.546,0,0,1,.774,0l.009.008a.55.55,0,1,1-.778.778Zm0,0" transform="translate(-323.859 -39.027)" fill="#aab2bd"/><path d="M336.46,68.849a.554.554,0,0,1,0-.781.547.547,0,0,1,.775,0l.006.008a.55.55,0,0,1-.778.778Zm0,0" transform="translate(-323.846 -58.563)" fill="#aab2bd"/><path d="M336.46,136.7a.554.554,0,0,1,0-.781.547.547,0,0,1,.775,0l.006.008a.55.55,0,0,1-.778.778Zm0,0" transform="translate(-323.846 -117.084)" fill="#aab2bd"/><path d="M336.46,159.331a.555.555,0,0,1,0-.782.546.546,0,0,1,.775,0l.006.008a.55.55,0,0,1-.778.778Zm0,0" transform="translate(-323.846 -136.596)" fill="#aab2bd"/><path d="M336.459,181.96a.555.555,0,0,1,0-.781.545.545,0,0,1,.774,0l.009.008a.55.55,0,1,1-.778.778Zm0,0" transform="translate(-323.845 -156.113)" fill="#aab2bd"/><path d="M359.132,2.656a.551.551,0,0,0,.778,0,.544.544,0,0,0,.146-.47c-.333-.08-.665-.148-1-.2A.547.547,0,0,0,359.132,2.656Zm0,0" transform="translate(-343.403 -1.711)" fill="#aab2bd"/><path d="M359.1,23.57a.557.557,0,0,1,0-.783.546.546,0,0,1,.774,0l.009.008a.551.551,0,1,1-.778.779Zm0,0" transform="translate(-343.371 -19.511)" fill="#aab2bd"/><path d="M359.1,46.193a.555.555,0,0,1,0-.781.546.546,0,0,1,.774,0l.009.008a.55.55,0,1,1-.778.778Zm0,0" transform="translate(-343.371 -39.024)" fill="#aab2bd"/><path d="M359.1,68.834a.556.556,0,0,1,0-.782.545.545,0,0,1,.774,0l.009.008a.551.551,0,1,1-.778.779Zm0,0" transform="translate(-343.371 -58.549)" fill="#aab2bd"/><path d="M359.1,91.457a.556.556,0,0,1,0-.782.545.545,0,0,1,.774,0l.009.008a.551.551,0,1,1-.778.779Zm0,0" transform="translate(-343.371 -78.06)" fill="#aab2bd"/><path d="M359.1,159.329a.555.555,0,0,1,0-.781.545.545,0,0,1,.774,0l.009.008a.55.55,0,1,1-.778.778Zm0,0" transform="translate(-343.371 -136.595)" fill="#aab2bd"/><path d="M359.1,181.98a.555.555,0,0,1,0-.782.546.546,0,0,1,.775,0l.006.008a.55.55,0,0,1-.778.778Zm0,0" transform="translate(-343.372 -156.13)" fill="#aab2bd"/><path d="M381.723,23.566a.554.554,0,0,1,0-.781.545.545,0,0,1,.774,0l.009.008a.55.55,0,0,1-.778.778Zm0,0" transform="translate(-362.882 -19.509)" fill="#aab2bd"/><path d="M381.723,46.193a.554.554,0,0,1,0-.781.546.546,0,0,1,.774,0l.009.008a.55.55,0,0,1-.778.778Zm0,0" transform="translate(-362.882 -39.024)" fill="#aab2bd"/><path d="M405.116,24.729c-.13-.142-.25-.29-.386-.427s-.258-.231-.387-.349a.548.548,0,0,0,.774.776Zm0,0" transform="translate(-382.407 -20.658)" fill="#aab2bd"/><path d="M381.721,68.817a.555.555,0,0,1,0-.781.545.545,0,0,1,.774,0l.009.008a.551.551,0,0,1-.779.778Zm0,0" transform="translate(-362.882 -58.535)" fill="#aab2bd"/><path d="M381.723,91.457a.556.556,0,0,1,0-.782.545.545,0,0,1,.774,0l.009.008a.551.551,0,0,1-.778.779Zm0,0" transform="translate(-362.882 -78.06)" fill="#aab2bd"/><path d="M381.721,114.08a.556.556,0,0,1,0-.782.546.546,0,0,1,.774,0l.009.008a.551.551,0,0,1-.779.778Zm0,0" transform="translate(-362.882 -97.572)" fill="#aab2bd"/><path d="M404.347,46.191a.554.554,0,0,1,0-.781.544.544,0,0,1,.773,0l.009.008a.55.55,0,0,1-.778.778Zm0,0" transform="translate(-382.394 -39.021)" fill="#aab2bd"/><path d="M404.362,68.821a.555.555,0,0,1,0-.782.545.545,0,0,1,.773,0l.009.008a.55.55,0,0,1-.778.778Zm0,0" transform="translate(-382.407 -58.539)" fill="#aab2bd"/><path d="M404.347,91.454a.554.554,0,0,1,0-.781.543.543,0,0,1,.773,0l.009.008a.55.55,0,0,1-.778.778Zm0,0" transform="translate(-382.394 -78.057)" fill="#aab2bd"/><path d="M427.286,113.25a.547.547,0,0,0-.316.149.556.556,0,0,0,0,.777C427.087,113.869,427.2,113.563,427.286,113.25Zm0,0" transform="translate(-401.91 -97.67)" fill="#aab2bd"/><path d="M404.331,114.08a.555.555,0,0,1,0-.782.547.547,0,0,1,.775,0l.008.008a.55.55,0,0,1-.778.778Zm0,0" transform="translate(-382.38 -97.572)" fill="#aab2bd"/><path d="M404.347,136.718a.554.554,0,0,1,0-.781.544.544,0,0,1,.773,0l.009.008a.55.55,0,0,1-.778.778Zm0,0" transform="translate(-382.394 -117.095)" fill="#aab2bd"/><path d="M426.976,68.875a.542.542,0,0,0,.638.092c-.052-.346-.119-.687-.2-1.029a.542.542,0,0,0-.439.154A.557.557,0,0,0,426.976,68.875Zm0,0" transform="translate(-401.911 -58.59)" fill="#aab2bd"/><path d="M427.756,90.673a.546.546,0,0,0-.774,0,.556.556,0,0,0,0,.782.542.542,0,0,0,.724.035C427.739,91.222,427.747,90.947,427.756,90.673Zm0,0" transform="translate(-401.919 -78.063)" fill="#aab2bd"/></g><path d="M38.132,363.59l1.556,1.556-3.432,3.433L34.7,367.023Zm0,0" transform="translate(-29.565 -313.572)" fill="#545c66"/><path d="M243.858,134.6l-9.337-9.337a.55.55,0,0,1,.778-.778l9.337,9.337a.55.55,0,0,1-.778.778Zm0,0" transform="translate(-201.758 -107.225)" fill="#545c66"/><path d="M282.256,45.431a.551.551,0,0,1,0,.778L280.7,47.766a.552.552,0,0,1-.778,0L262.8,30.645a.551.551,0,0,1,0-.778l1.556-1.557a.553.553,0,0,1,.778,0Zm0,0" transform="translate(-226.148 -24.277)" fill="#e6e9ed"/><path d="M34.557,387.3a1.1,1.1,0,1,1-1.1-1.1A1.1,1.1,0,0,1,34.557,387.3Zm0,0" transform="translate(-27.544 -333.074)" fill="#545c66"/></g></svg>