<svg xmlns="http://www.w3.org/2000/svg" width="77.397" height="80" viewBox="0 0 77.397 80"><g transform="translate(-147.634 -362.708)"><g transform="translate(147.634 362.708)"><path d="M102.992,177.938l-5.225-47.024a3.369,3.369,0,0,0-3.261-2.919H53.39a3.367,3.367,0,0,0-3.261,2.919L44.9,177.938a2.576,2.576,0,0,0,2.611,2.919h52.863A2.576,2.576,0,0,0,102.992,177.938Z" transform="translate(-44.887 -110.374)" fill="#ec87c0"/><path d="M102.814,479.108a2.574,2.574,0,0,1-2.435,1.587H47.516a2.578,2.578,0,0,1-2.435-1.587l-.176,1.607a2.576,2.576,0,0,0,2.611,2.919h52.863a2.576,2.576,0,0,0,2.613-2.919Z" transform="translate(-44.887 -413.151)" fill="#d770ad"/><path d="M194.15,11.747a11.748,11.748,0,0,0-23.5,0V24.917h0c0,.015,0,.03,0,.046a1.468,1.468,0,1,0,2.936,0,.317.317,0,0,0,0-.046h0V11.747a8.811,8.811,0,0,1,17.622,0V24.917h0a.319.319,0,0,0,0,.046,1.469,1.469,0,0,0,2.938,0,.332.332,0,0,0,0-.046h0V11.747Z" transform="translate(-153.34)" fill="#434a54"/><path d="M178.705,250.655a7.69,7.69,0,0,0-5.508,2.316,7.708,7.708,0,0,0-13.215,5.392c0,8.81,13.215,16.519,13.215,16.519s13.217-7.709,13.217-16.519A7.709,7.709,0,0,0,178.705,250.655Z" transform="translate(-144.137 -216.148)" fill="#f5f7fa"/><g transform="translate(27.593 34.507)" opacity="0.1"><path d="M252.3,250.655a7.764,7.764,0,0,0-1.467.142,7.711,7.711,0,0,1,6.24,7.566c0,6.986-8.306,13.278-11.747,15.586.9.6,1.467.934,1.467.934s13.217-7.709,13.217-16.519A7.709,7.709,0,0,0,252.3,250.655Z" transform="translate(-245.323 -250.655)"/></g></g><g transform="matrix(0.966, 0.259, -0.259, 0.966, 184.591, 402.288)"><path d="M7.626,11.587H3.476L2.96,10.239,2.6,9.295l-.291-.754L1.43,6.268.85,4.758.486,3.815,0,2.554,6.29.134A2.026,2.026,0,0,1,8.907,1.3l1.934,5.029a2.023,2.023,0,0,0,.721,3.91L12.3,10.1l.789,2.06Zm0,0" transform="translate(28.78 0)" fill="#f6bb42"/><path d="M4.079,10.4a.336.336,0,0,1-.315-.216L.023.458A.337.337,0,1,1,.651.216L4.393,9.939a.337.337,0,0,1-.314.458Zm0,0" transform="translate(31.686 3.141)" fill="#edab37"/><path d="M2.885,7.294a.337.337,0,0,1-.315-.216L.022.458A.337.337,0,1,1,.651.216L3.2,6.836a.337.337,0,0,1-.193.436A.343.343,0,0,1,2.885,7.294Zm0,0" transform="translate(34.154 5.803)" fill="#edab37"/><path d="M33.709,18.877H2.023A2.02,2.02,0,0,1,0,16.854V11.461A2.02,2.02,0,0,0,2.023,9.438,2.02,2.02,0,0,0,0,7.416V2.023A2.02,2.02,0,0,1,2.023,0H33.709Zm0,0" transform="translate(0 11.588)" fill="#ac92ec"/><path d="M0,16.854V0H6.742A2.02,2.02,0,0,1,8.764,2.023V7.416a2.023,2.023,0,0,0,0,4.045v5.393a2.02,2.02,0,0,1-2.023,2.023H0Zm0,0" transform="translate(33.709 11.588)" fill="#ffce54"/><path d="M3.509,9.034H0L23.492,0l.486,1.261.364.943.58,1.51L25.8,5.988l.291.754.879,2.292Zm0,0" transform="translate(5.288 2.553)" fill="#967adc"/><path d="M.337,1.685A.337.337,0,0,1,0,1.348V.337a.337.337,0,0,1,.674,0V1.348A.337.337,0,0,1,.337,1.685Zm0,0" transform="translate(33.372 12.599)" fill="#ac92ec"/><path d="M.337,10.787A.337.337,0,0,1,0,10.45V8.427a.337.337,0,0,1,.674,0V10.45A.337.337,0,0,1,.337,10.787Zm0-4.045A.337.337,0,0,1,0,6.4V4.382a.337.337,0,0,1,.674,0V6.4A.337.337,0,0,1,.337,6.742Zm0-4.045A.337.337,0,0,1,0,2.36V.337a.337.337,0,0,1,.674,0V2.36A.337.337,0,0,1,.337,2.7Zm0,0" transform="translate(33.372 15.633)" fill="#ac92ec"/><path d="M.337,1.685A.337.337,0,0,1,0,1.348V.337a.337.337,0,0,1,.674,0V1.348A.337.337,0,0,1,.337,1.685Zm0,0" transform="translate(33.372 27.768)" fill="#ac92ec"/><path d="M.337,15.506A.337.337,0,0,1,0,15.169V.337a.337.337,0,1,1,.674,0V15.169A.337.337,0,0,1,.337,15.506Zm0,0" transform="translate(36.069 13.274)" fill="#f6bb42"/><path d="M.337,8.764A.337.337,0,0,1,0,8.427V.337a.337.337,0,1,1,.674,0v8.09A.337.337,0,0,1,.337,8.764Zm0,0" transform="translate(37.417 16.644)" fill="#f6bb42"/><g transform="translate(9.456 13.273)"><path d="M.34,0H.333A.334.334,0,0,0,0,.337a.339.339,0,0,0,.677,0A.337.337,0,0,0,.34,0Zm0,0" transform="translate(0 14.158)" fill="#967adc"/><path d="M.333,0A.334.334,0,0,0,0,.337.339.339,0,1,0,.34,0Zm0,0" transform="translate(4.382 7.417)" fill="#967adc"/><path d="M.34.674A.337.337,0,0,0,.34,0H.333A.334.334,0,0,0,0,.337.34.34,0,0,0,.34.674Zm0,0" transform="translate(7.079)" fill="#967adc"/><path d="M.34.674A.337.337,0,1,0,.34,0H.333A.334.334,0,0,0,0,.337.34.34,0,0,0,.34.674Zm0,0" transform="translate(19.214 1.348)" fill="#967adc"/><path d="M.333,0A.334.334,0,0,0,0,.337.339.339,0,1,0,.34,0Zm0,0" transform="translate(13.146 8.091)" fill="#967adc"/><path d="M.34,0H.333A.334.334,0,0,0,0,.337a.339.339,0,0,0,.677,0A.337.337,0,0,0,.34,0Zm0,0" transform="translate(2.023 14.158)" fill="#967adc"/><path d="M.34,0H.333A.334.334,0,0,0,0,.337a.339.339,0,0,0,.677,0A.337.337,0,0,0,.34,0Zm0,0" transform="translate(4.045 14.158)" fill="#967adc"/><path d="M.34,0H.333A.334.334,0,0,0,0,.337a.339.339,0,0,0,.677,0A.337.337,0,0,0,.34,0Zm0,0" transform="translate(6.068 14.158)" fill="#967adc"/><path d="M.34,0H.333A.334.334,0,0,0,0,.337a.339.339,0,0,0,.677,0A.337.337,0,0,0,.34,0Zm0,0" transform="translate(8.09 14.158)" fill="#967adc"/><path d="M.34,0H.333A.334.334,0,0,0,0,.337a.339.339,0,0,0,.677,0A.337.337,0,0,0,.34,0Zm0,0" transform="translate(10.113 14.158)" fill="#967adc"/><path d="M.34,0H.333A.334.334,0,0,0,0,.337a.339.339,0,0,0,.677,0A.337.337,0,0,0,.34,0Zm0,0" transform="translate(12.135 14.158)" fill="#967adc"/><path d="M.34,0H.333A.334.334,0,0,0,0,.337a.339.339,0,0,0,.677,0A.337.337,0,0,0,.34,0Zm0,0" transform="translate(14.158 14.158)" fill="#967adc"/><path d="M.34,0H.333A.334.334,0,0,0,0,.337a.339.339,0,0,0,.677,0A.337.337,0,0,0,.34,0Zm0,0" transform="translate(16.18 14.158)" fill="#967adc"/></g><path d="M1.348,4.382a.337.337,0,0,0,.674,0V.674H3.034a.337.337,0,1,0,0-.674H.337a.337.337,0,0,0,0,.674H1.348Zm0,0" transform="translate(7.753 15.296)" fill="#f5f7fa"/><path d="M3.034,0H.337a.337.337,0,0,0,0,.674H1.348V4.382a.337.337,0,0,0,.674,0V.674H3.034a.337.337,0,0,0,0-.674Zm0,0" transform="translate(24.27 15.295)" fill="#f5f7fa"/><path d="M.337,4.719a.337.337,0,0,0,.337-.337V.337A.337.337,0,1,0,0,.337V4.382A.337.337,0,0,0,.337,4.719Zm0,0" transform="translate(11.798 15.296)" fill="#f5f7fa"/><path d="M.337,4.719a.337.337,0,0,0,.337-.337V3.146L.98,2.739,2.07,4.556a.338.338,0,0,0,.579-.348L1.416,2.157,2.63.539a.337.337,0,1,0-.54-.4L.674,2.023V.337A.337.337,0,1,0,0,.337V4.382A.337.337,0,0,0,.337,4.719Zm0,0" transform="translate(17.529 15.296)" fill="#f5f7fa"/><path d="M1.348,4.719A1.35,1.35,0,0,0,2.7,3.371a.337.337,0,0,0-.674,0,.674.674,0,1,1-1.348,0V1.348a.674.674,0,1,1,1.348,0,.337.337,0,0,0,.674,0,1.348,1.348,0,1,0-2.7,0V3.371A1.35,1.35,0,0,0,1.348,4.719Zm0,0" transform="translate(13.821 15.296)" fill="#f5f7fa"/><path d="M.337,4.719H2.36a.337.337,0,0,0,0-.674H.674V2.7H1.685a.337.337,0,1,0,0-.674H.674V.674H2.36A.337.337,0,0,0,2.36,0H.337A.337.337,0,0,0,0,.337V4.382A.337.337,0,0,0,.337,4.719Zm0,0" transform="translate(21.237 15.296)" fill="#f5f7fa"/><path d="M17.192,0H.337a.337.337,0,1,0,0,.674H17.192a.337.337,0,1,0,0-.674Zm0,0" transform="translate(9.101 23.386)" fill="#967adc"/><path d="M8.09.337A.337.337,0,0,0,7.753,0H.337a.337.337,0,1,0,0,.674H7.753A.337.337,0,0,0,8.09.337Zm0,0" transform="translate(13.821 24.735)" fill="#967adc"/><path d="M1.685.674H1.348V.337a.337.337,0,0,0-.674,0V.674H.337a.337.337,0,0,0,0,.674H.674v.337a.337.337,0,1,0,.674,0V1.348h.337a.337.337,0,0,0,0-.674Zm0,0" transform="translate(27.978 18.667)" fill="#967adc"/><path d="M1.685.674H1.348V.337a.337.337,0,0,0-.674,0V.674H.337a.337.337,0,1,0,0,.674H.674v.337a.337.337,0,1,0,.674,0V1.348h.337a.337.337,0,1,0,0-.674Zm0,0" transform="translate(4.382 15.296)" fill="#967adc"/><path d="M.7,1.617A.339.339,0,0,1,.386,1.4L.022.458A.337.337,0,0,1,.651.216l.364.943a.336.336,0,0,1-.194.436A.316.316,0,0,1,.7,1.617Zm0,0" transform="translate(28.929 3.478)" fill="#967adc"/><path d="M.92,2.187A.337.337,0,0,1,.6,1.971L.023.458A.337.337,0,1,1,.651.216l.583,1.513a.337.337,0,0,1-.194.436A.345.345,0,0,1,.92,2.187Zm0,0" transform="translate(29.873 5.931)" fill="#967adc"/><path d="M.7,1.618A.338.338,0,0,1,.386,1.4L.023.459A.337.337,0,0,1,.651.216l.364.944A.337.337,0,0,1,.7,1.618Zm0,0" transform="translate(31.039 8.958)" fill="#967adc"/></g></g></svg>