<svg id="Icons" enable-background="new 0 0 512 512" height="512" viewBox="0 0 512 512" width="512" xmlns="http://www.w3.org/2000/svg"><g><circle cx="256" cy="256" fill="#15be79" r="256"/><g><g><path d="m225.079 159.471v-33.259c-8.936.757-27.241.925-35.908 1.985-30.447 3.212-33.267 38.882-31.191 63.113 4.765 40.681 55.204 45.56 87.792 44.324l-.532-17.147c-19.664-1.178-42.215-3.391-57.533-16.556-8.864-8.283-6.357-21.63-5.166-32.097.01-.039.02-.079.031-.118 1.808-6.903 8.299-11.537 15.43-11.268z" fill="#ea792e"/><path d="m454.085 191.313c-4.76 40.675-55.207 45.561-87.787 44.317l.532-17.146c19.662-1.172 42.208-3.39 57.533-16.551 8.862-8.285 6.356-21.627 5.166-32.102-.018-.036-.027-.072-.036-.117-1.803-6.896-8.294-11.53-15.424-11.269l-27.081 1.028v-33.256c3.66.306 8.889.514 14.379.73 7.933.306 16.407.622 21.528 1.253 18.102 1.911 26.432 15.289 29.776 30.912 2.288 10.664 2.252 22.374 1.414 32.201z" fill="#f39e22"/><path d="m452.67 159.111c-2.822.568-5.742.865-8.726.865-20.5 0-37.718-14.036-42.577-33.031 7.933.306 16.407.622 21.528 1.253 18.1 1.913 26.43 15.291 29.775 30.913z" fill="#f9c744"/><path d="m159.405 159.111c2.822.568 5.742.865 8.726.865 20.5 0 37.718-14.036 42.577-33.031-7.933.306-16.407.622-21.528 1.253-18.101 1.913-26.431 15.291-29.775 30.913z" fill="#f39e22"/></g><g><g><path d="m345.609 267.552v19.824c0 8.79-7.122 15.902-15.902 15.902h-47.347c-8.781 0-15.902-7.113-15.902-15.902v-19.824z" fill="#ea792e"/><path d="m345.609 267.552v19.824c0 8.79-7.122 15.902-15.902 15.902h-23.673v-35.726z" fill="#f39e22"/></g><g><path d="m285.795 303.278h40.477v44.651h-40.477z" fill="#f39e22"/><path d="m306.033 303.278h20.238v44.651h-20.238z" fill="#f9c744"/></g><g><g><path d="m372.716 376.191v51.079h-133.366v-51.079c0-15.614 12.657-28.262 28.262-28.262h76.843c15.604 0 28.261 12.648 28.261 28.262z" fill="#18d3af"/><path d="m372.716 376.191v51.079h-66.683v-79.34h38.422c15.604-.001 28.261 12.647 28.261 28.261z" fill="#5de8ce"/></g><g><path d="m382.153 421.295v11.948c0 4.06-3.292 7.352-7.352 7.352h-137.536c-4.06 0-7.352-3.292-7.352-7.352v-11.948c0-4.06 3.292-7.352 7.352-7.352h137.536c4.06 0 7.352 3.292 7.352 7.352z" fill="#f39e22"/><path d="m382.153 421.295v11.948c0 4.06-3.292 7.352-7.352 7.352h-68.768v-26.652h68.768c4.06 0 7.352 3.292 7.352 7.352z" fill="#f9c744"/></g><g><path d="m360.345 377.168h-5.21c-2.089 0-3.782 1.693-3.782 3.782v5.21c0 2.089 1.693 3.782 3.782 3.782h5.21c2.089 0 3.782-1.693 3.782-3.782v-5.21c.001-2.089-1.693-3.782-3.782-3.782z" fill="#fff"/><path d="m256.931 377.168h-5.21c-2.089 0-3.782 1.693-3.782 3.782v5.21c0 2.089 1.693 3.782 3.782 3.782h5.21c2.089 0 3.782-1.693 3.782-3.782v-5.21c0-2.089-1.693-3.782-3.782-3.782z" fill="#cde6f6"/></g><g><path d="m333.987 366.365h-55.907c-3.985 0-7.215 3.23-7.215 7.215v19.95c0 3.985 3.23 7.215 7.215 7.215h55.907c3.985 0 7.215-3.23 7.215-7.215v-19.95c-.001-3.985-3.231-7.215-7.215-7.215z" fill="#cde6f6"/><path d="m333.987 400.745h-27.954v-34.38h27.954c3.985 0 7.215 3.23 7.215 7.215v19.95c-.001 3.985-3.231 7.215-7.215 7.215z" fill="#fff"/></g></g></g><g><g><path d="m386.987 106.428v101.003c0 37.34-30.272 67.612-67.612 67.612h-26.684c-37.34 0-67.612-30.272-67.612-67.612v-101.003c0-7.185 5.815-12.999 12.991-12.999h135.927c7.175 0 12.99 5.814 12.99 12.999z" fill="#f39e22"/><path d="m386.987 106.428v73.769c0 37.34-30.272 67.612-67.612 67.612h-26.684c-37.34 0-67.612-30.272-67.612-67.612v-73.769c0-7.185 5.815-12.999 12.991-12.999h135.927c7.175 0 12.99 5.814 12.99 12.999z" fill="#f9c744"/><path d="m386.987 106.428v101.003c0 37.34-30.272 67.612-67.612 67.612h-13.342v-181.614h67.964c7.175 0 12.99 5.814 12.99 12.999z" fill="#f9c744"/><path d="m386.987 106.428v73.769c0 37.34-30.272 67.612-67.612 67.612h-13.342v-154.38h67.964c7.175 0 12.99 5.814 12.99 12.999z" fill="#fad98f"/><path d="m359.161 201.531c-7.485 0-13.552-6.067-13.552-13.552v-54.674c0-7.485 6.068-13.552 13.552-13.552 7.485 0 13.552 6.067 13.552 13.552v54.674c0 7.484-6.068 13.552-13.552 13.552z" fill="#faefdc"/></g><g><path d="m398.156 86.199v14.46c0 4.913-3.985 8.898-8.898 8.898h-166.451c-4.913 0-8.898-3.985-8.898-8.898v-14.46c0-4.913 3.985-8.898 8.898-8.898h166.452c4.913 0 8.897 3.985 8.897 8.898z" fill="#f39e22"/><path d="m398.156 86.199v14.46c0 4.913-3.985 8.898-8.898 8.898h-83.226v-32.256h83.226c4.914 0 8.898 3.985 8.898 8.898z" fill="#f9c744"/><path d="m377.754 95.766h-55.093c-5.099 0-9.233-4.134-9.233-9.233 0-5.099 4.134-9.233 9.233-9.233h55.093c5.099 0 9.233 4.134 9.233 9.233 0 5.1-4.134 9.233-9.233 9.233z" fill="#fad98f"/></g></g></g><g><path d="m487.25 253.861h-10.57c-7.352 0-13.312-5.96-13.312-13.312v-10.57c0-3.193-2.588-5.781-5.781-5.781-3.193 0-5.781 2.588-5.781 5.781v10.57c0 7.352-5.96 13.312-13.312 13.312h-10.57c-3.193 0-5.781 2.588-5.781 5.781 0 3.193 2.588 5.781 5.781 5.781h10.57c7.352 0 13.312 5.96 13.312 13.312v10.57c0 3.193 2.588 5.781 5.781 5.781 3.193 0 5.781-2.588 5.781-5.781v-10.57c0-7.352 5.96-13.312 13.312-13.312h10.57c3.193 0 5.781-2.588 5.781-5.781 0-3.193-2.589-5.781-5.781-5.781z" fill="#fff"/><g fill="#c3ead0"><path d="m116.227 160.306h-10.57c-7.352 0-13.312-5.96-13.312-13.312v-10.57c0-3.193-2.588-5.781-5.781-5.781-3.193 0-5.781 2.588-5.781 5.781v10.57c0 7.352-5.96 13.312-13.312 13.312h-10.57c-3.193 0-5.781 2.588-5.781 5.781 0 3.193 2.588 5.781 5.781 5.781h10.57c7.352 0 13.312 5.96 13.312 13.312v10.57c0 3.193 2.588 5.781 5.781 5.781 3.193 0 5.781-2.588 5.781-5.781v-10.57c0-7.352 5.96-13.312 13.312-13.312h10.57c3.193 0 5.781-2.588 5.781-5.781 0-3.193-2.588-5.781-5.781-5.781z"/><path d="m432.201 322.55h-8.125c-5.652 0-10.233-4.582-10.233-10.233v-8.125c0-2.454-1.99-4.444-4.444-4.444-2.454 0-4.444 1.99-4.444 4.444v8.125c0 5.652-4.582 10.233-10.233 10.233h-8.125c-2.454 0-4.444 1.99-4.444 4.444 0 2.454 1.99 4.444 4.444 4.444h8.125c5.652 0 10.233 4.582 10.233 10.233v8.125c0 2.454 1.99 4.444 4.444 4.444 2.454 0 4.444-1.99 4.444-4.444v-8.125c0-5.652 4.582-10.233 10.233-10.233h8.125c2.454 0 4.444-1.99 4.444-4.444 0-2.454-1.99-4.444-4.444-4.444z"/></g></g><g><g><g><path d="m175.272 408.169-23.763-42.746c-2.946-5.298-7.277-9.697-12.53-12.73l-23.625-13.64c-5.258-3.035-11.233-4.587-17.294-4.489l-48.896.796c-12.691.206-20.126-14.212-12.6-24.43l8.264-11.22 34.497-46.818c17.41-23.637 49.811-30.411 75.241-15.729l53.047 30.627c25.425 14.679 35.759 46.127 23.994 73.023l-23.3 53.29-5.582 12.762c-5.087 11.625-21.286 12.397-27.453 1.304z" fill="#334353"/><path d="m175.272 408.169-23.763-42.746c-2.946-5.298-7.277-9.697-12.53-12.73l-11.815-6.821 53.923-93.397 26.526 15.315c25.425 14.679 35.759 46.127 23.994 73.023l-23.3 53.29-5.582 12.762c-5.087 11.625-21.286 12.397-27.453 1.304z" fill="#3e4e60"/></g><g><path d="m208.306 394.102c-6.988 4.51-17.175 2.841-21.774-5.436l-22.002-39.566c-4.099-7.379-10.13-13.507-17.442-17.728l-17.33-10.006c-7.311-4.221-15.634-6.381-24.074-6.241l-45.261.732c-9.472.152-16.011-7.835-15.597-16.147l34.497-46.818c17.41-23.637 49.811-30.411 75.241-15.729l53.047 30.627c25.425 14.679 35.759 46.127 23.994 73.023z" fill="#3e4e60"/><path d="m208.306 394.102c-6.988 4.51-17.175 2.841-21.774-5.436l-22.002-39.566c-4.099-7.379-10.13-13.507-17.442-17.728l-8.665-5.003 42.663-73.894 26.526 15.315c25.425 14.679 35.759 46.127 23.994 73.023z" fill="#3f5d77"/></g></g><g><path d="m139.604 281.032-2.95 5.11c-1.36 2.355-4.368 3.161-6.723 1.801l-5.868-3.388c-2.355-1.359-5.363-.553-6.72 1.797l-4.206 7.286c-1.357 2.35-4.365 3.156-6.715 1.799l-5.115-2.953c-2.35-1.357-3.156-4.365-1.799-6.715l4.206-7.286c1.357-2.35.551-5.359-1.804-6.718l-5.868-3.388c-2.355-1.36-3.161-4.368-1.801-6.723l2.95-5.11c.024-.042.052-.089.081-.129 1.39-2.255 4.33-3.007 6.642-1.672l5.868 3.388c2.355 1.359 5.363.553 6.72-1.797l2.575-4.46c1.357-2.35 4.365-3.156 6.715-1.799l5.115 2.953c2.35 1.357 3.156 4.365 1.799 6.715l-2.575 4.46c-1.357 2.35-.551 5.359 1.804 6.718l5.868 3.388c2.312 1.335 3.131 4.257 1.873 6.588-.02.046-.047.093-.072.135z" fill="#2d2c33"/><path d="m139.676 280.898c-1.387 2.251-4.327 3.003-6.639 1.668l-5.868-3.388c-2.355-1.359-5.363-.553-6.723 1.801l-4.204 7.281c-1.36 2.355-4.368 3.161-6.718 1.804l-5.115-2.953c-2.35-1.357-3.156-4.365-1.797-6.72l4.204-7.281c1.36-2.355.553-5.363-1.801-6.723l-5.868-3.388c-2.312-1.335-3.131-4.257-1.876-6.584 1.39-2.255 4.33-3.007 6.642-1.672l5.868 3.388c2.355 1.359 5.363.553 6.72-1.797l2.575-4.46c1.357-2.35 4.365-3.156 6.715-1.799l5.115 2.953c2.35 1.357 3.156 4.365 1.799 6.715l-2.575 4.46c-1.357 2.35-.551 5.359 1.804 6.718l5.868 3.388c2.313 1.335 3.132 4.257 1.874 6.589z" fill="#334353"/><path d="m132.775 273.4-7.953-4.592 3.014-5.22c.692-1.199.282-2.733-.918-3.426-1.199-.692-2.733-.281-3.426.918l-3.014 5.22-7.953-4.592c-1.199-.692-2.733-.282-3.426.918-.692 1.199-.282 2.733.918 3.426l7.953 4.592-3.766 6.523c-.692 1.199-.282 2.733.918 3.426 1.199.692 2.733.282 3.426-.918l3.766-6.523 7.953 4.592c1.199.692 2.733.282 3.426-.918s.282-2.734-.918-3.426z" fill="#3f5d77"/></g><g><g><path d="m213.306 305.085c-2.546 4.41-8.191 5.922-12.601 3.376s-5.922-8.191-3.376-12.601c.396-.686.865-1.3 1.401-1.84 2.871-2.941 7.473-3.681 11.197-1.531s5.384 6.506 4.273 10.463c-.201.734-.498 1.447-.894 2.133z" fill="#53b976"/><path d="m214.2 302.952c-2.871 2.941-7.476 3.687-11.2 1.537s-5.381-6.511-4.269-10.468c2.871-2.941 7.473-3.681 11.197-1.531 3.723 2.15 5.383 6.505 4.272 10.462z" fill="#78c795"/></g><g><path d="m192.706 340.765c-2.546 4.41-8.191 5.922-12.601 3.376s-5.922-8.191-3.376-12.601c.396-.686.865-1.3 1.401-1.84 2.871-2.941 7.473-3.681 11.197-1.531s5.384 6.506 4.273 10.463c-.201.734-.498 1.448-.894 2.133z" fill="#7d73ff"/><path d="m193.6 338.632c-2.871 2.941-7.476 3.687-11.2 1.537s-5.381-6.511-4.269-10.468c2.871-2.941 7.473-3.681 11.197-1.531 3.723 2.15 5.383 6.505 4.272 10.462z" fill="#b5b3ff"/></g><g><g><path d="m221.78 331.605c-2.546 4.41-8.191 5.922-12.601 3.376s-5.922-8.191-3.376-12.601c.396-.686.865-1.3 1.401-1.84 2.871-2.941 7.473-3.681 11.197-1.531s5.384 6.506 4.273 10.463c-.202.733-.499 1.447-.894 2.133z" fill="#e9465e"/><path d="m222.673 329.472c-2.871 2.941-7.476 3.687-11.2 1.537s-5.381-6.511-4.269-10.468c2.871-2.941 7.473-3.681 11.197-1.531s5.383 6.505 4.272 10.462z" fill="#ee6781"/></g><g><path d="m186.098 311.004c-2.546 4.41-8.191 5.922-12.601 3.376s-5.922-8.191-3.376-12.601c.396-.686.865-1.3 1.401-1.84 2.871-2.941 7.473-3.681 11.197-1.531s5.384 6.506 4.273 10.463c-.201.734-.498 1.448-.894 2.133z" fill="#ea7589"/><path d="m186.991 308.871c-2.871 2.941-7.476 3.687-11.2 1.537s-5.381-6.511-4.269-10.468c2.871-2.941 7.473-3.681 11.197-1.531s5.384 6.505 4.272 10.462z" fill="#ff9fb4"/></g></g></g><g><path d="m197.055 281.369c-2.417 4.186-7.776 5.622-11.967 3.202l-33.798-19.513c-2.093-1.208-3.503-3.153-4.084-5.321-.581-2.167-.335-4.552.874-6.645 2.42-4.191 7.779-5.627 11.97-3.207l33.798 19.513c2.093 1.208 3.503 3.153 4.084 5.321.58 2.167.331 4.557-.877 6.65z" fill="#334353"/><path d="m197.055 281.369c-2.417 4.186-7.776 5.622-11.967 3.202l-16.899-9.757 8.76-15.173 16.899 9.757c2.093 1.208 3.503 3.153 4.084 5.321.58 2.167.331 4.557-.877 6.65z" fill="#3e4e60"/></g></g></g></svg>