<svg xmlns="http://www.w3.org/2000/svg" width="75" height="81.846" viewBox="0 0 75 81.846"><g transform="translate(-146 -10.154)"><circle cx="37.5" cy="37.5" r="37.5" transform="translate(146 17)" fill="#afe6fa"/><g transform="translate(97.002 10.154)"><path d="M111.966,36.322a1.356,1.356,0,0,0-1.442.188,16.419,16.419,0,0,1-10.642,3.9,16.656,16.656,0,0,1-10.664-3.9A19.088,19.088,0,0,0,76.864,32a19.341,19.341,0,0,0-12.205,4.388A1.355,1.355,0,0,0,64,37.55v29.52a1.353,1.353,0,0,0,2.222,1.037,16.477,16.477,0,0,1,21.286,0,19.194,19.194,0,0,0,24.581.123,1.354,1.354,0,0,0,.661-1.162V37.55A1.359,1.359,0,0,0,111.966,36.322Z" transform="translate(0 -27.936)" fill="#e6e9ed"/><g transform="translate(76.185 4.062)"><path d="M351.991,101.476A19.352,19.352,0,0,0,363.518,97.1a1.354,1.354,0,0,0,.661-1.162V66.415a1.355,1.355,0,0,0-2.224-1.04,16.428,16.428,0,0,1-9.964,3.89v32.211Z" transform="translate(-327.616 -60.862)" fill="#434a54"/><path d="M172.159,35.827A19.021,19.021,0,0,0,160.673,32c-.226,0-.452.006-.678.014V64.225c.224-.01.45-.014.678-.014a16.4,16.4,0,0,1,10.642,3.9q.414.345.843.663Z" transform="translate(-159.995 -31.999)" fill="#434a54"/></g><path d="M64.659,36.482A1.355,1.355,0,0,0,64,37.646v29.52A1.353,1.353,0,0,0,66.221,68.2a16.43,16.43,0,0,1,9.966-3.884h0V32.108A19.367,19.367,0,0,0,64.659,36.482Z" transform="translate(-0.001 -28.032)" fill="#e6e9ed"/><path d="M75.7,161.668A22.785,22.785,0,0,0,64,164.893v15.385a1.353,1.353,0,0,0,2.222,1.037,16.43,16.43,0,0,1,9.966-3.884h0V161.674Q75.942,161.668,75.7,161.668Z" transform="translate(-0.001 -141.143)" fill="#434a54"/><g transform="translate(76.185 20.531)"><path d="M172.159,182.022V165.539a22.327,22.327,0,0,0-12.164-3.824v15.758c.224-.01.45-.014.678-.014a16.4,16.4,0,0,1,10.642,3.9Q171.729,181.7,172.159,182.022Z" transform="translate(-159.995 -161.715)" fill="#e6e9ed"/><path d="M364.179,211.434v-14.08a19.219,19.219,0,0,1-11.7,3.886c-.163,0-.325,0-.488-.008v15.742a19.352,19.352,0,0,0,11.527-4.378A1.355,1.355,0,0,0,364.179,211.434Z" transform="translate(-327.616 -192.829)" fill="#e6e9ed"/></g><path d="M65.352,65A1.352,1.352,0,0,1,64,63.647V1.355a1.354,1.354,0,1,1,2.708,0V63.647A1.354,1.354,0,0,1,65.352,65Z" transform="translate(-0.001)" fill="#ed5564"/><path d="M268.017,196.417a19.465,19.465,0,0,1-11.257-3.9q-.47-.354-.954-.682v16.482a19.342,19.342,0,0,0,11.533,3.85q.339,0,.678-.012Z" transform="translate(-167.457 -167.484)" fill="#434a54"/></g></g></svg>