<svg xmlns="http://www.w3.org/2000/svg" width="74.832" height="70" viewBox="0 0 74.832 70"><g transform="translate(0 -0.016)"><path d="M82.6,244.843h-70.6v-4.828H83.2Zm0,0" transform="translate(-10.183 -203.793)" fill="#844747"/><path d="M11.992,224.016H83.2v3.621H11.992Zm0,0" transform="translate(-10.183 -190.207)" fill="#e6e9ed"/><path d="M36,16.016h2.414V42.567H36Zm0,0" transform="translate(-30.569 -13.586)" fill="#545c66"/><path d="M443.984,16.016H446.4V42.567h-2.414Zm0,0" transform="translate(-377.004 -13.586)" fill="#545c66"/><path d="M52,128.016h59.136v9.655H52Zm0,0" transform="translate(-44.155 -108.69)" fill="#7f4545"/><path d="M52,16.016h59.136v16.9H52Zm0,0" transform="translate(-44.155 -13.586)" fill="#965353"/><path d="M99.952,138.274a.605.605,0,0,1-.6.6H36.588a.605.605,0,0,1-.6-.6v-9.655a.605.605,0,0,1,.6-.6H99.349a.605.605,0,0,1,.6.6Zm0,0" transform="translate(-30.556 -108.69)" fill="#656d78"/><path d="M86.377,2.429H22.414L20,.016H88.791Zm0,0" transform="translate(-16.983)" fill="#656d78"/><path d="M204.889,160.016H189.2a1.206,1.206,0,0,0-1.207,1.207v3.621h18.1v-3.621A1.206,1.206,0,0,0,204.889,160.016Zm0,0" transform="translate(-159.631 -135.862)" fill="#545c66"/><path d="M239.613,73.826a1.81,1.81,0,1,1-1.81-1.81A1.81,1.81,0,0,1,239.613,73.826Zm0,0" transform="translate(-200.39 -61.138)" fill="#844747"/><path d="M118.911,141.223H64.6a.6.6,0,1,1,0-1.207h54.308a.6.6,0,1,1,0,1.207Zm0,0" transform="translate(-54.345 -118.879)" fill="#545c66"/><path d="M230.63,173.223H224.6a.6.6,0,1,1,0-1.207h6.034a.6.6,0,0,1,0,1.207Zm0,0" transform="translate(-190.2 -146.052)" fill="#656d78"/><g transform="translate(14.484 5.447)"><path d="M177.044,42.05a.6.6,0,0,1-.585-.457,5.508,5.508,0,0,0-5.18-4.37,2.081,2.081,0,0,0-2.08,2.08,1.543,1.543,0,0,0,1.541,1.541,1.114,1.114,0,0,0,1.113-1.113.77.77,0,0,0-.769-.771.6.6,0,1,1,0-1.207,1.979,1.979,0,0,1,1.976,1.978,2.322,2.322,0,0,1-2.32,2.32,2.75,2.75,0,0,1-2.748-2.748,3.29,3.29,0,0,1,3.287-3.287A6.7,6.7,0,0,1,177.63,41.3a.6.6,0,0,1-.439.73A.557.557,0,0,1,177.044,42.05Zm0,0" transform="translate(-157.132 -36.016)" fill="#844747"/><path d="M264.595,42.05a.548.548,0,0,1-.146-.019.6.6,0,0,1-.439-.73,6.7,6.7,0,0,1,6.35-5.285,3.29,3.29,0,0,1,3.287,3.287A2.75,2.75,0,0,1,270.9,42.05a2.322,2.322,0,0,1-2.32-2.32,1.979,1.979,0,0,1,1.976-1.978.6.6,0,1,1,0,1.207.77.77,0,0,0-.769.771,1.114,1.114,0,0,0,1.113,1.113A1.543,1.543,0,0,0,272.44,39.3a2.081,2.081,0,0,0-2.08-2.08,5.508,5.508,0,0,0-5.18,4.37A.6.6,0,0,1,264.595,42.05Zm0,0" transform="translate(-238.649 -36.016)" fill="#844747"/><path d="M216.6,94.429a.6.6,0,0,1,0-1.207.605.605,0,0,0,.6-.6.6.6,0,1,1,1.207,0A1.812,1.812,0,0,1,216.6,94.429Zm0,0" transform="translate(-197.891 -83.567)" fill="#844747"/><path d="M265.8,94.429a1.812,1.812,0,0,1-1.81-1.81.6.6,0,1,1,1.207,0,.605.605,0,0,0,.6.6.6.6,0,0,1,0,1.207Zm0,0" transform="translate(-238.649 -83.567)" fill="#844747"/><path d="M288.8,85.223a.609.609,0,0,1-.609-.6.6.6,0,0,1,.6-.6h.013a.6.6,0,1,1,0,1.207Zm0,0" transform="translate(-259.198 -76.774)" fill="#844747"/><path d="M312.8,101.223a.609.609,0,0,1-.609-.6.6.6,0,0,1,.6-.6h.013a.6.6,0,1,1,0,1.207Zm0,0" transform="translate(-279.577 -90.36)" fill="#844747"/><path d="M176.8,101.223a.609.609,0,0,1-.609-.6.6.6,0,0,1,.6-.6h.013a.6.6,0,1,1,0,1.207Zm0,0" transform="translate(-164.094 -90.36)" fill="#844747"/><path d="M200.8,85.223a.609.609,0,0,1-.609-.6.6.6,0,0,1,.6-.6h.013a.6.6,0,1,1,0,1.207Zm0,0" transform="translate(-184.474 -76.774)" fill="#844747"/><path d="M102.236,66.724a5.093,5.093,0,0,1-2.279-.6c-1.952-.979-2.894-.143-2.932-.107a.607.607,0,0,1-.849-.02.6.6,0,0,1,0-.84c.06-.062,1.543-1.5,4.317-.113,1.951.975,2.892.14,2.932.1a.606.606,0,0,1,.849.021.6.6,0,0,1,0,.841A2.953,2.953,0,0,1,102.236,66.724Zm0,0" transform="translate(-96.006 -60.154)" fill="#844747"/><path d="M346.214,66.735a2.959,2.959,0,0,1-2.038-.713.6.6,0,0,1,.853-.853c.031.028.969.864,2.924-.113,2.773-1.384,4.255.051,4.317.113a.6.6,0,0,1-.846.86c-.051-.047-.991-.864-2.931.107A5.108,5.108,0,0,1,346.214,66.735Zm0,0" transform="translate(-306.586 -60.164)" fill="#844747"/></g><path d="M74.6,192.016H7.016L4,194.429H5.206v2.414H76.413l-.6-2.414h2.414Zm0,0" transform="translate(-3.397 -163.034)" fill="#773e3e"/><path d="M43.992,272.016h61.552v26.552H43.992Zm0,0" transform="translate(-37.355 -230.966)" fill="#545c66"/><path d="M2.414,217.67H.6l-.6-.6v-9.052H2.414Zm0,0" transform="translate(0 -176.621)" fill="#965353"/><path d="M27.992,272.016h2.414v27.757H27.992Zm0,0" transform="translate(-23.769 -230.966)" fill="#656d78"/><path d="M451.992,272.016h2.414v27.757h-2.414Zm0,0" transform="translate(-383.804 -230.966)" fill="#656d78"/><path d="M219.992,440.016v1.207a1.207,1.207,0,1,0,2.414,0v-1.207Zm0,0" transform="translate(-186.804 -373.621)" fill="#ffce54"/><path d="M259.992,440.016v1.207a1.207,1.207,0,0,0,2.414,0v-1.207Zm0,0" transform="translate(-220.769 -373.621)" fill="#ffce54"/><g transform="translate(4.223 33.809)"><path d="M28.6,225.223a.6.6,0,0,0,.6-.6v-.6H27.992v.6A.6.6,0,0,0,28.6,225.223Zm0,0" transform="translate(-27.992 -224.016)" fill="#ccd1d9"/><path d="M52.6,225.223a.6.6,0,0,0,.6-.6v-.6H51.992v.6A.6.6,0,0,0,52.6,225.223Zm0,0" transform="translate(-48.371 -224.016)" fill="#ccd1d9"/><path d="M76.6,225.223a.6.6,0,0,0,.6-.6v-.6H75.992v.6A.6.6,0,0,0,76.6,225.223Zm0,0" transform="translate(-68.751 -224.016)" fill="#ccd1d9"/><path d="M100.6,225.223a.6.6,0,0,0,.6-.6v-.6H99.992v.6A.6.6,0,0,0,100.6,225.223Zm0,0" transform="translate(-89.13 -224.016)" fill="#ccd1d9"/><path d="M124.6,225.223a.6.6,0,0,0,.6-.6v-.6h-1.207v.6A.6.6,0,0,0,124.6,225.223Zm0,0" transform="translate(-109.509 -224.016)" fill="#ccd1d9"/><path d="M148.6,225.223a.6.6,0,0,0,.6-.6v-.6h-1.207v.6A.6.6,0,0,0,148.6,225.223Zm0,0" transform="translate(-129.889 -224.016)" fill="#ccd1d9"/><path d="M172.6,225.223a.6.6,0,0,0,.6-.6v-.6h-1.207v.6A.6.6,0,0,0,172.6,225.223Zm0,0" transform="translate(-150.268 -224.016)" fill="#ccd1d9"/><path d="M196.6,225.223a.6.6,0,0,0,.6-.6v-.6h-1.207v.6A.6.6,0,0,0,196.6,225.223Zm0,0" transform="translate(-170.647 -224.016)" fill="#ccd1d9"/><path d="M220.6,225.223a.6.6,0,0,0,.6-.6v-.6h-1.207v.6A.6.6,0,0,0,220.6,225.223Zm0,0" transform="translate(-191.027 -224.016)" fill="#ccd1d9"/><path d="M244.6,225.223a.6.6,0,0,0,.6-.6v-.6h-1.207v.6A.6.6,0,0,0,244.6,225.223Zm0,0" transform="translate(-211.406 -224.016)" fill="#ccd1d9"/><path d="M268.6,225.223a.6.6,0,0,0,.6-.6v-.6h-1.207v.6A.6.6,0,0,0,268.6,225.223Zm0,0" transform="translate(-231.785 -224.016)" fill="#ccd1d9"/><path d="M292.6,225.223a.6.6,0,0,0,.6-.6v-.6h-1.207v.6A.6.6,0,0,0,292.6,225.223Zm0,0" transform="translate(-252.165 -224.016)" fill="#ccd1d9"/><path d="M316.6,225.223a.6.6,0,0,0,.6-.6v-.6h-1.207v.6A.6.6,0,0,0,316.6,225.223Zm0,0" transform="translate(-272.544 -224.016)" fill="#ccd1d9"/><path d="M340.6,225.223a.6.6,0,0,0,.6-.6v-.6h-1.207v.6A.6.6,0,0,0,340.6,225.223Zm0,0" transform="translate(-292.923 -224.016)" fill="#ccd1d9"/><path d="M364.6,225.223a.6.6,0,0,0,.6-.6v-.6h-1.207v.6A.6.6,0,0,0,364.6,225.223Zm0,0" transform="translate(-313.303 -224.016)" fill="#ccd1d9"/><path d="M388.6,225.223a.6.6,0,0,0,.6-.6v-.6h-1.207v.6A.6.6,0,0,0,388.6,225.223Zm0,0" transform="translate(-333.682 -224.016)" fill="#ccd1d9"/><path d="M412.6,225.223a.6.6,0,0,0,.6-.6v-.6h-1.207v.6A.6.6,0,0,0,412.6,225.223Zm0,0" transform="translate(-354.061 -224.016)" fill="#ccd1d9"/><path d="M436.6,225.223a.6.6,0,0,0,.6-.6v-.6h-1.207v.6A.6.6,0,0,0,436.6,225.223Zm0,0" transform="translate(-374.44 -224.016)" fill="#ccd1d9"/><path d="M460.6,225.223a.6.6,0,0,0,.6-.6v-.6h-1.207v.6A.6.6,0,0,0,460.6,225.223Zm0,0" transform="translate(-394.82 -224.016)" fill="#ccd1d9"/></g><g transform="translate(11.464 46.481)"><path d="M412.6,323.705a.6.6,0,0,1-.6-.6V308.619a.6.6,0,1,1,1.207,0V323.1A.6.6,0,0,1,412.6,323.705Zm0,0" transform="translate(-361.303 -308.016)" fill="#434a54"/><path d="M388.6,323.705a.6.6,0,0,1-.6-.6V308.619a.6.6,0,1,1,1.207,0V323.1A.6.6,0,0,1,388.6,323.705Zm0,0" transform="translate(-340.923 -308.016)" fill="#434a54"/><path d="M364.6,323.705a.6.6,0,0,1-.6-.6V308.619a.6.6,0,0,1,1.207,0V323.1A.6.6,0,0,1,364.6,323.705Zm0,0" transform="translate(-320.544 -308.016)" fill="#434a54"/><path d="M340.6,323.705a.6.6,0,0,1-.6-.6V308.619a.6.6,0,1,1,1.207,0V323.1A.6.6,0,0,1,340.6,323.705Zm0,0" transform="translate(-300.165 -308.016)" fill="#434a54"/><path d="M316.6,323.705a.6.6,0,0,1-.6-.6V308.619a.6.6,0,1,1,1.207,0V323.1A.6.6,0,0,1,316.6,323.705Zm0,0" transform="translate(-279.785 -308.016)" fill="#434a54"/><path d="M292.6,323.705a.6.6,0,0,1-.6-.6V308.619a.6.6,0,0,1,1.207,0V323.1A.6.6,0,0,1,292.6,323.705Zm0,0" transform="translate(-259.406 -308.016)" fill="#434a54"/><path d="M268.6,323.705a.6.6,0,0,1-.6-.6V308.619a.6.6,0,0,1,1.207,0V323.1A.6.6,0,0,1,268.6,323.705Zm0,0" transform="translate(-239.027 -308.016)" fill="#434a54"/><path d="M244.6,323.705a.6.6,0,0,1-.6-.6V308.619a.6.6,0,0,1,1.207,0V323.1A.6.6,0,0,1,244.6,323.705Zm0,0" transform="translate(-218.647 -308.016)" fill="#434a54"/><path d="M220.6,323.705a.6.6,0,0,1-.6-.6V308.619a.6.6,0,1,1,1.207,0V323.1A.6.6,0,0,1,220.6,323.705Zm0,0" transform="translate(-198.268 -308.016)" fill="#434a54"/><path d="M196.6,323.705a.6.6,0,0,1-.6-.6V308.619a.6.6,0,1,1,1.207,0V323.1A.6.6,0,0,1,196.6,323.705Zm0,0" transform="translate(-177.889 -308.016)" fill="#434a54"/><path d="M172.6,323.705a.6.6,0,0,1-.6-.6V308.619a.6.6,0,1,1,1.207,0V323.1A.6.6,0,0,1,172.6,323.705Zm0,0" transform="translate(-157.509 -308.016)" fill="#434a54"/><path d="M148.6,323.705a.6.6,0,0,1-.6-.6V308.619a.6.6,0,1,1,1.207,0V323.1A.6.6,0,0,1,148.6,323.705Zm0,0" transform="translate(-137.13 -308.016)" fill="#434a54"/><path d="M124.6,323.705a.6.6,0,0,1-.6-.6V308.619a.6.6,0,1,1,1.207,0V323.1A.6.6,0,0,1,124.6,323.705Zm0,0" transform="translate(-116.751 -308.016)" fill="#434a54"/><path d="M100.6,323.705a.6.6,0,0,1-.6-.6V308.619a.6.6,0,1,1,1.207,0V323.1A.6.6,0,0,1,100.6,323.705Zm0,0" transform="translate(-96.371 -308.016)" fill="#434a54"/><path d="M76.6,323.705a.6.6,0,0,1-.6-.6V308.619a.6.6,0,1,1,1.207,0V323.1A.6.6,0,0,1,76.6,323.705Zm0,0" transform="translate(-75.992 -308.016)" fill="#434a54"/></g><path d="M5.436,192.016H3.02L0,194.429H2.416Zm0,0" transform="translate(0 -163.034)" fill="#844747"/><path d="M480.031,217.67h1.812l.6-.6v-9.052h-2.414Zm0,0" transform="translate(-407.613 -176.621)" fill="#965353"/><path d="M460,192.016h2.416l3.02,2.414H463.02Zm0,0" transform="translate(-390.603 -163.034)" fill="#844747"/><path d="M1.207,264.619a.6.6,0,1,1-.6-.6A.6.6,0,0,1,1.207,264.619Zm0,0" transform="translate(0 -224.172)" fill="#965353"/><path d="M489.238,264.619a.6.6,0,1,1-.6-.6A.6.6,0,0,1,489.238,264.619Zm0,0" transform="translate(-414.406 -224.172)" fill="#965353"/><path d="M30.406,449.223a1.207,1.207,0,1,1-1.207-1.207A1.207,1.207,0,0,1,30.406,449.223Zm0,0" transform="translate(-23.769 -380.414)" fill="#656d78"/><path d="M454.406,449.223a1.207,1.207,0,1,1-1.207-1.207A1.207,1.207,0,0,1,454.406,449.223Zm0,0" transform="translate(-383.804 -380.414)" fill="#656d78"/></g></svg>