<svg xmlns="http://www.w3.org/2000/svg" width="23.967" height="24" viewBox="0 0 23.967 24"><g transform="translate(-0.351)"><g transform="translate(0.351)"><g transform="translate(0)"><path d="M8.934,3.811a1.361,1.361,0,0,1,1.112.575.351.351,0,0,0,.639-.2V.351A.351.351,0,0,0,10.332,0H.7A.351.351,0,0,0,.351.351V2.772a.351.351,0,1,0,.7,0V.7H9.981V3.394a2.056,2.056,0,1,0,0,3.541V9.625H6.475a.351.351,0,0,0-.2.642,1.353,1.353,0,1,1-1.524,0,.351.351,0,0,0-.2-.642h-3.5V3.943a.351.351,0,1,0-.7,0V9.976a.351.351,0,0,0,.351.351H3.752a2.056,2.056,0,1,0,3.527,0h3.054a.351.351,0,0,0,.351-.351V6.144a.351.351,0,0,0-.639-.2,1.354,1.354,0,1,1-1.112-2.13Z" transform="translate(-0.351)" fill="#fff"/></g></g><g transform="translate(4.554 4.246)"><path d="M109.431,95.036a.351.351,0,0,0,.351-.351V90.931a.351.351,0,0,0-.351-.351H99.9a.351.351,0,0,0-.351.351v3.011a2.038,2.038,0,1,0,0,3.5v2.659H96.1a.351.351,0,0,0-.2.639,1.335,1.335,0,1,1-1.535,0,.351.351,0,0,0-.2-.639H90.37a.351.351,0,0,0-.351.351v5.55a.351.351,0,1,0,.7,0v-5.2h2.652a2.038,2.038,0,1,0,3.518,0h2.657v3.461a.351.351,0,0,0,.642.2,1.335,1.335,0,1,1,0,1.5.351.351,0,0,0-.642.2v3.461H90.722v-2.453a.351.351,0,0,0-.7,0v2.8a.351.351,0,0,0,.351.351h19.061a.351.351,0,0,0,.351-.351V95.856a.351.351,0,0,0-.7,0v4.25h-2.652a2.037,2.037,0,0,0,.279-1.028s0-.005,0-.008,0,0,0-.006a2.038,2.038,0,1,0-4.076,0s0,0,0,.006,0,.005,0,.008a2.036,2.036,0,0,0,.279,1.028h-2.657V96.645a.351.351,0,0,0-.642-.2,1.335,1.335,0,1,1,0-1.5.351.351,0,0,0,.642-.2V91.283h8.828v3.4A.351.351,0,0,0,109.431,95.036Zm-9.179,5.772h3.466a.351.351,0,0,0,.2-.642,1.335,1.335,0,1,1,1.5,0,.351.351,0,0,0,.2.642h3.461v8.823h-8.828v-2.653a2.049,2.049,0,0,0,1.033.28h0a2.038,2.038,0,1,0,0-4.076h0a2.049,2.049,0,0,0-1.033.28Z" transform="translate(-90.019 -90.58)" fill="#fff"/></g></g></svg>