<svg xmlns="http://www.w3.org/2000/svg" width="80" height="80.037" viewBox="0 0 80 80.037"><g transform="translate(-0.25 0.001)"><path d="M181.5,158a2.7,2.7,0,0,0,0-3.818l-28.625-28.625a2.7,2.7,0,1,0-3.818,3.816L177.685,158A2.7,2.7,0,0,0,181.5,158Zm0,0" transform="translate(-123.052 -103.726)" fill="#933ec5"/><path d="M54.631,180.719l-4.6,2.173a4.048,4.048,0,1,0-7.044,3.347l-5.721,2.712a8.323,8.323,0,0,0-1.714-2.51,8.1,8.1,0,0,0-12.927,9.446L.25,206.479l5.694-12.023a6.747,6.747,0,0,0,7.665-10.876,6.935,6.935,0,0,0-1.889-1.322l6.693-14.128a6.757,6.757,0,0,0,6.639-11.268,7.091,7.091,0,0,0-.931-.783L26.01,152.1Zm0,0" transform="translate(0 -126.443)" fill="#ed539d"/><path d="M129.954,344.034a8.139,8.139,0,0,0-1.484,9.437l14.637-6.927a8.1,8.1,0,0,0-13.158-2.51Zm0,0" transform="translate(-105.854 -284.031)" fill="#7ed63e"/><path d="M114.57,186.055a6.747,6.747,0,0,0,0-9.541,7.126,7.126,0,0,0-.935-.783l-5.705,12.043A6.766,6.766,0,0,0,114.57,186.055Zm0,0" transform="translate(-89.517 -146.09)" fill="#ffcd00"/><path d="M193.628,256.587a4.048,4.048,0,1,1-4.048-4.048A4.048,4.048,0,0,1,193.628,256.587Zm0,0" transform="translate(-154.029 -209.943)" fill="#ff3051"/><path d="M114.07,291.519a2.7,2.7,0,1,1-2.7-2.7A2.7,2.7,0,0,1,114.07,291.519Zm0,0" transform="translate(-90.134 -240.104)" fill="#ffcd00"/><path d="M41.654,341.767a6.747,6.747,0,0,0,0-9.542,6.669,6.669,0,0,0-1.88-1.326l-5.782,12.195A6.761,6.761,0,0,0,41.654,341.767Zm0,0" transform="translate(-28.051 -275.085)" fill="#2488ff"/><g transform="translate(0.25 25.654)"><path d="M8.882,403.861a7.15,7.15,0,0,0,.76-.049l-1,2.105-3.265,6.9L.25,415.242l5.694-12.023c.23.108.472.2.7.283A6.88,6.88,0,0,0,8.882,403.861Zm0,0" transform="translate(-0.25 -360.861)" fill="#d54b8d"/><path d="M78.438,246.58a4.035,4.035,0,0,0,.54-.162l-1.336,2.821-6.585,13.9c-.081-.121-.162-.243-.256-.364a6,6,0,0,0-.662-.783,6.934,6.934,0,0,0-1.889-1.322l6.693-14.128a6.827,6.827,0,0,0,2.388.229c.189-.014.378-.041.553-.068A3.977,3.977,0,0,0,78.438,246.58Zm0,0" transform="translate(-56.78 -230.508)" fill="#d54b8d"/><path d="M143.956,158.615a2.8,2.8,0,0,0-.189-.351,2.768,2.768,0,0,0-.2-.337,6.79,6.79,0,0,0-1.795-1.849l1.889-3.981,2.7,2.7-1.889,3.981-.229.486A6.808,6.808,0,0,0,143.956,158.615Zm0,0" transform="translate(-117.899 -152.098)" fill="#d54b8d"/></g><path d="M116.107,178.884l-4.143,8.744a7.432,7.432,0,0,1-1.092.283c-.176.027-.364.054-.553.068a6.828,6.828,0,0,1-2.388-.229l5.708-12.05a6.79,6.79,0,0,1,1.795,1.849,1.715,1.715,0,0,1,.2.337,2.805,2.805,0,0,1,.189.351A6.81,6.81,0,0,1,116.107,178.884Zm0,0" transform="translate(-89.517 -146.064)" fill="#e5b800"/><path d="M42.591,333.368l-.108.229-4.777,10.094c-.256.027-.513.041-.756.054a6.963,6.963,0,0,1-2.24-.364c-.229-.081-.472-.175-.7-.283l5.776-12.2a6.934,6.934,0,0,1,1.889,1.322,6,6,0,0,1,.662.783C42.428,333.125,42.509,333.247,42.591,333.368Zm0,0" transform="translate(-28.064 -275.085)" fill="#207ae5"/><path d="M248.921,315.955a4.034,4.034,0,0,0-.19,5.515l7.042-3.34a4.048,4.048,0,0,0-6.851-2.175Zm0,0" transform="translate(-205.738 -261.676)" fill="#c2fb3b"/><path d="M359.726,35.117a2.7,2.7,0,1,1-2.7-2.7A2.7,2.7,0,0,1,359.726,35.117Zm0,0" transform="translate(-294.354 -26.951)" fill="#ff3051"/><path d="M343.726,171.117a2.7,2.7,0,1,1-2.7-2.7A2.7,2.7,0,0,1,343.726,171.117Zm0,0" transform="translate(-281.052 -140.011)" fill="#ffcd00"/><path d="M199.726,27.117a2.7,2.7,0,1,1-2.7-2.7A2.7,2.7,0,0,1,199.726,27.117Zm0,0" transform="translate(-161.342 -20.3)" fill="#c2fb3b"/><path d="M298.816,16.263h-2.437A12.089,12.089,0,0,0,285.1,23.9L282.419,30.6a1.35,1.35,0,1,0,2.507,1l2.682-6.709a9.4,9.4,0,0,1,8.771-5.937h2.437a12.143,12.143,0,0,0,10.721-6.443L314.575,2A1.35,1.35,0,1,0,312.145.837L307.134,11.3A9.435,9.435,0,0,1,298.816,16.263Zm0,0" transform="translate(-234.493)" fill="#ffcd00"/><path d="M227.426,23.073a1.349,1.349,0,0,0,1.286,1.41h.063a1.35,1.35,0,0,0,1.349-1.287l.293-6.358a9.438,9.438,0,0,1,5.031-8.279l2.159-1.139a12.1,12.1,0,0,0,5.078-5.094,1.349,1.349,0,1,0-2.39-1.254,9.4,9.4,0,0,1-3.95,3.962l-2.159,1.139a12.109,12.109,0,0,0-6.468,10.592Zm0,0" transform="translate(-188.856 -0.28)" fill="#ff9811"/><path d="M359.919,168.418h-2.577a8.051,8.051,0,0,0-7.241,4.476l-1.669,3.336a5.362,5.362,0,0,1-4.827,2.983h-3.927a1.349,1.349,0,0,0,0,2.7H343.6a8.051,8.051,0,0,0,7.241-4.476l1.669-3.336a5.364,5.364,0,0,1,4.827-2.983h2.577a1.349,1.349,0,0,0,0-2.7Zm0,0" transform="translate(-281.052 -140.01)" fill="#91dc5a"/><path d="M277.9,90.8a1.349,1.349,0,0,0-1.908-1.908l-1.349,1.349a1.349,1.349,0,1,0,1.908,1.908Zm0,0" transform="translate(-227.768 -73.587)" fill="#ff3051"/><path d="M374.376,272.418h-2.7a1.349,1.349,0,0,0,0,2.7h2.7a1.349,1.349,0,1,0,0-2.7Zm0,0" transform="translate(-307.655 -226.468)" fill="#ff9811"/><path d="M427.993,248.9l-1.349,1.349a1.349,1.349,0,1,0,1.908,1.908L429.9,250.8a1.349,1.349,0,0,0-1.908-1.908Zm0,0" transform="translate(-354.129 -206.598)" fill="#ffcd00"/><path d="M397.771,136.557l-2.7,1.349a1.35,1.35,0,1,0,1.206,2.415l2.7-1.349a1.35,1.35,0,0,0-1.206-2.415Zm0,0" transform="translate(-327.603 -113.405)" fill="#ff9811"/><path d="M194.328,81.767v1.349a1.349,1.349,0,0,0,2.7,0V81.767a1.349,1.349,0,0,0-2.7,0Zm0,0" transform="translate(-161.342 -66.854)" fill="#ff3051"/><path d="M306.682,56.783a1.349,1.349,0,0,0,.958,2.307,1.571,1.571,0,0,0,.255-.027.809.809,0,0,0,.258-.081,1.043,1.043,0,0,0,.242-.121,2.183,2.183,0,0,0,.2-.162,1.355,1.355,0,1,0-1.916-1.916Zm0,0" transform="translate(-254.413 -46.876)" fill="#ffcd00"/><path d="M258.92,2.872a1.057,1.057,0,0,0,.244.121.8.8,0,0,0,.256.081,1.6,1.6,0,0,0,.256.027,1.572,1.572,0,0,0,.255-.027.808.808,0,0,0,.258-.081.767.767,0,0,0,.229-.121,1.363,1.363,0,0,0,.2-.162,1.314,1.314,0,0,0,.3-1.471,1.234,1.234,0,0,0-.3-.445,1.454,1.454,0,0,0-.2-.162.782.782,0,0,0-.229-.121.825.825,0,0,0-.258-.081,1.1,1.1,0,0,0-.511,0,.819.819,0,0,0-.256.081,1.057,1.057,0,0,0-.244.121l-.2.162a1.368,1.368,0,0,0,0,1.916Zm0,0" transform="translate(-214.546 -0.333)" fill="#a25bcd"/><path d="M260.42,144.632a.782.782,0,0,0-.229-.121.825.825,0,0,0-.258-.081,1.1,1.1,0,0,0-.511,0,.819.819,0,0,0-.256.081,1.057,1.057,0,0,0-.244.121,2.508,2.508,0,0,0-.2.162,1.368,1.368,0,0,0,0,1.916l.2.162a1.058,1.058,0,0,0,.244.121.8.8,0,0,0,.256.081,1.6,1.6,0,0,0,.256.027,1.571,1.571,0,0,0,.255-.027.809.809,0,0,0,.258-.081.767.767,0,0,0,.229-.121,1.32,1.32,0,0,0,.5-1.633,1.234,1.234,0,0,0-.3-.445A1.453,1.453,0,0,0,260.42,144.632Zm0,0" transform="translate(-214.546 -120.043)" fill="#2488ff"/><path d="M450.721,120.892a1.569,1.569,0,0,0-.283.445,1.275,1.275,0,0,0,0,1.026,1.566,1.566,0,0,0,.283.445,1.388,1.388,0,0,0,.958.391,1.417,1.417,0,0,0,.958-.391,1.554,1.554,0,0,0,.284-.445,1.275,1.275,0,0,0,0-1.026,1.558,1.558,0,0,0-.284-.445A1.412,1.412,0,0,0,450.721,120.892Zm0,0" transform="translate(-374.162 -100.19)" fill="#57a4ff"/><path d="M411.678,11.2a1.334,1.334,0,0,0,1.349-1.349,1.349,1.349,0,0,0-2.307-.958,1.368,1.368,0,0,0,0,1.916A1.414,1.414,0,0,0,411.678,11.2Zm0,0" transform="translate(-340.908 -7.082)" fill="#b2fa09"/><path d="M306.682,200.783a1.349,1.349,0,0,0,.958,2.307,1.571,1.571,0,0,0,.255-.027.809.809,0,0,0,.258-.081,1.043,1.043,0,0,0,.242-.121l.2-.162a1.355,1.355,0,1,0-1.916-1.916Zm0,0" transform="translate(-254.413 -166.586)" fill="#ff3051"/><path d="M452.637,208.892a1.412,1.412,0,0,0-1.916,0,1.569,1.569,0,0,0-.283.445,1.275,1.275,0,0,0,0,1.026,1.566,1.566,0,0,0,.283.445,1.388,1.388,0,0,0,.958.391,1.417,1.417,0,0,0,.958-.391,1.555,1.555,0,0,0,.284-.445,1.275,1.275,0,0,0,0-1.026A1.558,1.558,0,0,0,452.637,208.892Zm0,0" transform="translate(-374.162 -173.346)" fill="#ed539d"/></g></svg>