<svg height="504pt" viewBox="0 -34 504 504" width="504pt" xmlns="http://www.w3.org/2000/svg"><path d="m436 256.160156c-37.609375 0-68-30.480468-68-68 0-37.59375 30.390625-67.992187 68-67.992187 37.511719 0 68 30.398437 68 68 0 37.519531-30.488281 68-68 67.992187zm0 0" fill="#5d9cec"/><path d="m57.03125 198.136719c-2.167969.375-4.246094-1.074219-4.640625-3.234375-.375-2.183594 1.066406-4.261719 3.25-4.644532l15.75-2.808593h.015625c2.167969-.386719 4.234375 1.070312 4.625 3.238281.394531 2.175781-1.0625 4.257812-3.230469 4.640625zm0 0" fill="#ccd1d9"/><path d="m193.9375 421.710938-55.152344 9.703124-47.503906-105.246093 55.375-9.617188zm0 0" fill="#ed5565"/><path d="m371.769531 96.160156c-19.9375.007813-36.015625-16.152344-36-36-.015625-19.914062 16.078125-35.992187 36-36 19.832031-.007812 35.984375 16.078125 36 36-.015625 19.847656-16.175781 36-36 36zm0 0" fill="#ffce54"/><path d="m158.488281 289.847656-79.257812 13.976563 4.609375 23.625 78.878906-13.6875zm0 0" fill="#656d78"/><path d="m434.390625 318.808594c7.363281 0 13.378906 6 13.363281 13.351562 0 18.640625-24 29.359375-24 29.359375s-24-10.71875-23.984375-29.351562c-.015625-7.359375 5.917969-13.359375 13.261719-13.359375 4.425781-.007813 8.25 2.160156 10.722656 5.429687 2.40625-3.277343 6.246094-5.4375 10.636719-5.429687zm0 0" fill="#e6e9ed"/><path d="m471.753906 336.167969c0 26.472656-21.507812 47.984375-47.984375 47.992187-26.488281 0-48-21.511718-48-47.992187 0-26.488281 21.511719-48.015625 48-48.015625 26.476563.007812 47.984375 21.519531 47.984375 48.015625zm-24-4.007813c.015625-7.351562-6-13.351562-13.363281-13.351562-4.390625-.007813-8.230469 2.160156-10.636719 5.429687-2.472656-3.269531-6.296875-5.4375-10.722656-5.429687-7.34375 0-13.277344 6-13.261719 13.359375-.015625 18.632812 23.984375 29.351562 23.984375 29.351562s24-10.71875 24-29.359375zm0 0" fill="#ed5565"/><path d="m448 28c0 15.441406 12.558594 28 28 28 15.457031-.007812 28-12.558594 28-28l-.015625 16.007812c.015625 15.433594-12.542969 28-27.984375 27.992188-15.441406.007812-28-12.558594-28-28.007812zm0 0" fill="#967adc"/><path d="m476 56c-15.441406 0-28-12.558594-28-28s12.542969-28 28-28c15.441406.0078125 28 12.558594 28 28s-12.542969 27.992188-28 28zm0 0" fill="#ac92ec"/><path d="m456 176.160156h8c8 8 8 31.992188 0 40l-32 .007813-8-8.015625-8 .007812v-23.992187s6.472656 0 16-8c9.527344-8.007813 16-24.007813 16-24.007813l8 .007813zm0 0" fill="#f5f7fa"/><path d="m52.390625 194.886719 19.441406 110.234375-57.910156-5.992188-13.921875-78.808594zm0 0" fill="#ed5565"/><path d="m155.671875 274.160156 2.816406 15.6875-86.65625 15.273438-19.441406-110.234375 86.640625-15.285157 2.808594 15.757813zm0 0" fill="#e6e9ed"/><path d="m301.28125 86 41.589844 236.320312-15.6875 2.808594c-5.589844-31.511718-168.703125-35.28125-168.703125-35.28125l-2.816407-15.6875-13.832031-78.800781-2.816406-15.757813s154.800781-43.59375 146.488281-90.800781zm0 0" fill="#e6e9ed"/><path d="m360.671875 52.054688c-2.167969.386718-4.28125-1.0625-4.671875-3.238282-.390625-2.175781 1.03125-4.242187 3.199219-4.625l.082031-.015625c2.167969-.382812 4.246094 1.070313 4.640625 3.238281.375 2.179688-1.082031 4.25-3.25 4.640626zm0 0" fill="#656d78"/><path d="m384.671875 52.046875c-2.167969.386719-4.296875-1.0625-4.671875-3.230469-.390625-2.175781 1.03125-4.242187 3.199219-4.632812l.082031-.015625c2.167969-.375 4.246094 1.070312 4.621094 3.246093.394531 2.171876-1.0625 4.25-3.230469 4.632813zm0 0" fill="#656d78"/><g fill="#da4453"><path d="m19.246094 237.304688c-1.636719.289062-3.375-.488282-4.214844-2.039063-1.046875-1.9375-.328125-4.371094 1.609375-5.425781l22.246094-12.078125c1.953125-1.058594 4.378906-.335938 5.441406 1.613281 1.046875 1.9375.328125 4.359375-1.609375 5.425781l-22.246094 12.078125c-.394531.21875-.800781.351563-1.226562.425782zm0 0"/><path d="m52.609375 288.265625c-.410156.070313-.839844.085937-1.28125.015625l-25.046875-3.769531c-2.183594-.328125-3.6875-2.359375-3.359375-4.542969.324219-2.175781 2.359375-3.710938 4.542969-3.359375l25.046875 3.765625c2.183593.328125 3.6875 2.367188 3.359375 4.546875-.261719 1.742187-1.605469 3.054687-3.261719 3.34375zm0 0"/><path d="m23.40625 260.910156c-2.167969.386719-4.246094-1.070312-4.621094-3.238281-.394531-2.175781 1.0625-4.246094 3.246094-4.640625l23.59375-4.167969c2.167969-.375 4.246094 1.082031 4.640625 3.25.375 2.167969-1.082031 4.246094-3.25 4.628907zm0 0"/></g><path d="m198.527344 424.984375c-.015625 0-.015625 0-.015625 0l-55.113281 9.679687-7.886719 1.433594-.015625.007813c-2.167969.375-4.230469-1.074219-4.640625-3.234375-.390625-2.167969 1.046875-4.253906 3.234375-4.648438l7.902344-1.4375 55.160156-9.679687c2.167968-.378907 4.230468 1.085937 4.609375 3.261719.382812 2.167968-1.074219 4.234374-3.234375 4.617187zm0 0" fill="#656d78"/><path d="m376.183594 83.792969c-1.328125.230469-2.800782.359375-4.441406.359375-7.839844.007812-11.78125-3.039063-13.6875-5.59375-2.199219-2.917969-2.3125-5.839844-2.3125-6.398438 0-2.207031 1.785156-4.070312 4-4 2.1875 0 3.953124 1.742188 4 3.902344.066406.722656.707031 4.089844 8 4.097656 7.921874-.007812 8.019531-3.960937 8.019531-3.992187-.019531-2.207031 1.796875-4.046875 4-4 2.199219 0 4 1.800781 4 4-.007813 3.609375-2.546875 10.03125-11.578125 11.625zm0 0" fill="#656d78"/><path d="m476.703125 43.9375c-.230469.039062-.472656.0625-.703125.054688-2.214844 0-4-1.792969-4-4v-24c0-2.199219 1.800781-4.03125 4-3.992188 2.199219.007812 4 1.792969 4 4v24c0 1.96875-1.425781 3.601562-3.296875 3.9375zm0 0" fill="#f5f7fa"/><path d="m488.703125 31.9375c-.230469.039062-.472656.0625-.703125.054688l-24 .007812c-2.214844 0-4-1.792969-4-4 0-2.199219 1.769531-4.0625 4-4h24c2.199219 0 3.984375 1.792969 4 4 0 1.960938-1.441406 3.601562-3.296875 3.9375zm0 0" fill="#f5f7fa"/><path d="m342.871094 322.320312c.394531 2.167969-1.078125 4.253907-3.246094 4.640626l-7.816406 1.375c-2.160156.382812-4.25-1.070313-4.625-3.238282l-41.671875-236.296875c-.375-2.167969 1.082031-4.257812 3.25-4.632812l7.8125-1.382813c2.167969-.386718 4.25 1.070313 4.640625 3.238282zm0 0" fill="#ed5565"/><path d="m424.007812 208.160156v8l-24 .007813v-40l24-.007813zm0 0" fill="#656d78"/></svg>