<?xml version="1.0" encoding="utf-8"?>
<!-- Generator: Adobe Illustrator 24.2.3, SVG Export Plug-In . SVG Version: 6.00 Build 0)  -->
<svg version="1.1" id="Layer_1" xmlns="http://www.w3.org/2000/svg" xmlns:xlink="http://www.w3.org/1999/xlink" x="0px" y="0px"
	 viewBox="0 0 512 512" style="enable-background:new 0 0 512 512;" xml:space="preserve">
<style type="text/css">
	.st0{fill:#48CFAD;}
	.st1{fill:#E6E9ED;}
	.st2{fill:#00CCBC;}
	.st3{fill:#37BC9B;}
</style>
<path class="st0" d="M467.5,490.7c1,11.7-7.8,21.2-19.6,21.2H64c-11.7,0-20.5-9.6-19.6-21.2l28.5-341.5c1-11.7,11.4-21.3,23.1-21.3
	h320c11.7,0,22.1,9.6,23.1,21.3L467.5,490.7z"/>
<path class="st1" d="M101.4,220.7c2.7,1.2,8.5,1.2,11.2,0l30.1-12.9c8.1-3.5,19.9-3.5,28,0l30.1,12.9c2.7,1.2,8.5,1.2,11.2,0
	l30.1-12.9c8.1-3.5,19.9-3.5,28,0l30.1,12.9c2.7,1.2,8.5,1.2,11.2,0l30.1-12.9c8.1-3.5,19.9-3.5,28,0l30.1,12.9
	c2.7,1.2,8.5,1.2,11.2,0l33.1-14.2l-4.8-57.2c-1-11.7-11.4-21.3-23.1-21.3H96c-11.7,0-22.1,9.6-23.1,21.3l-4.8,57.2L101.4,220.7z"/>
<path class="st2" d="M362.7,170.6L362.7,170.6c0-1.7-0.5-42-13-83C332.2,30.3,299.8,0,256,0c-43.8,0-76.2,30.3-93.7,87.6
	c-12.5,41-13,81.3-13,83l0,0c0,0,0,0.1,0,0.1c0,5.9,4.8,10.7,10.7,10.7c5.9,0,10.6-4.7,10.7-10.6l0,0c0-0.4,0.5-38.9,12.1-77
	C197.4,45.7,222,21.3,256,21.3c33.9,0,58.5,24.2,73.2,72.1c11.7,38.1,12.2,77,12.2,77.4l0,0c0,5.9,4.8,10.6,10.7,10.6
	C357.9,181.3,362.7,176.5,362.7,170.6C362.7,170.6,362.7,170.6,362.7,170.6z"/>
<path class="st3" d="M44.4,490.7c-1,11.7,7.8,21.2,19.6,21.2h384c11.7,0,20.5-9.6,19.6-21.2l-0.9-10.8H45.3L44.4,490.7z"/>
</svg>
