<svg xmlns="http://www.w3.org/2000/svg" width="38.164" height="70" viewBox="0 0 38.164 70"><path d="M132.229,61.111h-.889a.556.556,0,1,1,0-1.111h.889a.556.556,0,1,1,0,1.111Zm0,0" transform="translate(-112.621 -51.667)" fill="#edab37"/><path d="M110.356,296.447a.591.591,0,0,1-.583.553h-2.256a.525.525,0,0,1-.528-.553l1.222-23.893a.592.592,0,0,1,.583-.553h2.251a.525.525,0,0,1,.528.556Zm0,0" transform="translate(-92.128 -234.222)" fill="#edab37"/><path d="M82.207,37.689a16.57,16.57,0,0,1-2.578-3.244c-5.289,12.222-5.258,28.333-5.258,28.333a.556.556,0,1,1-1.111,0h-.015c0-.011-.016-39.444-.016-39.444H72.118V5.556A5.558,5.558,0,0,0,66.563,0c-3.333,0-2.9,3.356-7.778,3.356V4.467c4.666.879,5.533-2.188,7.778-2.276v.032a3.325,3.325,0,0,1,3.323,3.322s-.078,1.232-.211,3.344c-.3,4.645-.865,13.522-1.433,22.778-.833,13.6-1.667,28.045-1.643,31.111a7.222,7.222,0,1,0,14.444,0s-.033-13.957,4.411-22.511A16.584,16.584,0,0,1,82.207,37.689Zm0,0" transform="translate(-50.621 0)" fill="#f6bb42"/><path d="M154.785,168H155.9v39.444h-1.111Zm0,0" transform="translate(-133.287 -144.667)" fill="#edab37"/><g transform="translate(19.275 30)"><path d="M142.118,417.667A1.667,1.667,0,1,1,140.452,416,1.667,1.667,0,0,1,142.118,417.667Zm0,0" transform="translate(-138.784 -388.222)" fill="#ffce54"/><path d="M142.118,377.667A1.667,1.667,0,1,1,140.452,376,1.667,1.667,0,0,1,142.118,377.667Zm0,0" transform="translate(-138.784 -353.778)" fill="#ffce54"/><path d="M140.445,336a1.667,1.667,0,1,1-1.668,1.667A1.664,1.664,0,0,1,140.445,336Zm0,0" transform="translate(-138.777 -319.333)" fill="#ffce54"/><path d="M142.085,297.332a1.7,1.7,0,0,1,.034.334,1.666,1.666,0,1,1-.034-.334Zm0,0" transform="translate(-138.784 -284.889)" fill="#ffce54"/><path d="M142.118,257.667A1.667,1.667,0,1,1,140.452,256,1.667,1.667,0,0,1,142.118,257.667Zm0,0" transform="translate(-138.784 -250.444)" fill="#ffce54"/><path d="M142.118,217.667A1.667,1.667,0,1,1,140.452,216,1.667,1.667,0,0,1,142.118,217.667Zm0,0" transform="translate(-138.784 -216)" fill="#ffce54"/><path d="M203.055,224.258c.878-.866,3.711.545,6.321,3.167s4.033,5.444,3.168,6.321c-.511.5-1.679.246-3.079-.588a18.212,18.212,0,0,1-5.822-5.822C202.82,225.936,202.553,224.768,203.055,224.258Zm0,0" transform="translate(-193.909 -222.892)" fill="#ffce54"/></g><path d="M7.216,16,2.77,17.134v1.051l4.5,1.148,3.278-1.089V17.133Zm0,0" transform="translate(-2.385 -13.778)" fill="#656d78"/><path d="M214.69,253.146c.444-.471-.48-2.136-2.08-3.737s-3.268-2.528-3.739-2.083a18.252,18.252,0,0,0,5.819,5.82Zm0,0" transform="translate(-179.861 -212.879)" fill="#edab37"/><path d="M173.007,400a2.238,2.238,0,1,1-1.567.655A2.178,2.178,0,0,1,173.007,400Zm0,0" transform="translate(-147.065 -344.444)" fill="#ffce54"/><path d="M170.785,354.215a2.2,2.2,0,0,1,.511-1.411c.045-.056.1-.1.144-.157a2.178,2.178,0,0,1,1.567-.655,2.222,2.222,0,1,1-2.222,2.223Zm0,0" transform="translate(-147.065 -303.104)" fill="#ffce54"/><path d="M26.785,19.045l1.111.274V16l-1.111.278Zm0,0" transform="translate(-23.065 -13.778)" fill="#545c66"/><path d="M173.812,354.281a2.144,2.144,0,0,0-.444.339c-.044.057-.1.1-.144.157a2.3,2.3,0,0,0-.2.286l1.518,1.517a.556.556,0,0,0,.787-.786Zm0,0" transform="translate(-148.992 -305.076)" fill="#f6bb42"/><path d="M173.812,402.281a2.144,2.144,0,0,0-.444.339c-.044.057-.1.1-.144.157a2.3,2.3,0,0,0-.2.286l1.518,1.517a.556.556,0,0,0,.787-.786Zm0,0" transform="translate(-148.992 -346.409)" fill="#f6bb42"/><path d="M155.9,448.556a.556.556,0,1,1-.556-.556A.556.556,0,0,1,155.9,448.556Zm0,0" transform="translate(-133.287 -385.778)" fill="#edab37"/><path d="M155.9,164.556a.556.556,0,1,1-.556-.556A.556.556,0,0,1,155.9,164.556Zm0,0" transform="translate(-133.287 -141.222)" fill="#edab37"/><path d="M1.111,24.509a.556.556,0,1,1-.556-.556A.556.556,0,0,1,1.111,24.509Zm0,0" transform="translate(0 -20.626)" fill="#656d78"/></svg>