<svg xmlns="http://www.w3.org/2000/svg" width="57.726" height="70" viewBox="0 0 57.726 70"><path d="M102.595,177.6l-5.189-46.7a3.345,3.345,0,0,0-3.239-2.9H53.332a3.344,3.344,0,0,0-3.239,2.9L44.9,177.6a2.558,2.558,0,0,0,2.594,2.9H100A2.558,2.558,0,0,0,102.595,177.6Z" transform="translate(-44.887 -110.495)" fill="#e31b5e"/><path d="M102.417,479.108A2.556,2.556,0,0,1,100,480.685H47.5a2.561,2.561,0,0,1-2.418-1.577l-.175,1.6a2.558,2.558,0,0,0,2.594,2.9H100a2.558,2.558,0,0,0,2.6-2.9Z" transform="translate(-44.887 -413.603)" fill="#bf0442"/><path d="M193.989,11.667a11.668,11.668,0,0,0-23.335,0V24.746h0c0,.015,0,.03,0,.046a1.458,1.458,0,1,0,2.916,0,.313.313,0,0,0,0-.046h0V11.667a8.751,8.751,0,0,1,17.5,0V24.746h0a.314.314,0,0,0,0,.046,1.459,1.459,0,0,0,2.918,0,.33.33,0,0,0,0-.046h0V11.667Z" transform="translate(-153.459 0)" fill="#434a54"/><path d="M178.577,250.655a7.637,7.637,0,0,0-5.47,2.3,7.655,7.655,0,0,0-13.125,5.355c0,8.75,13.125,16.406,13.125,16.406s13.126-7.656,13.126-16.406A7.656,7.656,0,0,0,178.577,250.655Z" transform="translate(-144.246 -216.385)" fill="#f5f7fa"/><g transform="translate(27.404 34.27)" opacity="0.1"><path d="M252.25,250.655a7.709,7.709,0,0,0-1.457.141,7.658,7.658,0,0,1,6.2,7.514c0,6.938-8.249,13.187-11.667,15.479.893.6,1.457.927,1.457.927s13.126-7.656,13.126-16.406A7.656,7.656,0,0,0,252.25,250.655Z" transform="translate(-245.323 -250.655)"/></g></svg>