<svg xmlns="http://www.w3.org/2000/svg" width="40.835" height="70" viewBox="0 0 40.835 70"><g transform="translate(-106.658)"><path d="M246.785,70a1.457,1.457,0,0,1-1.459-1.457V1.457a1.458,1.458,0,0,1,2.916,0V68.541A1.456,1.456,0,0,1,246.785,70Z" transform="translate(-119.709)" fill="#434a54"/><g transform="translate(108.116 55.415)"><path d="M118.784,419.894a1.46,1.46,0,0,1-.81-2.673l17.5-11.668a1.458,1.458,0,1,1,1.617,2.427l-17.5,11.668A1.461,1.461,0,0,1,118.784,419.894Z" transform="translate(-117.325 -405.309)" fill="#656d78"/><path d="M264.28,419.9a1.46,1.46,0,0,1-.807-.246l-17.5-11.668a1.458,1.458,0,0,1,1.617-2.427l17.5,11.668a1.459,1.459,0,0,1-.807,2.673Z" transform="translate(-227.822 -405.31)" fill="#656d78"/></g><path d="M153.787,65.989h-35a1.458,1.458,0,0,1-1.459-1.459V44.114a1.458,1.458,0,0,1,1.459-1.459h35a1.459,1.459,0,0,1,1.457,1.459V64.53A1.459,1.459,0,0,1,153.787,65.989Z" transform="translate(-9.212 -36.823)" fill="#ed5564"/><path d="M177.035,10.656c-.137,0-3.4,0-6.725.374-2.316.259-4.852.681-6.4,1.664-1.549-.983-4.084-1.406-6.4-1.664-3.324-.37-6.586-.374-6.723-.374a1.458,1.458,0,0,0-1.459,1.459V32.531a1.458,1.458,0,0,0,1.457,1.459c.028,0,2.749,0,5.642.278,4.6.436,5.789,1.168,6.039,1.378a.52.52,0,0,0,.011.056.567.567,0,0,0,.011.058l.019.081a.38.38,0,0,1,.015.053l.032.083c.006.015.011.03.017.045.017.038.036.079.056.117a.049.049,0,0,1,.006.011c.021.036.043.073.066.109.008.013.019.026.028.038a.817.817,0,0,0,.053.068c.011.015.024.028.034.043s.036.038.053.058.028.028.043.041.036.034.058.051l.045.038.062.045.049.032c.021.015.043.028.064.041s.034.019.053.028a.662.662,0,0,0,.068.034.452.452,0,0,0,.055.024c.024.011.049.019.073.028a.549.549,0,0,0,.056.017c.028.008.053.015.081.021l.053.013c.03.006.062.011.094.015l.045.006c.049,0,.1.006.145.006s.094,0,.143-.006l.045-.006c.032,0,.064-.008.094-.015l.053-.013c.028-.006.053-.013.081-.021a.526.526,0,0,0,.056-.017c.024-.008.049-.017.073-.028a.424.424,0,0,0,.056-.024.663.663,0,0,0,.068-.034c.019-.008.036-.019.053-.028s.043-.026.064-.041l.049-.032.062-.045.045-.038c.021-.017.038-.034.058-.051s.028-.026.043-.041.034-.038.053-.058.024-.028.034-.043a.82.82,0,0,0,.053-.068c.008-.013.019-.026.028-.038.024-.036.045-.073.066-.109a.049.049,0,0,1,.006-.011c.019-.038.038-.079.056-.117.006-.015.011-.03.017-.045l.032-.083a.378.378,0,0,1,.015-.053c.006-.028.015-.053.019-.081a.571.571,0,0,0,.011-.058.53.53,0,0,0,.011-.056c.25-.209,1.439-.942,6.04-1.378,2.893-.273,5.614-.278,5.64-.278a1.459,1.459,0,0,0,1.457-1.459V12.115A1.459,1.459,0,0,0,177.035,10.656Z" transform="translate(-36.835 -9.199)" fill="#e6e9ed"/><path d="M248.242,20.547a7.238,7.238,0,0,0-1.457.686,7.328,7.328,0,0,0-1.459-.686V44.174a.056.056,0,0,0,.013.011.52.52,0,0,0,.011.056.571.571,0,0,0,.011.058l.019.081a.38.38,0,0,1,.015.053l.032.083c.006.015.011.03.017.045.017.038.036.079.055.117a.049.049,0,0,1,.006.011c.021.036.043.073.066.109.008.013.019.026.028.038a.816.816,0,0,0,.053.068c.011.015.024.028.034.043s.036.038.053.058.028.028.043.041.036.034.058.051l.045.038.062.045.049.032c.021.015.043.028.064.041s.034.019.053.028a.663.663,0,0,0,.068.034.451.451,0,0,0,.055.024c.024.011.049.019.073.028a.549.549,0,0,0,.056.017c.028.008.053.015.081.021l.053.013c.03.006.062.011.094.015l.045.006c.049,0,.1.006.145.006s.094,0,.143-.006l.045-.006c.032,0,.064-.008.094-.015l.053-.013c.028-.006.053-.013.081-.021a.528.528,0,0,0,.056-.017c.024-.008.049-.017.073-.028a.423.423,0,0,0,.055-.024.663.663,0,0,0,.068-.034c.019-.008.036-.019.053-.028s.043-.026.064-.041l.049-.032.062-.045.045-.038c.021-.017.038-.034.058-.051s.028-.026.043-.041.034-.038.053-.058.024-.028.034-.043a.816.816,0,0,0,.053-.068c.008-.013.019-.026.028-.038.024-.036.045-.073.066-.109a.049.049,0,0,1,.006-.011c.019-.038.038-.079.056-.117.006-.015.011-.03.017-.045l.032-.083a.382.382,0,0,1,.015-.053c.006-.028.015-.053.019-.081a.563.563,0,0,0,.011-.058.538.538,0,0,0,.011-.056.063.063,0,0,0,.013-.011V20.547Z" transform="translate(-119.709 -17.738)" fill="#ccd1d9"/><path d="M146.032,194.9H108.117a1.459,1.459,0,0,1,0-2.918h37.915a1.459,1.459,0,1,1,0,2.918Z" transform="translate(0 -165.731)" fill="#656d78"/></g></svg>