<svg xmlns="http://www.w3.org/2000/svg" width="69.995" height="70" viewBox="0 0 69.995 70"><g transform="translate(-0.439 0)"><g transform="translate(56.466 0.39)"><path d="M455.225,85.07a.551.551,0,0,1-.78,0L452.973,83.6a.551.551,0,1,1,.78-.78l1.473,1.473A.551.551,0,0,1,455.225,85.07Zm0,0" transform="translate(-446.489 -71.653)" fill="#545c66"/><path d="M472.883,68.781a.553.553,0,0,1-.78,0l-1.364-1.366a.551.551,0,1,1,.78-.78L472.883,68A.552.552,0,0,1,472.883,68.781Zm0,0" transform="translate(-461.807 -57.703)" fill="#545c66"/><path d="M490.584,52.548a.553.553,0,0,1-.781,0L488.556,51.3a.551.551,0,0,1,.779-.781l1.249,1.249A.55.55,0,0,1,490.584,52.548Zm0,0" transform="translate(-477.167 -43.808)" fill="#545c66"/><path d="M409.36,39.208a.551.551,0,0,1-.78,0L407.1,37.725a.551.551,0,1,1,.78-.78l1.482,1.482A.55.55,0,0,1,409.36,39.208Zm0,0" transform="translate(-406.938 -32.105)" fill="#545c66"/><path d="M426.213,22.113a.552.552,0,0,1-.78,0l-1.363-1.365a.551.551,0,0,1,.78-.78l1.363,1.365A.552.552,0,0,1,426.213,22.113Zm0,0" transform="translate(-421.569 -17.468)" fill="#545c66"/><path d="M443.069,5.02a.551.551,0,0,1-.78,0l-1.246-1.246a.551.551,0,1,1,.78-.78l1.246,1.246A.551.551,0,0,1,443.069,5.02Zm0,0" transform="translate(-436.203 -2.833)" fill="#545c66"/></g><path d="M462.4,91.461l-.782.78a.551.551,0,0,1-.78-.78l.783-.781a.551.551,0,0,1,.779.781Zm0,0" transform="translate(-396.802 -78.043)" fill="#656d78"/><path d="M479.378,74.5l-.779.778a.551.551,0,0,1-.78-.779l.779-.779a.551.551,0,0,1,.78.78Zm0,0" transform="translate(-411.446 -63.42)" fill="#656d78"/><path d="M496.341,57.531l-.78.78a.552.552,0,0,1-.781-.78l.78-.78a.552.552,0,0,1,.781.78Zm0,0" transform="translate(-426.069 -48.79)" fill="#656d78"/><path d="M175.557,280.087a4.382,4.382,0,0,0-1.146-1.973,4.458,4.458,0,1,0,1.146,1.973Zm0,0" transform="translate(-143.436 -238.656)" fill="#656d78"/><path d="M235.284,14.8a.258.258,0,0,1,.024-.024,1.979,1.979,0,0,0,.365-2.7l1.5-1.662L239.4,7.956,241.622,5.5,243.1,3.863s1.169-.39,3.509,1.952,1.951,3.508,1.951,3.508l-1.637,1.483-2.457,2.219-4.118,3.728a1.979,1.979,0,0,0-2.7.366l-.024.023L216.642,38.9,210.8,44.74a4.382,4.382,0,0,0-1.146-1.973,4.433,4.433,0,0,0-1.973-1.146l5.839-5.839Zm0,0" transform="translate(-178.681 -3.31)" fill="#965353"/><path d="M32.151,227.574c4.226-9.358,17.5-8.351,6.59-19.267l-.78-.78-5.84,5.838A4.455,4.455,0,1,1,29,210.248l5.839-5.839-.779-.78c-10.916-10.915-9.9,2.369-19.266,6.59s-22.8,9.042-7.242,24.6S27.935,236.937,32.151,227.574Zm0,0" transform="translate(0 -171.936)" fill="#ffd2a6"/><g transform="translate(17.138 2.712)"><path d="M458.915,20.617a.554.554,0,0,1-.784,0,.545.545,0,0,1,0-.775l.008-.008a.552.552,0,0,1,.781.78Zm0,0" transform="translate(-411.606 -19.676)" fill="#e6e9ed"/><path d="M441.94,37.588a.555.555,0,0,1-.783,0,.546.546,0,0,1-.005-.774l.009-.009a.551.551,0,0,1,.78.78Zm0,0" transform="translate(-396.973 -34.308)" fill="#e6e9ed"/><path d="M424.968,54.567a.556.556,0,0,1-.784,0,.548.548,0,0,1,0-.775l.009-.009a.551.551,0,0,1,.779.78Zm0,0" transform="translate(-382.339 -48.948)" fill="#e6e9ed"/><path d="M481.544,43.244a.556.556,0,0,1-.784,0,.546.546,0,0,1,0-.774l.009-.009a.551.551,0,1,1,.78.78Zm0,0" transform="translate(-431.117 -39.185)" fill="#e6e9ed"/><path d="M464.574,60.225a.557.557,0,0,1-.784,0,.546.546,0,0,1,0-.775l.009-.009a.552.552,0,0,1,.78.781Zm0,0" transform="translate(-416.486 -53.824)" fill="#e6e9ed"/><path d="M447.6,77.2a.556.556,0,0,1-.783,0,.548.548,0,0,1-.005-.775l.009-.008a.551.551,0,1,1,.78.78Zm0,0" transform="translate(-401.856 -68.463)" fill="#e6e9ed"/><path d="M170.446,32.069,135.829,66.685l-6.3,6.3-6.985,6.985a.552.552,0,0,1-.781-.78l47.9-47.9a.551.551,0,0,1,.78.78Zm0,0" transform="translate(-121.602 -29.549)" fill="#e6e9ed"/></g><path d="M405.826,34.893l-.78.781a.552.552,0,1,1-.78-.781l.78-.78a.551.551,0,0,1,.78.78Zm0,0" transform="translate(-348.03 -29.273)" fill="#656d78"/><path d="M422.8,17.916l-.78.78a.552.552,0,0,1-.781-.78l.781-.78a.551.551,0,0,1,.78.78Zm0,0" transform="translate(-362.661 -14.636)" fill="#656d78"/><path d="M439.77.942l-.78.78a.551.551,0,0,1-.78-.78l.78-.781a.552.552,0,0,1,.78.781Zm0,0" transform="translate(-377.296 0)" fill="#656d78"/><path d="M102.988,371.387l1.557,3.116,3.119,1.56Zm0,0" transform="translate(-88.415 -320.199)" fill="#965353"/><path d="M97.962,353.48a.553.553,0,0,1,0,.78l-.78.781a.554.554,0,0,1-.78,0l-8.577-8.577a.554.554,0,0,1,0-.78l.78-.78a.551.551,0,0,1,.78,0Zm0,0" transform="translate(-75.204 -297.227)" fill="#965353"/></g></svg>