<svg xmlns="http://www.w3.org/2000/svg" width="80.003" height="80" viewBox="0 0 80.003 80"><g transform="translate(0 -0.012)"><path d="M362.233.02c-1.786,0-10.763,1.79-18.407,9.437a35.009,35.009,0,0,0-4.568,5.638c-.338.519-.664,1.046-.973,1.591a37.412,37.412,0,0,0-2.554,5.381H337.1a35.964,35.964,0,0,1,2.279-4.753c.3-.528.613-1.033.936-1.53,7.714-11.828,19.983-14.5,21.92-14.5a.63.63,0,1,0,0-1.26Zm0,0" transform="translate(-282.86 -0.007)" fill="#434a54"/><path d="M58.455,85.657l-1.435-.346L42.178,81.674a7.448,7.448,0,0,0-6.333,1.773L1.1,118.19a3.788,3.788,0,0,0,0,5.345L13.129,135.56l12.025,12.026a3.79,3.79,0,0,0,5.346,0l34.742-34.743a7.445,7.445,0,0,0,1.773-6.333L63.38,91.669l-.345-1.435a7.034,7.034,0,0,0-4.58-4.577Zm-5.46,12.712a1.891,1.891,0,1,1,0-2.676A1.886,1.886,0,0,1,52.994,98.368Zm0,0" transform="translate(0 -68.678)" fill="#9357cf"/><path d="M307.557,153.284a4.409,4.409,0,1,0,0,6.236A4.406,4.406,0,0,0,307.557,153.284Zm-4.455,4.454a1.891,1.891,0,1,1,2.676,0A1.888,1.888,0,0,1,303.1,157.738Zm0,0" transform="translate(-252.782 -128.047)" fill="#7f4bb3"/><g transform="translate(18.271 36.544)"><path d="M125.7,241.669a5.67,5.67,0,1,1-4.014-9.677,5.69,5.69,0,0,1,5.672,5.672A5.63,5.63,0,0,1,125.7,241.669Zm-7.13-7.127a4.407,4.407,0,0,0,3.122,7.526,4.509,4.509,0,0,0,4.406-4.4,4.427,4.427,0,0,0-4.413-4.413A4.378,4.378,0,0,0,118.568,234.543Zm0,0" transform="translate(-116.019 -231.992)" fill="#f5f7fa"/><path d="M213.712,329.7a5.665,5.665,0,1,1,1.659-4A5.631,5.631,0,0,1,213.712,329.7Zm-7.128-7.128a4.41,4.41,0,0,0,3.126,7.528,4.516,4.516,0,0,0,4.4-4.4,4.412,4.412,0,0,0-7.529-3.123Zm0,0" transform="translate(-190.174 -306.157)" fill="#f5f7fa"/><path d="M141.03,233.075l-23.937,23.937a.63.63,0,0,1-.891-.89l23.937-23.937a.63.63,0,1,1,.891.89Zm0,0" transform="translate(-116.019 -231.999)" fill="#f5f7fa"/></g><path d="M343.51,19.05a35.035,35.035,0,0,1-5.638,4.567c-.519.338-1.046.665-1.591.974a39.85,39.85,0,0,1-11.553,4.388.63.63,0,1,1-.267-1.231A38.515,38.515,0,0,0,335.654,23.5c.527-.3,1.032-.612,1.529-.936,11.826-7.714,14.5-19.984,14.5-21.92a.63.63,0,0,1,1.26,0C352.946,2.428,351.156,11.4,343.51,19.05Zm0,0" transform="translate(-272.945)" fill="#656d78"/></g></svg>