<svg xmlns="http://www.w3.org/2000/svg" width="66.613" height="70" viewBox="0 0 66.613 70"><path d="M19.992,264h60.97v6.774H19.992Zm0,0" transform="translate(-17.171 -226.742)" fill="#545c66"/><path d="M111.984,264H64v1.694a.566.566,0,0,0,.565.565h47.419a.566.566,0,0,0,.565-.565V264Zm0,0" transform="translate(-54.968 -226.742)" fill="#e6e9ed"/><path d="M348.063,52.627a.564.564,0,0,1-.511-.326L338.2,32.273a.565.565,0,1,1,1.023-.479l9.346,20.027a.566.566,0,0,1-.272.752A.557.557,0,0,1,348.063,52.627Zm0,0" transform="translate(-290.428 -27.028)" fill="#353b44"/><path d="M156.984,136C146.258,136,144,138.258,144,138.258l1.129,3.387v1.129h23.71v-1.129l1.129-3.387S167.71,136,156.984,136Zm0,0" transform="translate(-123.677 -116.806)" fill="#353b44"/><path d="M28,176H86.71v12.419H28Zm0,0" transform="translate(-24.048 -151.161)" fill="#434a54"/><path d="M446.258,292.79a.566.566,0,0,1-.565.565h-1.129a.566.566,0,0,1-.565-.565V264.565a.566.566,0,0,1,.565-.565h1.129a.566.566,0,0,1,.565.565Zm0,0" transform="translate(-381.339 -226.742)" fill="#656d78"/><path d="M14.258,292.79a.566.566,0,0,1-.565.565H12.565A.566.566,0,0,1,12,292.79V264.565a.566.566,0,0,1,.565-.565h1.129a.566.566,0,0,1,.565.565Zm0,0" transform="translate(-10.306 -226.742)" fill="#656d78"/><path d="M210.161,209.129c0-.624-2.275-1.129-5.081-1.129s-5.081.506-5.081,1.129,2.275,1.129,5.081,1.129S210.161,209.753,210.161,209.129Zm0,0" transform="translate(-171.774 -178.645)" fill="#e6e9ed"/><path d="M82.194,2.258,28,24.839V22.581L82.194,0Zm0,0" transform="translate(-24.048)" fill="#434a54"/><path d="M201.548,427.952a.566.566,0,0,1-.565.565H188.565a.566.566,0,0,1-.565-.565v-3.387a.566.566,0,0,1,.565-.565h12.419a.566.566,0,0,1,.565.565Zm0,0" transform="translate(-161.468 -364.161)" fill="#545c66"/><g transform="translate(29.355 44.032)"><path d="M208,312h2.258v15.806H208Zm0,0" transform="translate(-208 -312)" fill="#434a54"/><path d="M248,312h2.258v15.806H248Zm0,0" transform="translate(-242.355 -312)" fill="#434a54"/><path d="M248,312h2.258v15.806H248Zm0,0" transform="translate(-242.355 -312)" fill="#434a54"/><path d="M208,312h2.258v15.806H208Zm0,0" transform="translate(-208 -312)" fill="#434a54"/></g><path d="M201.129,441.129A1.128,1.128,0,0,0,202.258,440H200A1.128,1.128,0,0,0,201.129,441.129Zm0,0" transform="translate(-171.774 -377.903)" fill="#ffce54"/><path d="M229.129,441.129A1.128,1.128,0,0,0,230.258,440H228A1.128,1.128,0,0,0,229.129,441.129Zm0,0" transform="translate(-195.823 -377.903)" fill="#ffce54"/><path d="M257.129,441.129A1.128,1.128,0,0,0,258.258,440H256A1.128,1.128,0,0,0,257.129,441.129Zm0,0" transform="translate(-219.871 -377.903)" fill="#ffce54"/><path d="M3.387,473.694A1.694,1.694,0,1,1,1.694,472,1.693,1.693,0,0,1,3.387,473.694Zm0,0" transform="translate(0 -405.387)" fill="#e6e9ed"/><path d="M451.387,473.694A1.694,1.694,0,1,1,449.694,472,1.693,1.693,0,0,1,451.387,473.694Zm0,0" transform="translate(-384.774 -405.387)" fill="#e6e9ed"/><g transform="translate(10.161 37.258)"><path d="M392.565,264.565a.566.566,0,0,0,.565-.565H392A.566.566,0,0,0,392.565,264.565Zm0,0" transform="translate(-346.839 -264)" fill="#ccd1d9"/><path d="M376.565,264.565a.566.566,0,0,0,.565-.565H376A.566.566,0,0,0,376.565,264.565Zm0,0" transform="translate(-333.097 -264)" fill="#ccd1d9"/><path d="M360.565,264.565a.566.566,0,0,0,.565-.565H360A.566.566,0,0,0,360.565,264.565Zm0,0" transform="translate(-319.355 -264)" fill="#ccd1d9"/><path d="M344.565,264.565a.566.566,0,0,0,.565-.565H344A.566.566,0,0,0,344.565,264.565Zm0,0" transform="translate(-305.613 -264)" fill="#ccd1d9"/><path d="M328.565,264.565a.566.566,0,0,0,.565-.565H328A.566.566,0,0,0,328.565,264.565Zm0,0" transform="translate(-291.871 -264)" fill="#ccd1d9"/><path d="M312.565,264.565a.566.566,0,0,0,.565-.565H312A.566.566,0,0,0,312.565,264.565Zm0,0" transform="translate(-278.129 -264)" fill="#ccd1d9"/><path d="M296.565,264.565a.566.566,0,0,0,.565-.565H296A.566.566,0,0,0,296.565,264.565Zm0,0" transform="translate(-264.387 -264)" fill="#ccd1d9"/><path d="M280.565,264.565a.566.566,0,0,0,.565-.565H280A.566.566,0,0,0,280.565,264.565Zm0,0" transform="translate(-250.645 -264)" fill="#ccd1d9"/><path d="M264.565,264.565a.566.566,0,0,0,.565-.565H264A.566.566,0,0,0,264.565,264.565Zm0,0" transform="translate(-236.903 -264)" fill="#ccd1d9"/><path d="M248.565,264.565a.566.566,0,0,0,.565-.565H248A.566.566,0,0,0,248.565,264.565Zm0,0" transform="translate(-223.161 -264)" fill="#ccd1d9"/><path d="M232.565,264.565a.566.566,0,0,0,.565-.565H232A.566.566,0,0,0,232.565,264.565Zm0,0" transform="translate(-209.419 -264)" fill="#ccd1d9"/><path d="M216.565,264.565a.566.566,0,0,0,.565-.565H216A.566.566,0,0,0,216.565,264.565Zm0,0" transform="translate(-195.677 -264)" fill="#ccd1d9"/><path d="M200.565,264.565a.566.566,0,0,0,.565-.565H200A.566.566,0,0,0,200.565,264.565Zm0,0" transform="translate(-181.935 -264)" fill="#ccd1d9"/><path d="M184.565,264.565a.566.566,0,0,0,.565-.565H184A.566.566,0,0,0,184.565,264.565Zm0,0" transform="translate(-168.194 -264)" fill="#ccd1d9"/><path d="M168.565,264.565a.566.566,0,0,0,.565-.565H168A.566.566,0,0,0,168.565,264.565Zm0,0" transform="translate(-154.452 -264)" fill="#ccd1d9"/><path d="M152.565,264.565a.566.566,0,0,0,.565-.565H152A.566.566,0,0,0,152.565,264.565Zm0,0" transform="translate(-140.71 -264)" fill="#ccd1d9"/><path d="M136.565,264.565a.566.566,0,0,0,.565-.565H136A.566.566,0,0,0,136.565,264.565Zm0,0" transform="translate(-126.968 -264)" fill="#ccd1d9"/><path d="M120.565,264.565a.566.566,0,0,0,.565-.565H120A.566.566,0,0,0,120.565,264.565Zm0,0" transform="translate(-113.226 -264)" fill="#ccd1d9"/><path d="M104.565,264.565a.566.566,0,0,0,.565-.565H104A.566.566,0,0,0,104.565,264.565Zm0,0" transform="translate(-99.484 -264)" fill="#ccd1d9"/><path d="M88.565,264.565a.566.566,0,0,0,.565-.565H88A.566.566,0,0,0,88.565,264.565Zm0,0" transform="translate(-85.742 -264)" fill="#ccd1d9"/><path d="M72.565,264.565a.566.566,0,0,0,.565-.565H72A.566.566,0,0,0,72.565,264.565Zm0,0" transform="translate(-72 -264)" fill="#ccd1d9"/></g></svg>