<svg xmlns="http://www.w3.org/2000/svg" width="13.962" height="24" viewBox="0 0 13.962 24"><g transform="translate(-107.066)"><g transform="translate(107.066 0)"><g transform="translate(0 0)"><path d="M121.028,15.333a15.915,15.915,0,0,0-1.066-4.632c-.715-1.748,0-4.7,0-4.7h-1.126L120.556.653A.5.5,0,1,0,119.6.347h0v0a.011.011,0,0,1,0,0L117.787,6H114.53a4,4,0,0,0-7.464,2h4.423a6.376,6.376,0,0,1-.293,2.7,15.936,15.936,0,0,0-1.065,4.632c0,3.041,2.174,4.5,4.949,4.653V23h-2.5a.5.5,0,1,0,0,1h6a.5.5,0,1,0,0-1h-2.5V19.986C118.855,19.832,121.028,18.375,121.028,15.333ZM108.238,7a3,3,0,0,1,.385-.736l.736.736Zm2.328-.207-1.235-1.234a2.989,2.989,0,0,1,1.235-.511Zm7.949.21h.253c-.025.188-.049.39-.069.6a7.648,7.648,0,0,0,.308,3.4h-1.778ZM115.58,7h1.885l-1.286,4h-4.026a7.649,7.649,0,0,0,.308-3.4c-.02-.212-.044-.415-.07-.6h3.189Zm-4.014-1.955a2.982,2.982,0,0,1,1.234.511L112.356,6h-.79ZM115.58,19a5.259,5.259,0,0,1-3.241-.916,3.28,3.28,0,0,1-1.209-2.751A13.579,13.579,0,0,1,111.8,12h7.563a13.579,13.579,0,0,1,.667,3.333,3.28,3.28,0,0,1-1.209,2.751A5.26,5.26,0,0,1,115.58,19Z" transform="translate(-107.066 0)" fill="#fff"/></g></g><g transform="translate(118.58 16)"><g transform="translate(0)"><path d="M353.192,341.331a.5.5,0,1,0,.5.5A.5.5,0,0,0,353.192,341.331Z" transform="translate(-352.692 -341.331)" fill="#fff"/></g></g><g transform="translate(117.569 14)"><g transform="translate(0)"><path d="M331.63,298.659a.5.5,0,1,0,.5.5A.5.5,0,0,0,331.63,298.659Z" transform="translate(-331.13 -298.659)" fill="#fff"/></g></g></g></svg>