<svg xmlns="http://www.w3.org/2000/svg" width="33.596" height="30" viewBox="0 0 33.596 30"><g transform="translate(-184.001 -0.5)"><path d="M214.852,3.235a9.337,9.337,0,0,1,0,13.225l-.816.817L200.8,30.5,187.565,17.276l-.829-.816A9.355,9.355,0,1,1,199.971,3.235l.829.83.828-.829A9.358,9.358,0,0,1,214.852,3.235Zm0,0" fill="#ed5565"/><path d="M296.452,3.278A9.346,9.346,0,0,0,287.44.863a9.335,9.335,0,0,1,4.212,15.64l-.816.817L280,28.145l2.4,2.4,13.235-13.224.816-.817A9.336,9.336,0,0,0,296.452,3.278Zm0,0" transform="translate(-81.599 -0.042)" fill="#da4453"/></g></svg>