<svg xmlns="http://www.w3.org/2000/svg" width="80.001" height="80" viewBox="0 0 80.001 80"><g transform="translate(0 -0.004)"><path d="M21.218,11.791,19.8,17.922l-1.956,1.954-6.06,1.346L0,9.434,9.431,0Z" fill="#e6e9ed"/><path d="M34.066,31.711,14.81,12.454a1.667,1.667,0,0,0-2.359,2.357L31.707,34.068a1.667,1.667,0,0,0,2.359-2.357Z" transform="translate(-10.094 -10.093)" fill="#ffce54"/><path d="M155.361,99.594a18.159,18.159,0,0,0-13.008,5.468A18.208,18.208,0,0,0,111.137,117.8c0,20.813,31.216,39.021,31.216,39.021s31.218-18.208,31.218-39.021A18.211,18.211,0,0,0,155.361,99.594Z" transform="translate(-93.771 -84.028)" fill="#ed5564"/><g transform="translate(46.917 15.565)" opacity="0.2"><path d="M314.928,99.594c-.562,0-1.118.027-1.665.077A18.21,18.21,0,0,1,329.8,117.8c0,17.9-23.081,33.867-29.548,37.991,1.052.674,1.665,1.03,1.665,1.03s31.218-18.208,31.218-39.021A18.211,18.211,0,0,0,314.928,99.594Z" transform="translate(-300.255 -99.594)" fill="#fff"/></g><path d="M369.181,370.848a1.664,1.664,0,0,1-1.179-.488l-15.435-15.432a1.668,1.668,0,0,1,2.359-2.359L370.358,368a1.666,1.666,0,0,1-1.177,2.844Z" transform="translate(-297.064 -297.062)" fill="#ffce54"/><path d="M444.518,435.4a14.982,14.982,0,0,0-9.1,2.81,4.456,4.456,0,0,0,0,6.292,7.194,7.194,0,0,0,5.269,1.765h0a17.228,17.228,0,0,0,3.923-.488l.94-.249.247-.94a17.261,17.261,0,0,0,.476-3.3C446.384,438.658,445.8,436.679,444.518,435.4Z" transform="translate(-366.283 -366.264)" fill="#ed5564"/></g></svg>