<svg xmlns="http://www.w3.org/2000/svg" width="32" height="24" viewBox="0 0 32 24"><g transform="translate(0 -63.996)"><g transform="translate(0 63.996)"><path d="M23.523,68.111l1.811-1.449L24,64H20l-1.333,2.667,1.811,1.449A9.947,9.947,0,0,0,16,70a10,10,0,1,0,0,16,10,10,0,1,0,7.523-17.885Zm-3.182-1.816.482-.965h2.352l.483.965L22,67.622ZM13.373,85.982A8.673,8.673,0,1,1,14.964,70.89q-.24.238-.464.492a7.984,7.984,0,1,0,2.871,3.5,8.036,8.036,0,0,0-.555-1.077,6.809,6.809,0,0,1,.462-.515,8.674,8.674,0,0,1-3.9,12.692Zm.312-13.543a10,10,0,0,0,0,11.112,6.666,6.666,0,1,1,0-11.112ZM15.333,78A6.643,6.643,0,0,1,16,75.088,6.672,6.672,0,0,1,16,80.9,6.639,6.639,0,0,1,15.333,78Zm2.981-5.556a6.666,6.666,0,1,1,0,11.112,10,10,0,0,0,0-11.112Zm9.815,11.685a8.656,8.656,0,0,1-11.093.977q.24-.237.464-.492a8.009,8.009,0,0,0,7.615.758,8.006,8.006,0,1,0-9.931-3.18,6.705,6.705,0,0,1-.462.515,8.665,8.665,0,1,1,15.264-1.333A8.664,8.664,0,0,1,28.128,84.125Z" transform="translate(0 -63.996)" fill="#fff"/></g></g></svg>