<svg height="504pt" viewBox="0 0 504 504" width="504pt" xmlns="http://www.w3.org/2000/svg"><path d="m200 312c-4.425781 0-8-3.574219-8-8v-16c0-4.425781 3.574219-8 8-8s8 3.574219 8 8v16c0 4.425781-3.574219 8-8 8zm0 0" fill="#f6bb42"/><path d="m240 460.71875 32 43.28125h-136l32-43.679688c10.160156 2.398438 20.878906 3.679688 32 3.679688 14.558594 0 27.761719-1.199219 40-3.28125zm0 0" fill="#f6bb42"/><path d="m52 400h38.640625c2.71875 8.398438 7.4375 16.480469 13.917969 24-18.488282 0-41.597656 0-52.558594 0-28.71875 0-52-23.28125-52-52s23.28125-52 52-52c27.839844 0 35.921875 24.078125 52.558594 24-5.839844 6.800781-10.238282 14.078125-13.125 21.601562-8.875-2.882812-15.679688-8.402343-21.121094-12.722656-7.433594-6-11.351562-8.878906-18.3125-8.878906-15.441406 0-28 12.558594-28 28s12.558594 28 28 28zm0 0" fill="#f6bb42"/><path d="m448 344c-48 0-127.839844 28.960938-148.960938 8-2.160156-2.878906-4.558593-5.679688-7.191406-8.398438-20.167968-21.441406-53.769531-39.601562-91.847656-39.601562-40.398438 0-75.761719 17.039062-95.441406 40-5.839844 6.800781-10.238282 14.078125-13.125 21.601562-2.234375 6-3.441406 12.238282-3.441406 18.398438 0 5.359375.878906 10.71875 2.640624 16 2.71875 8.398438 7.4375 16.480469 13.917969 24 14.234375 16.640625 36.722657 30.160156 63.441407 36.320312 10.160156 2.398438 20.878906 3.679688 32 3.679688 14.558593 0 27.761718-1.199219 40-3.28125 89.039062-15.117188 126.558593-78.640625 232-92.71875v-8zm0 0" fill="#ffce54"/><path d="m299.039062 352c-2.160156-2.878906-4.558593-5.679688-7.191406-8.398438-2.441406-2.59375-5.09375-5.136718-7.902344-7.601562l-171.570312-.015625c-2.816406 2.574219-5.429688 5.246094-7.808594 8.015625-2.222656 2.59375-4.167968 5.265625-5.972656 7.984375zm0 0" fill="#f6bb42"/><path d="m472 288c-74.992188 0-136-61.007812-136-136 0-48.519531 39.480469-88 88-88 4.425781 0 8-3.574219 8-8 0-4-2.984375-7.167969-6.824219-7.769531.191407 0 .390625-.03125.585938-.03125l-241.761719-48.199219c-4.425781 0-8 3.574219-8 8 0 163.214844 132.785156 296 296 296 8.824219 0 16 7.175781 16 16 0 4.414062-3.585938 8-8 8-4.425781 0-8 3.574219-8 8s3.574219 8 8 8c13.230469 0 24-10.769531 24-24 0-17.648438-14.351562-32-32-32zm0 0" fill="#ac92ec"/><g fill="#967adc"><path d="m232.238281 160c-4.421875 0-8.039062-3.574219-8.039062-8s3.535156-8 7.953125-8h.085937c4.417969 0 8 3.574219 8 8s-3.582031 8-8 8zm0 0"/><path d="m264.238281 192c-4.421875 0-8.039062-3.574219-8.039062-8s3.535156-8 7.953125-8h.085937c4.417969 0 8 3.574219 8 8s-3.582031 8-8 8zm0 0"/><path d="m296.238281 224c-4.421875 0-8.039062-3.574219-8.039062-8s3.535156-8 7.953125-8h.085937c4.417969 0 8 3.574219 8 8s-3.582031 8-8 8zm0 0"/><path d="m328.238281 256c-4.421875 0-8.039062-3.574219-8.039062-8s3.535156-8 7.953125-8h.085937c4.417969 0 8 3.574219 8 8s-3.582031 8-8 8zm0 0"/><path d="m200.238281 64c-4.421875 0-8.039062-3.574219-8.039062-8s3.535156-8 7.953125-8h.085937c4.417969 0 8 3.574219 8 8s-3.582031 8-8 8zm0 0"/><path d="m232.238281 96c-4.421875 0-8.039062-3.574219-8.039062-8s3.535156-8 7.953125-8h.085937c4.417969 0 8 3.574219 8 8s-3.582031 8-8 8zm0 0"/><path d="m264.238281 128c-4.421875 0-8.039062-3.574219-8.039062-8s3.535156-8 7.953125-8h.085937c4.417969 0 8 3.574219 8 8s-3.582031 8-8 8zm0 0"/><path d="m296.238281 160c-4.421875 0-8.039062-3.574219-8.039062-8s3.535156-8 7.953125-8h.085937c4.417969 0 8 3.574219 8 8s-3.582031 8-8 8zm0 0"/><path d="m328.238281 192c-4.421875 0-8.039062-3.574219-8.039062-8s3.535156-8 7.953125-8h.085937c4.417969 0 8 3.574219 8 8s-3.582031 8-8 8zm0 0"/><path d="m232.238281 32c-4.421875 0-8.039062-3.574219-8.039062-8s3.535156-8 7.953125-8h.085937c4.417969 0 8 3.574219 8 8s-3.582031 8-8 8zm0 0"/><path d="m264.238281 64c-4.421875 0-8.039062-3.574219-8.039062-8s3.535156-8 7.953125-8h.085937c4.417969 0 8 3.574219 8 8s-3.582031 8-8 8zm0 0"/><path d="m296.238281 96c-4.421875 0-8.039062-3.574219-8.039062-8s3.535156-8 7.953125-8h.085937c4.417969 0 8 3.574219 8 8s-3.582031 8-8 8zm0 0"/><path d="m328.238281 128c-4.421875 0-8.039062-3.574219-8.039062-8s3.535156-8 7.953125-8h.085937c4.417969 0 8 3.574219 8 8s-3.582031 8-8 8zm0 0"/><path d="m328.238281 64c-4.421875 0-8.039062-3.574219-8.039062-8s3.535156-8 7.953125-8h.085937c4.417969 0 8 3.574219 8 8s-3.582031 8-8 8zm0 0"/></g><path d="m200 248c13.320312 0 24 10.679688 24 24 0 13.199219-10.679688 24-24 24-13.199219 0-24-10.800781-24-24 0-13.320312 10.800781-24 24-24zm0 0" fill="#ffce54"/></svg>