<?xml version="1.0" encoding="iso-8859-1"?>
<!-- Generator: Adobe Illustrator 19.0.0, SVG Export Plug-In . SVG Version: 6.00 Build 0)  -->
<svg version="1.1" id="Layer_1" xmlns="http://www.w3.org/2000/svg" xmlns:xlink="http://www.w3.org/1999/xlink" x="0px" y="0px"
	 viewBox="0 0 511.982 511.982" style="enable-background:new 0 0 511.982 511.982;" xml:space="preserve">
<polygon style="fill:#E6E9ED;" points="388.388,70.247 324.391,6.25 318.141,0 309.329,0 31.986,0 10.659,0 10.659,21.343 
	10.659,490.671 10.659,511.982 31.986,511.982 373.327,511.982 394.638,511.982 394.638,490.671 394.638,85.341 394.638,76.497 "/>
<g>
	<path style="fill:#434A54;" d="M85.328,298.677h234.656c5.875,0,10.655-4.781,10.655-10.687c0-5.875-4.78-10.656-10.655-10.656
		H85.328c-5.905,0-10.671,4.781-10.671,10.656C74.658,293.895,79.424,298.677,85.328,298.677z"/>
	<path style="fill:#434A54;" d="M319.984,341.332H85.328c-5.905,0-10.671,4.781-10.671,10.655c0,5.906,4.766,10.688,10.671,10.688
		h234.656c5.875,0,10.655-4.781,10.655-10.688C330.639,346.113,325.859,341.332,319.984,341.332z"/>
	<path style="fill:#434A54;" d="M202.652,405.329H85.328c-5.905,0-10.671,4.781-10.671,10.656c0,5.906,4.766,10.688,10.671,10.688
		h117.324c5.891,0,10.672-4.781,10.672-10.688C213.324,410.11,208.543,405.329,202.652,405.329z"/>
</g>
<polygon style="fill:#E6E9ED;" points="472.824,341.113 444.48,341.113 415.982,440.673 458.637,469.108 501.322,440.673 "/>
<path style="fill:#656D78;" d="M458.637,63.779c-23.562,0-42.654,19.093-42.654,42.654v287.99h85.34v-287.99
	C501.322,82.872,482.199,63.779,458.637,63.779z"/>
<polygon style="fill:#CCD1D9;" points="394.638,76.497 318.141,76.497 318.141,0 "/>
<path style="fill:#ED5564;" d="M172.645,82.45c-9.288,0-18.132,2.688-25.687,7.688c-7.547-5-16.397-7.688-25.679-7.688
	c-25.702,0-46.615,20.905-46.615,46.623c0,20.141,11.53,40.937,34.271,61.779c16.07,14.734,31.983,24.077,32.655,24.468l5.375,3.141
	l5.367-3.141c0.672-0.391,16.585-9.733,32.655-24.468c22.741-20.843,34.272-41.639,34.272-61.779
	C219.261,103.355,198.347,82.45,172.645,82.45z"/>
<path style="opacity:0.2;fill:#FFFFFF;enable-background:new    ;" d="M172.645,82.45c-3.656,0-7.249,0.422-10.718,1.234
	c20.608,4.812,36.006,23.327,36.006,45.389c0,20.141-11.538,40.937-34.279,61.779c-10.656,9.781-21.242,17.172-27.358,21.155
	c3.108,2.031,5.069,3.188,5.296,3.312l5.375,3.141l5.367-3.141c0.672-0.391,16.585-9.733,32.655-24.468
	c22.741-20.843,34.272-41.639,34.272-61.779C219.261,103.355,198.347,82.45,172.645,82.45z"/>
<g>
</g>
<g>
</g>
<g>
</g>
<g>
</g>
<g>
</g>
<g>
</g>
<g>
</g>
<g>
</g>
<g>
</g>
<g>
</g>
<g>
</g>
<g>
</g>
<g>
</g>
<g>
</g>
<g>
</g>
</svg>
