<?xml version="1.0" encoding="iso-8859-1"?>
<!-- Generator: Adobe Illustrator 19.0.0, SVG Export Plug-In . SVG Version: 6.00 Build 0)  -->
<svg version="1.1" id="Layer_1" xmlns="http://www.w3.org/2000/svg" xmlns:xlink="http://www.w3.org/1999/xlink" x="0px" y="0px"
	 viewBox="0 0 511.985 511.985" style="enable-background:new 0 0 511.985 511.985;" xml:space="preserve">
<path style="fill:#48CFAD;" d="M467.547,490.736c0.984,11.687-7.828,21.249-19.562,21.249H63.997
	c-11.734,0-20.531-9.562-19.562-21.249l28.468-341.482c0.969-11.688,11.359-21.257,23.093-21.257h319.99
	c11.734,0,22.141,9.569,23.108,21.257L467.547,490.736z"/>
<path style="fill:#E6E9ED;" d="M101.355,220.666c2.734,1.164,8.5,1.156,11.219-0.016l30.093-12.914
	c8.125-3.483,19.906-3.483,28.015,0l30.093,12.914c2.718,1.172,8.468,1.172,11.187,0l30.093-12.914
	c8.125-3.483,19.905-3.483,28.014,0l30.094,12.914c2.719,1.172,8.468,1.172,11.187,0l30.093-12.914
	c8.125-3.483,19.906-3.483,28.031,0l30.076,12.914c2.719,1.164,8.469,1.164,11.188,0l33.124-14.242l-4.766-57.154
	c-0.968-11.688-11.374-21.257-23.108-21.257H95.996c-11.734,0-22.125,9.569-23.093,21.257l-4.781,57.217L101.355,220.666z"/>
<path style="fill:#434A54;" d="M362.66,170.566L362.66,170.566c-0.016-1.695-0.516-42.007-13-83.006
	C332.222,30.281,299.834,0,255.991,0c-43.842,0-76.232,30.28-93.669,87.56c-12.484,40.999-12.968,81.311-12.984,83.006l0,0
	c0,0.031,0,0.062,0,0.094c0,5.89,4.765,10.671,10.656,10.671c5.859,0,10.609-4.727,10.671-10.577l0,0
	c0-0.383,0.469-38.897,12.062-76.982c14.64-48.069,39.28-72.436,73.263-72.436c33.89,0,58.498,24.241,73.153,72.053
	c11.672,38.085,12.172,76.982,12.188,77.365l0,0c0.047,5.851,4.797,10.577,10.656,10.577c5.891,0,10.672-4.781,10.672-10.671
	C362.66,170.629,362.66,170.597,362.66,170.566z"/>
<path style="fill:#37BC9B;" d="M44.435,490.736c-0.969,11.687,7.828,21.249,19.562,21.249h383.988
	c11.733,0,20.546-9.562,19.562-21.249l-0.891-10.75H45.341L44.435,490.736z"/>
<g>
</g>
<g>
</g>
<g>
</g>
<g>
</g>
<g>
</g>
<g>
</g>
<g>
</g>
<g>
</g>
<g>
</g>
<g>
</g>
<g>
</g>
<g>
</g>
<g>
</g>
<g>
</g>
<g>
</g>
</svg>
