<svg aria-hidden="true" style="position: absolute; width: 0; height: 0; overflow: hidden;" version="1.1" xmlns="http://www.w3.org/2000/svg" xmlns:xlink="http://www.w3.org/1999/xlink">
<defs>
<symbol id="icon-icon-cake" viewBox="0 0 24 24">
<path d="M19.5 18v-5h-2.5v-5h-3.5v-4h-3v4h-3.5v5h-2.5v5h-2.5v6h20.001v-6h-2.5zM18.5 14v0.732h-0c-0.264-0.152-0.493-0.365-0.667-0.627l-0.070-0.105h0.737zM18.737 19l-0.070 0.105c-0.373 0.561-0.995 0.895-1.667 0.895s-1.295-0.334-1.667-0.895l-0.070-0.105h3.474zM16 9v0.732c-0.264-0.152-0.493-0.364-0.667-0.627l-0.070-0.105h0.738zM16.237 14l-0.070 0.105c-0.373 0.56-0.996 0.895-1.667 0.895s-1.295-0.335-1.668-0.895l-0.070-0.105h3.474zM11.5 5h1v3h-1v-3zM13.737 9l-0.070 0.105c-0.373 0.56-0.996 0.895-1.668 0.895s-1.295-0.335-1.667-0.895l-0.070-0.105h3.474zM8 9l0.737 0-0.070 0.105c-0.174 0.262-0.404 0.475-0.667 0.627v-0.732zM8 10.829c0.618-0.219 1.143-0.634 1.5-1.17 0.538 0.809 1.456 1.341 2.5 1.341s1.963-0.533 2.501-1.341c0.357 0.537 0.882 0.951 1.5 1.17v2.172h-8.001v-2.171zM11.237 14l-0.070 0.105c-0.373 0.56-0.996 0.895-1.667 0.895s-1.295-0.335-1.667-0.895l-0.070-0.105h3.474zM5.5 14l0.737 0-0.070 0.105c-0.175 0.262-0.404 0.475-0.667 0.627v-0.731zM5.5 15.829c0.618-0.218 1.143-0.634 1.5-1.17 0.537 0.809 1.456 1.341 2.5 1.341s1.963-0.533 2.5-1.341c0.538 0.809 1.457 1.341 2.501 1.341s1.962-0.533 2.5-1.341c0.357 0.537 0.882 0.952 1.5 1.17v2.171h-13v-2.171zM13.737 19l-0.070 0.105c-0.373 0.561-0.996 0.895-1.668 0.895s-1.295-0.334-1.667-0.895l-0.070-0.105h3.474zM8.737 19l-0.070 0.105c-0.372 0.561-0.996 0.895-1.667 0.895s-1.295-0.334-1.667-0.895l-0.070-0.105h3.474zM3 19l0.737 0-0.070 0.105c-0.174 0.262-0.404 0.475-0.667 0.627v-0.731zM21 23l-18-0v-2.171c0.618-0.219 1.143-0.633 1.5-1.17 0.538 0.808 1.456 1.341 2.5 1.341s1.963-0.533 2.5-1.341c0.538 0.808 1.456 1.341 2.5 1.341s1.963-0.533 2.5-1.341c0.537 0.808 1.456 1.341 2.5 1.341s1.962-0.533 2.5-1.341c0.357 0.537 0.882 0.952 1.5 1.17v2.171zM21 19.732v0c-0.263-0.152-0.493-0.365-0.667-0.627l-0.070-0.105h0.737v0.732z"></path>
<path d="M12 0c0 0-1.5 1.671-1.5 2.5s0.672 1.5 1.5 1.5 1.5-0.672 1.5-1.5c0-0.829-1.5-2.5-1.5-2.5zM12 3c-0.27 0-0.49-0.215-0.5-0.483 0.011-0.048 0.085-0.315 0.5-0.907 0.415 0.592 0.489 0.859 0.5 0.907-0.010 0.268-0.23 0.483-0.5 0.483z"></path>
</symbol>
<symbol id="icon-icon-cocktail" viewBox="0 0 24 24">
<path d="M18.981 15.333c0-1.298-0.633-3.574-1.066-4.632-0.715-1.748 0-4.701 0-4.701h-1.126l1.719-5.347c0.015-0.048 0.024-0.1 0.024-0.153 0-0.276-0.224-0.5-0.5-0.5-0.223 0-0.412 0.146-0.476 0.347v-0l-0.001 0.002c0 0.001-0.001 0.003-0.001 0.004l-1.815 5.647h-3.257c-0.691-1.193-1.983-1.997-3.464-1.997-2.209 0-4 1.788-4 3.994h4.423c0.061 0.894 0.028 1.92-0.293 2.704-0.432 1.058-1.065 3.334-1.065 4.632 0 3.041 2.174 4.499 4.949 4.653v3.014h-2.5c-0.276 0-0.5 0.224-0.5 0.5s0.224 0.5 0.5 0.5h6c0.276 0 0.5-0.224 0.5-0.5s-0.224-0.5-0.5-0.5h-2.5v-3.014c2.774-0.154 4.948-1.611 4.948-4.653zM6.191 6.997c0.094-0.264 0.225-0.512 0.385-0.736l0.736 0.736zM8.519 6.79l-1.235-1.234c0.361-0.256 0.781-0.434 1.235-0.511zM16.468 7h0.253c-0.025 0.188-0.049 0.39-0.069 0.602-0.13 1.389-0.026 2.531 0.308 3.398h-1.778zM13.533 7h1.885l-1.286 4h-4.026c0.333-0.866 0.437-2.009 0.308-3.398-0.020-0.212-0.044-0.415-0.070-0.602zM9.519 5.045c0.454 0.077 0.874 0.255 1.234 0.511l-0.445 0.444h-0.79zM13.533 19c-1.347 0-2.468-0.317-3.241-0.916-0.802-0.621-1.209-1.547-1.209-2.751 0-0.839 0.331-2.26 0.667-3.333h7.563c0.336 1.074 0.667 2.494 0.667 3.333 0 1.204-0.407 2.13-1.209 2.751-0.773 0.599-1.893 0.916-3.24 0.916z"></path>
<path d="M17.033 16c-0.277 0-0.5 0.224-0.5 0.5s0.223 0.5 0.5 0.5c0.275 0 0.5-0.224 0.5-0.5s-0.224-0.5-0.5-0.5z"></path>
<path d="M16.022 14c-0.276 0-0.5 0.224-0.5 0.5s0.224 0.5 0.5 0.5 0.5-0.224 0.5-0.5-0.224-0.5-0.5-0.5z"></path>
</symbol>
<symbol id="icon-icon-cutlery" viewBox="0 0 24 24">
<path d="M7.479 0.146c-0.196-0.195-0.512-0.195-0.708 0-0.097 0.097-0.146 0.226-0.146 0.353v4.5h-1v-4.5c0-0.128-0.049-0.256-0.146-0.353-0.195-0.195-0.512-0.195-0.707 0-0.098 0.097-0.146 0.226-0.146 0.353v4.5h-1v-4.5c0-0.128-0.048-0.256-0.146-0.353-0.195-0.195-0.512-0.195-0.707 0-0.098 0.098-0.146 0.226-0.146 0.354v7.5c0 0 0.658 0.527 1.497 0.816l0.003 1.185c0 0-1 9-1 12 0 0.999 0.499 2 1.999 2s2-1 2-2c0-3-1-12-1-12l-0.001-1.184c0.84-0.289 1.501-0.817 1.501-0.817v-7.5c-0-0.128-0.049-0.256-0.147-0.353zM6.125 22c0 0.314-0.073 0.576-0.206 0.734-0.146 0.177-0.414 0.265-0.795 0.265s-0.647-0.089-0.794-0.265c-0.133-0.159-0.206-0.42-0.206-0.734 0-2.911 0.984-11.801 0.994-11.89l0.006-0.055v0.001l0.007 0.055c0.010 0.089 0.994 8.98 0.994 11.89zM6.625 7.475c-0.398 0.243-0.986 0.525-1.5 0.525s-1.102-0.282-1.5-0.525v-1.475h3v1.475z"></path>
<path d="M15.625 5.4c0-2.486-1.342-5.4-3-5.4s-3 2.915-3 5.4c0 1.957 0.833 3.064 1.997 3.446l0.003 1.154c0 0-1 9-1 12 0 0.999 0.499 2 1.999 2s2-1 2-2c0-3-1-12-1-12l-0.001-1.152c1.165-0.381 2-1.488 2-3.447zM13.625 22c0 0.314-0.073 0.575-0.206 0.734-0.146 0.177-0.414 0.265-0.795 0.265s-0.647-0.089-0.794-0.265c-0.133-0.158-0.206-0.42-0.206-0.734 0-2.911 0.984-11.801 0.994-11.89l0.006-0.055v0.001l0.007 0.055c0.010 0.089 0.994 8.98 0.994 11.89zM14.011 7.455c-0.333 0.362-0.799 0.545-1.386 0.545s-1.052-0.183-1.386-0.545c-0.401-0.437-0.614-1.147-0.614-2.054 0-1.068 0.286-2.252 0.765-3.169 0.475-0.909 0.962-1.231 1.235-1.231s0.76 0.322 1.235 1.231c0.48 0.917 0.765 2.102 0.765 3.169 0 0.908-0.212 1.618-0.614 2.054z"></path>
<path d="M20.706 12.993c0.237-0.040 0.419-0.245 0.419-0.493 0-0.276-0.224-0.5-0.5-0.5h-0.001l0.001-11.673c0 0-0.302-0.324-0.713-0.324-0.888 0-2.287 1.504-2.287 10.998l0.993 1h0.007c-0.276 0-0.499 0.224-0.499 0.5 0 0.246 0.178 0.451 0.413 0.492-0.257 2.571-0.664 6.958-0.664 9.009 0 0.999 0.596 2 1.751 2s1.75-1 1.75-2c-0-2.051-0.409-6.437-0.669-9.007zM19.216 2.928c0.139-0.632 0.283-1.064 0.409-1.356l-0.001 9.428h-0.59l-0.408-0.411c0.015-3.362 0.213-5.938 0.59-7.66zM20.145 22.759c-0.128 0.164-0.294 0.24-0.52 0.24s-0.392-0.076-0.521-0.24c-0.144-0.185-0.229-0.468-0.229-0.759 0-2.024 0.412-6.458 0.667-9h0.16c0.256 2.542 0.673 6.976 0.673 9 0 0.291-0.086 0.574-0.23 0.759z"></path>
</symbol>
<symbol id="icon-icon-karaoke" viewBox="0 0 24 24">
<path d="M20.002 21.008c-0.078 0-0.15 0.018-0.215 0.049v-0.001c-2.752 1.31-6.563 2.639-9.083 1.531-0.696-0.306-1.127-0.729-1.387-1.079h0.181c0.277 0 0.5-0.224 0.5-0.5v-2.001h0.489l1.488-10.409c0.94-0.909 1.526-2.184 1.526-3.596 0-2.762-2.239-5.002-5.002-5.002s-5.002 2.24-5.002 5.002c0 1.398 0.573 2.661 1.498 3.569l1.49 10.436h0.512v2.001c0 0.276 0.224 0.5 0.5 0.5h0.655c0.244 0.5 0.837 1.405 2.111 1.978 0.761 0.342 1.651 0.514 2.656 0.514 0.352 0 0.717-0.021 1.096-0.063 1.773-0.197 3.86-0.863 6.201-1.977v-0.001c0.169-0.081 0.286-0.252 0.286-0.451 0-0.276-0.224-0.5-0.5-0.5zM5.498 7.253c-0.095 0-0.182 0.027-0.258 0.072-0.243-0.34-0.43-0.713-0.555-1.109 0.183-0.074 0.313-0.253 0.313-0.464 0-0.274-0.22-0.495-0.492-0.5-0.005-0.083-0.007-0.167-0.007-0.25 0-1.069 0.416-2.074 1.172-2.829 0.109-0.11 0.223-0.211 0.343-0.306 0.052 0.22 0.25 0.384 0.486 0.384 0.276 0 0.5-0.224 0.5-0.5 0-0.154-0.070-0.291-0.179-0.383 0.52-0.24 1.090-0.367 1.679-0.367s1.159 0.127 1.679 0.367c-0.109 0.092-0.179 0.229-0.179 0.383 0 0.276 0.223 0.5 0.5 0.5 0.236 0 0.434-0.164 0.486-0.384 0.119 0.095 0.234 0.196 0.343 0.306 0.756 0.756 1.172 1.76 1.172 2.829 0 0.084-0.003 0.167-0.008 0.25-0.272 0.004-0.492 0.226-0.492 0.5 0 0.21 0.13 0.39 0.313 0.464-0.125 0.396-0.312 0.769-0.555 1.109-0.075-0.045-0.164-0.072-0.259-0.072-0.276 0-0.499 0.224-0.499 0.5 0 0.11 0.035 0.211 0.095 0.294-0.204 0.175-0.424 0.328-0.656 0.457h-3.88c-0.232-0.129-0.452-0.282-0.657-0.457 0.060-0.083 0.096-0.184 0.096-0.294 0-0.276-0.223-0.5-0.5-0.5zM7.354 18.006l-1.214-8.503h4.696l-1.216 8.503zM8.999 19.507c-0.276 0.001-0.499 0.224-0.499 0.5s0.223 0.5 0.499 0.5h-1c0.276 0 0.5-0.224 0.5-0.5s-0.224-0.5-0.5-0.5h-0.001v-0.5h1z"></path>
<path d="M8.499 1.251c-0.276 0-0.5 0.224-0.5 0.5s0.224 0.5 0.5 0.5c0.276 0 0.5-0.224 0.5-0.5s-0.224-0.5-0.5-0.5z"></path>
<path d="M5.498 3.251c-0.276 0-0.5 0.224-0.5 0.5s0.224 0.5 0.5 0.5c0.277 0 0.5-0.224 0.5-0.5s-0.223-0.5-0.5-0.5z"></path>
<path d="M7.499 3.251c-0.276 0-0.5 0.224-0.5 0.5s0.224 0.5 0.5 0.5c0.276 0 0.5-0.224 0.5-0.5s-0.224-0.5-0.5-0.5z"></path>
<path d="M9.5 3.251c-0.276 0-0.5 0.224-0.5 0.5s0.224 0.5 0.5 0.5c0.276 0 0.5-0.224 0.5-0.5s-0.224-0.5-0.5-0.5z"></path>
<path d="M11.5 3.251c-0.276 0-0.499 0.224-0.499 0.5s0.223 0.5 0.499 0.5c0.277 0 0.5-0.224 0.5-0.5s-0.223-0.5-0.5-0.5z"></path>
<path d="M6.498 5.252c-0.276 0-0.5 0.224-0.5 0.5s0.224 0.5 0.5 0.5c0.276 0 0.5-0.224 0.5-0.5s-0.224-0.5-0.5-0.5z"></path>
<path d="M8.499 5.252c-0.276 0-0.5 0.224-0.5 0.5s0.224 0.5 0.5 0.5 0.5-0.224 0.5-0.5c0-0.276-0.224-0.5-0.5-0.5z"></path>
<path d="M10.5 5.252c-0.277 0-0.5 0.224-0.5 0.5s0.223 0.5 0.5 0.5c0.276 0 0.5-0.224 0.5-0.5s-0.224-0.5-0.5-0.5z"></path>
<path d="M7.499 7.253c-0.276 0-0.5 0.224-0.5 0.5s0.224 0.5 0.5 0.5c0.276 0 0.5-0.224 0.5-0.5s-0.224-0.5-0.5-0.5z"></path>
<path d="M9.5 7.253c-0.276 0-0.5 0.224-0.5 0.5s0.224 0.5 0.5 0.5 0.5-0.224 0.5-0.5c0-0.276-0.224-0.5-0.5-0.5z"></path>
<path d="M8.999 13.005h-0.001v-1c0-0.276-0.224-0.5-0.5-0.5s-0.5 0.224-0.5 0.5v1c-0.276 0-0.5 0.224-0.5 0.5s0.224 0.5 0.5 0.5v1.001c0 0.276 0.224 0.5 0.5 0.5s0.5-0.224 0.5-0.5v-1.001h0.001c0.277 0 0.5-0.224 0.5-0.5s-0.223-0.5-0.5-0.5z"></path>
</symbol>
<symbol id="icon-icon-toast" viewBox="0 0 24 24">
<path d="M5.658 1.36l-0.15 0.445c-0.030 0.088-0.733 2.186-1.262 4.661-0.727 3.407-0.746 5.771-0.056 7.027 0.214 0.39 0.494 0.68 0.836 0.867l-1.538 5.741-2.096 1.211-0.762-0.204c-0.267-0.072-0.541 0.086-0.612 0.354-0.055 0.206 0.027 0.415 0.19 0.534l6.14 1.645c0.2-0.021 0.376-0.161 0.432-0.368 0.071-0.267-0.087-0.541-0.354-0.612l-0.762-0.204-1.21-2.096 1.542-5.755c0.913-0.005 1.793-0.643 2.613-1.898 0.602-0.921 1.191-2.195 1.75-3.785 0.941-2.677 1.472-5.306 1.494-5.417l0.092-0.46-6.286-1.684zM2.757 21.677l0.977-0.563 0.564 0.976-1.541-0.413zM9.414 8.59c-0.532 1.515-1.085 2.716-1.644 3.57-0.431 0.66-1.090 1.445-1.785 1.445-0.081 0-0.16-0.010-0.242-0.029-0.291-0.073-0.506-0.251-0.677-0.563-0.466-0.848-0.501-2.572-0.112-4.923h4.63c-0.056 0.167-0.112 0.334-0.171 0.5zM9.903 7.090h-4.765c0.027-0.134 0.055-0.269 0.084-0.406 0.376-1.762 0.854-3.364 1.089-4.113l4.461 1.196c-0.144 0.647-0.443 1.911-0.87 3.324z"></path>
<path d="M23.983 20.461c-0.072-0.266-0.346-0.425-0.612-0.353l-0.762 0.204-2.096-1.211-1.542-5.755c0.346-0.201 0.628-0.508 0.841-0.915 0.672-1.285 0.647-3.647-0.072-7.020-0.523-2.454-1.217-4.52-1.247-4.607l-0.15-0.445-6.286 1.685 0.092 0.46c0.023 0.111 0.556 2.743 1.493 5.423 0.556 1.593 1.14 2.867 1.735 3.789 0.816 1.263 1.688 1.903 2.593 1.903 0.013 0 0.026-0.001 0.040-0.001l1.539 5.742-1.211 2.096-0.761 0.204c-0.267 0.071-0.426 0.346-0.354 0.612 0.056 0.206 0.231 0.347 0.432 0.367l6.139-1.645c0.163-0.118 0.246-0.328 0.19-0.534zM13.227 2.766l4.461-1.195c0.233 0.739 0.702 2.31 1.074 4.050 0.034 0.16 0.066 0.317 0.097 0.47h-4.763c-0.426-1.413-0.724-2.676-0.869-3.324zM18.237 12.58c-0.090 0.026-0.18 0.039-0.269 0.039-0.677 0-1.326-0.784-1.751-1.442-0.552-0.854-1.101-2.056-1.63-3.571-0.060-0.173-0.119-0.345-0.176-0.517h4.63c0.475 2.882 0.217 4.24-0.117 4.879-0.171 0.327-0.396 0.527-0.688 0.612zM19.703 21.090l0.564-0.976 0.976 0.564-1.54 0.412z"></path>
</symbol>
<symbol id="icon-icon-wedding" viewBox="0 0 24 24">
<path d="M17.642 6.086l1.358-1.087-1.001-2h-3l-1 2 1.358 1.087c-1.247 0.19-2.393 0.688-3.358 1.413-1.254-0.942-2.811-1.5-4.5-1.5-4.142 0-7.5 3.358-7.5 7.5s3.358 7.5 7.5 7.5c1.688 0 3.247-0.558 4.5-1.5 1.254 0.942 2.811 1.5 4.5 1.5 4.143 0 7.5-3.357 7.5-7.5 0-3.754-2.758-6.864-6.358-7.414zM15.256 4.724l0.362-0.724h1.764l0.363 0.724-1.244 0.995-1.244-0.995zM10.030 19.49c-0.801 0.338-1.652 0.51-2.53 0.51s-1.729-0.171-2.53-0.51c-0.774-0.327-1.469-0.796-2.067-1.393s-1.066-1.293-1.393-2.067c-0.339-0.801-0.511-1.652-0.511-2.53s0.172-1.729 0.511-2.53c0.327-0.774 0.796-1.469 1.393-2.067s1.292-1.066 2.067-1.393c0.801-0.338 1.652-0.51 2.53-0.51s1.729 0.172 2.53 0.51c0.422 0.179 0.821 0.4 1.193 0.661-0.12 0.119-0.236 0.242-0.348 0.369-0.326-0.222-0.673-0.413-1.039-0.568-0.74-0.313-1.526-0.472-2.336-0.472s-1.596 0.159-2.336 0.472c-0.714 0.302-1.356 0.735-1.907 1.285s-0.983 1.192-1.285 1.907c-0.313 0.74-0.472 1.526-0.472 2.336s0.159 1.595 0.472 2.336c0.302 0.715 0.735 1.356 1.285 1.907s1.192 0.984 1.907 1.286c0.74 0.313 1.526 0.472 2.336 0.472s1.595-0.159 2.336-0.472c0.714-0.302 1.356-0.735 1.907-1.286s0.983-1.192 1.285-1.907c0.314-0.74 0.472-1.526 0.472-2.336s-0.158-1.596-0.472-2.336c-0.119-0.281-0.258-0.55-0.416-0.808 0.109-0.135 0.225-0.264 0.347-0.386 0.205 0.316 0.383 0.65 0.531 1 0.338 0.801 0.511 1.652 0.511 2.53s-0.172 1.729-0.511 2.53c-0.327 0.773-0.796 1.469-1.393 2.067s-1.292 1.066-2.066 1.393zM10.264 9.333c-0.798 1.192-1.263 2.625-1.263 4.167s0.466 2.975 1.264 4.167c-0.792 0.527-1.742 0.833-2.764 0.833-2.762 0-5-2.238-5-5s2.239-5 5-5c1.022-0 1.972 0.306 2.763 0.833zM11.5 13.5c0-0.782 0.18-1.522 0.499-2.181 0.32 0.659 0.501 1.399 0.501 2.181s-0.18 1.522-0.5 2.181c-0.32-0.659-0.5-1.399-0.5-2.181zM13.736 9.333c0.792-0.526 1.742-0.833 2.764-0.833 2.761 0 5 2.238 5 5s-2.239 5-5 5c-1.022 0-1.972-0.306-2.763-0.832 0.798-1.192 1.263-2.625 1.263-4.168s-0.466-2.975-1.264-4.167zM21.097 18.097c-0.598 0.597-1.293 1.066-2.067 1.393-0.801 0.338-1.652 0.51-2.53 0.51s-1.729-0.171-2.53-0.51c-0.422-0.179-0.821-0.4-1.193-0.661 0.12-0.119 0.236-0.242 0.348-0.369 0.325 0.223 0.672 0.413 1.039 0.568 0.74 0.313 1.526 0.472 2.336 0.472s1.595-0.159 2.336-0.472c0.714-0.302 1.356-0.735 1.907-1.286s0.984-1.192 1.285-1.907c0.313-0.74 0.472-1.526 0.472-2.336s-0.158-1.596-0.472-2.336c-0.302-0.714-0.735-1.356-1.285-1.907s-1.192-0.983-1.907-1.285c-0.741-0.313-1.526-0.472-2.336-0.472s-1.595 0.159-2.336 0.472c-0.714 0.302-1.356 0.735-1.907 1.285s-0.983 1.192-1.285 1.907c-0.313 0.74-0.472 1.526-0.472 2.336s0.159 1.595 0.472 2.336c0.119 0.28 0.258 0.55 0.416 0.808-0.109 0.135-0.225 0.264-0.347 0.386-0.205-0.316-0.383-0.65-0.531-1-0.339-0.801-0.511-1.652-0.511-2.53s0.172-1.729 0.511-2.53c0.327-0.774 0.796-1.469 1.393-2.067s1.293-1.066 2.066-1.393c0.801-0.338 1.652-0.51 2.53-0.51s1.729 0.172 2.53 0.51c0.774 0.327 1.469 0.796 2.067 1.393s1.066 1.293 1.393 2.067c0.338 0.801 0.511 1.652 0.511 2.53s-0.172 1.729-0.511 2.53c-0.327 0.774-0.796 1.469-1.393 2.067z"></path>
</symbol>
</defs>
</svg>
