<svg height="504pt" viewBox="-124 0 504 504" width="504pt" xmlns="http://www.w3.org/2000/svg"><path d="m8.003906 96c-3.105468 0-6.058594-1.816406-7.355468-4.847656-1.742188-4.054688.144531-8.761719 4.203124-10.503906l112-48c4.023438-1.769532 8.757813.128906 10.503907 4.199218 1.742187 4.054688-.144531 8.761719-4.203125 10.503906l-112 48c-1.023438.449219-2.09375.648438-3.148438.648438zm0 0" fill="#da4453"/><path d="m248.003906 96c-1.058594 0-2.128906-.199219-3.152344-.648438l-112-48c-4.066406-1.742187-5.945312-6.449218-4.203124-10.503906 1.738281-4.070312 6.472656-5.960937 10.503906-4.199218l112 48c4.066406 1.742187 5.945312 6.449218 4.203125 10.503906-1.296875 3.03125-4.25 4.847656-7.351563 4.847656zm0 0" fill="#d3374e"/><path d="m144.003906 409.039062v94.960938h-32v-94.960938l16 6.960938zm0 0" fill="#773e3e"/><path d="m184.003906 200v64h-112v-64l24 8 32-32 32 32 22.71875-8zm0 0" fill="#ffce54"/><path d="m182.722656 200-22.71875 8v56h24v-64zm0 0" fill="#f6bb42"/><path d="m128.003906 416-16-6.960938v-.078124l-111.99999975-48.960938v-280h255.99999975v280l-112 48.960938v.078124zm56-152v-64h-1.28125l-22.71875 8-32-32-32 32-24-8v64zm0 0" fill="#ed5565"/><path d="m144.003906 40v40h-32v-72h32zm0 0" fill="#773e3e"/><path d="m232.003906 80v290.496094l24-10.496094v-280zm0 0" fill="#da4453"/><path d="m128.242188 160c-4.425782 0-8.039063-3.574219-8.039063-8s3.535156-8 7.949219-8h.089844c4.414062 0 8 3.574219 8 8s-3.585938 8-8 8zm0 0" fill="#ffce54"/><path d="m184.242188 184c-4.425782 0-8.039063-3.574219-8.039063-8s3.535156-8 7.949219-8h.089844c4.414062 0 8 3.574219 8 8s-3.585938 8-8 8zm0 0" fill="#f6bb42"/><path d="m72.242188 184c-4.425782 0-8.039063-3.574219-8.039063-8s3.535156-8 7.949219-8h.089844c4.414062 0 8 3.574219 8 8s-3.585938 8-8 8zm0 0" fill="#ffce54"/><path d="m144.003906 16h-32c-4.425781 0-8-3.574219-8-8s3.574219-8 8-8h32c4.421875 0 8 3.574219 8 8s-3.578125 8-8 8zm0 0" fill="#965353"/><path d="m176.003906 312h-96c-4.425781 0-8-3.574219-8-8s3.574219-8 8-8h96c4.421875 0 8 3.574219 8 8s-3.578125 8-8 8zm0 0" fill="#da4453"/></svg>