<svg xmlns="http://www.w3.org/2000/svg" style="display: none;"><symbol id="gift" viewBox="0 0 511.982 511.982"><title>gift</title><path style="fill:#ED5564;" d="M393.144,42.982C377.895,14.46,359.646,0,338.833,0c-23.905,0-48.748,19.562-73.857,58.131 c-3.219,4.945-6.219,9.875-8.999,14.64c-2.766-4.765-5.766-9.694-8.984-14.64C221.9,19.562,197.057,0,173.136,0 c-20.796,0-39.061,14.46-54.295,42.982c-11.406,21.336-7.297,36.663-1.844,45.765c9.828,16.39,31.796,27.429,67.17,33.749 c27.14,4.852,55.873,5.57,70.592,5.57c0.422,0,0.828,0,1.234,0c0.391,0,0.797,0,1.218,0c0,0,0,0,0.016,0 c14.703,0,43.453-0.719,70.576-5.57c35.375-6.32,57.343-17.359,67.186-33.749C400.426,79.645,404.551,64.318,393.144,42.982z"/><rect x="21.328" y="158.722" style="fill:#FFCE54;" width="469.31" height="353.26"/><polygon style="fill:#F6BB42;" points="21.328,234.72 490.642,277.397 490.642,213.321 21.328,213.321 "/><rect x="0.001" y="96.012" style="fill:#FFCE54;" width="511.98" height="117.31"/><g> <path style="fill:#ED5564;" d="M202.65,362.66c29.453,0,53.343-23.873,53.343-53.326c0-29.468-23.89-53.334-53.343-53.334 c-29.452,0-53.326,23.866-53.326,53.334C149.324,338.787,173.198,362.66,202.65,362.66z M202.65,277.335 c17.641,0,32,14.344,32,31.999c0,17.641-14.359,31.999-32,31.999c-17.64,0-31.999-14.358-31.999-31.999 C170.651,291.679,185.011,277.335,202.65,277.335z"/> <path style="fill:#ED5564;" d="M309.335,362.66c-29.468,0-53.342,23.875-53.342,53.327c0,29.468,23.874,53.343,53.342,53.343 c29.437,0,53.312-23.875,53.312-53.343C362.646,386.535,338.771,362.66,309.335,362.66z M309.335,447.986 c-17.655,0-31.999-14.344-31.999-31.999c0-17.64,14.344-31.999,31.999-31.999c17.624,0,31.999,14.359,31.999,31.999 C341.334,433.642,326.959,447.986,309.335,447.986z"/> <path style="fill:#ED5564;" d="M359.521,274.21c1.938-1.938,3.125-4.601,3.125-7.546c0-5.891-4.781-10.664-10.656-10.664 c-2.938,0-5.625,1.195-7.531,3.125l-192.01,191.986c-1.938,1.938-3.125,4.594-3.125,7.547c0,5.891,4.781,10.672,10.672,10.672 c2.938,0,5.609-1.203,7.531-3.125L359.521,274.21z"/> </g></symbol><symbol id="shopping-bag" viewBox="0 0 511.985 511.985"><title>shopping-bag</title><path style="fill:#48CFAD;" d="M467.547,490.736c0.984,11.687-7.828,21.249-19.562,21.249H63.997 c-11.734,0-20.531-9.562-19.562-21.249l28.468-341.482c0.969-11.688,11.359-21.257,23.093-21.257h319.99 c11.734,0,22.141,9.569,23.108,21.257L467.547,490.736z"/><path style="fill:#E6E9ED;" d="M101.355,220.666c2.734,1.164,8.5,1.156,11.219-0.016l30.093-12.914 c8.125-3.483,19.906-3.483,28.015,0l30.093,12.914c2.718,1.172,8.468,1.172,11.187,0l30.093-12.914 c8.125-3.483,19.905-3.483,28.014,0l30.094,12.914c2.719,1.172,8.468,1.172,11.187,0l30.093-12.914 c8.125-3.483,19.906-3.483,28.031,0l30.076,12.914c2.719,1.164,8.469,1.164,11.188,0l33.124-14.242l-4.766-57.154 c-0.968-11.688-11.374-21.257-23.108-21.257H95.996c-11.734,0-22.125,9.569-23.093,21.257l-4.781,57.217L101.355,220.666z"/><path style="fill:#434A54;" d="M362.66,170.566L362.66,170.566c-0.016-1.695-0.516-42.007-13-83.006 C332.222,30.281,299.834,0,255.991,0c-43.842,0-76.232,30.28-93.669,87.56c-12.484,40.999-12.968,81.311-12.984,83.006l0,0 c0,0.031,0,0.062,0,0.094c0,5.89,4.765,10.671,10.656,10.671c5.859,0,10.609-4.727,10.671-10.577l0,0 c0-0.383,0.469-38.897,12.062-76.982c14.64-48.069,39.28-72.436,73.263-72.436c33.89,0,58.498,24.241,73.153,72.053 c11.672,38.085,12.172,76.982,12.188,77.365l0,0c0.047,5.851,4.797,10.577,10.656,10.577c5.891,0,10.672-4.781,10.672-10.671 C362.66,170.629,362.66,170.597,362.66,170.566z"/><path style="fill:#37BC9B;" d="M44.435,490.736c-0.969,11.687,7.828,21.249,19.562,21.249h383.988 c11.733,0,20.546-9.562,19.562-21.249l-0.891-10.75H45.341L44.435,490.736z"/></symbol><symbol id="music-player" viewBox="0 0 64 64"><title>music-player</title><path d="m50 58.004c0 3.3-2.7 6-6 6h-24c-3.3 0-6-2.7-6-6v-48.005c0-3.3 2.7-6 6-6h24c3.3 0 6 2.7 6 6z" fill="#545c66"/><path d="m50 54.001c0 3.3-2.7 6-6 6h-24c-3.3 0-6-2.7-6-6v-48.005c0-3.3 2.7-6 6-6h24c3.3 0 6 2.7 6 6z" fill="#656d78"/><path d="m32 53.496c1.1 0 2 .9 2 2 0 1.11-.9 2-2 2s-2-.89-2-2c0-1.1.9-2 2-2z" fill="#aab2bd"/><path d="m29.03 4.498c-.553 0-1.005-.447-1.005-1s.442-1 .994-1h.011c.552 0 1 .447 1 1s-.448 1-1 1z" fill="#5d9cec"/><path d="m35 4.498h-3c-.553 0-1-.447-1-1s.447-1 1-1h3c.553 0 1 .447 1 1s-.447 1-1 1z" fill="#545c66"/><path d="m16 6.998h32v44h-32z" fill="#e6e9ed"/><path d="m44 10.996h-24c-.55 0-1 .45-1 1v24h13 13v-24c0-.55-.45-1-1-1z" fill="#ed5565"/><g fill="#fff"><path d="m25.001 42.996c1.1 0 2 .9 2 2s-.9 2-2 2-2-.9-2-2 .9-2 2-2z"/><path d="m38.999 42.996c1.1 0 2 .9 2 2s-.9 2-2 2-2-.9-2-2 .9-2 2-2z"/><path d="m32 41.496c1.937 0 3.5 1.563 3.5 3.5s-1.563 3.5-3.5 3.5-3.5-1.563-3.5-3.5 1.563-3.5 3.5-3.5z"/></g><path d="m30 24.996c1.65 0 3 1.34 3 3s-1.35 3-3 3c-1.66 0-3-1.34-3-3s1.34-3 3-3z" fill="#e6e9ed"/><path d="m32.997 29c-.553 0-1-.447-1-1v-11.003c0-.553.447-1 1-1s1 .447 1 1v11.003c0 .553-.447 1-1 1z" fill="#ccd1d9"/><path d="m37.998 19.999c-.124 0-.25-.022-.372-.071l-5.001-2.002c-.513-.206-.762-.788-.557-1.301.206-.513.787-.762 1.301-.557l5.001 2.002c.513.206.762.788.557 1.301-.157.391-.532.628-.929.628z" fill="#ccd1d9"/><path d="m29.997 32c-2.206 0-4-1.794-4-4s1.794-4 4-4 4 1.794 4 4-1.794 4-4 4zm0-6c-1.103 0-2 .897-2 2s.897 2 2 2 2-.897 2-2-.897-2-2-2z" fill="#e6e9ed"/><path d="m32.03 46c-.553 0-1.005-.447-1.005-1s.442-1 .994-1h.011c.552 0 1 .447 1 1s-.448 1-1 1z" fill="#e6e9ed"/><path d="m19 35.996v2c0 .55.45 1 1 1h12v-3z" fill="#545c66"/><path d="m32 38.996h12c.55 0 1-.45 1-1v-2h-13z" fill="#656d78"/></symbol><symbol id="cocktail" viewBox="-65 0 512 512.00493"><title>cocktail</title><path d="m176.0625 424.078125c-70.574219 0-128-57.425781-128-128 0-4.425781 3.578125-8 8-8 4.425781 0 8 3.574219 8 8 0 61.757813 50.242188 112 112 112 61.761719 0 112-50.242187 112-112 0-4.425781 3.578125-8 8-8 4.425781 0 8 3.574219 8 8 0 70.574219-57.414062 128-128 128zm0 0"/><path d="m56.0625 304.078125c-4.421875 0-8-3.578125-8-8v-168.03125c0-4.425781 3.578125-8 8-8 4.425781 0 8 3.574219 8 8v168.03125c0 4.421875-3.574219 8-8 8zm0 0"/><path d="m296.0625 304.078125c-4.421875 0-8-3.578125-8-8v-168.03125c0-4.425781 3.578125-8 8-8 4.425781 0 8 3.574219 8 8v168.03125c0 4.421875-3.574219 8-8 8zm0 0"/><path d="m176.0625 512.003906c-4.421875 0-8-3.574218-8-8v-87.925781c0-4.425781 3.578125-8 8-8 4.425781 0 8 3.574219 8 8v87.925781c0 4.425782-3.574219 8-8 8zm0 0"/><path d="m280.0625 512.003906h-208c-4.421875 0-8-3.574218-8-8 0-4.421875 3.578125-8 8-8h208c4.425781 0 8 3.578125 8 8 0 4.425782-3.574219 8-8 8zm0 0"/><path d="m296.0625 136.046875h-240c-4.421875 0-8-3.578125-8-8 0-4.425781 3.578125-8 8-8h240c4.425781 0 8 3.574219 8 8 0 4.421875-3.574219 8-8 8zm0 0"/><path d="m296.0625 176.011719h-240c-4.421875 0-8-3.574219-8-8 0-4.421875 3.578125-8 8-8h240c4.425781 0 8 3.578125 8 8 0 4.425781-3.574219 8-8 8zm0 0"/><path d="m260.398438 176.011719c-1.269532 0-2.558594-.304688-3.765626-.941407-3.890624-2.089843-5.367187-6.929687-3.28125-10.832031l38.464844-71.953125c2.078125-3.894531 6.917969-5.359375 10.832032-3.28125 3.886718 2.089844 5.367187 6.929688 3.28125 10.832032l-38.464844 71.953124c-1.433594 2.695313-4.199219 4.222657-7.066406 4.222657zm0 0"/><path d="m373.726562 144.09375c-3.4375 0-6.605468-2.226562-7.65625-5.679688l-34.839843-114.898437c-1.277344-4.222656 1.113281-8.695313 5.335937-9.976563 4.25-1.285156 8.699219 1.113282 9.976563 5.335938l34.839843 114.890625c1.28125 4.222656-1.109374 8.695313-5.335937 9.976563-.765625.238281-1.550781.351562-2.320313.351562zm0 0"/><path d="m224.015625 64.035156c-3.441406 0-6.609375-2.222656-7.65625-5.679687-1.28125-4.222657 1.113281-8.695313 5.335937-9.972657l114.871094-34.832031c4.25-1.289062 8.699219 1.109375 9.976563 5.335938 1.28125 4.222656-1.109375 8.695312-5.335938 9.972656l-114.871093 34.832031c-.777344.234375-1.558594.34375-2.320313.34375zm0 0"/><path d="m373.71875 144.09375c-1.269531 0-2.558594-.304688-3.765625-.945312l-149.714844-80.054688c-3.894531-2.089844-5.367187-6.929688-3.277343-10.832031 2.070312-3.898438 6.917968-5.359375 10.832031-3.28125l149.710937 80.054687c3.894532 2.089844 5.367188 6.929688 3.28125 10.832032-1.433594 2.691406-4.203125 4.226562-7.066406 4.226562zm0 0"/><path d="m103.984375 176.011719c-2.71875 0-5.367187-1.382813-6.863281-3.878907l-95.976563-160.007812c-2.273437-3.792969-1.0468748-8.703125 2.742188-10.976562 3.800781-2.289063 8.707031-1.046876 10.976562 2.738281l95.96875 160.007812c2.273438 3.789063 1.046875 8.703125-2.742187 10.972657-1.289063.777343-2.714844 1.144531-4.105469 1.144531zm0 0"/><path d="m240.230469 352.078125c-4.421875 0-8.039063-3.578125-8.039063-8 0-4.425781 3.535156-8 7.953125-8h.085938c4.417969 0 8 3.574219 8 8 0 4.421875-3.582031 8-8 8zm0 0"/><path d="m208.214844 320.078125c-4.421875 0-8.039063-3.578125-8.039063-8 0-4.425781 3.535157-8 7.953125-8h.085938c4.417968 0 8 3.574219 8 8 0 4.421875-3.582032 8-8 8zm0 0"/><path d="m256.214844 296.078125c-4.421875 0-8.039063-3.578125-8.039063-8 0-4.425781 3.535157-8 7.953125-8h.085938c4.417968 0 8 3.574219 8 8 0 4.421875-3.582032 8-8 8zm0 0"/></symbol><symbol id="cocktail-1" viewBox="0 0 511.992 511.992"><title>cocktail-1</title><g> <g> <path d="M404.926,327.104c0-27.68-13.5-76.249-22.733-98.811c-15.25-37.296,0-100.295,0-100.295h-24.016L394.848,13.93 c0.328-1.031,0.516-2.125,0.516-3.266c0-5.89-4.781-10.664-10.671-10.664c-4.75,0-8.781,3.109-10.156,7.406V7.399l-0.016,0.039 c0,0.031-0.016,0.062-0.031,0.094l-38.719,120.467h-47.077h-22.397c-14.75-25.46-42.312-42.601-73.905-42.601 c-47.124,0-85.326,38.147-85.326,85.202h94.357c1.297,19.07,0.594,40.968-6.25,57.694c-9.219,22.562-22.719,71.131-22.719,98.811 c0,64.882,46.375,95.975,105.568,99.256v64.296h-53.335c-5.89,0-10.671,4.781-10.671,10.672s4.781,10.663,10.671,10.663h128.006 c5.891,0,10.672-4.772,10.672-10.663s-4.781-10.672-10.672-10.672h-53.328v-64.296 C358.552,423.079,404.926,391.986,404.926,327.104z M132.063,149.271c2.016-5.64,4.797-10.914,8.219-15.695l15.703,15.695H132.063 z M181.734,144.85l-26.343-26.328c7.703-5.468,16.655-9.265,26.343-10.898V144.85z M351.317,149.334h5.391v0 c-0.531,4-1.047,8.312-1.469,12.844c-2.766,29.632-0.547,53.999,6.562,72.483h-37.922L351.317,149.334z M288.694,149.334h40.217 l-27.437,85.327h-85.896c7.108-18.484,9.327-42.851,6.562-72.483c-0.422-4.531-0.938-8.844-1.483-12.844H288.694z M203.063,107.624c9.687,1.633,18.639,5.43,26.327,10.898l-9.483,9.477h-16.844V107.624z M288.693,405.329 c-28.741,0-52.647-6.758-69.131-19.538c-17.109-13.25-25.781-32.999-25.781-58.687c0-17.898,7.062-48.202,14.234-71.108h161.349 c7.172,22.906,14.234,53.209,14.234,71.108c0,25.688-8.672,45.437-25.781,58.687C341.317,398.571,317.427,405.329,288.693,405.329 z"/> </g> </g><g> <g> <path d="M363.364,341.331c-5.906,0-10.672,4.773-10.672,10.664s4.766,10.664,10.672,10.664c5.875,0,10.656-4.773,10.656-10.664 S369.239,341.331,363.364,341.331z"/> </g> </g><g> <g> <path d="M341.802,298.659c-5.891,0-10.672,4.781-10.672,10.672s4.781,10.664,10.672,10.664s10.672-4.773,10.672-10.664 S347.693,298.659,341.802,298.659z"/> </g> </g></symbol><symbol id="toast" viewBox="0 0 512.001 512.001"><title>toast</title><g> <g> <path d="M120.699,29.018l-3.202,9.484c-0.633,1.883-15.648,46.632-26.914,99.444c-15.5,72.679-15.906,123.116-1.195,149.913 c4.562,8.312,10.531,14.499,17.828,18.499l-32.82,122.468l-44.718,25.828l-16.25-4.358c-5.688-1.531-11.539,1.844-13.062,7.547 c-1.18,4.391,0.578,8.857,4.055,11.39l130.983,35.094c4.273-0.438,8.031-3.438,9.21-7.844c1.523-5.688-1.852-11.531-7.546-13.062 l-16.25-4.345l-25.814-44.719l32.898-122.779c19.484-0.109,38.242-13.72,55.734-40.5c12.844-19.655,25.406-46.82,37.328-80.757 c20.07-57.108,31.406-113.202,31.882-115.562l1.961-9.812L120.699,29.018z M58.817,462.451l20.836-12.016l12.031,20.827 L58.817,462.451z M200.84,183.251c-11.36,32.32-23.149,57.944-35.063,76.155c-9.195,14.078-23.258,30.828-38.085,30.828 c-1.727,0-3.414-0.203-5.164-0.625c-6.203-1.547-10.796-5.359-14.437-12c-9.938-18.094-10.688-54.867-2.383-105.03h98.78 C203.3,176.134,202.09,179.696,200.84,183.251z M211.261,151.251H109.614c0.578-2.859,1.172-5.742,1.789-8.664 c8.015-37.593,18.226-71.772,23.242-87.749l95.178,25.507C226.753,94.157,220.378,121.103,211.261,151.251z"/> </g> </g><g> <g> <path d="M511.632,436.498c-1.531-5.672-7.375-9.062-13.062-7.53l-16.25,4.344l-44.719-25.827L404.696,284.72 c7.375-4.298,13.391-10.828,17.938-19.517c14.344-27.421,13.812-77.812-1.531-149.764c-11.155-52.343-25.968-96.429-26.607-98.28 l-3.203-9.484L257.183,43.62l1.969,9.812c0.484,2.359,11.867,58.515,31.844,115.686c11.859,33.977,24.328,61.164,37.016,80.835 c17.406,26.937,36,40.593,55.312,40.593c0.28,0,0.562-0.017,0.844-0.031l32.827,122.499l-25.827,44.718l-16.234,4.359 c-5.703,1.516-9.078,7.374-7.547,13.062c1.188,4.392,4.938,7.392,9.219,7.828l130.967-35.093 C511.054,445.373,512.82,440.888,511.632,436.498z M282.182,59.001l95.171-25.499c4.97,15.766,14.97,49.288,22.906,86.39 c0.719,3.422,1.406,6.758,2.062,10.023H300.712C291.634,99.774,285.259,72.83,282.182,59.001z M389.056,268.375 c-1.922,0.547-3.844,0.828-5.733,0.828c-14.438,0-28.282-16.718-37.345-30.758c-11.78-18.218-23.483-43.851-34.78-76.171 c-1.281-3.688-2.531-7.359-3.75-11.023h98.779c10.125,61.492,4.625,90.46-2.499,104.077 C400.072,262.296,395.29,266.578,389.056,268.375z M420.321,449.919l12.03-20.828l20.827,12.03L420.321,449.919z"/> </g> </g></symbol><symbol id="cake" viewBox="0 0 511.99 511.99"><title>cake</title><g> <g> <path d="M415.988,383.993V277.331h-53.327v-106.67H287.99V85.334h-31.999h-32v85.327h-74.662v106.67H95.994v106.662H42.659V511.99 h426.672V383.993H415.988z M394.661,298.666v15.617h-0.001c-5.625-3.25-10.515-7.789-14.233-13.383l-1.484-2.234H394.661z M399.707,405.328l-1.484,2.234c-7.953,11.961-21.233,19.094-35.562,19.094c-14.329,0-27.625-7.133-35.562-19.094l-1.5-2.234 H399.707z M341.333,191.996v15.609c-5.625-3.242-10.516-7.773-14.234-13.367l-1.5-2.242H341.333z M346.38,298.666l-1.484,2.234 c-7.953,11.953-21.25,19.094-35.562,19.094c-14.328,0-27.625-7.141-35.577-19.094l-1.484-2.234H346.38z M245.327,106.662h21.328 v63.999h-21.328V106.662z M293.052,191.996l-1.484,2.242c-7.953,11.953-21.257,19.093-35.577,19.093s-27.617-7.141-35.569-19.093 l-1.485-2.242H293.052z M170.657,191.995h15.726v0.001l-1.492,2.242c-3.719,5.594-8.609,10.132-14.234,13.382V191.995z M170.656,231.011c13.188-4.664,24.391-13.515,32-24.968c11.469,17.25,31.069,28.617,53.335,28.617 c22.265,0,41.874-11.367,53.343-28.617c7.609,11.453,18.812,20.297,31.999,24.953v46.335H170.656V231.011z M239.71,298.666 l-1.484,2.234c-7.953,11.953-21.241,19.094-35.569,19.094c-14.32,0-27.617-7.141-35.562-19.094l-1.492-2.234H239.71z M117.33,298.665h15.718v0.001l-1.484,2.234c-3.727,5.594-8.617,10.125-14.234,13.367V298.665z M117.329,337.682 c13.18-4.656,24.383-13.516,32-24.969c11.461,17.25,31.069,28.617,53.327,28.617c22.265,0,41.866-11.367,53.335-28.617 c11.469,17.25,31.077,28.617,53.343,28.617c22.249,0,41.858-11.367,53.327-28.617c7.609,11.453,18.812,20.305,31.999,24.961 v46.319H117.329V337.682z M293.053,405.328l-1.484,2.234c-7.953,11.961-21.257,19.094-35.577,19.094s-27.617-7.133-35.569-19.094 l-1.484-2.234H293.053z M186.383,405.328l-1.492,2.234c-7.945,11.961-21.241,19.094-35.562,19.094 c-14.328,0-27.625-7.133-35.57-19.094l-1.484-2.234H186.383z M63.995,405.327h15.718v0.001l-1.484,2.234 c-3.719,5.594-8.617,10.125-14.234,13.367V405.327z M447.987,490.656H63.994v-0.001v-46.319c13.188-4.664,24.391-13.508,32-24.961 c11.469,17.242,31.069,28.617,53.335,28.617c22.257,0,41.866-11.375,53.327-28.617c11.469,17.242,31.069,28.617,53.335,28.617 c22.265,0,41.874-11.375,53.343-28.617c11.452,17.242,31.062,28.617,53.327,28.617c22.265,0,41.858-11.375,53.327-28.617 c7.609,11.453,18.812,20.305,31.999,24.969V490.656z M447.988,420.937L447.988,420.937c-5.61-3.25-10.517-7.781-14.235-13.375 l-1.484-2.234h15.719V420.937z"/> </g> </g><g> <g> <path d="M255.991,0c0,0-32,35.655-32,53.335c0,17.671,14.328,32,32,32s31.999-14.329,31.999-32C287.99,35.655,255.991,0,255.991,0 z M255.991,63.998c-5.758,0-10.461-4.585-10.664-10.296c0.234-1.016,1.812-6.727,10.664-19.351 c8.852,12.625,10.43,18.335,10.664,19.351C266.452,59.413,261.749,63.998,255.991,63.998z"/> </g> </g></symbol><symbol id="microphone" viewBox="0 0 511.982 511.982"><title>microphone</title><g> <g> <path d="M426.703,448.154c-1.655,0-3.202,0.375-4.593,1.047v-0.016c-58.717,27.951-139.995,56.295-193.759,32.654 c-14.844-6.529-24.046-15.545-29.593-23.014h3.859c5.906,0,10.671-4.781,10.671-10.672v-42.686h10.422l31.749-222.054 c20.063-19.398,32.546-46.592,32.546-76.708C288.006,47.78,240.241,0,181.306,0S74.607,47.78,74.607,106.707 c0,29.819,12.234,56.771,31.952,76.138l31.795,222.624h10.922v42.686c0,5.891,4.781,10.672,10.672,10.672h13.983 c5.203,10.672,17.858,29.967,45.029,42.186c16.234,7.297,35.218,10.969,56.654,10.969c7.5,0,15.296-0.438,23.374-1.344 c37.827-4.203,82.341-18.406,132.292-42.17v-0.016c3.595-1.72,6.095-5.376,6.095-9.626 C437.375,452.935,432.594,448.154,426.703,448.154z M117.276,154.72c-2.016,0-3.891,0.57-5.499,1.539 c-5.186-7.249-9.171-15.218-11.843-23.655c3.906-1.578,6.672-5.406,6.672-9.89c0-5.836-4.688-10.57-10.5-10.664 c-0.109-1.773-0.156-3.555-0.156-5.344c0-22.804,8.875-44.24,24.999-60.357c2.328-2.336,4.766-4.508,7.313-6.523 c1.109,4.695,5.328,8.195,10.358,8.195c5.891,0,10.672-4.781,10.672-10.671c0-3.281-1.484-6.211-3.813-8.172 c11.094-5.125,23.249-7.835,35.827-7.835c12.577,0,24.733,2.711,35.826,7.835c-2.328,1.961-3.813,4.891-3.813,8.172 c0,5.89,4.766,10.671,10.672,10.671c5.031,0,9.25-3.5,10.359-8.195c2.547,2.016,4.983,4.188,7.312,6.523 c16.125,16.117,25,37.553,25,60.357c0,1.789-0.063,3.57-0.172,5.344c-5.813,0.094-10.5,4.828-10.5,10.664 c0,4.484,2.766,8.312,6.688,9.89c-2.672,8.437-6.656,16.406-11.844,23.655c-1.609-0.969-3.5-1.539-5.516-1.539 c-5.891,0-10.655,4.781-10.655,10.671c0,2.344,0.75,4.5,2.031,6.266c-4.359,3.734-9.047,6.992-14,9.742h-82.778 c-4.952-2.75-9.64-6.008-14.015-9.742c1.281-1.766,2.047-3.922,2.047-6.266C127.948,159.501,123.182,154.72,117.276,154.72z M156.87,384.125l-25.905-181.383h100.184l-25.937,181.383H156.87z M191.962,416.14c-5.89,0.016-10.655,4.781-10.655,10.67 c0,5.891,4.766,10.656,10.655,10.672h-21.327c5.891,0,10.672-4.781,10.672-10.672c0-5.889-4.781-10.67-10.672-10.67h-0.016 v-10.672h21.343V416.14z"/> </g> </g><g> <g> <path d="M181.306,26.679c-5.891,0-10.672,4.781-10.672,10.672c0.001,5.889,4.782,10.671,10.672,10.671 c5.891,0,10.671-4.781,10.671-10.671C191.977,31.46,187.197,26.679,181.306,26.679z"/> </g> </g><g> <g> <path d="M117.277,69.357c-5.89,0-10.671,4.781-10.671,10.671c0,5.899,4.781,10.671,10.671,10.671 c5.906,0,10.672-4.773,10.672-10.671C127.949,74.138,123.183,69.357,117.277,69.357z"/> </g> </g><g> <g> <path d="M159.964,69.357c-5.891,0-10.672,4.781-10.672,10.671c0,5.899,4.781,10.671,10.672,10.671 c5.89,0,10.671-4.773,10.671-10.671C170.635,74.138,165.854,69.357,159.964,69.357z"/> </g> </g><g> <g> <path d="M202.649,69.357c-5.891,0-10.672,4.781-10.672,10.671c0,5.899,4.782,10.671,10.672,10.671 c5.891,0,10.671-4.773,10.671-10.671C213.32,74.138,208.54,69.357,202.649,69.357z"/> </g> </g><g> <g> <path d="M245.319,69.357c-5.891,0-10.655,4.781-10.655,10.671c0,5.899,4.765,10.671,10.655,10.671 c5.906,0,10.672-4.773,10.672-10.671C255.991,74.138,251.225,69.357,245.319,69.357z"/> </g> </g><g> <g> <path d="M138.62,112.044c-5.89,0-10.671,4.773-10.671,10.671c0,5.889,4.781,10.671,10.671,10.671 c5.891,0,10.672-4.781,10.672-10.671C149.292,116.817,144.511,112.044,138.62,112.044z"/> </g> </g><g> <g> <path d="M181.306,112.043c-5.891,0-10.672,4.773-10.672,10.671c0,5.89,4.781,10.671,10.672,10.671s10.671-4.781,10.671-10.671 C191.977,116.816,187.197,112.043,181.306,112.043z"/> </g> </g><g> <g> <path d="M223.992,112.044c-5.906,0-10.672,4.773-10.672,10.671c0,5.889,4.766,10.671,10.672,10.671 c5.891,0,10.672-4.781,10.672-10.671C234.664,116.817,229.883,112.044,223.992,112.044z"/> </g> </g><g> <g> <path d="M159.964,154.72c-5.891,0-10.672,4.781-10.672,10.671c0,5.891,4.781,10.671,10.672,10.671 c5.89,0,10.671-4.781,10.671-10.671C170.635,159.502,165.853,154.72,159.964,154.72z"/> </g> </g><g> <g> <path d="M202.649,154.72c-5.891,0-10.672,4.781-10.672,10.671c0,5.891,4.781,10.671,10.672,10.671s10.671-4.781,10.671-10.671 C213.32,159.502,208.54,154.72,202.649,154.72z"/> </g> </g><g> <g> <path d="M191.978,277.425h-0.016v-21.342c0-5.89-4.78-10.663-10.671-10.663c-5.891,0-10.672,4.773-10.672,10.663v21.342 c-5.891,0-10.671,4.781-10.671,10.672s4.78,10.672,10.671,10.672v21.344c0,5.889,4.781,10.67,10.672,10.67 s10.671-4.781,10.671-10.67v-21.344h0.016c5.906,0,10.672-4.781,10.672-10.672S197.884,277.425,191.978,277.425z"/> </g> </g></symbol><symbol id="cutlery" viewBox="0 0 511.968 511.968"><title>cutlery</title><g> <g> <path d="M159.536,3.125c-4.172-4.164-10.922-4.164-15.093,0c-2.078,2.077-3.125,4.812-3.125,7.538v95.994h-21.327V10.663 c0-2.727-1.047-5.461-3.125-7.538c-4.155-4.164-10.921-4.164-15.077,0c-2.093,2.077-3.124,4.812-3.124,7.538v95.994H77.323V10.663 c0-2.727-1.031-5.461-3.125-7.538c-4.156-4.164-10.921-4.164-15.077,0c-2.094,2.085-3.125,4.812-3.125,7.546v95.986v63.996 c0,0,14.046,11.233,31.936,17.397l0.062,25.271c0,0-21.326,191.996-21.326,255.992c0,21.312,10.655,42.654,42.653,42.654 c31.998,0,42.669-21.342,42.669-42.654c0-63.996-21.326-255.992-21.326-255.992l-0.016-25.248 c17.92-6.156,32.014-17.421,32.014-17.421v-61.434V10.663C162.661,7.936,161.615,5.202,159.536,3.125z M130.664,469.314 c0,6.703-1.562,12.281-4.391,15.656c-3.125,3.766-8.828,5.656-16.952,5.656c-8.109,0-13.812-1.891-16.937-5.656 c-2.828-3.391-4.391-8.953-4.391-15.656c0-62.09,20.983-251.734,21.202-253.641l0.125-1.18v0.016l0.141,1.164 C109.665,217.58,130.664,407.224,130.664,469.314z M141.319,159.451c-8.484,5.179-21.03,11.202-31.998,11.202 c-10.952,0-23.499-6.023-31.998-11.202v-31.459h63.996V159.451z"/> </g> </g><g> <g> <path d="M333.307,115.196C333.307,62.175,304.669,0,269.311,0c-35.342,0-63.996,62.176-63.996,115.196 c0,41.755,17.78,65.37,42.606,73.519l0.063,24.607c0,0-21.326,191.996-21.326,255.992c0,21.312,10.655,42.654,42.653,42.654 c31.998,0,42.669-21.342,42.669-42.654c0-63.996-21.326-255.992-21.326-255.992l-0.016-24.584 C315.495,180.613,333.307,156.99,333.307,115.196z M290.654,469.314c0,6.703-1.562,12.266-4.391,15.656 c-3.125,3.766-8.828,5.656-16.952,5.656c-8.108,0-13.812-1.891-16.937-5.656c-2.828-3.375-4.391-8.953-4.391-15.656 c0-62.09,20.999-251.734,21.202-253.641l0.125-1.18v0.016l0.141,1.164C269.655,217.58,290.654,407.224,290.654,469.314z M298.873,159.021c-7.109,7.718-17.047,11.632-29.562,11.632c-12.499,0-22.437-3.914-29.561-11.632 c-8.562-9.312-13.093-24.46-13.093-43.825c0-22.772,6.093-48.044,16.312-67.605c10.124-19.382,20.515-26.257,26.342-26.257 c5.828,0,16.218,6.875,26.343,26.257c10.233,19.562,16.326,44.833,16.326,67.605C311.98,134.561,307.45,149.709,298.873,159.021z"/> </g> </g><g> <g> <path d="M441.707,277.17c5.062-0.844,8.938-5.227,8.938-10.521c0-5.891-4.781-10.664-10.672-10.664h-0.016h-0.016l0.031-249.017 c0,0-6.437-6.921-15.217-6.921c-18.938,0-48.779,32.092-48.779,234.603l21.187,21.334h0.141c-5.89,0-10.655,4.773-10.655,10.664 c0,5.256,3.797,9.615,8.812,10.49c-5.484,54.84-14.156,148.43-14.156,192.176c0,21.312,12.703,42.654,37.342,42.654 c24.623,0,37.326-21.342,37.326-42.654C455.972,425.568,447.238,332.009,441.707,277.17z M409.912,62.464 c2.969-13.491,6.031-22.694,8.719-28.928l-0.016,201.112h-12.578l-8.702-8.772C397.647,154.154,401.881,99.213,409.912,62.464z M429.739,485.502c-2.733,3.5-6.265,5.125-11.093,5.125c-4.828,0-8.359-1.625-11.109-5.125c-3.062-3.938-4.89-9.984-4.89-16.188 c0-43.184,8.796-137.756,14.233-191.988h3.406c5.469,54.232,14.358,148.805,14.358,191.988 C434.645,475.517,432.801,481.564,429.739,485.502z"/> </g> </g></symbol><symbol id="music" viewBox="0 0 511.988 511.988"><title>music</title><path style="fill:#434A54;" d="M255.998,511.973c-5.906,0-10.672-4.766-10.672-10.656V10.656C245.326,4.765,250.092,0,255.998,0 c5.891,0,10.655,4.766,10.655,10.656v490.66C266.653,507.207,261.889,511.973,255.998,511.973z"/><g> <path style="fill:#656D78;" d="M128.001,511.988c-3.438,0-6.828-1.672-8.875-4.766c-3.281-4.891-1.953-11.516,2.953-14.781 l127.997-85.342c4.906-3.266,11.516-1.938,14.797,2.969c3.265,4.891,1.937,11.516-2.969,14.781l-127.997,85.342 C132.095,511.394,130.032,511.988,128.001,511.988z"/> <path style="fill:#656D78;" d="M383.986,511.988c-2.031,0-4.094-0.594-5.906-1.797l-128.004-85.342 c-4.906-3.266-6.234-9.891-2.953-14.781c3.266-4.906,9.875-6.234,14.781-2.969l127.988,85.342c4.906,3.266,6.25,9.891,2.969,14.781 C390.799,510.316,387.424,511.988,383.986,511.988z"/> </g><path style="fill:#ED5564;" d="M383.986,213.323H128.001c-5.906,0-10.672-4.781-10.672-10.672V53.327 c0-5.891,4.766-10.672,10.672-10.672h255.985c5.875,0,10.656,4.781,10.656,10.672v149.324 C394.642,208.542,389.861,213.323,383.986,213.323z"/><path style="fill:#E6E9ED;" d="M351.987,10.656c-1,0-24.874,0.031-49.187,2.734c-16.938,1.891-35.491,4.984-46.803,12.172 c-11.328-7.188-29.874-10.281-46.827-12.172c-24.312-2.703-48.171-2.734-49.171-2.734c-5.906,0-10.672,4.781-10.672,10.672v149.324 c0,5.891,4.766,10.672,10.656,10.672c0.203,0,20.109,0.031,41.265,2.031c33.655,3.188,42.343,8.546,44.171,10.077 c0.016,0.141,0.047,0.266,0.078,0.406c0.016,0.141,0.047,0.281,0.078,0.422c0.047,0.203,0.094,0.391,0.141,0.594 c0.047,0.125,0.078,0.25,0.109,0.391c0.078,0.203,0.156,0.406,0.234,0.609c0.047,0.109,0.078,0.219,0.125,0.328 c0.125,0.281,0.266,0.578,0.406,0.859c0.016,0.016,0.031,0.047,0.047,0.078c0.156,0.266,0.312,0.531,0.484,0.797 c0.062,0.094,0.141,0.188,0.203,0.281c0.125,0.172,0.25,0.344,0.391,0.5c0.078,0.109,0.172,0.203,0.25,0.312 c0.141,0.141,0.266,0.281,0.391,0.422c0.109,0.109,0.203,0.203,0.312,0.297c0.141,0.125,0.266,0.25,0.422,0.375 c0.109,0.094,0.219,0.188,0.328,0.281c0.141,0.109,0.297,0.219,0.453,0.328c0.109,0.078,0.234,0.156,0.359,0.234 c0.156,0.109,0.312,0.203,0.469,0.297c0.125,0.062,0.25,0.141,0.391,0.203c0.156,0.094,0.328,0.172,0.5,0.25 c0.125,0.062,0.266,0.125,0.406,0.172c0.172,0.078,0.359,0.141,0.531,0.203c0.141,0.047,0.266,0.094,0.406,0.125 c0.203,0.062,0.391,0.109,0.594,0.156c0.125,0.031,0.266,0.062,0.391,0.094c0.219,0.047,0.453,0.078,0.688,0.109 c0.109,0.016,0.219,0.031,0.328,0.047c0.359,0.031,0.703,0.047,1.062,0.047c0.344,0,0.688-0.016,1.047-0.047 c0.109-0.016,0.219-0.031,0.328-0.047c0.234-0.031,0.469-0.062,0.688-0.109c0.125-0.031,0.266-0.062,0.391-0.094 c0.203-0.047,0.391-0.094,0.594-0.156c0.141-0.031,0.266-0.078,0.406-0.125c0.172-0.062,0.359-0.125,0.531-0.203 c0.141-0.047,0.281-0.109,0.406-0.172c0.172-0.078,0.344-0.156,0.5-0.25c0.141-0.062,0.266-0.141,0.391-0.203 c0.156-0.094,0.312-0.188,0.469-0.297c0.125-0.078,0.25-0.156,0.359-0.234c0.156-0.109,0.312-0.219,0.453-0.328 c0.109-0.094,0.219-0.188,0.328-0.281c0.156-0.125,0.281-0.25,0.422-0.375c0.109-0.094,0.203-0.188,0.312-0.297 c0.125-0.141,0.25-0.281,0.391-0.422c0.078-0.109,0.172-0.203,0.25-0.312c0.141-0.156,0.266-0.328,0.391-0.5 c0.062-0.094,0.141-0.188,0.203-0.281c0.172-0.266,0.328-0.531,0.484-0.797c0.016-0.031,0.031-0.062,0.047-0.078 c0.141-0.281,0.281-0.578,0.406-0.859c0.046-0.109,0.077-0.219,0.124-0.328c0.078-0.203,0.156-0.406,0.234-0.609 c0.031-0.141,0.062-0.266,0.109-0.391c0.047-0.203,0.109-0.391,0.141-0.594c0.031-0.141,0.062-0.281,0.078-0.422 c0.031-0.141,0.062-0.266,0.078-0.406c1.828-1.531,10.523-6.89,44.179-10.077c21.156-2,41.062-2.031,41.249-2.031 c5.875,0,10.656-4.781,10.656-10.672V21.328C362.643,15.437,357.862,10.656,351.987,10.656z"/><path style="fill:#CCD1D9;" d="M266.653,20.547c-3.968,1.406-7.577,3.062-10.655,5.016c-3.094-1.953-6.703-3.609-10.672-5.016 v172.807c0.031,0.031,0.062,0.062,0.094,0.078c0.016,0.141,0.047,0.266,0.078,0.406c0.016,0.141,0.047,0.281,0.078,0.422 c0.047,0.203,0.094,0.391,0.141,0.594c0.047,0.125,0.078,0.25,0.109,0.391c0.078,0.203,0.156,0.406,0.234,0.609 c0.047,0.109,0.078,0.219,0.125,0.328c0.125,0.281,0.266,0.578,0.406,0.859c0.016,0.016,0.031,0.047,0.047,0.078 c0.156,0.266,0.312,0.531,0.484,0.797c0.062,0.094,0.141,0.188,0.203,0.281c0.125,0.172,0.25,0.344,0.391,0.5 c0.078,0.109,0.172,0.203,0.25,0.312c0.141,0.141,0.266,0.281,0.391,0.422c0.109,0.109,0.203,0.203,0.312,0.297 c0.141,0.125,0.266,0.25,0.422,0.375c0.109,0.094,0.219,0.188,0.328,0.281c0.141,0.109,0.297,0.219,0.453,0.328 c0.109,0.078,0.234,0.156,0.359,0.234c0.156,0.109,0.312,0.203,0.469,0.297c0.125,0.062,0.25,0.141,0.391,0.203 c0.156,0.094,0.328,0.172,0.5,0.25c0.125,0.062,0.266,0.125,0.406,0.172c0.172,0.078,0.359,0.141,0.531,0.203 c0.141,0.047,0.266,0.094,0.406,0.125c0.203,0.062,0.391,0.109,0.594,0.156c0.125,0.031,0.266,0.062,0.391,0.094 c0.219,0.047,0.453,0.078,0.688,0.109c0.109,0.016,0.219,0.031,0.328,0.047c0.359,0.031,0.703,0.047,1.062,0.047 c0.344,0,0.688-0.016,1.047-0.047c0.109-0.016,0.219-0.031,0.328-0.047c0.234-0.031,0.469-0.062,0.688-0.109 c0.125-0.031,0.266-0.062,0.391-0.094c0.203-0.047,0.391-0.094,0.594-0.156c0.141-0.031,0.266-0.078,0.406-0.125 c0.172-0.062,0.359-0.125,0.531-0.203c0.141-0.047,0.281-0.109,0.406-0.172c0.172-0.078,0.344-0.156,0.5-0.25 c0.141-0.062,0.266-0.141,0.391-0.203c0.156-0.094,0.312-0.188,0.469-0.297c0.125-0.078,0.25-0.156,0.359-0.234 c0.156-0.109,0.312-0.219,0.453-0.328c0.109-0.094,0.219-0.188,0.328-0.281c0.156-0.125,0.281-0.25,0.422-0.375 c0.109-0.094,0.203-0.188,0.312-0.297c0.125-0.141,0.25-0.281,0.391-0.422c0.078-0.109,0.172-0.203,0.25-0.312 c0.141-0.156,0.266-0.328,0.391-0.5c0.062-0.094,0.141-0.188,0.203-0.281c0.172-0.266,0.328-0.531,0.484-0.797 c0.016-0.031,0.031-0.062,0.047-0.078c0.141-0.281,0.281-0.578,0.406-0.859c0.046-0.109,0.077-0.219,0.124-0.328 c0.078-0.203,0.156-0.406,0.234-0.609c0.031-0.141,0.062-0.266,0.109-0.391c0.047-0.203,0.109-0.391,0.141-0.594 c0.031-0.141,0.062-0.281,0.078-0.422c0.031-0.141,0.062-0.266,0.078-0.406c0.031-0.016,0.062-0.047,0.094-0.078L266.653,20.547 L266.653,20.547z"/><path style="fill:#656D78;" d="M394.642,213.323H117.329c-5.891,0-10.671-4.781-10.671-10.672s4.78-10.672,10.671-10.672h277.313 c5.906,0,10.688,4.781,10.688,10.672S400.549,213.323,394.642,213.323z"/></symbol><symbol id="technology" viewBox="-37 0 508 508.83612"><title>technology</title><path d="m335.640625 202.992188-74.664063 27.160156-156.078124 156.066406c-6.214844 6.214844-16.410157 6.230469-22.625 0l-33.933594-33.9375c-6.28125-6.277344-6.21875-16.40625 0-22.632812l156.070312-156.070313 27.097656-74.71875zm-236.390625 143.625c3.113281-3.109376 3.121094-8.199219 0-11.3125-3.113281-3.109376-8.199219-3.109376-11.3125 0-3.113281 3.113281-3.113281 8.203124 0 11.3125 3.113281 3.113281 8.199219 3.113281 11.3125 0zm0 0" fill="#656d78"/><path d="m286.890625 348.480469c-7.648437-7.644531-17.816406-11.855469-28.617187-11.863281-10.800782-.007813-20.945313 4.183593-28.566407 11.824218-.058593.058594-.066406.121094-.113281.167969-.0625.046875-.128906.058594-.167969.113281l-137.757812 137.742188c-18.984375 18.96875-49.921875 18.984375-68.953125.050781 0 0-.015625-.007813-.015625-.015625-9.21875-9.210938-14.289063-21.472656-14.28125-34.507812.007812-13.03125 5.082031-25.277344 14.296875-34.492188l20.472656-20.472656c1.558594-1.5625 1.558594-4.097656 0-5.65625-1.5625-1.5625-4.097656-1.570313-5.65625 0l-20.472656 20.464844c-10.71875 10.726562-16.632813 24.980468-16.640625 40.148437-.007813 15.179687 5.886719 29.449219 16.632812 40.179687.007813.007813.007813.007813.007813.007813 22.167968 22.054687 58.167968 22.039063 80.261718-.050781l137.753907-137.75c.046875-.058594.0625-.121094.113281-.167969.054688-.050781.125-.066406.167969-.121094 6.109375-6.121093 14.246093-9.480469 22.902343-9.480469 8.671876.007813 16.832032 3.382813 22.96875 9.519532 12.625 12.632812 12.625 33.191406 0 45.832031l-102.039062 102.058594c-1.5625 1.558593-1.5625 4.09375 0 5.65625 1.558594 1.558593 4.09375 1.558593 5.65625 0l102.046875-102.050781c15.742187-15.742188 15.742187-41.375 0-57.136719zm0 0" fill="#434a54"/><path d="m101.585938 340.960938c0 4.417968-3.582032 8-8 8-4.417969 0-8-3.582032-8-8 0-4.417969 3.582031-8 8-8 4.417968 0 8 3.582031 8 8zm0 0" fill="#ed5565"/><path d="m218.546875 210.339844c-1.542969-1.554688-4.097656-1.554688-5.65625 0l-11.3125 11.328125c-1.542969 1.550781-4.097656 4.101562-5.65625 5.652343l-11.3125 11.3125c-1.550781 1.554688-1.550781 4.105469 0 5.65625l5.65625 5.65625c1.550781 1.554688 4.097656 1.554688 5.65625 0l11.320313-11.3125c1.550781-1.550781 4.105468-4.09375 5.65625-5.65625l11.3125-11.308593c1.550781-1.554688 1.550781-4.105469 0-5.65625zm0 0" fill="#e6e9ed"/><path d="m197.875 225.371094c-.714844.71875-1.394531 1.398437-1.953125 1.949218l-11.3125 11.3125c-1.550781 1.5625-1.550781 4.105469 0 5.65625l5.65625 5.65625c1.550781 1.554688 4.097656 1.554688 5.65625 0l5.65625-5.65625 8.496094-8.488281-11.320313-11.3125zm0 0" fill="#ccd1d9"/><path d="m391.089844 167.921875-11.320313 11.320313c-12.503906 12.503906-27.878906 20.425781-44.128906 23.761718l-1.132813-1.144531-103-103c3.398438-16.183594 11.316407-31.578125 23.8125-44.074219l11.320313-11.320312zm0 0" fill="#ccd1d9"/><path d="m408.058594 150.945312-5.65625 5.65625-124.457032-124.449218 5.65625-5.652344c34.222657-34.21875 90.222657-34.226562 124.457032 0 17.078125 17.09375 25.6875 39.71875 25.6875 62.214844 0 22.535156-8.609375 45.160156-25.6875 62.230468zm0 0" fill="#ccd1d9"/><g fill="#aab2bd"><path d="m246.976562 74.738281c-1.558593-1.550781-1.589843-4.121093-.03125-5.679687 1.5625-1.558594 4.066407-1.59375 5.625-.03125l.0625.054687c1.5625 1.558594 1.5625 4.097657 0 5.65625-1.558593 1.566407-4.085937 1.566407-5.65625 0zm0 0"/><path d="m246.976562 97.386719c-1.558593-1.5625-1.589843-4.128907-.03125-5.6875 1.5625-1.5625 4.066407-1.59375 5.632813-.03125l.054687.054687c1.5625 1.566406 1.5625 4.09375 0 5.664063-1.558593 1.558593-4.085937 1.558593-5.65625 0zm0 0"/><path d="m269.601562 74.738281c-1.558593-1.550781-1.589843-4.121093-.03125-5.679687 1.558594-1.558594 4.0625-1.59375 5.625-.03125l.0625.054687c1.558594 1.558594 1.558594 4.097657 0 5.65625-1.558593 1.566407-4.085937 1.566407-5.65625 0zm0 0"/><path d="m269.59375 97.386719c-1.558594-1.5625-1.582031-4.128907-.023438-5.6875 1.558594-1.5625 4.0625-1.585938 5.625-.023438l.054688.054688c1.558594 1.558593 1.558594 4.09375 0 5.65625-1.558594 1.558593-4.089844 1.558593-5.65625 0zm0 0"/><path d="m269.601562 120.003906c-1.558593-1.554687-1.589843-4.121094-.03125-5.683594 1.558594-1.558593 4.0625-1.589843 5.625-.03125l.0625.058594c1.558594 1.566406 1.558594 4.09375 0 5.65625-1.558593 1.574219-4.085937 1.574219-5.65625 0zm0 0"/><path d="m292.242188 29.5c-1.550782-1.5625-1.585938-4.128906-.023438-5.691406 1.558594-1.558594 4.0625-1.582032 5.625-.023438l.054688.058594c1.566406 1.558594 1.558593 4.09375 0 5.65625-1.558594 1.558594-4.097657 1.558594-5.65625 0zm0 0"/><path d="m292.234375 97.386719c-1.558594-1.5625-1.59375-4.128907-.023437-5.6875 1.558593-1.5625 4.0625-1.59375 5.632812-.03125l.046875.054687c1.558594 1.566406 1.558594 4.09375 0 5.664063-1.570313 1.558593-4.097656 1.558593-5.65625 0zm0 0"/><path d="m292.234375 120.019531c-1.558594-1.5625-1.59375-4.121093-.023437-5.679687 1.558593-1.5625 4.070312-1.59375 5.632812-.035156l.046875.058593c1.558594 1.558594 1.558594 4.09375 0 5.65625-1.5625 1.558594-4.097656 1.566407-5.65625 0zm0 0"/><path d="m292.234375 142.648438c-1.558594-1.558594-1.59375-4.125-.023437-5.6875 1.558593-1.558594 4.070312-1.589844 5.632812-.03125l.046875.054687c1.558594 1.570313 1.558594 4.097656 0 5.664063-1.570313 1.570312-4.097656 1.570312-5.65625 0zm0 0"/><path d="m314.875 29.5c-1.5625-1.5625-1.59375-4.128906-.03125-5.691406 1.558594-1.558594 4.0625-1.582032 5.621094-.023438l.066406.058594c1.558594 1.558594 1.558594 4.09375 0 5.65625-1.5625 1.558594-4.097656 1.558594-5.65625 0zm0 0"/><path d="m314.867188 52.121094c-1.5625-1.558594-1.585938-4.128906-.023438-5.6875 1.558594-1.558594 4.0625-1.582032 5.621094-.023438l.058594.054688c1.558593 1.5625 1.558593 4.097656 0 5.65625-1.5625 1.5625-4.097657 1.5625-5.65625 0zm0 0"/><path d="m314.859375 120.003906c-1.5625-1.554687-1.59375-4.121094-.023437-5.683594 1.558593-1.558593 4.0625-1.589843 5.628906-.03125l.050781.058594c1.558594 1.566406 1.558594 4.09375 0 5.65625-1.570313 1.574219-4.097656 1.574219-5.65625 0zm0 0"/><path d="m314.859375 142.648438c-1.554687-1.558594-1.585937-4.125-.023437-5.6875 1.558593-1.558594 4.070312-1.589844 5.628906-.03125l.058594.054687c1.558593 1.570313 1.558593 4.097656 0 5.664063-1.578126 1.570312-4.097657 1.570312-5.664063 0zm0 0"/><path d="m314.859375 165.273438c-1.5625-1.558594-1.59375-4.128907-.023437-5.6875 1.558593-1.558594 4.0625-1.59375 5.628906-.03125l.050781.054687c1.558594 1.570313 1.558594 4.097656 0 5.65625-1.570313 1.578125-4.097656 1.578125-5.65625.007813zm0 0"/><path d="m337.480469 6.875c-1.558594-1.5625-1.589844-4.128906-.023438-5.6875 1.5625-1.5625 4.066407-1.59375 5.632813-.035156l.046875.066406c1.5625 1.558594 1.5625 4.085938 0 5.65625-1.558594 1.558594-4.09375 1.558594-5.65625 0zm0 0"/><path d="m337.480469 29.507812c-1.558594-1.554687-1.589844-4.121093-.023438-5.683593 1.5625-1.558594 4.066407-1.589844 5.632813-.03125l.046875.058593c1.5625 1.558594 1.5625 4.09375 0 5.65625-1.558594 1.558594-4.09375 1.558594-5.65625 0zm0 0"/><path d="m314.859375 6.882812c1.558594 1.558594 4.09375 1.558594 5.65625 0 .742187-.746093 1.101563-1.695312 1.140625-2.664062-2.367188.671875-4.695312 1.480469-7.007812 2.34375.082031.09375.113281.222656.210937.320312zm0 0"/><path d="m337.5 52.121094c-1.5625-1.558594-1.59375-4.128906-.035156-5.6875 1.5625-1.558594 4.066406-1.582032 5.625-.023438l.0625.054688c1.5625 1.5625 1.5625 4.097656 0 5.65625-1.558594 1.5625-4.09375 1.5625-5.652344 0zm0 0"/><path d="m337.480469 74.769531c-1.558594-1.550781-1.589844-4.121093-.023438-5.679687 1.5625-1.558594 4.066407-1.589844 5.632813-.03125l.046875.054687c1.5625 1.5625 1.5625 4.097657 0 5.65625-1.558594 1.5625-4.09375 1.5625-5.65625 0zm0 0"/><path d="m337.480469 142.625c-1.558594-1.550781-1.589844-4.117188-.023438-5.679688 1.5625-1.558593 4.066407-1.589843 5.632813-.03125l.046875.054688c1.5625 1.5625 1.5625 4.097656 0 5.65625-1.558594 1.578125-4.09375 1.578125-5.65625 0zm0 0"/><path d="m337.480469 165.257812c-1.558594-1.558593-1.589844-4.128906-.023438-5.6875 1.5625-1.558593 4.066407-1.59375 5.632813-.023437l.046875.054687c1.5625 1.5625 1.5625 4.097657 0 5.65625-1.558594 1.558594-4.09375 1.566407-5.65625 0zm0 0"/><path d="m337.480469 187.882812c-1.558594-1.550781-1.589844-4.121093-.03125-5.679687 1.5625-1.5625 4.066406-1.59375 5.625-.03125l.0625.054687c1.5625 1.558594 1.5625 4.09375 0 5.65625-1.558594 1.558594-4.09375 1.558594-5.65625 0zm0 0"/><path d="m360.121094 6.867188c1.5625 1.558593 4.097656 1.558593 5.65625 0 .929687-.929688 1.234375-2.199219 1.058594-3.417969-2.417969-.582031-4.832032-1.078125-7.273438-1.464844-.929688 1.546875-.769531 3.5625.558594 4.882813zm0 0"/><path d="m360.121094 29.5c-1.558594-1.5625-1.589844-4.128906-.03125-5.691406 1.558594-1.558594 4.0625-1.589844 5.625-.03125l.0625.058594c1.5625 1.566406 1.5625 4.09375 0 5.664062-1.558594 1.558594-4.09375 1.558594-5.65625 0zm0 0"/><path d="m360.121094 52.113281c-1.558594-1.550781-1.589844-4.121093-.03125-5.679687s4.0625-1.589844 5.625-.03125l.0625.054687c1.5625 1.570313 1.5625 4.097657 0 5.65625-1.558594 1.570313-4.09375 1.570313-5.65625 0zm0 0"/><path d="m360.121094 74.761719c-1.558594-1.558594-1.589844-4.128907-.03125-5.6875 1.558594-1.558594 4.0625-1.59375 5.625-.03125l.0625.054687c1.5625 1.570313 1.5625 4.097656 0 5.664063-1.558594 1.558593-4.09375 1.558593-5.65625 0zm0 0"/><path d="m360.121094 97.386719c-1.558594-1.5625-1.589844-4.128907-.03125-5.6875 1.558594-1.5625 4.0625-1.59375 5.625-.03125l.0625.054687c1.5625 1.566406 1.5625 4.09375 0 5.664063-1.566406 1.558593-4.09375 1.558593-5.65625 0zm0 0"/><path d="m360.121094 165.25c-1.558594-1.550781-1.589844-4.121094-.03125-5.679688 1.558594-1.558593 4.0625-1.59375 5.625-.03125l.0625.054688c1.5625 1.558594 1.5625 4.097656 0 5.65625-1.558594 1.574219-4.09375 1.574219-5.65625 0zm0 0"/><path d="m360.121094 187.90625c-1.558594-1.558594-1.589844-4.128906-.023438-5.6875 1.558594-1.5625 4.0625-1.585938 5.632813-.023438l.046875.054688c1.5625 1.558594 1.5625 4.097656 0 5.65625-1.558594 1.558594-4.09375 1.558594-5.65625 0zm0 0"/><path d="m382.746094 29.488281c-1.558594-1.558593-1.59375-4.117187-.03125-5.679687 1.558594-1.566406 4.0625-1.589844 5.625-.03125l.0625.058594c1.558594 1.558593 1.558594 4.09375 0 5.652343-1.558594 1.5625-4.097656 1.5625-5.65625 0zm0 0"/><path d="m382.746094 52.113281c-1.558594-1.550781-1.59375-4.121093-.03125-5.679687 1.558594-1.558594 4.0625-1.589844 5.625-.03125l.0625.054687c1.558594 1.570313 1.558594 4.097657 0 5.65625-1.558594 1.570313-4.097656 1.570313-5.65625 0zm0 0"/><path d="m410.867188 29.59375c-.945313-1.03125-1.816407-2.105469-2.808594-3.105469-.90625-.902343-1.878906-1.679687-2.816406-2.535156-1.433594 1.570313-1.390626 4.015625.128906 5.527344 1.519531 1.511719 3.917968 1.539062 5.496094.113281zm0 0"/><path d="m382.738281 74.738281c-1.550781-1.550781-1.585937-4.121093-.023437-5.679687 1.558594-1.558594 4.0625-1.59375 5.625-.03125l.0625.054687c1.558594 1.558594 1.558594 4.097657 0 5.65625-1.566406 1.566407-4.097656 1.566407-5.664063 0zm0 0"/><path d="m382.746094 97.386719c-1.558594-1.5625-1.59375-4.128907-.03125-5.6875 1.558594-1.5625 4.0625-1.59375 5.625-.03125l.0625.054687c1.558594 1.566406 1.558594 4.09375 0 5.664063-1.558594 1.558593-4.097656 1.558593-5.65625 0zm0 0"/><path d="m382.738281 120.003906c-1.550781-1.554687-1.585937-4.121094-.023437-5.683594 1.558594-1.558593 4.0625-1.589843 5.625-.03125l.0625.058594c1.558594 1.566406 1.558594 4.09375 0 5.65625-1.566406 1.574219-4.097656 1.574219-5.664063 0zm0 0"/><path d="m405.371094 52.113281c-1.5625-1.558593-1.59375-4.121093-.03125-5.679687 1.558594-1.566406 4.0625-1.589844 5.621094-.03125l.066406.054687c1.558594 1.5625 1.558594 4.097657 0 5.65625-1.5625 1.5625-4.097656 1.5625-5.65625 0zm0 0"/><path d="m405.386719 74.746094c-1.5625-1.558594-1.59375-4.128906-.03125-5.6875 1.558593-1.558594 4.0625-1.585938 5.621093-.023438l.066407.054688c1.558593 1.558594 1.558593 4.097656 0 5.65625-1.5625 1.558594-4.097657 1.558594-5.65625 0zm0 0"/><path d="m405.371094 97.378906c-1.5625-1.5625-1.59375-4.121094-.03125-5.679687 1.558594-1.570313 4.0625-1.59375 5.621094-.03125l.066406.054687c1.558594 1.558594 1.558594 4.09375 0 5.65625-1.5625 1.558594-4.097656 1.558594-5.65625 0zm0 0"/><path d="m430.257812 113.25c-.832031.121094-1.648437.433594-2.296874 1.082031-1.542969 1.550781-1.519532 4.085938 0 5.644531.847656-2.230468 1.640624-4.453124 2.296874-6.726562zm0 0"/><path d="m405.355469 120.003906c-1.5625-1.554687-1.59375-4.121094-.035157-5.683594 1.5625-1.558593 4.074219-1.589843 5.632813-.03125l.058594.058594c1.558593 1.566406 1.558593 4.09375 0 5.65625-1.5625 1.574219-4.097657 1.574219-5.65625 0zm0 0"/><path d="m405.371094 142.640625c-1.5625-1.558594-1.59375-4.117187-.03125-5.679687 1.558594-1.566407 4.0625-1.589844 5.621094-.03125l.066406.054687c1.558594 1.5625 1.558594 4.097656 0 5.65625-1.5625 1.5625-4.097656 1.570313-5.65625 0zm0 0"/><path d="m427.992188 74.761719c1.265624 1.265625 3.144531 1.457031 4.640624.671875-.375-2.511719-.863281-4.992188-1.472656-7.480469-1.140625-.101563-2.308594.234375-3.191406 1.121094-1.558594 1.558593-1.527344 4.128906.023438 5.6875zm0 0"/><path d="m433.601562 91.667969c-1.558593-1.554688-4.0625-1.53125-5.625.03125-1.558593 1.558593-1.527343 4.125.035157 5.6875 1.445312 1.449219 3.6875 1.496093 5.261719.253906.207031-1.984375.265624-3.984375.328124-5.972656zm0 0"/></g><path d="m59.652344 363.589844 11.3125 11.3125-24.949219 24.953125-11.316406-11.3125zm0 0" fill="#545c66"/><path d="m303.402344 199.027344-67.871094-67.875c-1.5625-1.558594-1.5625-4.09375 0-5.652344 1.558594-1.5625 4.09375-1.5625 5.65625 0l67.871094 67.871094c1.558594 1.558594 1.558594 4.09375 0 5.65625-1.558594 1.558594-4.097656 1.558594-5.65625 0zm0 0" fill="#545c66"/><path d="m405.234375 153.769531c1.558594 1.550781 1.558594 4.105469 0 5.65625l-11.3125 11.320313c-1.558594 1.558594-4.113281 1.550781-5.65625 0l-124.457031-124.457032c-1.558594-1.550781-1.558594-4.09375 0-5.65625l11.3125-11.320312c1.5625-1.550781 4.113281-1.550781 5.65625 0zm0 0" fill="#e6e9ed"/><path d="m48.355469 394.203125c0 4.417969-3.582031 8-8 8s-8-3.582031-8-8 3.582031-8 8-8 8 3.582031 8 8zm0 0" fill="#545c66"/></symbol><symbol id="orchestra" viewBox="-126 0 512 512"><title>orchestra</title><path d="m91.390625 64h-15.246094c-2.207031 0-4-1.792969-4-4s1.792969-4 4-4h15.246094c2.207031 0 4 1.792969 4 4s-1.792969 4-4 4zm0 0" fill="#545c66"/><path d="m76.144531 67.992188c-2.207031 0-4-1.792969-4-4v-7.992188c0-2.207031 1.792969-4 4-4s4 1.792969 4 4v8c0 2.199219-1.792969 3.992188-4 3.992188zm0 0" fill="#656d78"/><path d="m90.390625 87.992188h-14.246094c-2.207031 0-4-1.792969-4-4 0-2.207032 1.792969-4 4-4h14.246094c2.207031 0 4 1.792968 4 4 0 2.207031-1.792969 4-4 4zm0 0" fill="#545c66"/><path d="m76.144531 91.992188c-2.207031 0-4-1.792969-4-4v-8c0-2.207032 1.792969-4 4-4s4 1.792968 4 4v8c0 2.207031-1.792969 4-4 4zm0 0" fill="#656d78"/><path d="m116.128906 56h-15.738281c-2.207031 0-4-1.792969-4-4s1.792969-4 4-4h15.738281c2.207032 0 4 1.792969 4 4s-1.792968 4-4 4zm0 0" fill="#545c66"/><path d="m116.128906 80h-14.753906c-2.207031 0-4-1.792969-4-4s1.792969-4 4-4h14.753906c2.207032 0 4 1.792969 4 4s-1.792968 4-4 4zm0 0" fill="#545c66"/><path d="m108.128906 24h-8c-2.210937 0-4-1.792969-4-4s1.78125-4 4-4h8c2.207032 0 4 1.792969 4 4s-1.792968 4-4 4zm0 0" fill="#844747"/><path d="m92.128906 24h-8c-2.210937 0-4-1.792969-4-4s1.78125-4 4-4h8c2.207032 0 4 1.792969 4 4s-1.792968 4-4 4zm0 0" fill="#844747"/><path d="m176.449219 382.3125-.320313-2.3125c-34.234375 0-43.128906-74.640625-15.921875-80.230469l-.078125-.25c15.679688-24.390625 15.078125-103.511719-48-103.511719l-3.28125.082032h-25.441406l-3.277344-.082032c-60.53125 0-63.679687 79.128907-48 103.511719l-.082031.25c27.28125 5.511719 18.3125 80.230469-15.917969 80.230469l-.320312 2.3125c16.320312 21.6875-74.320313 124 80.320312 125.6875 2.871094 0 5.679688-.078125 8.320313-.230469 142.957031-5.210937 56-104.175781 72-125.457031zm0 0" fill="#965353"/><g fill="#844747"><path d="m32.136719 303.488281c-1.3125 0-2.601563-.648437-3.371094-1.832031-9.550781-14.839844-14.765625-50.113281.304687-77.734375 7.945313-14.5625 24.640626-31.914063 59.074219-31.914063 2.207031 0 4 1.792969 4 4 0 2.207032-1.792969 4-4 4-24.496093 0-42 9.335938-52.050781 27.734376-13.40625 24.578124-8.855469 56.738281-.589844 69.585937 1.191406 1.855469.65625 4.328125-1.199218 5.527344-.679688.425781-1.425782.632812-2.167969.632812zm0 0"/><path d="m15.808594 386.3125c-2.210938 0-4-1.792969-4-4s1.789062-4 4-4c11.535156 0 18.488281-10.824219 21.589844-17.265625 8.570312-17.78125 8.824218-42.519531.519531-52.941406-3.230469-4.066407-7.453125-5.417969-12.902344-4.203125-2.167969.523437-4.296875-.863282-4.785156-3.015625-.496094-2.160157.855469-4.292969 3.015625-4.78125 8.371094-1.929688 15.816406.597656 20.929687 7.023437 11.183594 14.046875 9.246094 43.085938.421875 61.390625-6.765625 14.046875-17 21.792969-28.789062 21.792969zm0 0"/><path d="m96.136719 512c-.015625 0-.03125 0-.050781 0-45.542969-.496094-74.167969-9.558594-87.496094-27.734375-15.230469-20.792969-6.902344-48.234375-.207032-70.289063 3.703126-12.214843 7.535157-24.847656 4.226563-29.242187-1.328125-1.765625-.976563-4.269531.789063-5.597656 1.753906-1.320313 4.265624-.992188 5.601562.792969 5.757812 7.636718 1.902344 20.316406-2.96875 36.375-6.167969 20.351562-13.855469 45.679687-.984375 63.230468 11.570313 15.785156 38.863281 24.015625 81.136719 24.472656 2.199218.023438 3.976562 1.832032 3.953125 4.046876-.023438 2.175781-1.816407 3.945312-4 3.945312zm0 0"/><path d="m160.136719 303.488281c-.746094 0-1.496094-.199219-2.167969-.632812-1.855469-1.199219-2.402344-3.671875-1.203125-5.527344 8.265625-12.839844 12.816406-45-.589844-69.585937-10.046875-18.40625-27.558593-27.742188-52.046875-27.742188-2.210937 0-4-1.792969-4-4s1.789063-4 4-4c34.429688 0 51.125 17.351562 59.070313 31.910156 15.074219 27.625 9.855469 62.898438.304687 77.738282-.769531 1.183593-2.054687 1.839843-3.367187 1.839843zm0 0"/><path d="m176.449219 386.3125c-11.792969 0-22.019531-7.738281-28.792969-21.785156-8.824219-18.3125-10.761719-47.351563.429688-61.40625 5.121093-6.433594 12.5625-8.960938 20.929687-7.023438 2.160156.488282 3.503906 2.621094 3.015625 4.78125s-2.609375 3.546875-4.785156 3.015625c-5.445313-1.207031-9.664063.144531-12.902344 4.203125-8.296875 10.429688-8.054688 35.167969.519531 52.949219 3.113281 6.449219 10.039063 17.257813 21.578125 17.257813 2.207032 0 4 1.792968 4 4 0 2.207031-1.785156 4.007812-3.992187 4.007812zm0 0"/><path d="m96.136719 512c-2.183594 0-3.976563-1.769531-4-3.953125-.023438-2.207031 1.75-4.023437 3.949219-4.046875 42.265624-.457031 69.5625-8.6875 81.136718-24.472656 12.871094-17.550782 5.191406-42.878906-.984375-63.222656-4.863281-16.066407-8.71875-28.746094-2.957031-36.382813 1.34375-1.785156 3.847656-2.113281 5.597656-.792969 1.769532 1.328125 2.121094 3.832032.792969 5.597656-3.3125 4.394532.519531 17.035157 4.222656 29.242188 6.695313 22.054688 15.023438 49.503906-.214843 70.289062-13.328126 18.167969-41.945313 27.238282-87.496094 27.734376-.015625.007812-.03125.007812-.046875.007812zm0 0"/></g><path d="m104.128906 44v-16h-16v16l-7.882812 252 3.882812 4h24l3.878906-3.96875zm0 0" fill="#656d78"/><path d="m96.136719 0c-6.617188 0-12 5.382812-12 12v16c0 6.617188 5.382812 12 12 12 6.613281 0 12-5.382812 12-12v-16c0-6.617188-5.386719-12-12-12zm0 0" fill="#965353"/><path d="m116.128906 60.328125c-2.210937 0-4-1.792969-4-4v-8c0-2.207031 1.789063-4 4-4 2.207032 0 4 1.792969 4 4v8c0 2.207031-1.792968 4-4 4zm0 0" fill="#656d78"/><path d="m116.128906 83.992188c-2.210937 0-4-1.792969-4-4v-7.992188c0-2.207031 1.789063-4 4-4 2.207032 0 4 1.792969 4 4v8c0 2.199219-1.792968 3.992188-4 3.992188zm0 0" fill="#656d78"/><path d="m112.128906 376h-31.984375c-2.207031 0-4-1.792969-4-4s1.792969-4 4-4h31.984375c2.207032 0 4 1.792969 4 4s-1.792968 4-4 4zm0 0" fill="#844747"/><path d="m256.136719 512c-2.210938 0-4-1.792969-4-4v-496c0-2.207031 1.789062-4 4-4 2.207031 0 4 1.792969 4 4v496c0 2.207031-1.792969 4-4 4zm0 0" fill="#545c66"/><path d="m240.136719 480c-2.210938 0-4-1.792969-4-4v-472c0-2.207031 1.789062-4 4-4 2.207031 0 4 1.792969 4 4v472c0 2.207031-1.792969 4-4 4zm0 0" fill="#e6e9ed"/><path d="m96.136719 448.015625c-2.210938 0-4-1.792969-4-4v-248.09375c0-2.210937 1.789062-4 4-4 2.207031 0 4 1.78125 4 4v248.09375c0 2.207031-1.792969 4-4 4zm0 0" fill="#e6e9ed"/><path d="m111.105469 447.929688c-.042969-2.167969-1.800781-3.929688-3.984375-3.929688h-21.992188c-2.183594 0-3.945312 1.761719-3.984375 3.929688l-.113281.109374 10.566406 49.257813.011719.007813c.597656 1.4375 2.023437 2.457031 3.6875 2.457031h-3.175781 4.832031c1.664063 0 3.085937-1.019531 3.6875-2.457031l.007813-.007813 10.566406-49.257813zm0 0" fill="#656d78"/><path d="m257.910156 8.425781-16-8c-1.238281-.625-2.710937-.554687-3.886718.175781-1.175782.726563-1.894532 2.015626-1.894532 3.398438v24c0 2.207031 1.789063 4 4 4h16c2.207032 0 4-1.792969 4-4v-16c0-1.511719-.867187-2.894531-2.21875-3.574219zm0 0" fill="#656d78"/><path d="m256.128906 448h-16c-2.210937 0-4 1.792969-4 4v24c0 2.207031 1.789063 4 4 4h16c2.207032 0 4-1.792969 4-4v-24c0-2.207031-1.792968-4-4-4zm0 0" fill="#656d78"/><path d="m88.128906 296c0 2.210938-1.792968 4-4 4-2.210937 0-4-1.789062-4-4s1.789063-4 4-4c2.207032 0 4 1.789062 4 4zm0 0" fill="#656d78"/><path d="m112.128906 296c0 2.210938-1.792968 4-4 4-2.210937 0-4-1.789062-4-4s1.789063-4 4-4c2.207032 0 4 1.789062 4 4zm0 0" fill="#656d78"/></symbol><symbol id="musical-instrument" viewBox="-115 0 504 504"><title>musical-instrument</title><path d="m141.183594 68h-6.398438c-2.210937 0-4-1.792969-4-4s1.789063-4 4-4h6.398438c2.207031 0 4 1.792969 4 4s-1.792969 4-4 4zm0 0" fill="#edab37"/><path d="m131.238281 448.015625c-.101562 2.183594-2 3.984375-4.199219 3.984375h-16.246093c-2.199219 0-3.90625-1.800781-3.800781-3.984375l8.800781-172.03125c.109375-2.183594 2-3.984375 4.199219-3.984375h16.207031c2.199219 0 3.90625 1.800781 3.800781 4zm0 0" fill="#edab37"/><path d="m227.425781 271.359375c-7.921875-7.917969-14.320312-16.078125-18.5625-23.359375-38.078125 88-37.855469 204-37.855469 204 0 2.214844-1.800781 4-4 4-2.199218 0-4-1.785156-4-4h-.105468c0-.078125-.117188-284-.117188-284h-8v-128c0-22.078125-17.921875-40-40-40-24 0-20.875 24.160156-56 24.160156v8c33.597656 6.328125 39.839844-15.753906 56-16.390625l-.007812.230469c13.199218 0 23.925781 10.71875 23.925781 23.921875 0 0-.558594 8.871094-1.519531 24.078125-2.160156 33.441406-6.230469 97.359375-10.320313 164-6 97.921875-12 201.921875-11.832031 224 0 28.71875 23.28125 52 52 52 28.710938 0 52-23.28125 52-52 0 0-.238281-100.488281 31.761719-162.078125-7.289063-4.25-15.449219-10.640625-23.367188-18.5625zm0 0" fill="#f6bb42"/><path d="m154.785156 168h8v284h-8zm0 0" fill="#edab37"/><g fill="#ffce54"><path d="m162.785156 428c0 6.628906-5.375 12-12 12-6.628906 0-12-5.371094-12-12s5.371094-12 12-12c6.625 0 12 5.371094 12 12zm0 0"/><path d="m162.785156 388c0 6.628906-5.375 12-12 12-6.628906 0-12-5.371094-12-12s5.371094-12 12-12c6.625 0 12 5.371094 12 12zm0 0"/><path d="m150.785156 336c6.640625 0 12 5.359375 12 12-.007812 3.359375-1.359375 6.3125-3.519531 8.488281-2.167969 2.160157-5.203125 3.511719-8.488281 3.511719-6.640625 0-12-5.359375-12-12 .007812-6.640625 5.359375-12 12.007812-12zm0 0"/><path d="m162.542969 305.59375c.160156.796875.242187 1.605469.242187 2.40625 0 6.640625-5.359375 12-12 12s-12-5.359375-12-12 5.359375-12 12-12c5.839844 0 10.640625 4.078125 11.757813 9.59375zm0 0"/><path d="m162.785156 268c0 6.628906-5.375 12-12 12-6.628906 0-12-5.371094-12-12s5.371094-12 12-12c6.625 0 12 5.371094 12 12zm0 0"/><path d="m162.785156 228c0 6.628906-5.375 12-12 12-6.628906 0-12-5.371094-12-12s5.371094-12 12-12c6.625 0 12 5.371094 12 12zm0 0"/><path d="m204.625 225.839844c6.320312-6.238282 26.71875 3.921875 45.511719 22.800781 18.878906 18.871094 29.039062 39.199219 22.808593 45.511719-3.679687 3.609375-12.089843 1.769531-22.167968-4.230469-7.28125-4.25-15.441406-10.640625-23.363282-18.5625-7.917968-7.917969-14.316406-16.078125-18.558593-23.359375-5.917969-10.078125-7.839844-18.488281-4.230469-22.160156zm0 0"/></g><path d="m34.785156 16-32.015625 8.167969v7.566406l32.414063 8.265625 23.601562-7.839844v-8zm0 0" fill="#656d78"/><path d="m250.769531 289.921875c3.199219-3.394531-3.457031-15.378906-14.976562-26.90625-11.511719-11.542969-23.527344-18.199219-26.921875-15 4.25 7.28125 10.632812 15.425781 18.554687 23.34375 7.910157 7.921875 16.0625 14.296875 23.34375 18.5625zm0 0" fill="#edab37"/><path d="m186.785156 400c8.878906 0 15.992188 7.199219 15.992188 16 .007812 8.871094-7.113282 16-15.992188 16-8.800781 0-16-7.128906-16-16 0-4.40625 1.839844-8.40625 4.71875-11.28125 2.878906-2.949219 6.878906-4.71875 11.28125-4.71875zm0 0" fill="#ffce54"/><path d="m170.785156 368c0-3.839844 1.359375-7.359375 3.679688-10.160156.320312-.40625.71875-.71875 1.039062-1.128906 2.878906-2.949219 6.878906-4.71875 11.28125-4.71875 8.878906 0 16 7.199218 16 16 0 8.800781-7.121094 16-16 16-8.800781.007812-16-7.191407-16-15.992188zm0 0" fill="#ffce54"/><path d="m26.785156 37.921875 8 1.972656v-23.894531l-8 2zm0 0" fill="#545c66"/><path d="m178.703125 354.28125c-1.160156.6875-2.253906 1.472656-3.199219 2.4375-.320312.410156-.71875.722656-1.039062 1.128906-.535156.640625-1.007813 1.34375-1.441406 2.0625l10.929687 10.921875c.78125.777344 1.808594 1.167969 2.832031 1.167969 1.023438 0 2.046875-.390625 2.832032-1.167969 1.558593-1.558593 1.558593-4.097656 0-5.65625zm0 0" fill="#f6bb42"/><path d="m178.703125 402.28125c-1.160156.6875-2.253906 1.472656-3.199219 2.4375-.320312.410156-.71875.722656-1.039062 1.128906-.535156.640625-1.007813 1.34375-1.441406 2.0625l10.929687 10.921875c.78125.777344 1.808594 1.167969 2.832031 1.167969 1.023438 0 2.046875-.390625 2.832032-1.167969 1.558593-1.558593 1.558593-4.097656 0-5.65625zm0 0" fill="#f6bb42"/><path d="m162.785156 452c0 2.210938-1.792968 4-4 4-2.210937 0-4-1.789062-4-4s1.789063-4 4-4c2.207032 0 4 1.789062 4 4zm0 0" fill="#edab37"/><path d="m162.785156 168c0 2.210938-1.792968 4-4 4-2.210937 0-4-1.789062-4-4s1.789063-4 4-4c2.207032 0 4 1.789062 4 4zm0 0" fill="#edab37"/><path d="m8 27.953125c0 2.207031-1.789062 4-4 4s-4-1.792969-4-4c0-2.210937 1.789062-4 4-4s4 1.789063 4 4zm0 0" fill="#656d78"/></symbol><symbol id="musical-instrument-1" viewBox="-12 0 496 496"><title>musical-instrument-1</title><path d="m19.992188 264h432.015624v48h-432.015624zm0 0" fill="#545c66"/><path d="m404 264h-340v12c0 2.199219 1.800781 4 4 4h336c2.199219 0 4-1.800781 4-4v-12zm0 0" fill="#e6e9ed"/><path d="m408.382812 181.390625c-1.503906 0-2.941406-.855469-3.621093-2.3125l-66.234375-141.910156c-.933594-2.015625-.070313-4.390625 1.929687-5.328125 2.015625-.917969 4.382813-.078125 5.320313 1.9375l66.222656 141.902344c.9375 2.015624.070312 4.390624-1.929688 5.328124-.550781.257813-1.117187.382813-1.6875.382813zm0 0" fill="#353b44"/><path d="m236 136c-76 0-92 16-92 16l8 24v8h168v-8l8-24s-16-16-92-16zm0 0" fill="#353b44"/><path d="m28 176h416v88h-416zm0 0" fill="#434a54"/><path d="m460 468c0 2.199219-1.800781 4-4 4h-8c-2.199219 0-4-1.800781-4-4v-200c0-2.199219 1.800781-4 4-4h8c2.199219 0 4 1.800781 4 4zm0 0" fill="#656d78"/><path d="m28 468c0 2.199219-1.800781 4-4 4h-8c-2.199219 0-4-1.800781-4-4v-200c0-2.199219 1.800781-4 4-4h8c2.199219 0 4 1.800781 4 4zm0 0" fill="#656d78"/><path d="m272 216c0-4.417969-16.117188-8-36-8s-36 3.582031-36 8 16.117188 8 36 8 36-3.582031 36-8zm0 0" fill="#e6e9ed"/><path d="m412 16-384 160v-16l384-160zm0 0" fill="#434a54"/><path d="m284 452c0 2.199219-1.800781 4-4 4h-88c-2.199219 0-4-1.800781-4-4v-24c0-2.199219 1.800781-4 4-4h88c2.199219 0 4 1.800781 4 4zm0 0" fill="#545c66"/><path d="m208 312h16v112h-16zm0 0" fill="#434a54"/><path d="m248 312h16v112h-16zm0 0" fill="#434a54"/><path d="m248 312h16v112h-16zm0 0" fill="#434a54"/><path d="m208 312h16v112h-16zm0 0" fill="#434a54"/><path d="m208 448c4.425781 0 8-3.574219 8-8h-16c0 4.425781 3.574219 8 8 8zm0 0" fill="#ffce54"/><path d="m236 448c4.425781 0 8-3.574219 8-8h-16c0 4.425781 3.574219 8 8 8zm0 0" fill="#ffce54"/><path d="m264 448c4.425781 0 8-3.574219 8-8h-16c0 4.425781 3.574219 8 8 8zm0 0" fill="#ffce54"/><path d="m24 484c0 6.628906-5.371094 12-12 12s-12-5.371094-12-12 5.371094-12 12-12 12 5.371094 12 12zm0 0" fill="#e6e9ed"/><path d="m472 484c0 6.628906-5.371094 12-12 12s-12-5.371094-12-12 5.371094-12 12-12 12 5.371094 12 12zm0 0" fill="#e6e9ed"/><g fill="#ccd1d9"><path d="m396 268c2.207031 0 4-1.800781 4-4h-8c0 2.199219 1.792969 4 4 4zm0 0"/><path d="m380 268c2.207031 0 4-1.800781 4-4h-8c0 2.199219 1.792969 4 4 4zm0 0"/><path d="m364 268c2.207031 0 4-1.800781 4-4h-8c0 2.199219 1.792969 4 4 4zm0 0"/><path d="m348 268c2.207031 0 4-1.800781 4-4h-8c0 2.199219 1.792969 4 4 4zm0 0"/><path d="m332 268c2.207031 0 4-1.800781 4-4h-8c0 2.199219 1.792969 4 4 4zm0 0"/><path d="m316 268c2.207031 0 4-1.800781 4-4h-8c0 2.199219 1.792969 4 4 4zm0 0"/><path d="m300 268c2.207031 0 4-1.800781 4-4h-8c0 2.199219 1.792969 4 4 4zm0 0"/><path d="m284 268c2.207031 0 4-1.800781 4-4h-8c0 2.199219 1.792969 4 4 4zm0 0"/><path d="m268 268c2.207031 0 4-1.800781 4-4h-8c0 2.199219 1.792969 4 4 4zm0 0"/><path d="m252 268c2.207031 0 4-1.800781 4-4h-8c0 2.199219 1.792969 4 4 4zm0 0"/><path d="m236 268c2.207031 0 4-1.800781 4-4h-8c0 2.199219 1.792969 4 4 4zm0 0"/><path d="m220 268c2.207031 0 4-1.800781 4-4h-8c0 2.199219 1.792969 4 4 4zm0 0"/><path d="m204 268c2.207031 0 4-1.800781 4-4h-8c0 2.199219 1.792969 4 4 4zm0 0"/><path d="m188 268c2.207031 0 4-1.800781 4-4h-8c0 2.199219 1.792969 4 4 4zm0 0"/><path d="m172 268c2.207031 0 4-1.800781 4-4h-8c0 2.199219 1.792969 4 4 4zm0 0"/><path d="m156 268c2.207031 0 4-1.800781 4-4h-8c0 2.199219 1.792969 4 4 4zm0 0"/><path d="m140 268c2.207031 0 4-1.800781 4-4h-8c0 2.199219 1.792969 4 4 4zm0 0"/><path d="m124 268c2.207031 0 4-1.800781 4-4h-8c0 2.199219 1.792969 4 4 4zm0 0"/><path d="m108 268c2.207031 0 4-1.800781 4-4h-8c0 2.199219 1.792969 4 4 4zm0 0"/><path d="m92 268c2.207031 0 4-1.800781 4-4h-8c0 2.199219 1.792969 4 4 4zm0 0"/><path d="m76 268c2.207031 0 4-1.800781 4-4h-8c0 2.199219 1.792969 4 4 4zm0 0"/></g></symbol><symbol id="music-1" viewBox="-110 0 499 499.976"><title>music-1</title><path d="m134.808594 479.976562h-20.800782c-2.207031 0-4-1.792968-4-4 0-2.207031 1.792969-4 4-4h20.800782c2.207031 0 4 1.792969 4 4 0 2.207032-1.792969 4-4 4zm0 0" fill="#7f4545"/><g fill="#e6e9ed"><path d="m165.015625 156.265625c-2.609375.335937-5.261719.535156-7.976563.605469l7.59375 144.039062 7.246094-14.335937zm0 0"/><path d="m180.816406 152.550781c-2.558594.863281-5.183594 1.632813-7.878906 2.265625l6.183594 117.457032 7.246094-14.328126zm0 0"/><path d="m211.910156 135.382812c-2.421875 1.890626-4.972656 3.769532-7.710937 5.578126l3.90625 74.046874 7.246093-14.335937zm0 0"/><path d="m227.183594 121.566406c-2.183594 2.296875-4.726563 4.800782-7.617188 7.410156l3.027344 57.390626 7.253906-14.328126zm0 0"/><path d="m99.433594 126.078125c-2.875-3.367187-5.730469-6.925781-8.570313-10.644531l15.816407 300.023437 7.25-14.335937zm0 0"/><path d="m92.175781 444.089844 7.25-14.328125-17.179687-326.019531c-2.878906-4.039063-5.765625-8.175782-8.660156-12.390626zm0 0"/><path d="m149.039062 156.671875c-2.648437-.214844-5.335937-.550781-8.0625-1.070313l9.167969 173.941407 7.246094-14.335938zm0 0"/><path d="m116.320312 143.054688c-2.832031-2.320313-5.632812-4.894532-8.417968-7.695313l13.25 251.464844 7.253906-14.335938zm0 0"/><path d="m132.847656 153.136719c-2.785156-1.121094-5.519531-2.503907-8.222656-4.167969l11.023438 209.207031 7.253906-14.328125zm0 0"/><path d="m196.464844 145.625c-2.503906 1.382812-5.121094 2.664062-7.808594 3.863281l4.960938 94.152344 7.246093-14.328125zm0 0"/><path d="m68.992188 459.976562-21.382813-405.769531c-2.59375-3.453125-5.175781-6.765625-7.738281-9.855469-.429688.671876-.71875 1.441407-.671875 2.296876l21.785156 413.328124zm0 0"/><path d="m84.136719 459.976562.792969-1.550781-20.007813-379.761719c-2.816406-4.128906-5.722656-8.335937-8.675781-12.527343l20.761718 393.839843zm0 0"/></g><path d="m269.230469 95.144531c-13.503907-13.519531-35.207031-13.792969-49.839844-.878906-.222656.175781-.480469.328125-.695313.527344 0 0-.023437.015625-.039062.03125-.023438.023437-.03125.054687-.054688.078125-.539062.503906-1.050781 1.058594-1.496093 1.671875-.3125.441406-31.847657 43.234375-71.792969 35.433593-17.265625-3.367187-38.929688-35.128906-58.039062-63.144531-24.160157-35.414062-46.976563-68.863281-73.730469-68.863281-6.621094 0-12 5.375-12 12s5.378906 12 12 12c14.074219 0 36.160156 32.375 53.898437 58.390625 23.824219 34.921875 46.328125 67.914063 73.269532 73.175781 4.96875.96875 9.816406 1.410156 14.511718 1.410156 43.023438 0 74.023438-36.929687 80.144532-44.808593 5.199218-4.496094 12.34375-4.574219 16.878906-.054688 2.011718 2.007813 5.378906 5.375-2.167969 19.925781-.007813.015626-.007813.03125-.007813.03125-.015624.035157-.039062.050782-.046874.074219l-167.199219 330.414063c-2.992188 5.914062-.617188 13.136718 5.289062 16.136718 1.742188.871094 3.589844 1.289063 5.414063 1.289063 4.382812 0 8.601562-2.410156 10.71875-6.578125l167.210937-330.421875c0-.007813.007813-.015625.007813-.023437 3.917968-7.570313 15.480468-30.113282-2.234375-47.816407zm0 0" fill="#f7c292"/><path d="m252.265625 112.113281c-4.539063-4.519531-11.679687-4.441406-16.882813.054688-6.117187 7.871093-37.117187 44.808593-80.144531 44.808593-4.703125 0-9.542969-.441406-14.511719-1.410156-26.941406-5.261718-49.453124-38.253906-73.269531-73.175781-16.609375-24.351563-37.015625-54.261719-51.105469-57.992187v18.210937c10.496094 8.636719 27.265626 33.230469 37.878907 48.796875 25.730469 37.722656 50.035156 73.347656 83.425781 79.867188 6.023438 1.167968 11.871094 1.710937 17.542969 1.710937 55.105469 0 92.535156-50.511719 94.257812-52.878906 1.621094-2.234375 2.734375-4.648438 3.613281-7.128907-.269531-.328124-.550781-.609374-.804687-.863281zm0 0" fill="#656d78"/><path d="m36.847656 471.976562c-6.34375 0-11.640625-4.96875-11.976562-11.367187l-23.597656-447.984375c-.34375-6.617188 4.734374-12.265625 11.351562-12.6171875 6.832031-.1835935 12.261719 4.7343755 12.613281 11.3515625l23.601563 447.984375c.34375 6.617188-4.734375 12.265625-11.351563 12.617188-.214843.007812-.425781.015624-.640625.015624zm0 0" fill="#ffd2a6"/><path d="m24.488281 459.976562-8 40h-16l8-40zm0 0" fill="#7f4545"/><path d="m118.808594 499.976562h-102.320313l8-40h86.320313l3.199218 16zm0 0" fill="#965353"/><path d="m102.808594 479.976562h-16c-2.207032 0-4-1.792968-4-4 0-2.207031 1.792968-4 4-4h16c2.207031 0 4 1.792969 4 4 0 2.207032-1.792969 4-4 4zm0 0" fill="#844747"/><path d="m70.808594 479.976562h-8c-2.207032 0-4-1.792968-4-4 0-2.207031 1.792968-4 4-4h8c2.207031 0 4 1.792969 4 4 0 2.207032-1.792969 4-4 4zm0 0" fill="#844747"/></symbol><symbol id="musical-instrument-2" viewBox="0 0 507 507.87649"><title>musical-instrument-2</title><path d="m470.324219 100.175781c-1.558594 1.5625-4.09375 1.5625-5.65625 0l-10.6875-10.695312c-1.558594-1.558594-1.558594-4.09375 0-5.65625 1.558593-1.558594 4.097656-1.558594 5.65625 0l10.6875 10.6875c1.566406 1.578125 1.566406 4.097656 0 5.664062zm0 0" fill="#545c66"/><path d="m487.300781 83.210938c-1.558593 1.558593-4.097656 1.550781-5.65625 0l-9.894531-9.914063c-1.5625-1.558594-1.5625-4.085937 0-5.65625 1.558594-1.558594 4.101562-1.550781 5.65625 0l9.894531 9.914063c1.558594 1.558593 1.558594 4.09375 0 5.65625zm0 0" fill="#545c66"/><path d="m504.277344 66.242188c-1.570313 1.558593-4.097656 1.558593-5.664063 0l-9.046875-9.050782c-1.5625-1.566406-1.5625-4.09375 0-5.664062 1.558594-1.558594 4.09375-1.558594 5.652344 0l9.058594 9.058594c1.566406 1.558593 1.566406 4.09375 0 5.65625zm0 0" fill="#545c66"/><path d="m424.515625 54.367188c-1.558594 1.5625-4.09375 1.5625-5.65625 0l-10.75-10.757813c-1.5625-1.558594-1.5625-4.089844 0-5.65625 1.558594-1.558594 4.09375-1.558594 5.65625 0l10.75 10.75c1.570313 1.570313 1.570313 4.089844 0 5.664063zm0 0" fill="#545c66"/><path d="m440.628906 36.535156c-1.558594 1.5625-4.105468 1.554688-5.65625 0l-9.886718-9.902344c-1.570313-1.558593-1.570313-4.097656 0-5.65625 1.558593-1.558593 4.09375-1.558593 5.65625 0l9.886718 9.90625c1.558594 1.558594 1.558594 4.09375 0 5.652344zm0 0" fill="#545c66"/><path d="m456.75 18.703125c-1.5625 1.5625-4.097656 1.5625-5.65625 0l-9.042969-9.039063c-1.558593-1.558593-1.558593-4.09375 0-5.65625 1.5625-1.566406 4.097657-1.566406 5.65625 0l9.042969 9.042969c1.558594 1.558594 1.558594 4.085938 0 5.652344zm0 0" fill="#545c66"/><path d="m473.171875 97.351562-5.671875 5.65625c-1.558594 1.5625-4.09375 1.5625-5.65625 0-1.558594-1.566406-1.558594-4.09375 0-5.65625l5.679688-5.664062c1.5625-1.558594 4.097656-1.558594 5.65625.007812 1.542968 1.5625 1.542968 4.089844-.007813 5.65625zm0 0" fill="#656d78"/><path d="m490.132812 80.386719-5.648437 5.644531c-1.558594 1.5625-4.097656 1.5625-5.65625 0-1.558594-1.558594-1.558594-4.09375 0-5.652344l5.648437-5.648437c1.558594-1.5625 4.097657-1.5625 5.65625 0 1.558594 1.558593 1.558594 4.085937 0 5.65625zm0 0" fill="#656d78"/><path d="m507.109375 63.417969-5.65625 5.65625c-1.570313 1.558593-4.097656 1.558593-5.664063 0-1.558593-1.5625-1.558593-4.097657 0-5.65625l5.65625-5.65625c1.566407-1.5625 4.09375-1.5625 5.664063 0 1.558594 1.558593 1.558594 4.085937 0 5.65625zm0 0" fill="#656d78"/><path d="m230.308594 300.59375c-1.40625-5.257812-4.183594-10.183594-8.3125-14.3125-4.070313-4.054688-9.046875-6.902344-14.3125-8.3125-10.808594-3-22.910156-.167969-31.398438 8.3125-8.488281 8.480469-11.320312 20.601562-8.320312 31.390625 1.414062 5.273437 4.238281 10.25 8.320312 14.328125 4.128906 4.136719 9.0625 6.898438 14.3125 8.320312 10.808594 2.992188 22.910156.28125 31.398438-8.320312 8.585937-8.503906 11.304687-20.605469 8.3125-31.40625zm0 0" fill="#656d78"/><path d="m407.933594 83.386719c.054687-.074219.117187-.113281.175781-.175781 6.101563-6.210938 7.289063-14.976563 2.648437-19.617188l10.917969-12.058594 16.121094-17.820312 16.121094-17.832032 10.757812-11.867187s8.480469-2.832031 25.457031 14.160156c16.976563 16.960938 14.152344 25.449219 14.152344 25.449219l-11.878906 10.761719-17.824219 16.101562-29.875 27.046875c-4.636719-4.636718-13.40625-3.445312-19.613281 2.65625-.074219.066406-.121094.121094-.175781.167969l-152.234375 157.875-42.375 42.359375c-1.40625-5.257812-4.183594-10.183594-8.3125-14.3125-4.070313-4.054688-9.046875-6.902344-14.3125-8.3125l42.367187-42.367188zm0 0" fill="#965353"/><path d="m230.523438 403.679688c30.664062-67.894532 127-60.589844 47.816406-139.789063l-5.65625-5.65625-42.375 42.359375c2.992187 10.800781.273437 22.902344-8.3125 31.40625-8.488282 8.601562-20.589844 11.3125-31.398438 8.320312-5.25-1.421874-10.183594-4.183593-14.3125-8.320312-4.082031-4.078125-6.90625-9.054688-8.320312-14.328125-3-10.789063-.167969-22.902344 8.320312-31.390625 8.488282-8.488281 20.589844-11.3125 31.398438-8.3125l42.367187-42.367188-5.652343-5.65625c-79.203126-79.191406-71.832032 17.191407-139.785157 47.816407-67.878906 30.65625-165.417969 65.605469-52.542969 178.464843 112.902344 112.894532 147.863282 15.382813 178.453126-52.546874zm0 0" fill="#ffd2a6"/><g fill="#e6e9ed"><path d="m464.84375 26.503906c-1.574219 1.570313-4.128906 1.59375-5.6875.023438-1.558594-1.566406-1.601562-4.0625-.03125-5.621094l.054688-.058594c1.5625-1.558594 4.097656-1.566406 5.65625 0 1.570312 1.570313 1.5625 4.097656.007812 5.65625zm0 0"/><path d="m447.859375 43.472656c-1.558594 1.558594-4.117187 1.585938-5.679687.023438-1.558594-1.558594-1.589844-4.0625-.039063-5.613282l.0625-.066406c1.5625-1.558594 4.097656-1.558594 5.65625 0 1.5625 1.5625 1.570313 4.097656 0 5.65625zm0 0"/><path d="m430.890625 60.449219c-1.558594 1.566406-4.117187 1.589843-5.6875.03125-1.558594-1.558594-1.582031-4.0625-.03125-5.625l.066406-.0625c1.550781-1.550781 4.09375-1.558594 5.652344 0 1.5625 1.558593 1.570313 4.105469 0 5.65625zm0 0"/><path d="m487.46875 49.128906c-1.558594 1.558594-4.128906 1.59375-5.6875.023438-1.5625-1.558594-1.585938-4.0625-.03125-5.617188l.0625-.0625c1.550781-1.558594 4.097656-1.558594 5.65625 0s1.550781 4.105469 0 5.65625zm0 0"/><path d="m470.5 66.113281c-1.566406 1.558594-4.128906 1.582031-5.6875.023438-1.558594-1.558594-1.59375-4.0625-.03125-5.625l.0625-.0625c1.554688-1.550781 4.089844-1.558594 5.65625 0 1.558594 1.574219 1.550781 4.105469 0 5.664062zm0 0"/><path d="m453.523438 83.089844c-1.558594 1.558594-4.117188 1.582031-5.679688.023437-1.558594-1.558593-1.589844-4.0625-.039062-5.625l.0625-.054687c1.5625-1.5625 4.097656-1.5625 5.65625 0 1.5625 1.558594 1.5625 4.085937 0 5.65625zm0 0"/><path d="m475.988281 37.953125-251.160156 251.152344-45.710937 45.71875-50.679688 50.679687c-1.570312 1.5625-4.097656 1.5625-5.664062 0-1.5625-1.558594-1.5625-4.09375 0-5.65625l347.558593-347.550781c1.558594-1.558594 4.097657-1.558594 5.65625 0 1.558594 1.558594 1.558594 4.097656 0 5.65625zm0 0"/></g><path d="m416.589844 40.777344-5.65625 5.664062c-1.5625 1.558594-4.097656 1.558594-5.65625 0-1.5625-1.570312-1.5625-4.097656 0-5.664062l5.65625-5.65625c1.558594-1.558594 4.09375-1.558594 5.65625 0 1.574218 1.566406 1.574218 4.097656 0 5.65625zm0 0" fill="#656d78"/><path d="m433.566406 23.800781-5.65625 5.65625c-1.570312 1.558594-4.097656 1.558594-5.65625 0-1.570312-1.558593-1.570312-4.097656-.007812-5.65625l5.664062-5.65625c1.558594-1.558593 4.09375-1.558593 5.65625 0 1.558594 1.558594 1.566406 4.097657 0 5.65625zm0 0" fill="#656d78"/><path d="m450.53125 6.832031-5.65625 5.65625c-1.558594 1.5625-4.09375 1.5625-5.65625 0-1.558594-1.558593-1.558594-4.09375 0-5.65625l5.65625-5.664062c1.5625-1.558594 4.097656-1.558594 5.65625.007812 1.570312 1.570313 1.570312 4.089844 0 5.65625zm0 0" fill="#656d78"/><path d="m102.988281 371.386719 11.296875 22.605469 22.632813 11.320312zm0 0" fill="#965353"/><path d="m162.371094 408.136719c1.554687 1.558593 1.554687 4.105469 0 5.65625l-5.65625 5.664062c-1.550782 1.550781-4.101563 1.550781-5.65625 0l-62.230469-62.230469c-1.550781-1.554687-1.550781-4.105468 0-5.65625l5.65625-5.65625c1.558594-1.5625 4.105469-1.5625 5.65625 0zm0 0" fill="#965353"/></symbol><symbol id="music-2" viewBox="0 -16 496.032 496"><title>music-2</title><path d="m480 272.015625h-468.007812v-32h472zm0 0" fill="#844747"/><path d="m11.992188 224.015625h472v24h-472zm0 0" fill="#e6e9ed"/><path d="m36 16.015625h16v176h-16zm0 0" fill="#545c66"/><path d="m443.984375 16.015625h16v176h-16zm0 0" fill="#545c66"/><path d="m52 128.015625h391.984375v64h-391.984375zm0 0" fill="#7f4545"/><path d="m52 16.015625h391.984375v112h-391.984375zm0 0" fill="#965353"/><path d="m460 196.015625c0 2.199219-1.800781 4-4 4h-416.015625c-2.199219 0-4-1.800781-4-4v-64c0-2.199219 1.800781-4 4-4h416.015625c2.199219 0 4 1.800781 4 4zm0 0" fill="#656d78"/><path d="m459.984375 16.015625h-423.984375l-16-16h455.984375zm0 0" fill="#656d78"/><path d="m299.992188 160.015625h-104c-4.425782 0-8 3.578125-8 8v24h120v-24c0-4.421875-3.578126-8-8-8zm0 0" fill="#545c66"/><path d="m259.992188 84.015625c0 6.628906-5.371094 12-12 12-6.628907 0-12-5.371094-12-12s5.371093-12 12-12c6.628906 0 12 5.371094 12 12zm0 0" fill="#844747"/><path d="m427.984375 148.015625h-359.984375c-2.207031 0-4-1.792969-4-4s1.792969-4 4-4h359.984375c2.207031 0 4 1.792969 4 4s-1.792969 4-4 4zm0 0" fill="#545c66"/><path d="m267.992188 180.015625h-40c-2.207032 0-4-1.792969-4-4s1.792968-4 4-4h40c2.207031 0 4 1.792969 4 4s-1.792969 4-4 4zm0 0" fill="#656d78"/><path d="m227.992188 76.015625c-1.800782 0-3.433594-1.207031-3.878907-3.03125-5.730469-22.914063-24.960937-28.96875-34.335937-28.96875-7.601563 0-13.785156 6.175781-13.785156 13.785156 0 5.632813 4.582031 10.214844 10.214843 10.214844 4.074219 0 7.378907-3.3125 7.378907-7.375 0-2.824219-2.28125-5.113281-5.097657-5.113281-2.207031 0-4-1.792969-4-4 0-2.207032 1.792969-4 4-4 7.214844 0 13.097657 5.871094 13.097657 13.113281 0 8.480469-6.898438 15.375-15.378907 15.375-10.046875 0-18.214843-8.167969-18.214843-18.214844 0-12.015625 9.777343-21.785156 21.785156-21.785156 16.054687 0 36.085937 10.960937 42.101562 35.03125.527344 2.144531-.765625 4.3125-2.910156 4.839844-.328125.089843-.65625.128906-.976562.128906zm0 0" fill="#844747"/><path d="m267.992188 76.015625c-.320313 0-.640626-.039063-.96875-.128906-2.152344-.527344-3.449219-2.703125-2.910157-4.839844 6.015625-24.070313 26.046875-35.03125 42.09375-35.03125 12.007813 0 21.785157 9.769531 21.785157 21.785156 0 10.046875-8.167969 18.214844-18.214844 18.214844-8.480469 0-15.378906-6.894531-15.378906-15.375 0-7.234375 5.875-13.113281 13.097656-13.113281 2.207031 0 4 1.792968 4 4 0 2.207031-1.792969 4-4 4-2.816406 0-5.097656 2.289062-5.097656 5.113281 0 4.0625 3.304687 7.375 7.378906 7.375 5.628906 0 10.214844-4.582031 10.214844-10.214844 0-7.601562-6.175782-13.785156-13.785157-13.785156-9.375 0-28.605469 6.054687-34.335937 28.96875-.445313 1.824219-2.078125 3.03125-3.878906 3.03125zm0 0" fill="#844747"/><path d="m219.992188 108.015625c-2.207032 0-4-1.792969-4-4s1.792968-4 4-4c2.199218 0 4-1.800781 4-4 0-2.207031 1.792968-4 4-4 2.207031 0 4 1.792969 4 4 0 6.617187-5.382813 12-12 12zm0 0" fill="#844747"/><path d="m275.992188 108.015625c-6.617188 0-12-5.382813-12-12 0-2.207031 1.792968-4 4-4 2.207031 0 4 1.792969 4 4 0 2.199219 1.800781 4 4 4 2.207031 0 4 1.792969 4 4s-1.792969 4-4 4zm0 0" fill="#844747"/><path d="m292.230469 92.015625c-2.207031 0-4.039063-1.792969-4.039063-4s1.753906-4 3.953125-4h.085938c2.203125 0 4 1.792969 4 4s-1.789063 4-4 4zm0 0" fill="#844747"/><path d="m316.230469 108.015625c-2.207031 0-4.039063-1.792969-4.039063-4s1.753906-4 3.953125-4h.085938c2.203125 0 4 1.792969 4 4s-1.789063 4-4 4zm0 0" fill="#844747"/><path d="m180.230469 108.015625c-2.207031 0-4.039063-1.792969-4.039063-4s1.753906-4 3.953125-4h.085938c2.203125 0 4 1.792969 4 4s-1.789063 4-4 4zm0 0" fill="#844747"/><path d="m204.230469 92.015625c-2.207031 0-4.039063-1.792969-4.039063-4s1.753906-4 3.953125-4h.085938c2.203125 0 4 1.792969 4 4s-1.789063 4-4 4zm0 0" fill="#844747"/><path d="m137.304688 79.566406c-4.128907 0-9.167969-1.007812-15.105469-3.972656-12.941407-6.488281-19.183594-.945312-19.4375-.707031-1.59375 1.480469-4.128907 1.441406-5.625-.132813-1.511719-1.570312-1.511719-4.035156.023437-5.570312.398438-.414063 10.230469-9.953125 28.617188-.75 12.933594 6.460937 19.167968.925781 19.4375.695312 1.585937-1.480468 4.113281-1.449218 5.625.136719 1.511718 1.566406 1.511718 4.039063-.023438 5.574219-.273437.28125-4.871094 4.726562-13.511718 4.726562zm0 0" fill="#844747"/><path d="m358.679688 79.566406c-8.640626 0-13.238282-4.453125-13.511719-4.726562-1.558594-1.558594-1.558594-4.097656 0-5.65625 1.558593-1.558594 4.097656-1.558594 5.65625 0 .207031.183594 6.421875 5.726562 19.382812-.75 18.378907-9.175782 28.207031.335937 28.617188.75 1.558593 1.558594 1.558593 4.097656 0 5.65625-1.535157 1.542968-4.039063 1.558594-5.609375.046875-.335938-.3125-6.566406-5.726563-19.429688.707031-5.9375 2.957031-10.976562 3.972656-15.105468 3.972656zm0 0" fill="#844747"/><path d="m472 192.015625h-448.007812l-19.992188 16h7.992188v16h472l-3.992188-16h16zm0 0" fill="#773e3e"/><path d="m43.992188 272.015625h408v176h-408zm0 0" fill="#545c66"/><path d="m16 272.007812h-12l-4-3.992187v-60h16zm0 0" fill="#965353"/><path d="m27.992188 272.015625h16v183.992187h-16zm0 0" fill="#656d78"/><path d="m451.992188 272.015625h16v183.992187h-16zm0 0" fill="#656d78"/><path d="m219.992188 440.015625v8c0 4.425781 3.574218 8 8 8 4.421874 0 8-3.574219 8-8v-8zm0 0" fill="#ffce54"/><path d="m259.992188 440.015625v8c0 4.425781 3.574218 8 8 8 4.421874 0 8-3.574219 8-8v-8zm0 0" fill="#ffce54"/><g fill="#ccd1d9"><path d="m31.992188 232.015625c2.207031 0 4-1.792969 4-4v-4h-8v4c0 2.207031 1.792968 4 4 4zm0 0"/><path d="m55.992188 232.015625c2.207031 0 4-1.792969 4-4v-4h-8v4c0 2.207031 1.792968 4 4 4zm0 0"/><path d="m79.992188 232.015625c2.207031 0 4-1.792969 4-4v-4h-8v4c0 2.207031 1.792968 4 4 4zm0 0"/><path d="m103.992188 232.015625c2.207031 0 4-1.792969 4-4v-4h-8v4c0 2.207031 1.792968 4 4 4zm0 0"/><path d="m127.992188 232.015625c2.207031 0 4-1.792969 4-4v-4h-8v4c0 2.207031 1.792968 4 4 4zm0 0"/><path d="m151.992188 232.015625c2.207031 0 4-1.792969 4-4v-4h-8v4c0 2.207031 1.792968 4 4 4zm0 0"/><path d="m175.992188 232.015625c2.207031 0 4-1.792969 4-4v-4h-8v4c0 2.207031 1.792968 4 4 4zm0 0"/><path d="m199.992188 232.015625c2.207031 0 4-1.792969 4-4v-4h-8v4c0 2.207031 1.792968 4 4 4zm0 0"/><path d="m223.992188 232.015625c2.207031 0 4-1.792969 4-4v-4h-8v4c0 2.207031 1.792968 4 4 4zm0 0"/><path d="m247.992188 232.015625c2.207031 0 4-1.792969 4-4v-4h-8v4c0 2.207031 1.792968 4 4 4zm0 0"/><path d="m271.992188 232.015625c2.207031 0 4-1.792969 4-4v-4h-8v4c0 2.207031 1.792968 4 4 4zm0 0"/><path d="m295.992188 232.015625c2.207031 0 4-1.792969 4-4v-4h-8v4c0 2.207031 1.792968 4 4 4zm0 0"/><path d="m319.992188 232.015625c2.207031 0 4-1.792969 4-4v-4h-8v4c0 2.207031 1.792968 4 4 4zm0 0"/><path d="m343.992188 232.015625c2.207031 0 4-1.792969 4-4v-4h-8v4c0 2.207031 1.792968 4 4 4zm0 0"/><path d="m367.992188 232.015625c2.207031 0 4-1.792969 4-4v-4h-8v4c0 2.207031 1.792968 4 4 4zm0 0"/><path d="m391.992188 232.015625c2.207031 0 4-1.792969 4-4v-4h-8v4c0 2.207031 1.792968 4 4 4zm0 0"/><path d="m415.992188 232.015625c2.207031 0 4-1.792969 4-4v-4h-8v4c0 2.207031 1.792968 4 4 4zm0 0"/><path d="m439.992188 232.015625c2.207031 0 4-1.792969 4-4v-4h-8v4c0 2.207031 1.792968 4 4 4zm0 0"/><path d="m463.992188 232.015625c2.207031 0 4-1.792969 4-4v-4h-8v4c0 2.207031 1.792968 4 4 4zm0 0"/></g><path d="m415.992188 412.015625c-2.207032 0-4-1.792969-4-4v-96c0-2.207031 1.792968-4 4-4 2.207031 0 4 1.792969 4 4v96c0 2.207031-1.792969 4-4 4zm0 0" fill="#434a54"/><path d="m391.992188 412.015625c-2.207032 0-4-1.792969-4-4v-96c0-2.207031 1.792968-4 4-4 2.207031 0 4 1.792969 4 4v96c0 2.207031-1.792969 4-4 4zm0 0" fill="#434a54"/><path d="m367.992188 412.015625c-2.207032 0-4-1.792969-4-4v-96c0-2.207031 1.792968-4 4-4 2.207031 0 4 1.792969 4 4v96c0 2.207031-1.792969 4-4 4zm0 0" fill="#434a54"/><path d="m343.992188 412.015625c-2.207032 0-4-1.792969-4-4v-96c0-2.207031 1.792968-4 4-4 2.207031 0 4 1.792969 4 4v96c0 2.207031-1.792969 4-4 4zm0 0" fill="#434a54"/><path d="m319.992188 412.015625c-2.207032 0-4-1.792969-4-4v-96c0-2.207031 1.792968-4 4-4 2.207031 0 4 1.792969 4 4v96c0 2.207031-1.792969 4-4 4zm0 0" fill="#434a54"/><path d="m295.992188 412.015625c-2.207032 0-4-1.792969-4-4v-96c0-2.207031 1.792968-4 4-4 2.207031 0 4 1.792969 4 4v96c0 2.207031-1.792969 4-4 4zm0 0" fill="#434a54"/><path d="m271.992188 412.015625c-2.207032 0-4-1.792969-4-4v-96c0-2.207031 1.792968-4 4-4 2.207031 0 4 1.792969 4 4v96c0 2.207031-1.792969 4-4 4zm0 0" fill="#434a54"/><path d="m247.992188 412.015625c-2.207032 0-4-1.792969-4-4v-96c0-2.207031 1.792968-4 4-4 2.207031 0 4 1.792969 4 4v96c0 2.207031-1.792969 4-4 4zm0 0" fill="#434a54"/><path d="m223.992188 412.015625c-2.207032 0-4-1.792969-4-4v-96c0-2.207031 1.792968-4 4-4 2.207031 0 4 1.792969 4 4v96c0 2.207031-1.792969 4-4 4zm0 0" fill="#434a54"/><path d="m199.992188 412.015625c-2.207032 0-4-1.792969-4-4v-96c0-2.207031 1.792968-4 4-4 2.207031 0 4 1.792969 4 4v96c0 2.207031-1.792969 4-4 4zm0 0" fill="#434a54"/><path d="m175.992188 412.015625c-2.207032 0-4-1.792969-4-4v-96c0-2.207031 1.792968-4 4-4 2.207031 0 4 1.792969 4 4v96c0 2.207031-1.792969 4-4 4zm0 0" fill="#434a54"/><path d="m151.992188 412.015625c-2.207032 0-4-1.792969-4-4v-96c0-2.207031 1.792968-4 4-4 2.207031 0 4 1.792969 4 4v96c0 2.207031-1.792969 4-4 4zm0 0" fill="#434a54"/><path d="m127.992188 412.015625c-2.207032 0-4-1.792969-4-4v-96c0-2.207031 1.792968-4 4-4 2.207031 0 4 1.792969 4 4v96c0 2.207031-1.792969 4-4 4zm0 0" fill="#434a54"/><path d="m103.992188 412.015625c-2.207032 0-4-1.792969-4-4v-96c0-2.207031 1.792968-4 4-4 2.207031 0 4 1.792969 4 4v96c0 2.207031-1.792969 4-4 4zm0 0" fill="#434a54"/><path d="m79.992188 412.015625c-2.207032 0-4-1.792969-4-4v-96c0-2.207031 1.792968-4 4-4 2.207031 0 4 1.792969 4 4v96c0 2.207031-1.792969 4-4 4zm0 0" fill="#434a54"/><path d="m36.03125 192.015625h-16.015625l-20.015625 16h16.015625zm0 0" fill="#844747"/><path d="m480.03125 272.007812h12.007812l3.992188-3.992187v-60h-16zm0 0" fill="#965353"/><path d="m460 192.015625h16.015625l20.015625 16h-16.015625zm0 0" fill="#844747"/><path d="m8 268.015625c0 2.210937-1.789062 4-4 4s-4-1.789063-4-4c0-2.207031 1.789062-4 4-4s4 1.792969 4 4zm0 0" fill="#965353"/><path d="m496.03125 268.015625c0 2.210937-1.789062 4-4 4-2.207031 0-4-1.789063-4-4 0-2.207031 1.792969-4 4-4 2.210938 0 4 1.792969 4 4zm0 0" fill="#965353"/><path d="m43.992188 456.015625c0 4.417969-3.582032 8-8 8-4.417969 0-8-3.582031-8-8s3.582031-8 8-8c4.417968 0 8 3.582031 8 8zm0 0" fill="#656d78"/><path d="m467.992188 456.015625c0 4.417969-3.582032 8-8 8-4.417969 0-8-3.582031-8-8s3.582031-8 8-8c4.417968 0 8 3.582031 8 8zm0 0" fill="#656d78"/></symbol><symbol id="romantic" viewBox="0 0 511.99 511.99"><title>romantic</title><polygon style="fill:#E6E9ED;" points="135.792,75.438 126.745,114.672 114.23,127.179 75.45,135.796 0,60.353 60.357,0.004 "/><path style="fill:#FFCE54;" d="M153.416,138.327L30.186,15.089c-4.172-4.164-10.922-4.164-15.094,0s-4.172,10.922,0,15.086 l123.23,123.237c2.094,2.086,4.812,3.125,7.547,3.125s5.469-1.039,7.546-3.125C157.588,149.249,157.588,142.491,153.416,138.327z"/><path style="fill:#ED5564;" d="M394.158,99.594c-32.607,0-62.092,13.406-83.246,34.991C289.771,113,260.288,99.594,227.68,99.594 c-64.373,0-116.543,52.179-116.543,116.543c0,133.198,199.775,249.726,199.775,249.726s199.789-116.528,199.789-249.726 C510.701,151.772,458.516,99.594,394.158,99.594z"/><g style="opacity:0.2;"> <path style="fill:#FFFFFF;" d="M394.158,99.594c-3.594,0-7.156,0.172-10.655,0.492c59.357,5.391,105.855,55.287,105.855,116.051 c0,114.527-147.714,216.743-189.103,243.133c6.734,4.312,10.656,6.593,10.656,6.593s199.79-116.528,199.79-249.726 C510.701,151.772,458.516,99.594,394.158,99.594z"/> </g><path style="fill:#FFCE54;" d="M461.531,472.19c-2.734,0-5.469-1.047-7.547-3.125l-98.777-98.762 c-4.172-4.188-4.172-10.938,0-15.094c4.172-4.172,10.922-4.172,15.094,0l98.762,98.778c4.172,4.156,4.172,10.905,0,15.077 C466.984,471.143,464.25,472.19,461.531,472.19z"/><path style="fill:#ED5564;" d="M500.686,442.442c-5.375-5.391-12.531-8.344-20.124-8.344c-7.609,0-14.766,2.953-20.141,8.344 c-3.172,3.172-5.516,6.952-6.891,11.108c-4.125,1.375-7.922,3.703-11.093,6.875c-11.094,11.093-11.094,29.155,0,40.265 c7.499,7.483,18.843,11.296,33.718,11.296l0,0c13.077,0,24.608-3,25.107-3.125l6.016-1.594l1.578-6.015 c0.109-0.391,2.547-9.781,3.047-21.141C512.623,463.284,508.857,450.613,500.686,442.442z"/></symbol></svg>