<svg xmlns="http://www.w3.org/2000/svg" width="120" height="119.048" viewBox="0 0 120 119.048"><ellipse cx="60" cy="59.524" rx="60" ry="59.524" transform="translate(0 0)" fill="#15be79"/><g transform="translate(36.565 18.611)"><g transform="translate(0 11.387)"><path d="M173.2,133.955v-7.743c-2.08.176-6.342.215-8.36.462-7.089.748-7.745,9.052-7.262,14.694,1.109,9.471,12.852,10.607,20.439,10.319l-.124-3.992c-4.578-.274-9.828-.789-13.395-3.855-2.064-1.928-1.48-5.036-1.2-7.473l.007-.027a3.562,3.562,0,0,1,3.592-2.623Z" transform="translate(-157.452 -126.212)" fill="#ea792e"/><path d="M386.736,141.372c-1.108,9.47-12.853,10.607-20.438,10.318l.124-3.992c4.578-.273,9.827-.789,13.395-3.853,2.063-1.929,1.48-5.035,1.2-7.474a.1.1,0,0,1-.008-.027,3.564,3.564,0,0,0-3.591-2.624l-6.3.239v-7.742c.852.071,2.07.12,3.348.17,1.847.071,3.82.145,5.012.292,4.214.445,6.154,3.56,6.932,7.2A26.246,26.246,0,0,1,386.736,141.372Z" transform="translate(-317.675 -126.216)" fill="#f39e22"/><path d="M413.311,134.434a10.246,10.246,0,0,1-11.944-7.489c1.847.071,3.82.145,5.012.292C410.593,127.682,412.532,130.8,413.311,134.434Z" transform="translate(-344.58 -126.774)" fill="#f9c744"/><path d="M159.4,134.434a10.246,10.246,0,0,0,11.944-7.489c-1.847.071-3.82.145-5.012.292C162.123,127.682,160.184,130.8,159.4,134.434Z" transform="translate(-158.95 -126.774)" fill="#f39e22"/></g><g transform="translate(16.87 44.294)"><g transform="translate(8.508)"><path d="M284.886,267.552v4.615a3.7,3.7,0,0,1-3.7,3.7H270.16a3.7,3.7,0,0,1-3.7-3.7v-4.615Z" transform="translate(-266.458 -267.552)" fill="#ea792e"/><path d="M315.248,267.552v4.615a3.7,3.7,0,0,1-3.7,3.7h-5.511v-8.318Z" transform="translate(-296.82 -267.552)" fill="#f39e22"/></g><g transform="translate(13.01 8.318)"><path d="M285.795,303.278h9.424v10.4h-9.424Z" transform="translate(-285.795 -303.278)" fill="#f39e22"/><path d="M306.033,303.278h4.712v10.4h-4.712Z" transform="translate(-301.321 -303.278)" fill="#f9c744"/></g><g transform="translate(0 18.713)"><g transform="translate(2.197)"><path d="M270.4,354.509V366.4H239.35V354.509a6.58,6.58,0,0,1,6.58-6.58h17.89A6.58,6.58,0,0,1,270.4,354.509Z" transform="translate(-239.35 -347.929)" fill="#18d3af"/><path d="M321.558,354.51V366.4H306.033V347.93h8.945A6.579,6.579,0,0,1,321.558,354.51Z" transform="translate(-290.508 -347.93)" fill="#5de8ce"/></g><g transform="translate(0 15.369)"><path d="M265.357,415.655v2.782a1.712,1.712,0,0,1-1.712,1.712h-32.02a1.712,1.712,0,0,1-1.712-1.712v-2.782a1.712,1.712,0,0,1,1.712-1.712h32.02A1.712,1.712,0,0,1,265.357,415.655Z" transform="translate(-229.913 -413.943)" fill="#f39e22"/><path d="M323.755,415.655v2.782a1.712,1.712,0,0,1-1.712,1.712h-16.01v-6.2h16.01A1.712,1.712,0,0,1,323.755,415.655Z" transform="translate(-288.311 -413.943)" fill="#f9c744"/></g><g transform="translate(4.197 6.807)"><path d="M353.447,377.168h-1.213a.88.88,0,0,0-.881.88v1.213a.88.88,0,0,0,.881.88h1.213a.88.88,0,0,0,.881-.88v-1.213A.88.88,0,0,0,353.447,377.168Z" transform="translate(-327.277 -377.168)" fill="#fff"/><path d="M250.032,377.168H248.82a.88.88,0,0,0-.881.88v1.213a.88.88,0,0,0,.881.88h1.213a.88.88,0,0,0,.881-.88v-1.213A.88.88,0,0,0,250.032,377.168Z" transform="translate(-247.939 -377.168)" fill="#cde6f6"/></g><g transform="translate(9.534 4.292)"><path d="M285.561,366.365H272.545a1.68,1.68,0,0,0-1.68,1.68v4.645a1.68,1.68,0,0,0,1.68,1.68h13.016a1.68,1.68,0,0,0,1.68-1.68v-4.645A1.68,1.68,0,0,0,285.561,366.365Z" transform="translate(-270.865 -366.365)" fill="#cde6f6"/><path d="M312.541,374.369h-6.508v-8h6.508a1.68,1.68,0,0,1,1.68,1.68v4.645A1.68,1.68,0,0,1,312.541,374.369Z" transform="translate(-297.845 -366.365)" fill="#fff"/></g></g></g><g transform="translate(13.144)"><g transform="translate(2.601 3.755)"><path d="M262.774,96.455V119.97a15.741,15.741,0,0,1-15.741,15.741H240.82a15.742,15.742,0,0,1-15.741-15.741V96.455a3.024,3.024,0,0,1,3.025-3.026h31.646A3.024,3.024,0,0,1,262.774,96.455Z" transform="translate(-225.079 -93.429)" fill="#f39e22"/><path d="M262.774,96.455V113.63a15.741,15.741,0,0,1-15.741,15.741H240.82a15.742,15.742,0,0,1-15.741-15.741V96.455a3.024,3.024,0,0,1,3.025-3.026h31.646A3.024,3.024,0,0,1,262.774,96.455Z" transform="translate(-225.079 -93.429)" fill="#f9c744"/><path d="M324.88,96.455V119.97a15.741,15.741,0,0,1-15.741,15.741h-3.106V93.429h15.823A3.024,3.024,0,0,1,324.88,96.455Z" transform="translate(-287.186 -93.429)" fill="#f9c744"/><path d="M324.88,96.455V113.63a15.741,15.741,0,0,1-15.741,15.741h-3.106V93.429h15.823A3.024,3.024,0,0,1,324.88,96.455Z" transform="translate(-287.186 -93.429)" fill="#fad98f"/><path d="M348.764,138.792a3.155,3.155,0,0,1-3.155-3.155V122.908a3.155,3.155,0,1,1,6.31,0v12.729A3.155,3.155,0,0,1,348.764,138.792Z" transform="translate(-317.548 -113.624)" fill="#faefdc"/></g><path d="M256.8,79.373v3.367a2.072,2.072,0,0,1-2.071,2.072H215.981a2.072,2.072,0,0,1-2.072-2.072V79.373a2.072,2.072,0,0,1,2.072-2.072h38.753A2.072,2.072,0,0,1,256.8,79.373Z" transform="translate(-213.909 -77.301)" fill="#f39e22"/><path d="M327.48,79.373v3.367a2.072,2.072,0,0,1-2.072,2.072H306.032V77.3h19.376A2.072,2.072,0,0,1,327.48,79.373Z" transform="translate(-284.584 -77.301)" fill="#f9c744"/><path d="M328.4,81.6H315.578a2.15,2.15,0,1,1,0-4.3H328.4a2.15,2.15,0,1,1,0,4.3Z" transform="translate(-290.258 -77.3)" fill="#fad98f"/></g></g><g transform="translate(11.81 31.03)"><path d="M437.3,231.1H434.84a3.1,3.1,0,0,1-3.1-3.1v-2.461a1.346,1.346,0,1,0-2.692,0V228a3.1,3.1,0,0,1-3.1,3.1h-2.461a1.346,1.346,0,0,0,0,2.692h2.461a3.1,3.1,0,0,1,3.1,3.1v2.461a1.346,1.346,0,1,0,2.692,0V236.9a3.1,3.1,0,0,1,3.1-3.1H437.3a1.346,1.346,0,0,0,0-2.692Z" transform="translate(-335.763 -202.417)" fill="#fff"/><path d="M66.278,137.549H63.817a3.1,3.1,0,0,1-3.1-3.1v-2.461a1.346,1.346,0,1,0-2.692,0v2.461a3.1,3.1,0,0,1-3.1,3.1H52.466a1.346,1.346,0,0,0,0,2.692h2.461a3.1,3.1,0,0,1,3.1,3.1V145.8a1.346,1.346,0,0,0,2.692,0V143.34a3.1,3.1,0,0,1,3.1-3.1h2.461a1.346,1.346,0,0,0,0-2.692Z" transform="translate(-51.12 -130.643)" fill="#c3ead0"/><path d="M393.8,305.057h-1.892a2.382,2.382,0,0,1-2.382-2.382v-1.892a1.035,1.035,0,0,0-2.069,0v1.892a2.382,2.382,0,0,1-2.382,2.382h-1.892a1.035,1.035,0,0,0,0,2.069h1.892a2.382,2.382,0,0,1,2.382,2.383V311.4a1.035,1.035,0,0,0,2.069,0v-1.892a2.382,2.382,0,0,1,2.382-2.383H393.8a1.035,1.035,0,0,0,0-2.069Z" transform="translate(-305.083 -260.378)" fill="#c3ead0"/></g><g transform="translate(7.718 54.03)"><path d="M66.543,271.046l-5.532-9.952a7.8,7.8,0,0,0-2.917-2.964l-5.5-3.176a7.8,7.8,0,0,0-4.026-1.045l-11.384.185a3.571,3.571,0,0,1-2.933-5.688l1.924-2.612,8.031-10.9a13.422,13.422,0,0,1,17.517-3.662l12.35,7.13a13.422,13.422,0,0,1,5.586,17l-5.425,12.407-1.3,2.971A3.57,3.57,0,0,1,66.543,271.046Z" transform="translate(-33.547 -229.433)" fill="#334353"/><path d="M138.364,288.723l-5.532-9.952a7.8,7.8,0,0,0-2.917-2.964l-2.751-1.588,12.554-21.744,6.176,3.565a13.422,13.422,0,0,1,5.586,17l-5.425,12.407-1.3,2.971A3.57,3.57,0,0,1,138.364,288.723Z" transform="translate(-105.369 -247.111)" fill="#3e4e60"/><g transform="translate(2.621)"><path d="M82.872,267.771a3.576,3.576,0,0,1-5.069-1.266l-5.122-9.212a10.851,10.851,0,0,0-4.061-4.127l-4.035-2.329a10.852,10.852,0,0,0-5.6-1.453l-10.537.17a3.576,3.576,0,0,1-3.631-3.759l8.031-10.9a13.422,13.422,0,0,1,17.517-3.662l12.35,7.13a13.422,13.422,0,0,1,5.586,17Z" transform="translate(-44.807 -229.433)" fill="#3e4e60"/><path d="M154.693,285.448a3.576,3.576,0,0,1-5.069-1.266l-5.122-9.212a10.851,10.851,0,0,0-4.061-4.127l-2.017-1.165,9.933-17.2,6.176,3.566a13.422,13.422,0,0,1,5.586,17Z" transform="translate(-116.628 -247.111)" fill="#3f5d77"/></g><g transform="translate(13.977 4.652)"><path d="M104.3,256.777l-.687,1.19a1.145,1.145,0,0,1-1.565.419l-1.366-.789a1.145,1.145,0,0,0-1.565.418l-.979,1.7a1.145,1.145,0,0,1-1.563.419l-1.191-.687a1.145,1.145,0,0,1-.419-1.563l.979-1.7a1.145,1.145,0,0,0-.42-1.564l-1.366-.789a1.145,1.145,0,0,1-.419-1.565l.687-1.19a.353.353,0,0,1,.019-.03,1.144,1.144,0,0,1,1.546-.389l1.366.789a1.145,1.145,0,0,0,1.565-.418l.6-1.038a1.145,1.145,0,0,1,1.563-.419l1.191.687a1.145,1.145,0,0,1,.419,1.563l-.6,1.038a1.145,1.145,0,0,0,.42,1.564l1.366.789a1.144,1.144,0,0,1,.436,1.534A.3.3,0,0,1,104.3,256.777Z" transform="translate(-93.58 -249.416)" fill="#2d2c33"/><path d="M106.693,256.746a1.144,1.144,0,0,1-1.546.388l-1.366-.789a1.146,1.146,0,0,0-1.565.419l-.979,1.7a1.145,1.145,0,0,1-1.564.42l-1.191-.688a1.145,1.145,0,0,1-.418-1.564l.979-1.7a1.146,1.146,0,0,0-.419-1.565l-1.366-.789a1.11,1.11,0,1,1,1.11-1.922l1.366.789a1.145,1.145,0,0,0,1.565-.418l.6-1.038a1.145,1.145,0,0,1,1.563-.419l1.191.687a1.145,1.145,0,0,1,.419,1.563l-.6,1.038a1.145,1.145,0,0,0,.42,1.564l1.366.789A1.144,1.144,0,0,1,106.693,256.746Z" transform="translate(-95.962 -249.416)" fill="#334353"/><path d="M114.353,262.986l-1.852-1.069.7-1.215a.584.584,0,0,0-1.011-.584l-.7,1.215-1.852-1.069a.584.584,0,0,0-.584,1.011l1.852,1.069-.877,1.519a.584.584,0,0,0,1.011.584l.877-1.519L113.769,264a.584.584,0,1,0,.584-1.011Z" transform="translate(-105.228 -257.402)" fill="#3f5d77"/></g><g transform="translate(31.509 14.392)"><g transform="translate(6.334)"><path d="M200.1,294.472a2.148,2.148,0,1,1-3.72-2.148,2.085,2.085,0,0,1,.326-.428,2.147,2.147,0,0,1,3.6,2.079A2.1,2.1,0,0,1,200.1,294.472Z" transform="translate(-196.092 -291.251)" fill="#53b976"/><path d="M202.071,293.976a2.147,2.147,0,1,1-.995-2.436A2.147,2.147,0,0,1,202.071,293.976Z" transform="translate(-197.855 -291.252)" fill="#78c795"/></g><g transform="translate(1.538 8.307)"><path d="M179.5,330.152A2.148,2.148,0,0,1,175.78,328a2.082,2.082,0,0,1,.326-.428,2.147,2.147,0,0,1,3.6,2.08A2.1,2.1,0,0,1,179.5,330.152Z" transform="translate(-175.492 -326.931)" fill="#7d73ff"/><path d="M181.471,329.656a2.147,2.147,0,1,1-.995-2.436A2.147,2.147,0,0,1,181.471,329.656Z" transform="translate(-177.255 -326.932)" fill="#b5b3ff"/></g><g transform="translate(0 1.378)"><g transform="translate(8.307 4.796)"><path d="M208.574,320.992a2.148,2.148,0,1,1-3.72-2.148,2.088,2.088,0,0,1,.326-.428,2.147,2.147,0,0,1,3.394,2.576Z" transform="translate(-204.567 -317.771)" fill="#e9465e"/><path d="M210.544,320.5a2.147,2.147,0,1,1-.995-2.436A2.147,2.147,0,0,1,210.544,320.5Z" transform="translate(-206.328 -317.772)" fill="#ee6781"/></g><path d="M172.892,300.391a2.148,2.148,0,1,1-3.72-2.148,2.085,2.085,0,0,1,.326-.428,2.147,2.147,0,0,1,3.6,2.08A2.094,2.094,0,0,1,172.892,300.391Z" transform="translate(-168.885 -297.17)" fill="#ea7589"/><path d="M174.862,299.9a2.147,2.147,0,1,1-.995-2.436A2.147,2.147,0,0,1,174.862,299.9Z" transform="translate(-170.646 -297.171)" fill="#ff9fb4"/></g></g><g transform="translate(26.392 4.488)"><path d="M158.581,256.313a2.04,2.04,0,0,1-2.786.745l-7.869-4.543a2.04,2.04,0,1,1,2.039-3.533l7.869,4.543a2.04,2.04,0,0,1,.747,2.787Z" transform="translate(-146.906 -248.709)" fill="#334353"/><path d="M174.91,264.7a2.04,2.04,0,0,1-2.786.745l-3.934-2.272,2.039-3.533,3.934,2.272a2.04,2.04,0,0,1,.747,2.787Z" transform="translate(-163.234 -257.096)" fill="#3e4e60"/></g></g></svg>