<svg id="Livello_2" data-name="Livello 2" xmlns="http://www.w3.org/2000/svg" viewBox="0 0 639 252"><defs><style>.cls-1{fill:#f183a8;}.cls-2{fill:#e40551;}.cls-3{fill:#00ccbc;}.cls-4{fill:#80e6de;}.cls-5{fill:#b5adad;}</style></defs><title>omme-logo</title><polygon class="cls-1" points="207 63 207 117 189 117 189 45 207 63"/><polygon class="cls-2" points="315 45 315 162 297 162 297 63 315 45"/><polygon class="cls-2" points="252 81 252 108 189 45 189 18 252 81"/><polygon class="cls-1" points="315 18 315 45 252 108 252 81 315 18"/><polygon class="cls-3" points="450 63 450 117 468 117 468 45 450 63"/><polygon class="cls-4" points="342 45 342 162 360 162 360 63 342 45"/><polygon class="cls-4" points="405 81 405 108 468 45 468 18 405 81"/><polygon class="cls-3" points="342 18 342 45 405 108 405 81 342 18"/><rect class="cls-1" x="495" y="18" width="99" height="18"/><rect class="cls-2" x="495" y="81" width="99" height="18"/><rect class="cls-1" x="495" y="144" width="99" height="18"/><path class="cls-3" d="M140.91,140.91a72,72,0,0,1-101.82,0l12.73-12.73a54,54,0,0,0,76.36-76.36l12.73-12.73A72,72,0,0,1,140.91,140.91Z"/><path class="cls-4" d="M128.18,51.82l12.73-12.73A72,72,0,0,0,39.09,140.91l12.73-12.73a54,54,0,0,1,76.36-76.36Z"/><path class="cls-5" d="M53.17,219.25,67,189.82h6.94l5.31,43.52H71.17l-3.35-29L56.45,228.41H50L38.58,204.35l-3.41,29H27.08l5.37-43.52h6.82Z"/><path class="cls-5" d="M201.75,189.82h8.08V218A15,15,0,0,1,205,229.55,16.47,16.47,0,0,1,193.35,234a16.68,16.68,0,0,1-11.75-4.42A15,15,0,0,1,176.8,218V189.82H185V218a7.89,7.89,0,0,0,2.47,6,8.53,8.53,0,0,0,11.74,0,7.73,7.73,0,0,0,2.53-6Z"/><path class="cls-5" d="M326.09,220.64c.19,3.35,3,6.13,7.52,6.13,4.23,0,7-2.21,7.2-5.24.19-2.84-1.77-4.74-6-5.94l-5.37-1.39q-11-3.22-11-12.12a11.33,11.33,0,0,1,4.23-9.16,15.63,15.63,0,0,1,10.42-3.6,15,15,0,0,1,10.36,3.6,12,12,0,0,1,4.11,9.54h-8.09c0-3.48-2.46-5.69-6.5-5.69-3.73,0-6.51,2.08-6.51,5.12,0,2.4,1.71,4,5.18,5l5.37,1.58c9,2.46,12.31,7.45,11.87,13.26a11.38,11.38,0,0,1-4.67,9A17,17,0,0,1,333.61,234c-4.61,0-8.34-1.26-11.24-3.85a12.25,12.25,0,0,1-4.36-9.54Z"/><path class="cls-5" d="M469.61,233.34V189.82h8v43.52Z"/><path class="cls-5" d="M620.57,225.13A21.26,21.26,0,0,1,602.89,234a20.92,20.92,0,0,1-15.6-6.51,23,23,0,0,1,0-31.64,21,21,0,0,1,15.6-6.5,21.38,21.38,0,0,1,17.5,8.59l-6.45,4.61A13.28,13.28,0,0,0,602.89,197a13,13,0,0,0-9.85,4.29,15.64,15.64,0,0,0,0,20.85,12.91,12.91,0,0,0,9.85,4.23,14,14,0,0,0,11.31-5.88Z"/><path class="cls-5" d="M611,152.19a4.44,4.44,0,0,0-1.27,3.17,4.52,4.52,0,0,0,1.45,3.38,5.14,5.14,0,0,0,7,0,4.52,4.52,0,0,0,1.45-3.38,4.37,4.37,0,0,0-.9-2.82,3.19,3.19,0,0,0-2.4-1.23v3.78h-1.78v-6.16c4.67,0,7,2.44,7,6.43a6.56,6.56,0,0,1-2,4.85,7,7,0,0,1-9.77,0,6.52,6.52,0,0,1-2-4.85,6.36,6.36,0,0,1,1.89-4.69Z"/><path class="cls-5" d="M621.41,117.61v2.52l-4.95,3.37v1.44h4.95V127H607.94v-5.25a3.73,3.73,0,0,1,1.25-3.07,4.92,4.92,0,0,1,5.83-.16,3.55,3.55,0,0,1,1.36,2.6Zm-11.55,7.33h4.71v-3c.13-2.81-4.83-2.77-4.71-.08Z"/><path class="cls-5" d="M609.8,94.19a6.82,6.82,0,0,1,0-9.67,7,7,0,0,1,9.79,0,6.82,6.82,0,0,1,0,9.67,7,7,0,0,1-9.79,0Zm4.9-.09a4.79,4.79,0,0,0,3.46-1.37,4.71,4.71,0,0,0,0-6.72,5,5,0,0,0-6.92,0,4.69,4.69,0,0,0,0,6.72A4.82,4.82,0,0,0,614.7,94.1Z"/><path class="cls-5" d="M607.94,52.54V50.45h8.8a4.62,4.62,0,0,1,3.51,1.46,5,5,0,0,1,1.35,3.52A5.08,5.08,0,0,1,620.25,59a4.64,4.64,0,0,1-3.51,1.45h-8.8V58.32h8.8a2.7,2.7,0,0,0,2.07-.84,2.89,2.89,0,0,0,.8-2,2.86,2.86,0,0,0-.8-2,2.72,2.72,0,0,0-2.07-.86Z"/><path class="cls-5" d="M621.41,27.52H607.94V22.1A3.72,3.72,0,0,1,609.19,19a4.61,4.61,0,0,1,3-1,4.51,4.51,0,0,1,3,1,3.75,3.75,0,0,1,1.23,3.06v3.33h4.95Zm-11.55-2.09h4.71V22.22c.13-2.87-4.83-2.81-4.71-.08Z"/></svg>